<svg width="72" height="72" fill="none" xmlns="http://www.w3.org/2000/svg"><path d="M69.188 0H2.811A2.812 2.812 0 0 0 0 2.813v66.374A2.812 2.812 0 0 0 2.813 72h66.374A2.812 2.812 0 0 0 72 69.187V2.814A2.812 2.812 0 0 0 69.187 0Zm-2.813 5.625v16.5H5.625v-16.5h60.75Zm-60.75 60.75V27.75h60.75v38.625H5.625Zm4.735-52.5a3.515 3.515 0 1 1 7.03 0 3.515 3.515 0 0 1-7.03 0Zm11.062 0a3.516 3.516 0 1 1 7.03 0 3.516 3.516 0 0 1-7.03 0Zm3.515 19.313H13.875A2.812 2.812 0 0 0 11.063 36v22.125a2.812 2.812 0 1 0 5.625 0v-8.25h5.437v8.25a2.812 2.812 0 1 0 5.625 0V36a2.813 2.813 0 0 0-2.813-2.813Zm-8.25 11.062v-5.438h5.438v5.438h-5.437Zm30.376-11.063H36A2.812 2.812 0 0 0 33.187 36v22.125a2.812 2.812 0 1 0 5.626 0v-8.25h8.25a2.812 2.812 0 0 0 2.812-2.812V36a2.813 2.813 0 0 0-2.812-2.813ZM44.25 44.25h-5.438v-5.438h5.438v5.438ZM60.937 36v22.125a2.812 2.812 0 1 1-5.625 0V36a2.812 2.812 0 1 1 5.625 0Z" fill="#fff"/></svg>