<svg width="72" height="72" fill="none" xmlns="http://www.w3.org/2000/svg"><g clip-path="url(#a)"><path d="M70.633 5.744a2.814 2.814 0 0 0-2.772-.068l-16.919 9.05-13.383-8.91a2.814 2.814 0 0 0-3.118 0l-13.382 8.91-16.92-9.05A2.814 2.814 0 0 0 0 8.156v55.688a2.812 2.812 0 0 0 2.813 2.812h66.374A2.812 2.812 0 0 0 72 63.844V8.156c0-.989-.52-1.904-1.367-2.412ZM66.375 61.03H5.625V12.85l14.265 7.63a2.813 2.813 0 0 0 2.885-.14L36 11.535l13.225 8.806a2.813 2.813 0 0 0 2.885.14l14.265-7.63v48.18ZM42.891 26.216c-2.964 0-5.265 1.187-6.891 2.609-1.626-1.422-3.927-2.609-6.89-2.609-5.442 0-9.704 4.512-9.704 10.273 0 8.07 8.121 13.971 15.377 17.455.77.37 1.665.37 2.434 0 7.25-3.482 15.377-9.384 15.377-17.455 0-5.76-4.262-10.273-9.703-10.273ZM36 48.27c-9.87-5.065-10.969-9.891-10.969-11.78 0-3.019 2.101-4.648 4.078-4.648 2.87 0 4.234 2.432 4.364 2.675.453.987 1.42 1.595 2.507 1.608h.033c1.079 0 2.05-.648 2.52-1.621.013-.027 1.368-2.662 4.358-2.662 1.977 0 4.078 1.629 4.078 4.648 0 1.889-1.1 6.715-10.969 11.78Z" fill="#fff"/></g><defs><clipPath id="a"><path fill="#fff" d="M0 0h72v72H0z"/></clipPath></defs></svg>