<svg width="72" height="72" fill="none" xmlns="http://www.w3.org/2000/svg"><path d="M36 5.625c-19.896 0-36 16.101-36 36a35.96 35.96 0 0 0 8.99 23.797 2.812 2.812 0 0 0 2.11.953h49.8c.808 0 1.576-.347 2.11-.953A35.96 35.96 0 0 0 72 41.626c0-19.896-16.101-36-36-36ZM59.597 60.75H12.403a30.328 30.328 0 0 1-6.646-16.313h2.68a2.812 2.812 0 1 0 0-5.624H5.755a30.086 30.086 0 0 1 6.87-16.586l1.897 1.897a2.812 2.812 0 1 0 3.977-3.977l-1.897-1.897a30.085 30.085 0 0 1 16.585-6.87v2.682a2.813 2.813 0 0 0 5.626 0V11.38c14.535 1.325 26.107 12.9 27.433 27.432h-2.683a2.813 2.813 0 0 0 0 5.626h2.68a30.33 30.33 0 0 1-6.646 16.312Zm-10.08-36.619-9.882 9.881A8.386 8.386 0 0 0 36 33.187c-4.652 0-8.438 3.786-8.438 8.438 0 4.652 3.786 8.438 8.438 8.438 4.652 0 8.438-3.786 8.438-8.438 0-1.3-.297-2.534-.825-3.635l9.88-9.881a2.813 2.813 0 0 0-3.977-3.978ZM36 44.437a2.816 2.816 0 0 1-2.813-2.812A2.816 2.816 0 0 1 36 38.812a2.816 2.816 0 0 1 2.813 2.813A2.816 2.816 0 0 1 36 44.438Z" fill="#fff"/></svg>