<svg width="72" height="72" fill="none" xmlns="http://www.w3.org/2000/svg"><path d="M38.813 26.64V2.812a2.812 2.812 0 1 0-5.626 0V26.64c-4.026 1.21-6.968 4.947-6.968 9.36 0 4.413 2.943 8.15 6.968 9.36v23.828a2.812 2.812 0 1 0 5.626 0V45.36c4.026-1.21 6.968-4.947 6.968-9.36 0-4.413-2.942-8.15-6.968-9.36ZM36 40.148A4.157 4.157 0 0 1 31.844 36 4.157 4.157 0 0 1 36 31.852 4.157 4.157 0 0 1 40.156 36 4.157 4.157 0 0 1 36 40.148ZM12.593 52.867V2.813a2.812 2.812 0 1 0-5.625 0v50.054C2.942 54.077 0 57.815 0 62.227 0 67.615 4.387 72 9.78 72c5.394 0 9.781-4.385 9.781-9.773 0-4.412-2.941-8.15-6.968-9.36ZM9.781 66.375a4.157 4.157 0 0 1-4.156-4.148 4.157 4.157 0 0 1 8.311 0 4.157 4.157 0 0 1-4.155 4.148ZM62.219 0c-5.393 0-9.78 4.385-9.78 9.773 0 4.412 2.941 8.15 6.968 9.36v50.054a2.812 2.812 0 1 0 5.625 0V19.133C69.058 17.923 72 14.186 72 9.773 72 4.385 67.613 0 62.22 0Zm0 13.922a4.157 4.157 0 0 1-4.155-4.149 4.157 4.157 0 0 1 8.311 0 4.157 4.157 0 0 1-4.156 4.149Z" fill="#fff"/></svg>