<svg width="72" height="72" fill="none" xmlns="http://www.w3.org/2000/svg"><path d="M60.75 0h-49.5C5.047 0 0 5.047 0 11.25v49.675C0 67.032 4.968 72 11.075 72h49.85C67.032 72 72 67.032 72 60.925V11.25C72 5.047 66.953 0 60.75 0Zm5.625 60.75a5.631 5.631 0 0 1-5.625 5.625h-49.5a5.631 5.631 0 0 1-5.625-5.625v-.223l18.155-26.94 14.906 22.12a2.813 2.813 0 0 0 4.664 0l9.888-14.674 13.137 19.494v.223Zm0-10.289L55.571 34.428a2.813 2.813 0 0 0-4.665 0l-9.888 14.674-14.906-22.12a2.813 2.813 0 0 0-4.664 0L5.625 50.462V11.25a5.631 5.631 0 0 1 5.625-5.625h49.5a5.631 5.631 0 0 1 5.625 5.625v39.211Z" fill="#fff"/></svg>