<svg width="72" height="72" fill="none" xmlns="http://www.w3.org/2000/svg"><path d="M36 27.563a2.816 2.816 0 0 1 2.813 2.812 2.813 2.813 0 0 0 5.624 0c0-3.666-2.351-6.793-5.624-7.954v-3.296a2.813 2.813 0 0 0-5.626 0v3.296c-3.273 1.161-5.624 4.288-5.624 7.954 0 4.652 3.785 8.438 8.437 8.438a2.816 2.816 0 0 1 2.813 2.812A2.816 2.816 0 0 1 36 44.438a2.816 2.816 0 0 1-2.813-2.813 2.813 2.813 0 0 0-5.624 0c0 3.666 2.351 6.793 5.625 7.954v3.296a2.813 2.813 0 0 0 5.624 0v-3.296c3.274-1.161 5.626-4.288 5.626-7.954 0-4.652-3.786-8.438-8.438-8.438a2.816 2.816 0 0 1-2.813-2.812A2.816 2.816 0 0 1 36 27.562Z" fill="#fff"/><path d="M69.188 33.188h-2.38C65.466 18.367 53.632 6.534 38.812 5.192v-2.38a2.812 2.812 0 1 0-5.624 0v2.38C18.367 6.534 6.534 18.368 5.192 33.187h-2.38a2.812 2.812 0 1 0 0 5.626h2.38c1.342 14.819 13.176 26.653 27.995 27.995v2.38a2.813 2.813 0 0 0 5.626 0v-2.38c14.819-1.342 26.653-13.176 27.995-27.996h2.38a2.813 2.813 0 0 0 0-5.624ZM36 61.311c-13.957 0-25.313-11.355-25.313-25.312S22.044 10.687 36 10.687c13.957 0 25.313 11.356 25.313 25.313 0 13.957-11.356 25.313-25.313 25.313Z" fill="#fff"/></svg>