<svg width="72" height="72" fill="none" xmlns="http://www.w3.org/2000/svg"><path d="M19.125 29.813a2.816 2.816 0 0 1 2.813 2.812 2.813 2.813 0 0 0 5.625 0c0-3.666-2.352-6.793-5.625-7.954v-3.296a2.813 2.813 0 0 0-5.625 0v3.296c-3.274 1.161-5.625 4.288-5.625 7.954 0 4.652 3.785 8.438 8.437 8.438a2.816 2.816 0 0 1 2.813 2.812 2.816 2.816 0 0 1-2.813 2.813 2.816 2.816 0 0 1-2.813-2.813 2.813 2.813 0 0 0-5.625 0c0 3.666 2.352 6.793 5.626 7.954v3.296a2.813 2.813 0 0 0 5.625 0v-3.296c3.273-1.161 5.625-4.288 5.625-7.954 0-4.652-3.786-8.438-8.438-8.438a2.816 2.816 0 0 1-2.813-2.812 2.816 2.816 0 0 1 2.813-2.813Z" fill="#fff"/><path d="m71.176 50.324-5.625-5.625a2.813 2.813 0 0 0-3.977 0l-.824.823V8.438c0-.815-.353-1.589-.967-2.123L53.314.69a2.813 2.813 0 0 0-3.602-.074l-5.275 4.22-5.274-4.22a2.812 2.812 0 0 0-3.514 0l-5.274 4.22-5.274-4.22a2.812 2.812 0 0 0-3.514 0l-5.274 4.22-5.275-4.22A2.812 2.812 0 0 0 7.436.69L.967 6.315A2.812 2.812 0 0 0 0 8.437v49.5C0 65.692 6.308 72 14.063 72h49.5C68.215 72 72 68.215 72 63.562v-11.25c0-.745-.296-1.46-.824-1.988ZM5.625 57.938V9.718l3.731-3.245 5.2 4.16a2.812 2.812 0 0 0 3.513 0l5.275-4.22 5.274 4.22a2.812 2.812 0 0 0 3.514 0l5.274-4.22 5.275 4.22a2.812 2.812 0 0 0 3.514 0l5.199-4.16 3.731 3.245v53.843a8.4 8.4 0 0 0 .484 2.813H14.062c-4.652 0-8.437-3.785-8.437-8.438Zm60.75 5.624a2.816 2.816 0 0 1-2.813 2.813 2.816 2.816 0 0 1-2.812-2.813V53.477l2.813-2.812 2.812 2.812v10.086Z" fill="#fff"/><path d="M47.25 27H36a2.813 2.813 0 0 0 0 5.625h11.25a2.813 2.813 0 0 0 0-5.625Zm0 11.25H36a2.813 2.813 0 0 0 0 5.625h11.25a2.813 2.813 0 0 0 0-5.625Zm0 11.25H36a2.813 2.813 0 0 0 0 5.625h11.25a2.813 2.813 0 0 0 0-5.625Z" fill="#fff"/></svg>