<svg width="72" height="72" fill="none" xmlns="http://www.w3.org/2000/svg"><path d="M32.401 41.36H19.687c-7.754 0-14.062-6.308-14.062-14.062s6.308-14.062 14.063-14.062h21.937c7.754 0 14.063 6.308 14.063 14.062 0 .9-.086 1.8-.254 2.676a2.812 2.812 0 1 0 5.523 1.062c.236-1.225.355-2.482.355-3.738 0-10.856-8.831-19.688-19.687-19.688H19.687C8.832 7.61 0 16.442 0 27.298c0 10.856 8.832 19.687 19.688 19.687H32.4a2.812 2.812 0 1 0 0-5.624Z" fill="#fff"/><path d="M71.023 59.447 59.924 49.88l7.407-3.094a2.812 2.812 0 0 0-.394-5.322l-24.387-6.17a2.813 2.813 0 0 0-3.286 3.81l9.696 23.212a2.812 2.812 0 0 0 5.322-.394l1.969-7.782 11.1 9.568a2.812 2.812 0 1 0 3.672-4.26ZM50.9 52.361l-4.276-10.235 10.754 2.72-3.82 1.597a2.819 2.819 0 0 0-1.643 1.905l-1.016 4.014Z" fill="#fff"/></svg>