<svg width="72" height="72" fill="none" xmlns="http://www.w3.org/2000/svg"><g clip-path="url(#a)"><path d="M71.999 32.48c0-5.586-2.978-10.49-7.43-13.209a11.21 11.21 0 0 0 3.231-7.88C67.8 5.19 62.755.143 56.553.143c-2.715 0-5.208.967-7.153 2.574-8.536-3.43-18.216-3.437-26.76-.01A11.197 11.197 0 0 0 15.499.143C9.297.143 4.251 5.19 4.251 11.391c0 3.06 1.23 5.835 3.218 7.865C3.003 21.97.014 26.883.014 32.48c.201 2.015-1.397 12.713 6.234 23.906A35.98 35.98 0 0 0 20.54 68.645v.672a2.812 2.812 0 0 0 2.812 2.812H48.66a2.812 2.812 0 0 0 2.812-2.812v-.672c12.676-6.031 21.212-19.25 20.484-34.282.073-.429.03-.558.043-1.882Zm-15.465-9.84c4.949 0 9.057 3.672 9.741 8.435H46.792c.684-4.763 4.792-8.435 9.741-8.435Zm5.643-11.248a5.63 5.63 0 0 1-5.624 5.624 5.63 5.63 0 0 1-5.624-5.624 5.63 5.63 0 0 1 5.624-5.624 5.63 5.63 0 0 1 5.624 5.624ZM15.499 5.767a5.63 5.63 0 0 1 5.624 5.624 5.63 5.63 0 0 1-5.624 5.624 5.63 5.63 0 0 1-5.624-5.624A5.63 5.63 0 0 1 15.5 5.767Zm-.02 16.872c4.95 0 9.058 3.672 9.742 8.435H5.738c.685-4.763 4.792-8.435 9.742-8.435Zm10.786 43.866c.684-4.763 4.792-8.436 9.742-8.436 4.949 0 9.057 3.673 9.741 8.436H26.265Zm9.76-14.06a5.63 5.63 0 0 1-5.623-5.624 5.63 5.63 0 0 1 5.624-5.624 5.63 5.63 0 0 1 5.624 5.624 5.63 5.63 0 0 1-5.624 5.624ZM50.598 62.78a15.55 15.55 0 0 0-6.555-8.08 11.21 11.21 0 0 0 3.232-7.88c0-6.202-5.046-11.247-11.248-11.247-6.202 0-11.247 5.045-11.247 11.247 0 3.06 1.228 5.835 3.216 7.865a15.547 15.547 0 0 0-6.578 8.095A30.27 30.27 0 0 1 5.643 36.698h22.49a2.812 2.812 0 0 0 2.812-2.812v-1.405c0-5.588-2.978-10.492-7.43-13.21A11.22 11.22 0 0 0 26.03 7.444a30.493 30.493 0 0 1 19.987.012 11.22 11.22 0 0 0 2.505 11.8c-4.465 2.715-7.454 7.627-7.454 13.225v1.405a2.812 2.812 0 0 0 2.812 2.812h22.49a30.27 30.27 0 0 1-15.774 26.083Z" fill="#fff"/></g><defs><clipPath id="a"><path fill="#fff" d="M0 0h72v72H0z"/></clipPath></defs></svg>