<svg width="72" height="72" fill="none" xmlns="http://www.w3.org/2000/svg"><g clip-path="url(#a)"><path d="M24.76 55.25a10.72 10.72 0 0 0 2.601-7.006c0-5.937-4.83-10.768-10.767-10.768-5.937 0-10.767 4.83-10.767 10.768 0 2.674.981 5.121 2.6 7.006A18.763 18.763 0 0 0 .38 62.715a2.812 2.812 0 1 0 4.868 2.82 13.154 13.154 0 0 1 10.874-6.536c.367.016.578.016.946 0a13.155 13.155 0 0 1 10.874 6.535 2.813 2.813 0 0 0 4.868-2.819 18.77 18.77 0 0 0-8.048-7.465Zm-7.794-1.878c-.417-.01-.323-.01-.744 0a5.149 5.149 0 0 1-4.77-5.128 5.148 5.148 0 0 1 5.142-5.143 5.149 5.149 0 0 1 5.142 5.143 5.149 5.149 0 0 1-4.77 5.128Zm54.655 9.343a18.77 18.77 0 0 0-8.048-7.465 10.72 10.72 0 0 0 2.6-7.006c0-5.937-4.83-10.767-10.767-10.767-5.937 0-10.767 4.83-10.767 10.767 0 2.674.981 5.122 2.6 7.006a18.763 18.763 0 0 0-8.048 7.465 2.813 2.813 0 0 0 4.868 2.82 13.156 13.156 0 0 1 10.874-6.536c.367.016.578.016.946 0a13.155 13.155 0 0 1 10.874 6.535 2.813 2.813 0 0 0 4.868-2.819Zm-15.843-9.343c-.417-.01-.323-.01-.743 0a5.149 5.149 0 0 1-4.771-5.128 5.148 5.148 0 0 1 5.142-5.143 5.149 5.149 0 0 1 5.142 5.143 5.149 5.149 0 0 1-4.77 5.128ZM47.347 33.26a2.812 2.812 0 1 0 4.868-2.817 18.766 18.766 0 0 0-8.053-7.475 10.702 10.702 0 0 0 2.605-7.006c0-5.933-4.83-10.759-10.767-10.759-5.938 0-10.768 4.826-10.768 10.759 0 2.675.984 5.122 2.606 7.006a18.769 18.769 0 0 0-8.054 7.475 2.812 2.812 0 1 0 4.87 2.817 13.15 13.15 0 0 1 11.043-6.546c.374.01.232.01.606 0a13.151 13.151 0 0 1 11.044 6.546ZM36.282 21.088c-.395-.006-.117-.006-.564 0a5.143 5.143 0 0 1-4.86-5.126A5.144 5.144 0 0 1 36 10.828c2.836 0 5.143 2.303 5.143 5.134a5.143 5.143 0 0 1-4.861 5.126Z" fill="#fff"/></g><defs><clipPath id="a"><path fill="#fff" d="M0 0h72v72H0z"/></clipPath></defs></svg>