<svg width="72" height="72" fill="none" xmlns="http://www.w3.org/2000/svg"><g clip-path="url(#a)" fill="#fff"><path d="M21.234 29.672h8.438v4.219h-8.438v12.656h12.657v-4.219h-8.438V38.11h8.438V25.453H21.234v4.219Zm25.313 16.875h4.219V25.453h-4.22v8.438h-4.218v-8.438H38.11V38.11h8.438v8.438Z"/><path d="m62.15 11.466 1.275-6.374-4.137-.828-.766 3.83C23.008-18.78-19.597 27.133 9.85 60.535L8.575 66.91l4.137.828.766-3.83C48.992 90.781 91.597 44.87 62.15 11.466ZM36 67.641a31.479 31.479 0 0 1-19.25-6.548l3.257-.65-.828-4.138-6.308 1.262c-25.612-29.026 11.003-69.37 42.379-46.66l-3.256.652.827 4.137 6.308-1.262C77.88 34.244 63.551 67.728 36 67.641Z"/><path d="M59.203 36c0 12.794-10.409 23.203-23.203 23.203v4.219c15.12 0 27.422-12.302 27.422-27.422h-4.219ZM36 8.578C20.88 8.578 8.578 20.88 8.578 36h4.219c0-12.794 10.409-23.203 23.203-23.203V8.578Z"/></g><defs><clipPath id="a"><path fill="#fff" d="M0 0h72v72H0z"/></clipPath></defs></svg>