<svg width="72" height="72" fill="none" xmlns="http://www.w3.org/2000/svg"><path d="M27.33 4.268C26.442 1.793 23.846 0 21.225 0c-2.788 0-5.196 1.798-6.105 4.294H4.307v10.78C1.826 15.956 0 18.56 0 21.185c0 2.793 1.804 5.202 4.307 6.107v17.313C1.826 45.49 0 48.092 0 50.718c-.004 2.755 1.676 5.272 4.307 6.208v10.78H15.12C16.029 70.202 18.437 72 21.225 72c2.62 0 5.222-1.818 6.11-4.294h17.336C45.579 70.202 47.988 72 50.775 72c2.622 0 5.223-1.818 6.111-4.294h10.806V53.09l-2.104-.005c-1.382-.131-2.137-.888-2.268-2.27.142-1.186.887-2.362 2.268-2.365l2.105-.005v-21.13A6.491 6.491 0 0 0 72 21.189c0-2.633-1.795-5.266-4.308-6.138V4.268H53.047v2.11c0 1.23-.997 2.195-2.269 2.195-1.378-.1-2.136-.832-2.274-2.195v-2.11H27.33ZM6.452 23.455a2.28 2.28 0 0 1-2.233-2.269c.128-1.368.872-2.124 2.233-2.269l2.074-.034V8.513h10.388l.039-2.07a2.281 2.281 0 0 1 2.272-2.224c1.366.126 2.123.868 2.271 2.224l.04 2.07h10.322v6.56c-2.517.898-4.307 3.473-4.307 6.116 0 2.65 1.784 5.218 4.307 6.117v6.52h-6.523c-.888-2.476-3.49-4.294-6.11-4.294-2.788 0-5.196 1.798-6.105 4.294H8.526V23.489l-2.074-.034Zm17.084 40.033-.04 2.069c-.148 1.357-.905 2.098-2.271 2.224a2.281 2.281 0 0 1-2.272-2.224l-.04-2.07H8.527v-10.37l-2.074-.034c-1.36-.023-2.093-1.19-2.233-2.365.128-1.368.872-2.124 2.233-2.268l2.074-.035V38.11h10.426v-2.083l.001-.05a2.281 2.281 0 0 1 2.272-2.225c1.347 0 2.098 1.116 2.272 2.275v2.083h10.361v6.497c-2.605.927-4.145 3.457-4.307 6.208 0 2.691 1.803 5.22 4.307 6.112v6.561H23.536Zm39.938-18.906c-2.667.918-4.377 3.454-4.372 6.232 0 2.65 1.856 5.27 4.372 6.136v6.537H53.087l-.04 2.07c-.148 1.357-.905 2.098-2.271 2.224a2.281 2.281 0 0 1-2.272-2.224l-.04-2.07H38.143V53.09l-2.068-.005c-1.208-.05-2.304-.841-2.304-2.27.151-1.428.948-2.281 2.304-2.365l2.068-.005V38.084h6.53c.908 2.497 3.316 4.295 6.103 4.295 2.716 0 5.192-1.73 6.111-4.295h6.588v6.498Zm2.11-21.127h-2.11v10.37l-10.424.005-.002 2.018c-.1 1.18-.894 2.312-2.273 2.312-1.325 0-2.135-1.15-2.271-2.304l-.001-2.03H38.142V23.46l-2.105-.005a2.275 2.275 0 0 1-2.267-2.267c.002-1.545 1.496-2.28 2.795-2.274l1.577-.004V8.487h6.496c.874 2.513 3.508 4.305 6.14 4.305a6.494 6.494 0 0 0 6.127-4.305h6.569v10.43h2.109c1.364.137 2.097.894 2.198 2.272 0 1.27-.965 2.266-2.198 2.266Z" fill="#fff"/></svg>