<svg width="72" height="72" fill="none" xmlns="http://www.w3.org/2000/svg"><g clip-path="url(#a)" fill="#fff"><path d="M57.083 25.543c-6.105-6.742-9.733-12.677-11.701-16.47C43.248 4.967 42.55 2.42 42.544 2.4L41.911 0l-2.267 1.011c-.265.118-6.527 2.974-10.036 9.992-1.762 3.523-2.114 7.446-2.1 10.116a3.26 3.26 0 0 1-2.617 3.208 3.251 3.251 0 0 1-2.941-.891l-4.222-4.222-1.453 2.003c-.15.208-3.7 5.103-4.346 6.08A28.702 28.702 0 0 0 7.17 43.39c.057 7.68 3.077 14.875 8.504 20.26C21.102 69.035 28.32 72 36 72c15.897 0 28.83-12.933 28.83-28.83 0-5.764-2.824-12.189-7.747-17.627ZM36 67.778c-6.558 0-12.72-2.53-17.35-7.126-4.631-4.595-7.208-10.737-7.257-17.294a24.492 24.492 0 0 1 4.06-13.733c.328-.497 1.646-2.336 2.79-3.924l.721.72a7.463 7.463 0 0 0 6.756 2.046 7.49 7.49 0 0 0 6.011-7.371c-.012-2.21.265-5.428 1.654-8.205 1.69-3.38 4.216-5.589 5.972-6.817 1.588 4.039 5.613 12.383 14.596 22.303 2 2.21 6.655 8.076 6.655 14.793 0 13.569-11.04 24.608-24.608 24.608Z"/><path d="M40.278 35.821 27.039 55.21h4.68L44.96 35.82h-4.681Zm2.827 8.863c-2.936 0-5.152 1.966-5.152 5.4 0 3.462 2.216 5.401 5.152 5.401s5.151-1.939 5.151-5.4c0-3.435-2.216-5.401-5.151-5.401Zm0 7.81c-.61 0-1.219-.554-1.219-2.41 0-1.855.61-2.41 1.219-2.41.609 0 1.218.555 1.218 2.41 0 1.856-.609 2.41-1.218 2.41Zm-9.058-11.549c0-3.435-2.215-5.401-5.151-5.401s-5.152 1.966-5.152 5.4c0 3.463 2.216 5.401 5.152 5.401s5.151-1.938 5.151-5.4Zm-6.37 0c0-1.856.61-2.41 1.219-2.41.609 0 1.218.554 1.218 2.41 0 1.855-.609 2.41-1.218 2.41-.61 0-1.219-.555-1.219-2.41Z"/></g><defs><clipPath id="a"><path fill="#fff" d="M0 0h72v72H0z"/></clipPath></defs></svg>