<svg width="72" height="72" fill="none" xmlns="http://www.w3.org/2000/svg"><g clip-path="url(#a)" fill="#fff"><path d="M36 8.738a6.128 6.128 0 0 0-6.038 5.127h-6.155V25.28h2.506c2.52.096 2.517 3.708 0 3.803h-2.506v11.415h6.155c1.237 6.793 10.84 6.788 12.074 0h6.156V29.083h-2.507c-2.519-.096-2.517-3.708 0-3.803h2.507V13.865h-6.156A6.127 6.127 0 0 0 36 8.738Zm7.975 12.57c-5.841 1.744-5.837 10.005 0 11.748v3.226H37.9v3.225c-.096 2.52-3.707 2.518-3.802 0v-3.225h-6.075v-3.226c5.841-1.745 5.838-10.006 0-11.749v-3.226h6.075v-3.225c.096-2.52 3.707-2.518 3.802 0v3.225h6.075v3.226Z"/><path d="M36 0C7.132.241-3.66 37.727 20.584 53.28v9.82h4.217V72h22.397v-8.9h4.217v-9.82C75.669 37.72 64.849.233 36 0Zm6.982 67.784H29.017v-4.685h13.965v4.685Zm4.217-8.9H24.8v-4.685h22.398v4.684ZM57.234 41.4a24.802 24.802 0 0 1-8.502 8.581H23.267a24.802 24.802 0 0 1-8.501-8.581C5.01 25.355 17.195 3.977 36 4.215 54.802 3.977 66.992 25.36 57.233 41.4Z"/></g><defs><clipPath id="a"><path fill="#fff" d="M0 0h72v72H0z"/></clipPath></defs></svg>