<svg width="72" height="72" fill="none" xmlns="http://www.w3.org/2000/svg"><path d="M62.86 5.695H9.14c-5.04 0-9.14 4.1-9.14 9.14v33.001c0 5.04 4.1 9.14 9.14 9.14h9.716l-3 9.329h40.288l-3-9.328h9.715c5.04 0 9.141-4.1 9.141-9.141v-33c0-5.04-4.1-9.14-9.14-9.14Zm-12.504 56.39H21.644l1.644-5.108h25.424l1.644 5.109ZM67.78 47.837a4.927 4.927 0 0 1-4.922 4.922H9.141a4.927 4.927 0 0 1-4.922-4.922v-33A4.927 4.927 0 0 1 9.14 9.914h53.718a4.927 4.927 0 0 1 4.922 4.922v33Z" fill="#fff"/><path d="M52.453 17.39H34.734v11.321H29.86V16.242H10.641v23.813h10.5v6.375h17.718V35.11h6.703v8.062H61.36V26.953h-8.906v-9.562ZM14.859 35.837V20.46h10.782v8.25h-4.5v7.125h-6.282Zm19.782 6.375h-9.282V32.93h9.282v9.281Zm4.312-11.32V21.61h9.281v5.344h-2.672v3.938h-6.61Zm18.188 8.062h-7.36v-7.781h7.36v7.781Z" fill="#fff"/></svg>