<svg width="240" height="100" fill="none" xmlns="http://www.w3.org/2000/svg"><path d="M46.756 73.306c.38 0 .666 0 .951-.097.285-.096.476-.193.666-.386.285-.193.38-.386.476-.675.095-.29.095-.58.095-.869 0-.29 0-.579-.096-.772-.095-.29-.19-.483-.38-.676-.19-.193-.38-.29-.666-.386-.285-.096-.57-.096-.951-.096h-1.617v4.053h1.522v-.096Zm0-5.598c.76 0 1.331.097 1.902.29.571.193.951.386 1.332.772.38.29.57.675.761 1.158.19.482.285.868.285 1.448 0 .578-.095 1.061-.285 1.447-.19.483-.476.869-.761 1.158-.38.29-.761.58-1.332.676-.57.193-1.141.29-1.902.29h-1.522v3.956h-1.998V67.708h3.52Zm17.027 6.949L62.45 70.99c-.095-.194-.095-.386-.19-.58-.095-.193-.095-.482-.19-.772-.096.29-.096.483-.19.772-.096.194-.096.386-.191.58l-1.332 3.667h3.425Zm3.614 4.246H65.78c-.19 0-.285 0-.475-.097a1.324 1.324 0 0 1-.286-.386l-.856-2.316h-4.566l-.856 2.316c0 .097-.095.193-.19.29a.722.722 0 0 1-.476.193h-1.617l4.376-11.195h2.093l4.47 11.195Zm10.559-5.887c.38 0 .76-.096 1.046-.193.286-.096.57-.193.666-.386.19-.193.285-.386.38-.579.096-.193.096-.483.096-.772 0-.579-.19-.965-.571-1.351-.38-.29-.951-.483-1.712-.483h-1.332v3.668h1.427v.096Zm5.231 5.887H81.38c-.38 0-.57-.097-.76-.386l-2.284-3.57-.285-.29c-.095-.097-.285-.097-.476-.097h-.856v4.343h-2.092V67.708h3.329c.76 0 1.427.097 1.902.193.571.193.951.386 1.332.676.38.29.57.579.761 1.061.19.386.285.869.285 1.255 0 .386-.095.772-.19 1.061-.095.29-.285.676-.476.87-.19.289-.475.482-.76.675a3.493 3.493 0 0 1-1.047.482c.095.097.285.193.38.29.096.096.19.193.286.386l2.758 4.246Zm14.65-9.458h-3.33v9.458h-2.093v-9.458h-3.329v-1.737h8.656v1.737h.095Zm16.836-1.737v11.195h-1.046c-.191 0-.286 0-.381-.097l-.285-.29-5.708-7.43v7.817h-1.807V67.708h1.427c.095 0 .095.097.19.097l.19.193 5.803 7.43v-7.815h1.617v.096Zm10.558 1.64v3.09h3.805v1.64h-3.805v3.184h4.852v1.641h-6.944V67.708h6.944v1.64h-4.852Zm16.171 3.668c.381 0 .761-.096 1.047-.193.285-.096.57-.193.665-.386.191-.193.286-.386.381-.579.095-.193.095-.483.095-.772 0-.579-.19-.965-.571-1.351-.38-.29-.951-.483-1.712-.483h-1.332v3.668h1.427v.096Zm5.232 5.887h-1.807c-.381 0-.571-.097-.761-.386l-2.283-3.57-.286-.29c-.095-.097-.285-.097-.475-.097h-.856v4.343h-2.093V67.708h3.329c.761 0 1.427.097 1.903.193.57.193.951.386 1.331.676.381.29.571.579.761 1.061.191.386.286.869.286 1.255 0 .386-.095.772-.191 1.061-.095.29-.285.676-.475.87-.19.289-.476.482-.761.675a3.504 3.504 0 0 1-1.046.482c.095.097.285.193.38.29.095.096.19.193.285.386l2.759 4.246Zm13.127-9.168c-.095.096-.095.193-.191.193-.095 0-.19.096-.285.096-.095 0-.19 0-.38-.096-.095-.097-.286-.193-.476-.29l-.571-.29c-.19-.096-.475-.096-.856-.096-.285 0-.571 0-.761.097l-.571.29a.532.532 0 0 0-.285.482c-.095.193-.095.386-.095.579 0 .29.095.483.19.675.19.194.381.29.571.483.19.096.476.193.856.29.381.096.571.193.951.29.286.096.666.192.952.385.285.097.57.29.856.58.19.192.475.482.57.771.191.29.191.676.191 1.158 0 .483-.096.965-.286 1.448-.19.482-.38.868-.761 1.158-.285.29-.761.579-1.236.772-.476.193-1.047.29-1.617.29-.381 0-.666 0-1.047-.097a11.84 11.84 0 0 1-.951-.29c-.285-.096-.571-.29-.856-.482-.285-.193-.476-.386-.761-.58l.571-.964.19-.193c.095-.097.19-.097.285-.097.095 0 .286.097.381.193.19.097.285.193.571.386.19.097.475.29.665.386.286.097.571.193.952.193.57 0 1.046-.096 1.331-.386.286-.29.476-.675.476-1.254 0-.29-.095-.58-.19-.676-.191-.193-.286-.386-.571-.482-.285-.097-.476-.193-.856-.29-.286-.096-.571-.193-.951-.29-.286-.096-.666-.192-.952-.385-.285-.193-.57-.29-.856-.58-.285-.192-.475-.482-.57-.868-.191-.386-.191-.772-.191-1.254 0-.386.095-.773.191-1.159.19-.386.38-.772.665-1.061.286-.29.666-.58 1.142-.676.475-.193.951-.29 1.522-.29.666 0 1.236.097 1.807.29a3.574 3.574 0 0 1 1.427.869l-.19.772ZM86.517 48.986a11.576 11.576 0 0 1-3.9 2.606c-1.427.579-3.044.868-4.566.868-1.522 0-3.044-.193-4.566-.772a11.577 11.577 0 0 1-3.9-2.605c-1.046-1.062-1.997-2.413-2.568-3.86a12.381 12.381 0 0 1-.856-4.536c0-1.544.285-3.088.856-4.536a10.172 10.172 0 0 1 2.568-3.764 11.576 11.576 0 0 1 3.9-2.605c1.427-.58 3.044-.87 4.566-.87 1.522 0 3.044.194 4.566.773a11.576 11.576 0 0 1 3.9 2.606c1.046 1.061 1.902 2.412 2.568 3.86.57 1.447.856 2.992.856 4.536 0 1.544-.285 3.088-.856 4.535-.57 1.352-1.427 2.703-2.568 3.764Zm-8.276-2.123c.761 0 1.522-.096 2.283-.386.666-.29 1.332-.772 1.903-1.351 1.046-1.255 1.617-2.799 1.521-4.44 0-1.64-.57-3.184-1.616-4.439a4.596 4.596 0 0 0-1.903-1.35 6.047 6.047 0 0 0-2.283-.483c-.76 0-1.522.096-2.283.386-.666.29-1.332.772-1.902 1.35-1.047 1.256-1.617 2.8-1.522 4.44 0 1.64.57 3.185 1.617 4.44a4.597 4.597 0 0 0 1.902 1.35 5.67 5.67 0 0 0 2.283.483Zm16.17 11.774V29.203h6.184v3.28c.761-1.157 1.807-2.122 2.949-2.701 1.141-.676 2.473-.966 3.805-.966 1.331 0 2.663.29 3.804.773 1.237.579 2.283 1.35 3.139 2.316a10.616 10.616 0 0 1 2.283 4.053c.476 1.448.761 3.088.666 4.632.095 1.544-.095 3.088-.666 4.536a10.986 10.986 0 0 1-2.283 3.957c-.856.965-1.997 1.833-3.139 2.316-1.236.579-2.473.772-3.804.772-1.332 0-2.569-.29-3.805-.869-1.142-.579-2.188-1.447-3.044-2.509v9.844h-6.088Zm7.611-13.511c.475.579 1.046.965 1.712 1.351.666.29 1.332.483 2.093.483.761 0 1.426-.097 2.092-.483.666-.29 1.237-.772 1.712-1.351a6.64 6.64 0 0 0 1.522-4.632c.096-1.641-.475-3.282-1.522-4.536-.475-.58-1.046-.965-1.712-1.351-.666-.29-1.331-.483-2.092-.483-.666 0-1.427.097-2.093.483-.666.29-1.237.772-1.712 1.35a6.644 6.644 0 0 0-1.522 4.633c0 1.64.475 3.281 1.522 4.536Zm27.205 7.141c-1.713.097-3.33-.482-4.661-1.544a7.431 7.431 0 0 1-1.332-2.412 6.856 6.856 0 0 1-.285-2.8V34.704h-2.569v-5.5h2.473v-5.79h6.183v5.79h5.137v5.5h-5.137v9.65c0 1.448.666 2.22 1.998 2.22 1.046 0 2.093-.289 3.044-.772v5.115a9.428 9.428 0 0 1-4.851 1.351Zm9.797-.386V29.203h6.183V51.88h-6.183Zm31.105-2.895a11.57 11.57 0 0 1-3.9 2.606c-1.427.579-3.044.868-4.566.868-1.522 0-3.044-.193-4.566-.772a11.58 11.58 0 0 1-3.9-2.605c-1.046-1.062-1.997-2.413-2.568-3.86a12.375 12.375 0 0 1-.856-4.536c0-1.544.285-3.088.856-4.536.571-1.448 1.427-2.702 2.568-3.86a11.58 11.58 0 0 1 3.9-2.606c1.427-.579 3.044-.869 4.566-.869 1.522 0 3.044.193 4.566.773a11.57 11.57 0 0 1 3.9 2.605c1.046 1.062 1.998 2.413 2.568 3.86.571 1.448.856 2.992.856 4.536 0 1.544-.285 3.088-.856 4.536-.57 1.448-1.427 2.799-2.568 3.86Zm-8.371-2.123c.761 0 1.522-.096 2.283-.386.666-.29 1.332-.772 1.903-1.351 1.046-1.255 1.617-2.799 1.522-4.44 0-1.64-.571-3.184-1.617-4.439a4.6 4.6 0 0 0-1.903-1.35 6.048 6.048 0 0 0-2.283-.483c-.761 0-1.522.096-2.283.386-.666.29-1.331.772-1.902 1.35-1.047 1.256-1.617 2.8-1.522 4.44 0 1.64.571 3.185 1.617 4.44a4.597 4.597 0 0 0 1.902 1.35c.761.29 1.522.483 2.283.483Zm16.266 5.018V29.203h6.183v3.184c.666-1.061 1.617-2.027 2.759-2.605 1.141-.676 2.378-.966 3.614-1.062 1.047-.097 1.998.096 2.949.483.951.386 1.807.965 2.473 1.737 1.332 1.737 2.093 3.956 1.903 6.176V51.88h-6.183V39.24c.095-1.255-.286-2.413-.952-3.378a6.087 6.087 0 0 0-1.236-.965 3.895 3.895 0 0 0-1.522-.29c-.571 0-1.046.097-1.522.29-.476.193-.951.483-1.332.965-.761.965-1.141 2.22-1.046 3.378v12.642h-6.088Z" fill="#fff"/><path d="M59.978 22.448 43.046 51.882h7.42L63.498 29.01c.095-.193.095-.29.095-.483s0-.386-.095-.482c-.096-.097-.19-.29-.38-.29-.096-.096-.286-.096-.477-.096h-19.69c-.285 0-.475-.097-.666-.29-.19-.29-.285-.482-.285-.772V21h17.217c.19 0 .285 0 .476.096.095.097.285.194.38.387v.482c0 .193 0 .386-.095.483Zm79.712 2.895L142.259 21h4.946c.19 0 .285 0 .475.096.096.097.286.194.286.387.095.096.095.289.095.482s-.095.29-.095.483l-2.568 4.342h-4.947c-.19 0-.285 0-.475-.096-.191-.097-.286-.193-.286-.386-.095-.097-.095-.29-.095-.483s.095-.386.095-.482Z" fill="#FF0"/></svg>