<svg width="240" height="100" fill="none" xmlns="http://www.w3.org/2000/svg"><path d="M127.705 59.914h-4.366l-1.994-4.358.234-.367h-9.551l.235.367-1.971 4.358H105.9l9.155-19.828h3.52l9.13 19.828Zm-7.911-8.2-.398-.392-1.971-4.309-.588-1.811-.047.024-.588 1.787-1.971 4.309-.398.392h5.963-.002Zm18.542 8.2h-8.171V40.086h8.075c8.167 0 9.598 5.408 9.598 9.916 0 4.506-1.383 9.912-9.504 9.912h.002Zm-.33-16.107h-4.225l.375.392v11.602l-.375.392h4.318c4.928 0 5.68-2.62 5.68-6.194.001-3.525-.798-6.192-5.773-6.192Zm23.493 16.107h-9.79V40.086h9.599c4.389 0 6.643 2.668 6.643 5.728a4.498 4.498 0 0 1-.425 2.125 4.31 4.31 0 0 1-1.359 1.645v.026c1.549.563 2.606 2.154 2.606 4.309 0 3.743-2.721 5.995-7.276 5.995h.002Zm-.423-16.107h-5.751l.375.392v3.427l-.375.367h5.751c2.3 0 2.816-1.005 2.816-2.13.002-1.248-.68-2.056-2.816-2.056Zm.423 7.661h-6.174l.375.392v3.941l-.375.392h6.174c2.581 0 3.215-.955 3.215-2.325 0-1.348-.75-2.398-3.215-2.398v-.002Zm15.018 8.446h-3.988V40.086h3.989v19.828h-.001Zm12.976 0h-8.169V40.086h8.075c8.168 0 9.6 5.408 9.6 9.916 0 4.506-1.383 9.912-9.507 9.912h.001Zm-.329-16.107h-4.224l.376.392v11.602l-.376.392h4.318c4.928 0 5.68-2.62 5.68-6.194.002-3.525-.796-6.192-5.773-6.192h-.001ZM68.846 78c-5.31 0-10.5-1.643-14.915-4.72-4.413-3.076-7.855-7.45-9.888-12.565a29.119 29.119 0 0 1-1.526-16.178A28.392 28.392 0 0 1 49.865 30.2c3.754-3.913 8.537-6.582 13.746-7.663a25.816 25.816 0 0 1 15.508 1.594c4.907 2.119 9.099 5.708 12.049 10.312a28.863 28.863 0 0 1 4.525 15.558c-.009 7.422-2.84 14.539-7.873 19.789-5.032 5.25-11.857 8.2-18.974 8.21Zm0-54.066a24.264 24.264 0 0 0-13.886 4.392c-4.108 2.865-7.31 6.936-9.202 11.7a27.108 27.108 0 0 0-1.422 15.06 26.43 26.43 0 0 0 6.839 13.347 24.691 24.691 0 0 0 12.797 7.133 24.033 24.033 0 0 0 14.439-1.482c4.567-1.974 8.47-5.315 11.216-9.6A26.874 26.874 0 0 0 93.84 50c-.01-6.91-2.643-13.536-7.329-18.422-4.685-4.888-11.039-7.637-17.664-7.644Z" fill="#fff"/><path d="M79.308 58.566H69.52l-1.804-3.803h-5.59l1.575-3.31h2.442l-2.885-6.082-6.284 13.195h-3.588l8.087-16.954h3.573l6.431 13.643h7.83c.483 0 .947-.201 1.289-.558.343-.362.535-.844.533-1.344 0-.504-.191-.987-.533-1.344a1.789 1.789 0 0 0-1.291-.558h-5.839l-1.57-3.311h5.546a1.59 1.59 0 0 0 1.151-.497c.307-.324.478-.754.476-1.2a1.736 1.736 0 0 0-.476-1.201 1.596 1.596 0 0 0-1.151-.497h-7.161l-1.57-3.311h8.73c.828 0 1.64.22 2.36.644a4.896 4.896 0 0 1 1.752 1.772 5.178 5.178 0 0 1 .136 4.921 5.145 5.145 0 0 1 2.197 2.492 5.424 5.424 0 0 1 .265 3.373 5.235 5.235 0 0 1-1.776 2.833 4.869 4.869 0 0 1-3.07 1.097h.002Z" fill="#fff"/></svg>