<svg width="240" height="100" fill="none" xmlns="http://www.w3.org/2000/svg"><path d="M21.253 30.018a20.185 20.185 0 0 0-9.57 2.873 20.038 20.038 0 0 0-6.995 7.102 19.888 19.888 0 0 0-.404 19.25.839.839 0 0 0 .617.444.847.847 0 0 0 .726-.232l11.157-11.093a.836.836 0 0 0 .182-.91.834.834 0 0 0-.182-.271l-1.426-1.419a.84.84 0 0 0-1.188 0l-8.03 7.982A16.25 16.25 0 0 1 7.094 43.4a16.373 16.373 0 0 1 7.034-7.682 16.515 16.515 0 0 1 10.27-1.914 16.47 16.47 0 0 1 9.355 4.63 16.303 16.303 0 0 1 4.656 9.3 16.256 16.256 0 0 1-1.925 10.21 16.399 16.399 0 0 1-7.727 6.993 16.522 16.522 0 0 1-10.406.948l8.03-7.982a.836.836 0 0 0 .181-.91.834.834 0 0 0-.182-.271l-1.427-1.419a.84.84 0 0 0-.915-.181.84.84 0 0 0-.273.181L12.608 66.394a.837.837 0 0 0-.084 1.082.84.84 0 0 0 .298.254 20.21 20.21 0 0 0 17.79.396 20.1 20.1 0 0 0 7.19-5.603 19.948 19.948 0 0 0 3.955-8.187c.67-2.995.637-6.102-.094-9.082a19.955 19.955 0 0 0-4.126-8.104 20.106 20.106 0 0 0-7.306-5.454 20.219 20.219 0 0 0-8.978-1.678Z" fill="#00D67D"/><path d="m25.44 48.115-1.427-1.42a.84.84 0 0 0-.915-.18.84.84 0 0 0-.273.18L7.206 62.225a.838.838 0 0 0-.027 1.155c.468.516.962 1.007 1.481 1.472a.847.847 0 0 0 1.162-.027L25.44 49.296a.834.834 0 0 0 0-1.181Zm35.203-8.242c4.228 0 6.742 1.96 6.742 5.254 0 2.414-1.428 3.635-2.456 4.061-.429.17-.429.398-.029.568 1.343.426 3.142 1.76 3.142 4.6 0 3.466-2.57 5.51-6.884 5.51H52.93a.304.304 0 0 1-.343-.34V40.213a.3.3 0 0 1 .343-.34h7.713Zm-4.142 8.01h3.57c2.229 0 3.343-.824 3.343-2.386 0-1.335-1.028-2.187-2.771-2.187H56.5v4.572Zm0 8.548h4.627c1.828 0 2.914-.909 2.914-2.443 0-1.789-1.2-2.67-3.685-2.67H56.5l.001 5.113Zm19.167 3.097a.299.299 0 0 1-.204.328.305.305 0 0 1-.138.012h-3.17a.304.304 0 0 1-.33-.203.301.301 0 0 1-.013-.137v-10.14h-1.428a.305.305 0 0 1-.33-.202.3.3 0 0 1-.013-.138V46.35a.3.3 0 0 1 .204-.328.305.305 0 0 1 .139-.013h4.942a.305.305 0 0 1 .33.203c.016.044.02.092.013.138l-.002 13.178Zm-.057-18.205c0 1.448-.8 2.272-2.2 2.272-1.428 0-2.227-.824-2.227-2.272 0-1.42.8-2.244 2.228-2.244 1.4.002 2.2.824 2.2 2.244Zm6.089 5.821c.229.369.4.369.772.028a5.088 5.088 0 0 1 3.627-1.477c3.314 0 5.314 1.988 5.314 5.34v8.492a.3.3 0 0 1-.204.328.303.303 0 0 1-.139.012h-3.142a.303.303 0 0 1-.343-.34v-8.038c0-1.477-.8-2.357-2.057-2.357-1.743 0-2.742 1.28-2.742 3.578v6.816a.299.299 0 0 1-.204.329.303.303 0 0 1-.14.012h-3.17a.303.303 0 0 1-.343-.34V46.348a.3.3 0 0 1 .343-.341h1.714a.396.396 0 0 1 .4.284l.314.852Zm14.711-.994c1-.3 2.04-.453 3.085-.455 4.085 0 6.542 1.96 6.542 5.425v8.407a.294.294 0 0 1-.013.137.304.304 0 0 1-.33.203h-1.714a.406.406 0 0 1-.4-.255l-.286-.68c-.228-.398-.4-.426-.8-.086-.828.853-2.057 1.335-3.628 1.335-3.256 0-5.113-1.647-5.113-4.402s1.886-4.46 5.285-4.46h3.229v-.085c0-1.363-1-2.073-2.914-2.073a8.061 8.061 0 0 0-2.086.256l-1.057.312a.314.314 0 0 1-.428-.255l-.743-2.585a.292.292 0 0 1 .229-.397l1.142-.342Zm2.628 8.094c-.971 0-1.485.454-1.485 1.193 0 .88.628 1.42 1.77 1.42 1.942 0 2.942-.824 2.942-2.5v-.113h-3.227Zm12.857-7.099c.229.369.4.369.772.028a5.11 5.11 0 0 1 3.628-1.477c3.313 0 5.313 1.988 5.313 5.34v8.492a.294.294 0 0 1-.013.138.304.304 0 0 1-.33.203h-3.142a.306.306 0 0 1-.331-.203.307.307 0 0 1-.012-.138V51.49c0-1.477-.8-2.357-2.057-2.357-1.742 0-2.742 1.28-2.742 3.578v6.816a.307.307 0 0 1-.086.256.304.304 0 0 1-.257.085h-3.172a.306.306 0 0 1-.257-.085.305.305 0 0 1-.086-.256V46.35a.306.306 0 0 1 .204-.328.306.306 0 0 1 .139-.013h1.714a.395.395 0 0 1 .4.284l.315.852Zm18.113 18.631a.402.402 0 0 1-.4.255h-3.228c-.257 0-.371-.17-.257-.397l1.257-3.181c.857-2.3.542-4.09-.6-7.185l-3.513-8.862a.267.267 0 0 1 .017-.288.272.272 0 0 1 .269-.11h3.285a.404.404 0 0 1 .4.256l1.685 4.289a29.92 29.92 0 0 1 1.257 4.657.243.243 0 0 0 .486 0 31.393 31.393 0 0 1 1.257-4.657l1.684-4.289a.407.407 0 0 1 .4-.255h3.285a.274.274 0 0 1 .319.251.267.267 0 0 1-.033.146l-7.57 19.37Zm22.686-25.903c4.428 0 7.056 2.443 7.056 6.504 0 4.317-2.97 6.787-8.198 6.787h-2.8v6.36a.296.296 0 0 1-.086.256.304.304 0 0 1-.257.085h-3.228a.306.306 0 0 1-.331-.203.307.307 0 0 1-.012-.138v-19.31a.296.296 0 0 1 .086-.256.303.303 0 0 1 .257-.085h7.513Zm-3.943 9.855h2.801c2.713 0 4.228-1.22 4.228-3.35 0-1.904-1.171-3.068-3.085-3.068h-3.943l-.001 6.418Zm15.399-3.578c1-.3 2.04-.453 3.085-.455 4.085 0 6.542 1.96 6.542 5.425v8.407a.307.307 0 0 1-.086.255.304.304 0 0 1-.257.085h-1.714a.408.408 0 0 1-.4-.255l-.286-.68c-.228-.398-.4-.426-.8-.086-.828.853-2.056 1.335-3.627 1.335-3.257 0-5.114-1.647-5.114-4.402s1.886-4.46 5.285-4.46h3.228v-.085c0-1.363-1-2.073-2.914-2.073a8.062 8.062 0 0 0-2.085.256l-1.057.312a.316.316 0 0 1-.279-.02.314.314 0 0 1-.15-.235l-.742-2.585a.29.29 0 0 1 .107-.35.29.29 0 0 1 .121-.047l1.143-.342Zm2.628 8.094c-.971 0-1.486.454-1.486 1.193 0 .88.629 1.42 1.771 1.42 1.942 0 2.942-.824 2.942-2.5v-.113h-3.227Zm18.568-5.452a.296.296 0 0 1-.086.256.297.297 0 0 1-.257.085c-3.113.142-4.285 2.101-4.285 7.555v2.84a.293.293 0 0 1-.085.255.308.308 0 0 1-.257.085h-3.172a.302.302 0 0 1-.343-.34V46.35a.307.307 0 0 1 .086-.256.3.3 0 0 1 .257-.085h1.715a.405.405 0 0 1 .4.255l.628 1.392c.201.312.314.398.628.057 1.2-1.363 2.371-1.96 4.428-2.017a.306.306 0 0 1 .331.203.307.307 0 0 1 .012.138v2.755Zm11-2.784a.306.306 0 0 1 .257.086.306.306 0 0 1 .086.255v2.698a.307.307 0 0 1-.086.256.304.304 0 0 1-.257.085h-3.228v6.02c0 .88.343 1.336.943 1.336.243.006.485-.033.714-.114.228-.085.371-.028.457.17l1.143 2.33a.33.33 0 0 1 .041.25.323.323 0 0 1-.156.204 4.553 4.553 0 0 1-2.199.596c-3.028 0-4.8-1.76-4.8-4.743v-6.049h-1.428a.307.307 0 0 1-.257-.085.306.306 0 0 1-.086-.256V46.35a.307.307 0 0 1 .086-.255.304.304 0 0 1 .257-.086h1.428v-3.18a.341.341 0 0 1 .286-.37l3.171-1.05c.257-.086.4.028.4.255v4.345h3.228Zm5.828 1.136c.229.369.4.369.771.028a5.096 5.096 0 0 1 3.628-1.477c3.314 0 5.314 1.988 5.314 5.34v8.492a.307.307 0 0 1-.086.255.304.304 0 0 1-.257.085h-3.143a.3.3 0 0 1-.257-.085.304.304 0 0 1-.086-.255v-8.038c0-1.477-.799-2.357-2.056-2.357-1.743 0-2.743 1.28-2.743 3.578v6.816a.293.293 0 0 1-.085.256.308.308 0 0 1-.257.085h-3.172a.3.3 0 0 1-.257-.085.304.304 0 0 1-.086-.256V46.35a.307.307 0 0 1 .086-.256.3.3 0 0 1 .257-.085h1.715a.397.397 0 0 1 .4.284l.314.852Zm22 12.696c-.925.229-1.875.343-2.828.34-4.485 0-6.97-2.783-6.97-7.242 0-4.43 2.542-7.242 6.827-7.242 3.541 0 5.685 1.818 5.685 4.686 0 2.3-1.399 3.579-4.399 4.005l-3.943.568c.314 1.107 1.257 1.789 2.8 1.789a8.925 8.925 0 0 0 2.057-.227l1.428-.37a.314.314 0 0 1 .428.256l.715 2.613a.313.313 0 0 1-.258.426l-1.542.398Zm-2.257-8.32c.772-.143 1.172-.455 1.172-1.023 0-.909-.714-1.363-1.972-1.363-1.485 0-2.599.852-2.914 2.925l3.714-.54Zm16.081-2.729a.293.293 0 0 1-.085.256.308.308 0 0 1-.257.085c-3.114.142-4.285 2.101-4.285 7.555v2.84a.307.307 0 0 1-.086.255.304.304 0 0 1-.257.085h-3.171a.306.306 0 0 1-.331-.203.293.293 0 0 1-.012-.137V46.349a.293.293 0 0 1 .085-.256.308.308 0 0 1 .258-.085h1.714a.408.408 0 0 1 .4.255l.628 1.392c.202.312.315.398.629.057 1.2-1.363 2.371-1.96 4.428-2.017a.302.302 0 0 1 .342.341v2.755Z" fill="#00D67D"/></svg>