<svg width="240" height="100" fill="none" xmlns="http://www.w3.org/2000/svg"><path d="M74.544 42.903c-.556-.48-1.25-.842-2.085-1.082a7.921 7.921 0 0 0-2.455-.406c-.895 0-1.714.165-2.455.496a5.65 5.65 0 0 0-1.946 1.308c-.525.542-.942 1.203-1.25 1.985a6.816 6.816 0 0 0-.464 2.527 6.312 6.312 0 0 0 1.9 4.557 7.106 7.106 0 0 0 2.038 1.308c.803.3 1.652.45 2.548.45 1.05 0 2.007-.21 2.872-.63a7.096 7.096 0 0 0 2.224-1.805h-2.78v-6.317h11.906V55.31a17.22 17.22 0 0 1-2.548 3.384c-.988.992-2.1 1.85-3.335 2.571a15.755 15.755 0 0 1-3.938 1.67 16.51 16.51 0 0 1-4.401.586c-2.224 0-4.324-.406-6.3-1.218-1.977-.812-3.707-1.925-5.19-3.339-1.451-1.413-2.61-3.082-3.474-5.007-.834-1.925-1.25-4-1.25-6.226 0-2.166.4-4.211 1.204-6.136.803-1.925 1.9-3.594 3.289-5.008a15.348 15.348 0 0 1 5.003-3.383c1.946-.843 4.03-1.264 6.255-1.264 1.729 0 3.227.166 4.493.497 1.266.33 2.332.707 3.197 1.128 1.019.48 1.868 1.007 2.548 1.579l-5.606 7.76ZM87.16 32.662h10.285V54.86h8.524v7.895H87.16V32.662Zm18.35 15.068c0-2.165.417-4.21 1.25-6.135.865-1.925 2.023-3.594 3.475-5.008a16.159 16.159 0 0 1 5.189-3.383c1.976-.843 4.077-1.264 6.3-1.264 2.224 0 4.324.421 6.301 1.264 1.976.812 3.69 1.94 5.142 3.383a15.17 15.17 0 0 1 3.475 5.008 14.813 14.813 0 0 1 1.297 6.136c0 2.165-.433 4.21-1.297 6.135a15.676 15.676 0 0 1-3.475 5.053c-1.452 1.414-3.166 2.542-5.142 3.384-1.977.812-4.077 1.218-6.301 1.218-2.223 0-4.324-.406-6.3-1.218-1.977-.842-3.706-1.97-5.189-3.384a16.714 16.714 0 0 1-3.475-5.053c-.833-1.925-1.25-3.97-1.25-6.135Zm9.729 0c0 .873.169 1.7.509 2.482.34.752.803 1.414 1.39 1.985a6.65 6.65 0 0 0 2.038 1.354 6.64 6.64 0 0 0 2.548.496c.896 0 1.73-.166 2.502-.496a6.51 6.51 0 0 0 2.085-1.354 6.455 6.455 0 0 0 1.389-1.985c.34-.782.51-1.609.51-2.481 0-.873-.17-1.685-.51-2.437a6.31 6.31 0 0 0-1.389-2.03 6.505 6.505 0 0 0-2.085-1.353 6.285 6.285 0 0 0-2.502-.496c-.895 0-1.745.165-2.548.496a6.645 6.645 0 0 0-2.038 1.353 6.312 6.312 0 0 0-1.39 2.03 5.843 5.843 0 0 0-.509 2.437ZM140.5 32.662h10.655c1.977 0 3.799.256 5.467.767 1.699.511 3.166 1.263 4.401 2.256a10.095 10.095 0 0 1 2.872 3.7c.711 1.443 1.066 3.112 1.066 5.007 0 1.504-.216 2.782-.649 3.835-.432 1.053-.911 1.925-1.436 2.617a9.875 9.875 0 0 1-2.085 1.984l5.791 9.926H155l-4.632-7.625v7.625H140.5V32.662Zm9.868 14.798h.509c1.174 0 2.162-.256 2.965-.767.834-.511 1.251-1.369 1.251-2.572s-.417-2.06-1.251-2.571c-.803-.512-1.791-.767-2.965-.767h-.509v6.677Zm22.101 2.346-9.59-17.144h10.979l3.568 6.361 3.521-6.36h10.978l-9.589 17.143v12.948h-9.867V49.806Z" fill="#3959D9"/><path fill-rule="evenodd" clip-rule="evenodd" d="M47.102 27.467c-.185-.263-.114-.633.18-.766 1.155-.524 1.935-.117 2.41.438.289.335.828.461 1.251.331 1.161-.356 2.402.318 2.772 1.507.189.607.114 1.23-.16 1.743-.25.47-.24 1.161.264 1.339a5.375 5.375 0 0 0 3.38.074c1.997-.613 3.376-2.293 3.734-4.25.038-.206-.196-.355-.396-.293-1.045.32-2.162-.287-2.495-1.356-.333-1.07.245-2.197 1.29-2.518.143-.044.289-.07.433-.08.097-.008.154-.138.094-.213a2.078 2.078 0 0 1-.462-1.482 2.02 2.02 0 0 1 .215-.754 1.933 1.933 0 0 1 1.93-1.053c.26.027.514.105.745.231a2.075 2.075 0 0 1 1.067 1.985c-.008.096.114.171.197.123a1.9 1.9 0 0 1 .404-.176c1.045-.321 2.162.286 2.495 1.356.333 1.07-.244 2.197-1.29 2.517-.2.062-.308.316-.16.464 1.407 1.415 3.5 2.03 5.498 1.416a5.341 5.341 0 0 0 2.748-1.955c.315-.43-.07-1.006-.543-1.253a2.283 2.283 0 0 1-1.122-1.35c-.37-1.189.271-2.441 1.432-2.797.424-.13.797-.537.844-.975.079-.724.491-1.498 1.742-1.713.319-.055.587.211.584.532l-.141 13.438c-.477-.157-.99-.307-1.536-.45-1.359-.352-2.966-.529-4.822-.529-2.385 0-4.622.45-6.71 1.348a16.475 16.475 0 0 0-5.367 3.61c-.91.92-1.702 1.94-2.377 3.063l-8.128-11.552Z" fill="#3959D9"/><path d="M90.674 82c-1.428 0-2.714-.297-3.856-.89a6.839 6.839 0 0 1-2.668-2.516c-.65-1.07-.974-2.283-.974-3.637s.324-2.566.974-3.637a6.702 6.702 0 0 1 2.668-2.496c1.142-.606 2.428-.909 3.856-.909 1.247 0 2.37.22 3.37.658 1 .438 1.83 1.07 2.492 1.896l-2.454 2.205c-.882-1.057-1.954-1.586-3.213-1.586-.74 0-1.403.161-1.987.484a3.436 3.436 0 0 0-1.344 1.373c-.311.58-.467 1.251-.467 2.012 0 .761.156 1.438.468 2.032.324.58.772 1.031 1.343 1.354.584.322 1.247.483 1.987.483 1.26 0 2.33-.528 3.213-1.586l2.454 2.206a6.478 6.478 0 0 1-2.493 1.895c-1 .44-2.122.658-3.369.658Zm16.487-2.903h-5.765l-1.071 2.631h-3.934l6.018-13.542h3.798l6.037 13.542h-4.012l-1.071-2.63Zm-1.13-2.825-1.753-4.333-1.752 4.333h3.505ZM118.128 82c-1.103 0-2.175-.136-3.213-.407-1.039-.27-1.883-.632-2.532-1.083l1.266-2.825c.61.4 1.318.722 2.123.967a8.133 8.133 0 0 0 2.376.368c1.48 0 2.22-.368 2.22-1.103 0-.387-.214-.67-.643-.851-.415-.194-1.09-.393-2.025-.6-1.026-.219-1.883-.451-2.571-.696a4.41 4.41 0 0 1-1.772-1.22c-.494-.554-.74-1.302-.74-2.243 0-.826.227-1.567.681-2.225.455-.67 1.13-1.2 2.026-1.587.908-.386 2.019-.58 3.33-.58.896 0 1.779.103 2.649.31.87.193 1.636.483 2.298.87l-1.188 2.844c-1.298-.696-2.558-1.044-3.778-1.044-.766 0-1.325.115-1.675.348-.351.219-.526.51-.526.87 0 .361.208.632.623.813.415.18 1.084.367 2.006.56 1.039.22 1.896.459 2.571.717a4.241 4.241 0 0 1 1.772 1.2c.507.54.76 1.282.76 2.224 0 .813-.227 1.548-.682 2.206-.454.657-1.136 1.186-2.045 1.586-.909.387-2.012.58-3.311.58Zm7.821-13.814h3.856v13.542h-3.856V68.186Zm19.571 0v13.542h-3.175l-6.018-7.216v7.216h-3.778V68.186h3.174l6.019 7.216v-7.216h3.778ZM155.115 82c-1.441 0-2.739-.304-3.895-.91a6.943 6.943 0 0 1-2.707-2.515c-.649-1.07-.974-2.276-.974-3.618 0-1.341.325-2.547.974-3.618a6.943 6.943 0 0 1 2.707-2.515c1.156-.606 2.454-.909 3.895-.909 1.441 0 2.733.303 3.876.91 1.155.606 2.058 1.444 2.707 2.514.662 1.07.993 2.277.993 3.618 0 1.342-.331 2.547-.993 3.618-.649 1.07-1.552 1.909-2.707 2.515-1.143.606-2.435.91-3.876.91Zm0-3.174c.688 0 1.312-.16 1.87-.483.558-.323 1-.774 1.324-1.355.325-.593.487-1.27.487-2.03 0-.762-.162-1.432-.487-2.013a3.47 3.47 0 0 0-1.324-1.373 3.67 3.67 0 0 0-1.87-.484c-.688 0-1.311.161-1.869.484-.559.322-1 .78-1.325 1.373-.324.58-.487 1.251-.487 2.012 0 .761.163 1.438.487 2.032.325.58.766 1.031 1.325 1.354a3.668 3.668 0 0 0 1.869.483Z" fill="#FC4665"/></svg>