<svg width="240" height="100" fill="none" xmlns="http://www.w3.org/2000/svg"><path d="M74.909 64.468a1.21 1.21 0 0 0-.257-.094c-1.665-.204-2.505-.79-2.827-3.025-.436-3.027-.802-6.064-1.194-9.096-.351-2.706-.693-5.416-1.044-8.12-.276-2.125-.543-4.25-.849-6.371-.208-1.454.644-2.473 2.131-2.474h3.33c1.332 0 2.231.712 2.473 2.032.189 1.026.307 2.065.444 3.095.355 2.596.708 5.194 1.06 7.792l.213 1.53c.673-1.215 1.284-2.314 1.887-3.415a45650.8 45650.8 0 0 0 5.44-9.873c.443-.81 1.172-1.216 2.082-1.233a92.025 92.025 0 0 1 4.383.003c.375.008.745.199 1.125.386-.851.681-1.42 1.492-1.576 2.492-.119.762-.048 1.555-.073 2.333-.008.239.012.512-.093.71-3.873 7.285-7.77 14.557-11.63 21.848-.457.863-1.12 1.302-2.032 1.48H74.91ZM34 40.573c.17-.933.4-1.86.496-2.8.151-1.466 1.554-2.365 2.873-2.355 2.566.02 5.132 0 7.7 0H57.53c.73 0 1.397.147 1.783.745-.327.839-.68 1.618-.932 2.432-.292.936.005 1.847.302 2.736.296.89-.106 1.64-1.018 1.863a4.113 4.113 0 0 1-.932.1c-1.644.01-3.286.016-4.93 0-.384 0-.545.102-.632.481a5528.064 5528.064 0 0 1-4.114 17.963c-.333 1.43-1.201 2.351-2.636 2.733h-4.33c-1.409-.553-1.945-1.507-1.62-2.968.856-3.839 1.726-7.672 2.585-11.506.495-2.21.986-4.421 1.493-6.697h-.642c-1.697 0-3.396-.041-5.093.013-1.274.041-2.27-.3-2.815-1.529v-1.21Z" fill="#F59D2B"/><path d="M56.727 64.468c-.432-.261-.927-.457-1.28-.797-.436-.421-.58-.995-.426-1.622 1.139-4.653 2.271-9.308 3.398-13.964.293-1.2 1.396-2.052 2.734-2.083 1.291-.029 2.584-.01 3.878-.007 1.293.002 2.076 1.244 1.802 2.321-1.165 4.59-2.238 9.2-3.364 13.8-.298 1.215-1.14 1.954-2.309 2.353l-4.433-.001Zm33.371 0c-.333-.153-.698-.255-.98-.47-.666-.511-.932-1.192-.725-2.038 1.132-4.634 2.26-9.27 3.384-13.906.284-1.16 1.401-2.029 2.699-2.053a105.13 105.13 0 0 1 3.931 0c1.282.025 2.062 1.04 1.764 2.277a4900.813 4900.813 0 0 1-3.33 13.748c-.313 1.28-1.144 2.087-2.42 2.442h-4.323Z" fill="#F6F6F6"/><path d="M119.073 43.19c-1.169 5.084-2.33 10.114-3.482 15.142-.261 1.14-.509 2.285-.787 3.421-.347 1.423-1.485 2.686-3.301 2.59-.999-.051-1.998-.008-2.997-.01-1.659 0-2.628-1.174-2.272-2.782a6565.899 6565.899 0 0 1 4.014-17.937c.02-.13.033-.262.039-.393-.208-.01-.4-.027-.592-.027h-5.485c-1.722 0-2.599-.977-2.367-2.653.141-1.015.299-2.027.473-3.037.216-1.261 1.332-2.172 2.747-2.175 6.78-.014 13.559-.014 20.338 0 1.213 0 2.562.86 2.096 2.637-.296 1.13-.481 2.291-.723 3.436-.277 1.317-.874 1.794-2.231 1.795a1642.91 1642.91 0 0 0-5.47-.007Zm78.038 21.278h-62.047c-2.515 0-4.12-2.03-3.587-4.532l4.27-19.983c.534-2.505 3.007-4.532 5.523-4.532h62.047c2.515 0 4.122 2.03 3.586 4.532l-4.264 19.98c-.54 2.505-3.011 4.535-5.528 4.535Z" fill="#F59D2B"/><path d="M196.784 44.056c-1.019 4.42-2.024 8.794-3.029 13.165-.228.995-.444 1.99-.685 2.975-.301 1.236-1.291 2.335-2.87 2.253-.865-.045-1.735-.009-2.602-.009-1.443 0-2.286-1.022-1.975-2.42.764-3.447 1.535-6.893 2.308-10.337.392-1.754.789-3.507 1.182-5.261.018-.114.029-.228.034-.342-.181-.009-.347-.023-.515-.023h-4.774c-1.495 0-2.258-.85-2.057-2.31.123-.885.261-1.769.411-2.64.188-1.097 1.156-1.89 2.39-1.892 5.896-.013 11.79-.013 17.686 0 1.055 0 2.227.748 1.822 2.293-.258.983-.419 1.99-.629 2.985-.241 1.145-.76 1.56-1.941 1.56l-4.756.003Zm-132.572-.644c-2.493-.026-4.193-1.599-4.448-3.82-.213-1.84 1.319-3.837 3.317-4.288 1.442-.325 2.782-.09 3.967.815.128.1.19.331.21.516.124 1.143.228 2.287.332 3.426.047.481.302 1.114.088 1.412a5.089 5.089 0 0 1-1.711 1.482c-.611.32-1.37.365-1.755.457Zm36.231-.842c-.555.553-1.37.734-2.22.795-1.651.12-3.17-.208-4.294-1.529-.98-1.145-1.249-2.487-.705-3.901.57-1.483 1.713-2.345 3.275-2.639 1.754-.331 3.125.39 4.274 1.63.111.124.124.395.096.585-.181 1.208-.418 2.407-.568 3.622-.054.432.081.885.142 1.437Zm80.081-4.517a2.093 2.093 0 0 0-1.63-.774h-13.696a3.738 3.738 0 0 0-2.332.828 3.703 3.703 0 0 0-1.298 2.1l-3.795 17.78a3.682 3.682 0 0 0 .745 3.095 3.707 3.707 0 0 0 2.885 1.37h13.514a2.104 2.104 0 0 0 2.051-1.658l.42-1.97a2.078 2.078 0 0 0-.421-1.748 2.1 2.1 0 0 0-1.63-.773h-9.016a.931.931 0 0 1-.891-.67.918.918 0 0 1-.025-.393l.474-1.396a1 1 0 0 0 .034-.122.93.93 0 0 1 .905-.731h8.776a2.104 2.104 0 0 0 2.051-1.658l.42-1.968a2.093 2.093 0 0 0-.421-1.749 2.1 2.1 0 0 0-1.63-.774h-7.486a1.455 1.455 0 0 1-.777-.257 1.048 1.048 0 0 1-.384-1.216l.375-1.105a.89.89 0 0 0 .035-.124.924.924 0 0 1 .906-.73h9.791a2.12 2.12 0 0 0 1.32-.47c.372-.3.631-.72.731-1.188l.422-1.968a2.072 2.072 0 0 0-.423-1.73Zm-21.952 6.404c.4-1.879.034-3.681-.999-4.958-1.197-1.474-3.175-2.22-5.882-2.22h-9.485a3.465 3.465 0 0 0-2.163.767 3.434 3.434 0 0 0-1.203 1.948l-3.911 18.316a3.419 3.419 0 0 0 1.884 3.807c.463.22.97.333 1.483.333h7.026c9.152 0 11.295-5.416 11.792-7.737.618-2.896-.151-4.642-1.3-5.697 1.065-.8 2.248-2.168 2.758-4.559Zm-8.307 9.328c-.371 1.743-1.41 2.52-3.368 2.52h-3.76a.599.599 0 0 1-.578-.453.592.592 0 0 1-.005-.261l.599-2.802a.595.595 0 0 1 .581-.47h4.734c.787 0 1.415.195 1.68.52.065.077.253.311.117.946Zm-4.985-7.516a.595.595 0 0 1-.582-.714l.355-1.658a.594.594 0 0 1 .582-.469h4.134c1.468 0 1.825.3 1.9.391.095.119.11.394.028.758-.299 1.402-1.728 1.697-2.874 1.697l-3.543-.005Z" fill="#F6F6F6"/></svg>