<svg width="240" height="100" viewBox="0 0 240 100" fill="none" xmlns="http://www.w3.org/2000/svg">
<path d="M46.7558 73.3056C47.1363 73.3056 47.4217 73.3056 47.7071 73.2091C47.9924 73.1126 48.1827 73.0161 48.3729 72.8231C48.6583 72.6301 48.7534 72.4371 48.8485 72.1475C48.9436 71.858 48.9436 71.5685 48.9436 71.279C48.9436 70.9895 48.9436 70.7 48.8485 70.507C48.7534 70.2174 48.6583 70.0244 48.468 69.8314C48.2778 69.6384 48.0875 69.5419 47.8022 69.4454C47.5168 69.3489 47.2315 69.3489 46.851 69.3489H45.2339V73.4021H46.7558V73.3056ZM46.7558 67.7083C47.5168 67.7083 48.0875 67.8048 48.6583 67.9978C49.229 68.1908 49.6095 68.3838 49.99 68.7698C50.3705 69.0594 50.5607 69.4454 50.751 69.9279C50.9412 70.4104 51.0363 70.7965 51.0363 71.3755C51.0363 71.9545 50.9412 72.4371 50.751 72.8231C50.5607 73.3056 50.2754 73.6916 49.99 73.9812C49.6095 74.2707 49.229 74.5602 48.6583 74.6567C48.0875 74.8497 47.5168 74.9462 46.7558 74.9462H45.2339V78.903H43.2363V67.7083H46.7558ZM63.7827 74.6567L62.451 70.9895C62.3558 70.7965 62.3558 70.6035 62.2607 70.4104C62.1656 70.2174 62.1656 69.9279 62.0705 69.6384C61.9754 69.9279 61.9754 70.1209 61.8802 70.4104C61.7851 70.6035 61.7851 70.7965 61.69 70.9895L60.3583 74.6567H63.7827ZM67.3973 78.903H65.7802C65.59 78.903 65.4949 78.903 65.3046 78.8065C65.2095 78.7099 65.1144 78.6134 65.0193 78.4204L64.1632 76.1043H59.5973L58.7412 78.4204C58.7412 78.5169 58.6461 78.6134 58.551 78.7099C58.4558 78.8064 58.2656 78.903 58.0754 78.903H56.4583L60.8339 67.7083H62.9266L67.3973 78.903ZM77.9558 73.0161C78.3363 73.0161 78.7168 72.9196 79.0022 72.8231C79.2876 72.7266 79.5729 72.6301 79.668 72.4371C79.8583 72.2441 79.9534 72.051 80.0485 71.858C80.1436 71.665 80.1436 71.3755 80.1436 71.086C80.1436 70.507 79.9534 70.1209 79.5729 69.7349C79.1924 69.4454 78.6217 69.2524 77.8607 69.2524H76.529V72.9196H77.9558V73.0161ZM83.1875 78.903H81.3802C80.9997 78.903 80.8095 78.8064 80.6193 78.5169L78.3363 74.9462L78.051 74.6567C77.9558 74.5602 77.7656 74.5602 77.5754 74.5602H76.7193V78.903H74.6266V67.7083H77.9558C78.7168 67.7083 79.3827 67.8048 79.8583 67.9013C80.429 68.0943 80.8095 68.2873 81.19 68.5768C81.5705 68.8664 81.7607 69.1559 81.951 69.6384C82.1412 70.0244 82.2363 70.507 82.2363 70.893C82.2363 71.279 82.1412 71.665 82.0461 71.9545C81.951 72.2441 81.7607 72.6301 81.5705 72.8231C81.3802 73.1126 81.0949 73.3056 80.8095 73.4986C80.5241 73.6916 80.1437 73.8847 79.7632 73.9812C79.8583 74.0777 80.0485 74.1742 80.1436 74.2707C80.2388 74.3672 80.3339 74.4637 80.429 74.6567L83.1875 78.903ZM97.8363 69.4454H94.5071V78.903H92.4144V69.4454H89.0851V67.7083H97.7412V69.4454H97.8363ZM114.673 67.7083V78.903H113.627C113.436 78.903 113.341 78.903 113.246 78.8065L112.961 78.5169L107.253 71.086V78.903H105.446V67.7083H106.873C106.968 67.7083 106.968 67.8048 107.063 67.8048L107.253 67.9978L113.056 75.4287V74.8497V67.6118H114.673V67.7083ZM125.231 69.3489V72.4371H129.036V74.0777H125.231V77.2624H130.083V78.903H123.139V67.7083H130.083V69.3489H125.231ZM141.402 73.0161C141.783 73.0161 142.163 72.9196 142.449 72.8231C142.734 72.7266 143.019 72.6301 143.114 72.4371C143.305 72.2441 143.4 72.051 143.495 71.858C143.59 71.665 143.59 71.3755 143.59 71.086C143.59 70.507 143.4 70.1209 143.019 69.7349C142.639 69.4454 142.068 69.2524 141.307 69.2524H139.975V72.9196H141.402V73.0161ZM146.634 78.903H144.827C144.446 78.903 144.256 78.8064 144.066 78.5169L141.783 74.9462L141.497 74.6567C141.402 74.5602 141.212 74.5602 141.022 74.5602H140.166V78.903H138.073V67.7083H141.402C142.163 67.7083 142.829 67.8048 143.305 67.9013C143.875 68.0943 144.256 68.2873 144.636 68.5768C145.017 68.8664 145.207 69.1559 145.397 69.6384C145.588 70.0244 145.683 70.507 145.683 70.893C145.683 71.279 145.588 71.665 145.492 71.9545C145.397 72.2441 145.207 72.6301 145.017 72.8231C144.827 73.1126 144.541 73.3056 144.256 73.4986C143.97 73.6916 143.59 73.8847 143.21 73.9812C143.305 74.0777 143.495 74.1742 143.59 74.2707C143.685 74.3672 143.78 74.4637 143.875 74.6567L146.634 78.903ZM159.761 69.7349C159.666 69.8314 159.666 69.9279 159.57 69.9279C159.475 69.9279 159.38 70.0244 159.285 70.0244C159.19 70.0244 159.095 70.0244 158.905 69.9279C158.81 69.8314 158.619 69.7349 158.429 69.6384L157.858 69.3489C157.668 69.2524 157.383 69.2524 157.002 69.2524C156.717 69.2524 156.431 69.2524 156.241 69.3489L155.67 69.6384C155.48 69.7349 155.385 69.9279 155.385 70.1209C155.29 70.3139 155.29 70.507 155.29 70.7C155.29 70.9895 155.385 71.1825 155.48 71.3755C155.67 71.5685 155.861 71.665 156.051 71.858C156.241 71.9545 156.527 72.051 156.907 72.1475C157.288 72.2441 157.478 72.3406 157.858 72.4371C158.144 72.5336 158.524 72.6301 158.81 72.8231C159.095 72.9196 159.38 73.1126 159.666 73.4021C159.856 73.5951 160.141 73.8847 160.236 74.1742C160.427 74.4637 160.427 74.8497 160.427 75.3322C160.427 75.8148 160.331 76.2973 160.141 76.7798C159.951 77.2624 159.761 77.6484 159.38 77.9379C159.095 78.2274 158.619 78.5169 158.144 78.7099C157.668 78.903 157.097 78.9995 156.527 78.9995C156.146 78.9995 155.861 78.9995 155.48 78.903C155.1 78.8064 154.814 78.7099 154.529 78.6134C154.244 78.5169 153.958 78.3239 153.673 78.1309C153.388 77.9379 153.197 77.7449 152.912 77.5519L153.483 76.5868L153.673 76.3938C153.768 76.2973 153.863 76.2973 153.958 76.2973C154.053 76.2973 154.244 76.3938 154.339 76.4903C154.529 76.5868 154.624 76.6833 154.91 76.8763C155.1 76.9728 155.385 77.1659 155.575 77.2624C155.861 77.3589 156.146 77.4554 156.527 77.4554C157.097 77.4554 157.573 77.3589 157.858 77.0693C158.144 76.7798 158.334 76.3938 158.334 75.8148C158.334 75.5253 158.239 75.2357 158.144 75.1392C157.953 74.9462 157.858 74.7532 157.573 74.6567C157.288 74.5602 157.097 74.4637 156.717 74.3672C156.431 74.2707 156.146 74.1742 155.766 74.0777C155.48 73.9812 155.1 73.8847 154.814 73.6916C154.529 73.4986 154.244 73.4021 153.958 73.1126C153.673 72.9196 153.483 72.6301 153.388 72.2441C153.197 71.858 153.197 71.472 153.197 70.9895C153.197 70.6035 153.292 70.2174 153.388 69.8314C153.578 69.4454 153.768 69.0594 154.053 68.7698C154.339 68.4803 154.719 68.1908 155.195 68.0943C155.67 67.9013 156.146 67.8048 156.717 67.8048C157.383 67.8048 157.953 67.9013 158.524 68.0943C159.095 68.2873 159.57 68.5768 159.951 68.9629L159.761 69.7349ZM86.5168 48.9862C85.3754 50.1442 84.0436 51.0128 82.6168 51.5918C81.19 52.1708 79.5729 52.4604 78.051 52.4604C76.529 52.4604 75.0071 52.2673 73.4851 51.6883C72.0583 51.1093 70.7266 50.2407 69.5851 49.0827C68.5388 48.0211 67.5875 46.67 67.0168 45.2224C66.4461 43.7748 66.1607 42.2307 66.1607 40.6867C66.1607 39.1426 66.4461 37.5985 67.0168 36.1509C67.5875 34.7033 68.4436 33.4487 69.5851 32.3872C70.7266 31.2291 72.0583 30.3605 73.4851 29.7815C74.9119 29.2025 76.529 28.9129 78.051 28.9129C79.5729 28.9129 81.0949 29.106 82.6168 29.685C84.0436 30.264 85.3754 31.1326 86.5168 32.2906C87.5632 33.3522 88.4193 34.7033 89.0851 36.1509C89.6558 37.5985 89.9412 39.1426 89.9412 40.6867C89.9412 42.2307 89.6558 43.7748 89.0851 45.2224C88.5144 46.5735 87.6583 47.9246 86.5168 48.9862ZM78.2412 46.863C79.0022 46.863 79.7632 46.7665 80.5241 46.477C81.19 46.1875 81.8558 45.705 82.4266 45.1259C83.4729 43.8713 84.0436 42.3272 83.9485 40.6867C83.9485 39.0461 83.3778 37.502 82.3315 36.2474C81.8558 35.6683 81.19 35.1858 80.429 34.8963C79.7632 34.6068 78.9071 34.4138 78.1461 34.4138C77.3851 34.4138 76.6241 34.5103 75.8632 34.7998C75.1973 35.0893 74.5315 35.5718 73.9607 36.1509C72.9144 37.4055 72.3436 38.9495 72.4388 40.5901C72.4388 42.2307 73.0095 43.7748 74.0558 45.0294C74.5315 45.6084 75.1973 46.091 75.9583 46.3805C76.6241 46.67 77.3851 46.863 78.2412 46.863ZM94.4119 58.6367V29.2025H100.595V32.4837C101.356 31.3256 102.402 30.3605 103.544 29.7815C104.685 29.106 106.017 28.8164 107.349 28.8164C108.68 28.8164 110.012 29.106 111.153 29.5885C112.39 30.1675 113.436 30.9396 114.292 31.9046C115.339 33.0627 116.1 34.4138 116.575 35.9579C117.051 37.4055 117.336 39.0461 117.241 40.5901C117.336 42.1342 117.146 43.6783 116.575 45.1259C116.1 46.5735 115.339 47.9246 114.292 49.0827C113.436 50.0477 112.295 50.9163 111.153 51.3988C109.917 51.9778 108.68 52.1708 107.349 52.1708C106.017 52.1708 104.78 51.8813 103.544 51.3023C102.402 50.7233 101.356 49.8547 100.5 48.7931V58.6367H94.4119ZM102.022 45.1259C102.497 45.705 103.068 46.091 103.734 46.477C104.4 46.7665 105.066 46.9595 105.827 46.9595C106.588 46.9595 107.253 46.863 107.919 46.477C108.585 46.1875 109.156 45.705 109.631 45.1259C110.678 43.8713 111.249 42.2307 111.153 40.4936C111.249 38.853 110.678 37.2124 109.631 35.9579C109.156 35.3788 108.585 34.9928 107.919 34.6068C107.253 34.3173 106.588 34.1243 105.827 34.1243C105.161 34.1243 104.4 34.2208 103.734 34.6068C103.068 34.8963 102.497 35.3788 102.022 35.9579C100.975 37.2124 100.405 38.853 100.5 40.5901C100.5 42.2307 100.975 43.8713 102.022 45.1259ZM129.227 52.2674C127.514 52.3639 125.897 51.7848 124.566 50.7233C123.995 50.0477 123.519 49.1792 123.234 48.3106C122.949 47.4421 122.853 46.477 122.949 45.5119V34.7033H120.38V29.2025H122.853V23.4121H129.036V29.2025H134.173V34.7033H129.036V44.3539C129.036 45.8015 129.702 46.5735 131.034 46.5735C132.08 46.5735 133.127 46.284 134.078 45.8015V50.9163C132.651 51.7848 130.939 52.2674 129.227 52.2674ZM139.024 51.8813V29.2025H145.207V51.8813H139.024ZM170.129 48.9862C168.988 50.1442 167.656 51.0128 166.229 51.5918C164.802 52.1708 163.185 52.4604 161.663 52.4604C160.141 52.4604 158.619 52.2673 157.097 51.6883C155.67 51.1093 154.339 50.2407 153.197 49.0827C152.151 48.0211 151.2 46.67 150.629 45.2224C150.058 43.7748 149.773 42.2307 149.773 40.6867C149.773 39.1426 150.058 37.5985 150.629 36.1509C151.2 34.7033 152.056 33.4487 153.197 32.2906C154.339 31.1326 155.67 30.264 157.097 29.685C158.524 29.106 160.141 28.8164 161.663 28.8164C163.185 28.8164 164.707 29.0094 166.229 29.5885C167.656 30.1675 168.988 31.0361 170.129 32.1941C171.175 33.2557 172.127 34.6068 172.697 36.0544C173.268 37.502 173.553 39.0461 173.553 40.5901C173.553 42.1342 173.268 43.6783 172.697 45.1259C172.127 46.5735 171.27 47.9246 170.129 48.9862ZM161.758 46.863C162.519 46.863 163.28 46.7665 164.041 46.477C164.707 46.1875 165.373 45.705 165.944 45.1259C166.99 43.8713 167.561 42.3272 167.466 40.6867C167.466 39.0461 166.895 37.502 165.849 36.2474C165.373 35.6683 164.707 35.1858 163.946 34.8963C163.28 34.6068 162.424 34.4138 161.663 34.4138C160.902 34.4138 160.141 34.5103 159.38 34.7998C158.714 35.0893 158.049 35.5718 157.478 36.1509C156.431 37.4055 155.861 38.9495 155.956 40.5901C155.956 42.2307 156.527 43.7748 157.573 45.0294C158.049 45.6084 158.714 46.091 159.475 46.3805C160.236 46.67 160.997 46.863 161.758 46.863ZM178.024 51.8813V29.2025H184.207V32.3872C184.873 31.3256 185.824 30.3605 186.966 29.7815C188.107 29.106 189.344 28.8164 190.58 28.7199C191.627 28.6234 192.578 28.8164 193.529 29.2025C194.48 29.5885 195.336 30.1675 196.002 30.9396C197.334 32.6767 198.095 34.8963 197.905 37.1159V51.8813H191.722V39.2391C191.817 37.9845 191.436 36.8264 190.77 35.8614C190.39 35.4753 190.01 35.1858 189.534 34.8963C189.058 34.7033 188.583 34.6068 188.012 34.6068C187.441 34.6068 186.966 34.7033 186.49 34.8963C186.014 35.0893 185.539 35.3788 185.158 35.8614C184.397 36.8264 184.017 38.081 184.112 39.2391V51.8813H178.024Z" fill="white"/>
<path d="M59.9781 22.4476L43.0463 51.8819H50.4659L63.4976 29.01C63.5927 28.817 63.5927 28.7205 63.5927 28.5275C63.5927 28.3344 63.5927 28.1414 63.4976 28.0449C63.4024 27.9484 63.3073 27.7554 63.1171 27.7554C63.022 27.6589 62.8317 27.6589 62.6415 27.6589H42.9512C42.6659 27.6589 42.4756 27.5624 42.2854 27.3694C42.0951 27.0799 42 26.8869 42 26.5973V21H59.2171C59.4073 21 59.5024 21 59.6927 21.0965C59.7878 21.193 59.9781 21.2895 60.0732 21.4825V21.9651C60.0732 22.1581 60.0732 22.3511 59.9781 22.4476ZM139.69 25.3428L142.259 21H147.205C147.395 21 147.49 21 147.68 21.0965C147.776 21.193 147.966 21.2895 147.966 21.4825C148.061 21.579 148.061 21.772 148.061 21.9651C148.061 22.1581 147.966 22.2546 147.966 22.4476L145.398 26.7903H140.451C140.261 26.7903 140.166 26.7903 139.976 26.6938C139.785 26.5973 139.69 26.5008 139.69 26.3078C139.595 26.2113 139.595 26.0183 139.595 25.8253C139.595 25.6323 139.69 25.4393 139.69 25.3428Z" fill="#FFFF00"/>
</svg>
