<svg width="240" height="100" viewBox="0 0 240 100" fill="none" xmlns="http://www.w3.org/2000/svg">
<path d="M127.705 59.914H123.339L121.345 55.5565L121.579 55.189H112.028L112.263 55.5565L110.292 59.914H105.9L115.055 40.0865H118.575L127.705 59.914ZM119.794 51.7135L119.396 51.3215L117.425 47.013L116.837 45.2018L116.79 45.2263L116.202 47.013L114.231 51.3215L113.833 51.7135H119.796H119.794ZM138.336 59.914H130.165V40.0865H138.24C146.407 40.0865 147.838 45.494 147.838 50.002C147.838 54.5083 146.455 59.914 138.334 59.914H138.336ZM138.006 43.807H133.781L134.156 44.199V55.8015L133.781 56.1935H138.099C143.027 56.1935 143.779 53.5738 143.779 49.9985C143.78 46.474 142.981 43.807 138.006 43.807ZM161.499 59.914H151.709V40.0865H161.308C165.697 40.0865 167.951 42.7535 167.951 45.8143C167.984 46.5493 167.838 47.279 167.526 47.9388C167.213 48.5985 166.746 49.1638 166.167 49.5838V49.61C167.716 50.1735 168.773 51.7643 168.773 53.9185C168.773 57.6618 166.052 59.914 161.497 59.914H161.499ZM161.076 43.807H155.325L155.7 44.199V47.6255L155.325 47.993H161.076C163.376 47.993 163.892 46.9885 163.892 45.8633C163.894 44.6155 163.212 43.807 161.076 43.807ZM161.499 51.4685H155.325L155.7 51.8605V55.8015L155.325 56.1935H161.499C164.08 56.1935 164.714 55.238 164.714 53.8678C164.714 52.5203 163.964 51.4703 161.499 51.4703V51.4685ZM176.517 59.914H172.529V40.0865H176.518V59.914H176.517ZM189.493 59.914H181.324V40.0865H189.399C197.567 40.0865 198.999 45.494 198.999 50.002C198.999 54.5083 197.616 59.914 189.492 59.914H189.493ZM189.164 43.807H184.94L185.316 44.199V55.8015L184.94 56.1935H189.258C194.186 56.1935 194.938 53.5738 194.938 49.9985C194.94 46.474 194.142 43.807 189.165 43.807H189.164ZM68.8459 78.0003C63.5358 78.0003 58.3461 76.357 53.9309 73.2805C49.5175 70.204 46.0757 65.8308 44.0434 60.7155C42.0097 55.5784 41.4802 49.9654 42.517 44.5368C43.5324 39.1457 46.0847 34.1659 49.8646 30.2008C53.6186 26.2878 58.4019 23.619 63.6109 22.5375C68.8163 21.4578 74.2153 22.0125 79.119 24.1318C84.0261 26.251 88.218 29.8403 91.1678 34.4445C94.1297 39.0888 95.7003 44.4885 95.6929 50.002C95.6842 57.4238 92.853 64.541 87.8203 69.791C82.7875 75.041 75.9633 77.9915 68.8459 78.0003ZM68.8459 23.934C63.8788 23.9411 59.0329 25.474 54.9601 28.3265C50.852 31.1913 47.6492 35.2618 45.7582 40.0253C43.865 44.8073 43.3717 50.0321 44.3365 55.0858C45.2809 60.1048 47.6563 64.7412 51.1747 68.433C54.6243 72.0527 59.0859 74.5396 63.972 75.566C68.8198 76.5723 73.8455 76.056 78.4107 74.0838C82.9777 72.1098 86.8817 68.769 89.6275 64.4833C92.3841 60.1595 93.8457 55.1328 93.8386 50.0003C93.8299 43.0895 91.1958 36.464 86.5102 31.578C81.8246 26.6903 75.4713 23.941 68.8459 23.934Z" fill="white"/>
<path d="M79.3075 58.5661H69.5212L67.7174 54.7633H62.1265L63.7017 51.4523H66.1439L63.2586 45.3711L56.975 58.5661H53.3867L61.474 41.6121H65.0467L71.4784 55.2551H79.3075C79.7907 55.2551 80.2547 55.0538 80.5966 54.6968C80.9403 54.3346 81.1315 53.8532 81.1304 53.3528C81.1304 52.8488 80.9385 52.3658 80.5966 52.0088C80.4302 51.8331 80.23 51.6931 80.0081 51.5971C79.7862 51.5012 79.5473 51.4513 79.3057 51.4506H73.4671L71.8971 48.1396H77.4427C77.6579 48.1391 77.8711 48.0946 78.0689 48.0092C78.2668 47.9238 78.4454 47.799 78.594 47.6426C78.901 47.319 79.0716 46.8889 79.0702 46.4421C79.0716 45.9953 78.901 45.5652 78.594 45.2416C78.4454 45.0851 78.2668 44.9604 78.0689 44.875C77.8711 44.7896 77.6579 44.7453 77.4427 44.7446H70.2817L68.7117 41.4336H77.4427C78.2695 41.4336 79.0825 41.6541 79.8029 42.0776C80.5234 42.5011 81.1269 43.1118 81.5543 43.8503C81.9833 44.5944 82.2204 45.4343 82.2441 46.2935C82.268 47.1529 82.0775 48.0045 81.6904 48.7713C82.6673 49.3243 83.4401 50.2011 83.8867 51.2633C84.3322 52.3301 84.4252 53.5121 84.1518 54.6356C83.8849 55.7496 83.2611 56.7449 82.376 57.4688C81.5081 58.1769 80.4243 58.5643 79.3057 58.5661H79.3075Z" fill="white"/>
</svg>
