<svg width="240" height="100" viewBox="0 0 240 100" fill="none" xmlns="http://www.w3.org/2000/svg">
<path d="M21.2527 30.0177C17.8701 30.1589 14.5782 31.1473 11.6825 32.8911C8.78672 34.6349 6.38093 37.0776 4.68833 39.9926C2.99574 42.9076 2.07119 46.2004 2.00048 49.5655C1.92977 52.9306 2.71518 56.2589 4.28384 59.2417C4.34424 59.359 4.43163 59.4605 4.53891 59.5379C4.64618 59.6153 4.77031 59.6664 4.90121 59.6871C5.03211 59.7079 5.16608 59.6976 5.29224 59.6572C5.4184 59.6168 5.53319 59.5473 5.62727 59.4545L16.7843 48.3621C16.8623 48.2845 16.9242 48.1924 16.9664 48.0911C17.0086 47.9898 17.0304 47.8812 17.0304 47.7715C17.0304 47.6618 17.0086 47.5532 16.9664 47.4518C16.9242 47.3505 16.8623 47.2584 16.7843 47.1809L15.3584 45.7621C15.2804 45.6845 15.1877 45.623 15.0858 45.581C14.9839 45.539 14.8746 45.5174 14.7643 45.5174C14.654 45.5174 14.5447 45.539 14.4428 45.581C14.3409 45.623 14.2483 45.6845 14.1702 45.7621L6.14025 53.7441C5.31746 50.2844 5.65219 46.6524 7.09368 43.399C8.53516 40.1456 11.0047 37.4484 14.1277 35.7166C17.2506 33.9849 20.8565 33.3131 24.3983 33.8033C27.94 34.2934 31.2243 35.9186 33.7528 38.4324C36.2813 40.9462 37.9161 44.2114 38.4091 47.7325C38.9021 51.2536 38.2264 54.8385 36.4845 57.9432C34.7426 61.048 32.0296 63.5031 28.7572 64.9362C25.4847 66.3693 21.8313 66.7021 18.3514 65.8841L26.3802 57.9021C26.4582 57.8245 26.5201 57.7324 26.5623 57.6311C26.6045 57.5298 26.6263 57.4212 26.6263 57.3115C26.6263 57.2018 26.6045 57.0932 26.5623 56.9918C26.5201 56.8905 26.4582 56.7984 26.3802 56.7209L24.9531 55.3021C24.8751 55.2245 24.7825 55.163 24.6805 55.121C24.5786 55.079 24.4693 55.0574 24.359 55.0574C24.2487 55.0574 24.1394 55.079 24.0375 55.121C23.9356 55.163 23.843 55.2245 23.765 55.3021L12.6079 66.3941C12.5146 66.4876 12.4447 66.6017 12.404 66.7272C12.3634 66.8526 12.3531 66.9858 12.3739 67.1159C12.3948 67.246 12.4462 67.3694 12.5241 67.4761C12.6019 67.5827 12.704 67.6696 12.822 67.7297C15.558 69.1478 18.5856 69.9212 21.6704 69.99C24.7552 70.0588 27.8146 69.4211 30.6118 68.1263C33.4091 66.8314 35.8692 64.9142 37.8019 62.5229C39.7346 60.1316 41.088 57.3303 41.7574 54.3358C42.4269 51.3412 42.3944 48.2337 41.6625 45.2537C40.9306 42.2736 39.519 39.5009 37.5368 37.15C35.5545 34.7991 33.0549 32.9331 30.2312 31.6963C27.4075 30.4596 24.3354 29.8852 21.2527 30.0177Z" fill="#00D67D"/>
<path d="M25.4407 48.1146L24.0135 46.6958C23.9355 46.6183 23.8429 46.5567 23.741 46.5148C23.6391 46.4728 23.5298 46.4512 23.4195 46.4512C23.3092 46.4512 23.1999 46.4728 23.098 46.5148C22.996 46.5567 22.9034 46.6183 22.8254 46.6958L7.20641 62.2238C7.0541 62.3763 6.96634 62.5809 6.96118 62.7957C6.95602 63.0105 7.03384 63.2191 7.17865 63.3786C7.64662 63.8946 8.14109 64.3862 8.66008 64.8514C8.82051 64.9954 9.03034 65.0728 9.24639 65.0676C9.46245 65.0625 9.66832 64.9752 9.82165 64.8238L25.4407 49.2958C25.5187 49.2183 25.5806 49.1262 25.6228 49.0249C25.665 48.9235 25.6867 48.8149 25.6867 48.7052C25.6867 48.5955 25.665 48.4869 25.6228 48.3856C25.5806 48.2843 25.5187 48.1922 25.4407 48.1146Z" fill="#00D67D"/>
<path d="M60.6432 39.8732C64.8714 39.8732 67.3853 41.8332 67.3853 45.1272C67.3853 47.5412 65.9569 48.7624 64.9286 49.1884C64.5001 49.3588 64.5001 49.586 64.9 49.7564C66.2426 50.1824 68.0423 51.5164 68.0423 54.3564C68.0423 57.8216 65.4713 59.866 61.1578 59.866H52.9302C52.8836 59.8727 52.8361 59.8685 52.7914 59.8537C52.7468 59.839 52.7062 59.8141 52.6728 59.781C52.6395 59.7479 52.6144 59.7076 52.5995 59.6632C52.5846 59.6188 52.5804 59.5715 52.587 59.5252V40.214C52.5804 40.1677 52.5846 40.1204 52.5995 40.076C52.6144 40.0316 52.6395 39.9913 52.6728 39.9582C52.7062 39.9251 52.7468 39.9002 52.7914 39.8855C52.8361 39.8707 52.8836 39.8665 52.9302 39.8732H60.6432ZM56.501 47.8824H60.0719C62.3 47.8824 63.4141 47.0588 63.4141 45.4968C63.4141 44.162 62.3857 43.31 60.6428 43.31H56.501V47.8824ZM56.501 56.4308H61.128C62.9563 56.4308 64.0418 55.522 64.0418 53.9884C64.0418 52.1992 62.842 51.3188 60.3567 51.3188H56.5002L56.501 56.4308Z" fill="#00D67D"/>
<path d="M75.6685 59.5275C75.6752 59.5738 75.6709 59.621 75.656 59.6654C75.6411 59.7097 75.6161 59.75 75.5828 59.7831C75.5496 59.8162 75.509 59.8411 75.4644 59.8559C75.4197 59.8707 75.3723 59.8749 75.3257 59.8683H72.156C72.1095 59.8749 72.062 59.8707 72.0174 59.8559C71.9727 59.8411 71.9322 59.8162 71.8989 59.7831C71.8657 59.75 71.8406 59.7097 71.8257 59.6654C71.8109 59.621 71.8066 59.5738 71.8132 59.5275V49.3887H70.3849C70.3383 49.3953 70.2909 49.3911 70.2462 49.3763C70.2016 49.3615 70.1611 49.3366 70.1278 49.3035C70.0945 49.2704 70.0695 49.2301 70.0546 49.1858C70.0397 49.1414 70.0355 49.0942 70.0421 49.0479V46.3499C70.0355 46.3036 70.0397 46.2564 70.0546 46.212C70.0695 46.1677 70.0945 46.1274 70.1278 46.0943C70.1611 46.0612 70.2016 46.0363 70.2462 46.0215C70.2909 46.0067 70.3383 46.0025 70.3849 46.0091H75.3273C75.3739 46.0025 75.4214 46.0067 75.466 46.0215C75.5106 46.0363 75.5512 46.0612 75.5844 46.0943C75.6177 46.1274 75.6427 46.1677 75.6576 46.212C75.6725 46.2564 75.6768 46.3036 75.6701 46.3499L75.6685 59.5275ZM75.6114 41.3227C75.6114 42.7711 74.8115 43.5947 73.4117 43.5947C71.9834 43.5947 71.1836 42.7711 71.1836 41.3227C71.1836 39.9027 71.9834 39.0791 73.4117 39.0791C74.8127 39.0807 75.6126 39.9027 75.6126 41.3227H75.6114Z" fill="#00D67D"/>
<path d="M81.7002 47.1438C81.9287 47.513 82.1001 47.513 82.4715 47.1722C82.9479 46.6997 83.5138 46.3259 84.1366 46.0724C84.7593 45.8189 85.4265 45.6907 86.0994 45.6954C89.4131 45.6954 91.4128 47.6834 91.4128 51.0346V59.5266C91.4194 59.5729 91.4152 59.6201 91.4003 59.6645C91.3854 59.7089 91.3603 59.7492 91.3271 59.7822C91.2938 59.8153 91.2533 59.8402 91.2086 59.855C91.164 59.8698 91.1165 59.8741 91.07 59.8674H87.9277C87.8811 59.8741 87.8336 59.8698 87.789 59.855C87.7444 59.8402 87.7038 59.8153 87.6706 59.7822C87.6373 59.7492 87.6122 59.7089 87.5974 59.6645C87.5825 59.6201 87.5782 59.5729 87.5849 59.5266V51.489C87.5849 50.0122 86.785 49.1318 85.5281 49.1318C83.7855 49.1318 82.7857 50.4118 82.7857 52.7102V59.5262C82.7924 59.5725 82.7881 59.6197 82.7732 59.6641C82.7583 59.7085 82.7333 59.7488 82.7 59.7818C82.6668 59.8149 82.6262 59.8398 82.5816 59.8546C82.537 59.8694 82.4895 59.8737 82.4429 59.867H79.2716C79.2251 59.8737 79.1776 59.8694 79.133 59.8546C79.0883 59.8398 79.0478 59.8149 79.0145 59.7818C78.9813 59.7488 78.9562 59.7085 78.9413 59.6641C78.9265 59.6197 78.9222 59.5725 78.9288 59.5262V46.3486C78.9222 46.3023 78.9265 46.2551 78.9413 46.2108C78.9562 46.1664 78.9813 46.1261 79.0145 46.093C79.0478 46.06 79.0883 46.035 79.133 46.0203C79.1776 46.0055 79.2251 46.0012 79.2716 46.0078H80.986C81.0752 46.0032 81.1633 46.0287 81.2359 46.0803C81.3086 46.1319 81.3615 46.2065 81.3859 46.2918L81.7002 47.1438Z" fill="#00D67D"/>
<path d="M96.411 46.1497C97.4116 45.8498 98.451 45.6967 99.4962 45.6953C103.581 45.6953 106.038 47.6553 106.038 51.1197V59.5265C106.045 59.5728 106.04 59.62 106.025 59.6644C106.011 59.7087 105.985 59.7491 105.952 59.7821C105.919 59.8152 105.878 59.8401 105.834 59.8549C105.789 59.8697 105.742 59.8739 105.695 59.8673H103.981C103.895 59.8721 103.811 59.85 103.739 59.804C103.667 59.7581 103.612 59.6908 103.581 59.6117L103.295 58.9317C103.067 58.5341 102.895 58.5057 102.495 58.8465C101.667 59.6985 100.438 60.1813 98.8673 60.1813C95.6107 60.1813 93.7539 58.5341 93.7539 55.7793C93.7539 53.0245 95.6397 51.3197 99.0395 51.3197H102.268V51.2345C102.268 49.8709 101.268 49.1613 99.3537 49.1613C98.6503 49.1552 97.9492 49.2411 97.2684 49.4169L96.2114 49.7293C96.1665 49.7475 96.118 49.7551 96.0696 49.7514C96.0213 49.7477 95.9745 49.7329 95.9329 49.7081C95.8913 49.6833 95.8561 49.6492 95.8301 49.6085C95.804 49.5678 95.7879 49.5217 95.7829 49.4737L95.0402 46.8893C95.024 46.8484 95.0172 46.8044 95.0204 46.7606C95.0236 46.7168 95.0366 46.6742 95.0586 46.636C95.0805 46.5979 95.1108 46.5651 95.1471 46.5401C95.1835 46.5151 95.2251 46.4986 95.2687 46.4917L96.411 46.1497ZM99.0391 54.2437C98.0678 54.2437 97.5536 54.6981 97.5536 55.4365C97.5536 56.3165 98.1821 56.8565 99.324 56.8565C101.266 56.8565 102.266 56.0329 102.266 54.3573V54.2437H99.0391Z" fill="#00D67D"/>
<path d="M111.896 47.1448C112.125 47.514 112.296 47.514 112.668 47.1732C113.144 46.7007 113.71 46.3268 114.333 46.0733C114.955 45.8198 115.623 45.6917 116.296 45.6964C119.609 45.6964 121.609 47.6844 121.609 51.0356V59.5276C121.616 59.5739 121.611 59.6211 121.596 59.6655C121.582 59.7098 121.556 59.7502 121.523 59.7832C121.49 59.8163 121.449 59.8412 121.405 59.856C121.36 59.8708 121.313 59.875 121.266 59.8684H118.124C118.077 59.875 118.03 59.8708 117.985 59.856C117.94 59.8412 117.9 59.8163 117.867 59.7832C117.833 59.7502 117.808 59.7098 117.793 59.6655C117.779 59.6211 117.774 59.5739 117.781 59.5276V51.49C117.781 50.0132 116.981 49.1328 115.724 49.1328C113.982 49.1328 112.982 50.4128 112.982 52.7112V59.5272C112.988 59.5735 112.984 59.6207 112.969 59.6651C112.954 59.7094 112.929 59.7498 112.896 59.7828C112.863 59.8159 112.822 59.8408 112.778 59.8556C112.733 59.8704 112.686 59.8746 112.639 59.868H109.467C109.42 59.8746 109.373 59.8704 109.328 59.8556C109.284 59.8408 109.243 59.8159 109.21 59.7828C109.177 59.7498 109.152 59.7094 109.137 59.6651C109.122 59.6207 109.117 59.5735 109.124 59.5272V46.3496C109.117 46.3033 109.122 46.2561 109.137 46.2117C109.152 46.1674 109.177 46.1271 109.21 46.094C109.243 46.0609 109.284 46.036 109.328 46.0212C109.373 46.0064 109.42 46.0022 109.467 46.0088H111.181C111.27 46.0041 111.359 46.0297 111.431 46.0813C111.504 46.1329 111.557 46.2075 111.581 46.2928L111.896 47.1448Z" fill="#00D67D"/>
<path d="M130.009 65.7756C129.978 65.855 129.923 65.9225 129.851 65.9685C129.779 66.0144 129.694 66.0364 129.609 66.0312H126.381C126.124 66.0312 126.01 65.8608 126.124 65.6336L127.381 62.4528C128.238 60.1524 127.923 58.3632 126.781 55.2676L123.268 46.4064C123.243 46.3617 123.232 46.3109 123.235 46.26C123.238 46.209 123.255 46.16 123.285 46.1185C123.315 46.0769 123.356 46.0446 123.404 46.0252C123.451 46.0058 123.503 46.0002 123.554 46.0088H126.839C126.924 46.0041 127.009 46.0262 127.08 46.0721C127.152 46.118 127.208 46.1853 127.239 46.2644L128.924 50.5528C129.468 52.0695 129.888 53.627 130.181 55.2104C130.181 55.2745 130.207 55.3359 130.252 55.3811C130.298 55.4264 130.359 55.4518 130.424 55.4518C130.488 55.4518 130.55 55.4264 130.596 55.3811C130.641 55.3359 130.667 55.2745 130.667 55.2104C130.966 53.6284 131.386 52.0713 131.924 50.5528L133.608 46.2644C133.639 46.1853 133.695 46.118 133.766 46.0721C133.838 46.0262 133.923 46.0041 134.008 46.0088H137.293C137.344 46.0002 137.396 46.0058 137.443 46.0252C137.491 46.0446 137.532 46.0769 137.562 46.1185C137.592 46.16 137.609 46.209 137.612 46.26C137.615 46.3109 137.604 46.3617 137.579 46.4064L130.009 65.7756Z" fill="#00D67D"/>
<path d="M152.695 39.8732C157.123 39.8732 159.751 42.3156 159.751 46.3768C159.751 50.6936 156.781 53.1644 151.553 53.1644H148.753V59.5244C148.76 59.5707 148.755 59.6179 148.741 59.6623C148.726 59.7066 148.701 59.747 148.667 59.78C148.634 59.8131 148.593 59.838 148.549 59.8528C148.504 59.8676 148.457 59.8718 148.41 59.8652H145.182C145.136 59.8719 145.088 59.8677 145.043 59.8529C144.999 59.8382 144.958 59.8133 144.925 59.7802C144.891 59.7471 144.866 59.7068 144.851 59.6624C144.837 59.618 144.832 59.5707 144.839 59.5244V40.214C144.832 40.1677 144.837 40.1204 144.851 40.076C144.866 40.0316 144.891 39.9913 144.925 39.9582C144.958 39.9251 144.999 39.9002 145.043 39.8855C145.088 39.8707 145.136 39.8665 145.182 39.8732H152.695ZM148.752 49.7284H151.553C154.266 49.7284 155.781 48.5072 155.781 46.3772C155.781 44.4744 154.61 43.31 152.696 43.31H148.753L148.752 49.7284Z" fill="#00D67D"/>
<path d="M164.151 46.1497C165.151 45.8498 166.191 45.6967 167.236 45.6953C171.321 45.6953 173.778 47.6553 173.778 51.1197V59.5265C173.784 59.5728 173.78 59.62 173.765 59.6644C173.75 59.7087 173.725 59.7491 173.692 59.7821C173.659 59.8152 173.618 59.8401 173.574 59.8549C173.529 59.8697 173.481 59.8739 173.435 59.8673H171.721C171.636 59.8721 171.551 59.85 171.479 59.804C171.407 59.7581 171.352 59.6908 171.321 59.6117L171.035 58.9317C170.807 58.5341 170.635 58.5057 170.235 58.8465C169.407 59.6985 168.179 60.1813 166.608 60.1813C163.351 60.1813 161.494 58.5341 161.494 55.7793C161.494 53.0245 163.38 51.3197 166.779 51.3197H170.007V51.2345C170.007 49.8709 169.007 49.1613 167.093 49.1613C166.39 49.1552 165.689 49.2411 165.008 49.4169L163.951 49.7293C163.906 49.7475 163.857 49.7551 163.809 49.7514C163.761 49.7477 163.714 49.7329 163.672 49.7081C163.631 49.6833 163.596 49.6492 163.57 49.6085C163.543 49.5678 163.527 49.5217 163.522 49.4737L162.78 46.8893C162.763 46.8484 162.757 46.8044 162.76 46.7606C162.763 46.7168 162.776 46.6742 162.798 46.636C162.82 46.5979 162.85 46.5651 162.887 46.5401C162.923 46.5151 162.964 46.4986 163.008 46.4917L164.151 46.1497ZM166.779 54.2437C165.808 54.2437 165.293 54.6981 165.293 55.4365C165.293 56.3165 165.922 56.8565 167.064 56.8565C169.006 56.8565 170.006 56.0329 170.006 54.3573V54.2437H166.779Z" fill="#00D67D"/>
<path d="M185.347 48.792C185.354 48.8383 185.349 48.8855 185.335 48.9299C185.32 48.9742 185.295 49.0145 185.261 49.0476C185.228 49.0807 185.188 49.1056 185.143 49.1204C185.098 49.1352 185.051 49.1394 185.004 49.1328C181.891 49.2748 180.719 51.2344 180.719 56.6876V59.5276C180.726 59.5739 180.722 59.6211 180.707 59.6655C180.692 59.7098 180.667 59.7501 180.634 59.7832C180.6 59.8163 180.56 59.8412 180.515 59.856C180.471 59.8708 180.423 59.875 180.377 59.8684H177.205C177.159 59.875 177.111 59.8708 177.067 59.856C177.022 59.8412 176.981 59.8163 176.948 59.7832C176.915 59.7501 176.89 59.7098 176.875 59.6655C176.86 59.6211 176.856 59.5739 176.862 59.5276V46.3496C176.856 46.3033 176.86 46.2561 176.875 46.2117C176.89 46.1674 176.915 46.127 176.948 46.094C176.981 46.0609 177.022 46.036 177.067 46.0212C177.111 46.0064 177.159 46.0022 177.205 46.0088H178.92C179.005 46.004 179.089 46.0262 179.161 46.0721C179.233 46.118 179.289 46.1853 179.32 46.2644L179.948 47.656C180.149 47.9684 180.262 48.0536 180.576 47.7128C181.776 46.3496 182.947 45.7528 185.004 45.6964C185.051 45.6898 185.098 45.694 185.143 45.7088C185.188 45.7236 185.228 45.7485 185.261 45.7816C185.295 45.8146 185.32 45.855 185.335 45.8993C185.349 45.9437 185.354 45.9909 185.347 46.0372V48.792Z" fill="#00D67D"/>
<path d="M196.347 46.0084C196.394 46.0018 196.441 46.006 196.486 46.0208C196.53 46.0356 196.571 46.0605 196.604 46.0936C196.637 46.1267 196.662 46.167 196.677 46.2113C196.692 46.2557 196.696 46.3029 196.69 46.3492V49.0472C196.696 49.0935 196.692 49.1407 196.677 49.1851C196.662 49.2294 196.637 49.2697 196.604 49.3028C196.571 49.3359 196.53 49.3608 196.486 49.3756C196.441 49.3904 196.394 49.3946 196.347 49.388H193.119V55.4088C193.119 56.2888 193.462 56.7436 194.062 56.7436C194.305 56.7498 194.547 56.7113 194.776 56.63C195.004 56.5448 195.147 56.6016 195.233 56.8004L196.376 59.1292C196.399 59.1662 196.415 59.2075 196.422 59.2508C196.429 59.2941 196.427 59.3383 196.417 59.3809C196.406 59.4234 196.387 59.4633 196.36 59.4982C196.333 59.533 196.3 59.5621 196.261 59.5836C195.591 59.9654 194.834 60.1707 194.062 60.18C191.034 60.18 189.262 58.42 189.262 55.4372V49.388H187.834C187.788 49.3946 187.74 49.3904 187.695 49.3756C187.651 49.3608 187.61 49.3359 187.577 49.3028C187.544 49.2697 187.519 49.2294 187.504 49.1851C187.489 49.1407 187.485 49.0935 187.491 49.0472V46.3492C187.485 46.3029 187.489 46.2557 187.504 46.2113C187.519 46.167 187.544 46.1267 187.577 46.0936C187.61 46.0605 187.651 46.0356 187.695 46.0208C187.74 46.006 187.788 46.0018 187.834 46.0084H189.262V42.8272C189.254 42.7412 189.279 42.6553 189.332 42.5868C189.385 42.5183 189.462 42.4723 189.548 42.458L192.719 41.4072C192.976 41.322 193.119 41.4356 193.119 41.6628V46.0084H196.347Z" fill="#00D67D"/>
<path d="M202.175 47.1438C202.404 47.513 202.575 47.513 202.946 47.1722C203.423 46.6997 203.989 46.3259 204.612 46.0724C205.234 45.8189 205.902 45.6908 206.574 45.6954C209.888 45.6954 211.888 47.6834 211.888 51.0346V59.5266C211.894 59.5729 211.89 59.6201 211.875 59.6645C211.86 59.7089 211.835 59.7492 211.802 59.7822C211.769 59.8153 211.728 59.8402 211.684 59.855C211.639 59.8698 211.592 59.8741 211.545 59.8674H208.402C208.356 59.8741 208.308 59.8698 208.264 59.855C208.219 59.8402 208.178 59.8153 208.145 59.7822C208.112 59.7492 208.087 59.7089 208.072 59.6645C208.057 59.6201 208.053 59.5729 208.059 59.5266V51.489C208.059 50.0122 207.26 49.1318 206.003 49.1318C204.26 49.1318 203.26 50.4118 203.26 52.7102V59.5262C203.267 59.5725 203.263 59.6197 203.248 59.6641C203.233 59.7085 203.208 59.7488 203.175 59.7818C203.141 59.8149 203.101 59.8398 203.056 59.8546C203.012 59.8694 202.964 59.8737 202.918 59.867H199.746C199.7 59.8737 199.652 59.8694 199.608 59.8546C199.563 59.8398 199.522 59.8149 199.489 59.7818C199.456 59.7488 199.431 59.7085 199.416 59.6641C199.401 59.6197 199.397 59.5725 199.403 59.5262V46.3486C199.397 46.3023 199.401 46.2551 199.416 46.2108C199.431 46.1664 199.456 46.1261 199.489 46.093C199.522 46.06 199.563 46.035 199.608 46.0203C199.652 46.0055 199.7 46.0012 199.746 46.0078H201.461C201.55 46.0032 201.638 46.0287 201.711 46.0803C201.783 46.1319 201.836 46.2065 201.861 46.2918L202.175 47.1438Z" fill="#00D67D"/>
<path d="M224.175 59.8395C223.25 60.0687 222.3 60.1832 221.347 60.1803C216.862 60.1803 214.377 57.3971 214.377 52.9383C214.377 48.5079 216.919 45.6963 221.204 45.6963C224.745 45.6963 226.889 47.5139 226.889 50.3823C226.889 52.6827 225.49 53.9607 222.49 54.3867L218.547 54.9547C218.861 56.0623 219.804 56.7439 221.347 56.7439C222.039 56.7482 222.729 56.672 223.404 56.5167L224.832 56.1475C224.877 56.1293 224.925 56.1217 224.974 56.1254C225.022 56.1291 225.069 56.1439 225.11 56.1687C225.152 56.1935 225.187 56.2276 225.213 56.2683C225.239 56.309 225.255 56.3551 225.26 56.4031L225.975 59.0159C225.993 59.0605 226 59.1088 225.997 59.1569C225.993 59.2049 225.978 59.2515 225.953 59.2928C225.928 59.3342 225.894 59.3692 225.853 59.395C225.812 59.4209 225.766 59.437 225.717 59.4419L224.175 59.8395ZM221.918 51.5195C222.69 51.3775 223.09 51.0651 223.09 50.4971C223.09 49.5883 222.376 49.1339 221.118 49.1339C219.633 49.1339 218.519 49.9859 218.204 52.0591L221.918 51.5195Z" fill="#00D67D"/>
<path d="M237.999 48.791C238.006 48.8373 238.002 48.8845 237.987 48.9289C237.972 48.9732 237.947 49.0136 237.914 49.0466C237.88 49.0797 237.84 49.1046 237.795 49.1194C237.751 49.1342 237.703 49.1384 237.657 49.1318C234.543 49.2738 233.372 51.2334 233.372 56.6866V59.5266C233.378 59.5729 233.374 59.6201 233.359 59.6645C233.344 59.7088 233.319 59.7492 233.286 59.7822C233.253 59.8153 233.212 59.8402 233.168 59.855C233.123 59.8698 233.075 59.874 233.029 59.8674H229.858C229.811 59.874 229.764 59.8698 229.719 59.855C229.674 59.8402 229.634 59.8153 229.6 59.7822C229.567 59.7492 229.542 59.7088 229.527 59.6645C229.512 59.6201 229.508 59.5729 229.515 59.5266V46.3486C229.508 46.3023 229.512 46.2551 229.527 46.2108C229.542 46.1664 229.567 46.1261 229.6 46.093C229.634 46.0599 229.674 46.035 229.719 46.0202C229.764 46.0054 229.811 46.0012 229.858 46.0078H231.572C231.657 46.003 231.742 46.0252 231.814 46.0711C231.885 46.117 231.941 46.1843 231.972 46.2634L232.6 47.655C232.802 47.9674 232.915 48.0526 233.229 47.7118C234.429 46.3486 235.6 45.7518 237.657 45.6954C237.703 45.6888 237.751 45.693 237.795 45.7078C237.84 45.7226 237.88 45.7475 237.914 45.7806C237.947 45.8137 237.972 45.854 237.987 45.8984C238.002 45.9427 238.006 45.9899 237.999 46.0362V48.791Z" fill="#00D67D"/>
</svg>
