<svg width="240" height="100" viewBox="0 0 240 100" fill="none" xmlns="http://www.w3.org/2000/svg">
<path d="M74.5441 42.9034C73.9883 42.4221 73.2934 42.0613 72.4594 41.8207C71.6255 41.5499 70.8071 41.4146 70.0041 41.4146C69.1085 41.4146 68.29 41.58 67.5487 41.9108C66.8075 42.2116 66.159 42.6477 65.603 43.2191C65.078 43.7606 64.661 44.4222 64.3521 45.2043C64.0433 45.9862 63.889 46.8285 63.889 47.7307C63.889 48.633 64.0587 49.4752 64.3985 50.2571C64.7382 51.0391 65.2015 51.7159 65.7882 52.2874C66.3751 52.8287 67.0546 53.2649 67.8267 53.5957C68.6297 53.8965 69.479 54.0468 70.3746 54.0468C71.4248 54.0468 72.3823 53.8363 73.247 53.4152C74.1118 52.9641 74.853 52.3625 75.4708 51.6105H72.691V45.2944H84.5972V55.31C83.8868 56.5432 83.0374 57.671 82.0492 58.6936C81.0608 59.6862 79.949 60.5434 78.7137 61.2653C77.509 61.9871 76.1965 62.5434 74.7758 62.9345C73.355 63.3255 71.888 63.5209 70.3746 63.5209C68.151 63.5209 66.0508 63.1149 64.0742 62.3029C62.0976 61.4909 60.368 60.378 58.8855 58.9644C57.4339 57.5507 56.2758 55.8815 55.411 53.9566C54.5771 52.0317 54.1602 49.9563 54.1602 47.7307C54.1602 45.5652 54.5617 43.5199 55.3647 41.5951C56.1677 39.6701 57.2641 38.0009 58.6539 36.5873C60.0746 35.1436 61.7423 34.0157 63.6572 33.2037C65.603 32.3615 67.6877 31.9404 69.9115 31.9404C71.641 31.9404 73.1389 32.1058 74.4051 32.4367C75.6714 32.7675 76.737 33.1435 77.6018 33.5645C78.6209 34.0458 79.4703 34.5722 80.1498 35.1436L74.5441 42.9034Z" fill="#3959D9"/>
<path d="M87.1602 32.6621H97.4449V54.8587H105.969V62.7539H87.1602V32.6621Z" fill="#3959D9"/>
<path d="M105.51 47.7307C105.51 45.5652 105.927 43.5199 106.76 41.5951C107.625 39.6701 108.783 38.0009 110.235 36.5873C111.718 35.1436 113.447 34.0157 115.424 33.2037C117.4 32.3615 119.501 31.9404 121.724 31.9404C123.948 31.9404 126.048 32.3615 128.025 33.2037C130.001 34.0157 131.715 35.1436 133.167 36.5873C134.65 38.0009 135.808 39.6701 136.642 41.5951C137.506 43.5199 137.939 45.5652 137.939 47.7307C137.939 49.8962 137.506 51.9415 136.642 53.8663C135.808 55.7913 134.65 57.4755 133.167 58.9192C131.715 60.3329 130.001 61.4607 128.025 62.3029C126.048 63.1149 123.948 63.5209 121.724 63.5209C119.501 63.5209 117.4 63.1149 115.424 62.3029C113.447 61.4607 111.718 60.3329 110.235 58.9192C108.783 57.4755 107.625 55.7913 106.76 53.8663C105.927 51.9415 105.51 49.8962 105.51 47.7307ZM115.239 47.7307C115.239 48.603 115.408 49.43 115.748 50.2121C116.088 50.964 116.551 51.6256 117.138 52.1971C117.725 52.7685 118.404 53.2196 119.176 53.5506C119.979 53.8814 120.829 54.0468 121.724 54.0468C122.62 54.0468 123.454 53.8814 124.226 53.5506C125.029 53.2196 125.724 52.7685 126.311 52.1971C126.897 51.6256 127.361 50.964 127.7 50.2121C128.04 49.43 128.21 48.603 128.21 47.7307C128.21 46.8585 128.04 46.0464 127.7 45.2944C127.361 44.5125 126.897 43.8358 126.311 43.2644C125.724 42.6929 125.029 42.2416 124.226 41.9108C123.454 41.58 122.62 41.4146 121.724 41.4146C120.829 41.4146 119.979 41.58 119.176 41.9108C118.404 42.2416 117.725 42.6929 117.138 43.2644C116.551 43.8358 116.088 44.5125 115.748 45.2944C115.408 46.0464 115.239 46.8585 115.239 47.7307Z" fill="#3959D9"/>
<path d="M140.5 32.6621H151.155C153.132 32.6621 154.954 32.9178 156.622 33.4291C158.321 33.9404 159.788 34.6923 161.023 35.6848C162.258 36.6773 163.216 37.9105 163.895 39.3842C164.606 40.8279 164.961 42.4972 164.961 44.392C164.961 45.8959 164.745 47.1742 164.312 48.2268C163.88 49.2795 163.401 50.1517 162.876 50.8435C162.258 51.6255 161.564 52.2872 160.791 52.8285L166.582 62.7539H155L150.368 55.1294V62.7539H140.5V32.6621ZM150.368 47.4599H150.877C152.051 47.4599 153.039 47.2042 153.842 46.6929C154.676 46.1816 155.093 45.3244 155.093 44.1214C155.093 42.9183 154.676 42.0611 153.842 41.5497C153.039 41.0384 152.051 40.7829 150.877 40.7829H150.368V47.4599Z" fill="#3959D9"/>
<path d="M172.469 49.8059L162.879 32.6621H173.858L177.426 39.0233L180.947 32.6621H191.925L182.336 49.8059V62.7539H172.469V49.8059Z" fill="#3959D9"/>
<path fill-rule="evenodd" clip-rule="evenodd" d="M47.1021 27.4672C46.9169 27.204 46.9876 26.8342 47.2817 26.7008C48.4366 26.1772 49.2165 26.5845 49.6928 27.1389C49.9807 27.4739 50.5199 27.6001 50.9434 27.4701C52.1043 27.1137 53.3451 27.7883 53.715 28.9768C53.9039 29.5839 53.829 30.2075 53.5559 30.72C53.3057 31.1896 53.3149 31.8813 53.819 32.059C54.879 32.4329 56.0544 32.4843 57.1984 32.133C59.1958 31.5198 60.5752 29.84 60.9333 27.8825C60.9708 27.6772 60.7375 27.5282 60.5368 27.5898C59.492 27.9106 58.3752 27.3034 58.0424 26.2337C57.7095 25.164 58.2866 24.0368 59.3314 23.7161C59.4754 23.6719 59.6208 23.6453 59.7654 23.6351C59.8618 23.6283 59.9195 23.4978 59.8586 23.4232C59.6904 23.2174 59.5631 22.9806 59.4839 22.7262C59.4048 22.4719 59.3753 22.205 59.3973 21.9408C59.4192 21.6766 59.4921 21.4203 59.6118 21.1866C59.7315 20.9528 59.8957 20.7461 60.0949 20.5783C60.2941 20.4105 60.5245 20.2849 60.7729 20.2086C61.0213 20.1323 61.2829 20.1069 61.5426 20.1338C61.8024 20.1607 62.0555 20.2393 62.2871 20.3652C62.5187 20.4912 62.7245 20.6619 62.8927 20.8677C63.0609 21.0735 63.1882 21.3103 63.2673 21.5647C63.3465 21.8191 63.3758 22.0859 63.3539 22.3501C63.346 22.4458 63.4678 22.5213 63.5513 22.4729C63.6764 22.4002 63.8115 22.3407 63.9555 22.2965C65.0003 21.9757 66.117 22.5829 66.4498 23.6526C66.7828 24.7223 66.2056 25.8495 65.1609 26.1702C64.9602 26.2318 64.8521 26.4856 64.9997 26.6341C66.4075 28.0495 68.5004 28.6633 70.4979 28.05C71.6418 27.6988 72.5831 26.9977 73.246 26.0949C73.561 25.6656 73.1761 25.0894 72.7028 24.8421C72.186 24.5721 71.7698 24.0991 71.5809 23.4919C71.211 22.3034 71.8523 21.051 73.0131 20.6946C73.4366 20.5645 73.8101 20.158 73.8575 19.7201C73.9359 18.9955 74.3484 18.2222 75.5993 18.0072C75.9178 17.9524 76.1863 18.2182 76.1829 18.5393L76.0419 31.9775C75.5647 31.8198 75.0527 31.6699 74.5057 31.5278C73.1472 31.1748 71.5401 30.9983 69.6844 30.9983C67.2988 30.9983 65.0621 31.4476 62.9745 32.346C60.9201 33.2124 59.1308 34.4158 57.6065 35.956C56.6973 36.8758 55.9051 37.8968 55.2299 39.0194L47.1021 27.4672Z" fill="#3959D9"/>
<path d="M90.674 81.9993C89.2458 81.9993 87.9604 81.7028 86.8178 81.1094C85.6883 80.5033 84.7988 79.6649 84.1497 78.5944C83.5004 77.5239 83.1758 76.3114 83.1758 74.9572C83.1758 73.6029 83.5004 72.3905 84.1497 71.32C84.7988 70.2495 85.6883 69.4176 86.8178 68.8243C87.9604 68.2181 89.2458 67.915 90.674 67.915C91.9206 67.915 93.0437 68.1342 94.0435 68.5728C95.0431 69.0113 95.8742 69.6433 96.5364 70.4688L94.0824 72.6742C93.1995 71.6167 92.1283 71.0879 90.8688 71.0879C90.1288 71.0879 89.4665 71.249 88.8822 71.5716C88.311 71.894 87.8631 72.3518 87.5385 72.9452C87.2269 73.5256 87.071 74.1963 87.071 74.9572C87.071 75.7182 87.2269 76.3953 87.5385 76.9885C87.8631 77.5689 88.311 78.0204 88.8822 78.3429C89.4665 78.6653 90.1288 78.8265 90.8688 78.8265C92.1283 78.8265 93.1995 78.2977 94.0824 77.2401L96.5364 79.4456C95.8742 80.271 95.0431 80.9031 94.0435 81.3415C93.0437 81.7801 91.9206 81.9993 90.674 81.9993Z" fill="#FC4665"/>
<path d="M107.161 79.0971H101.396L100.325 81.7282H96.3906L102.409 68.1855H106.207L112.244 81.7282H108.232L107.161 79.0971ZM106.031 76.2724L104.278 71.9388L102.526 76.2724H106.031Z" fill="#FC4665"/>
<path d="M118.128 81.9993C117.025 81.9993 115.953 81.8639 114.915 81.5931C113.876 81.3222 113.032 80.9611 112.383 80.5097L113.649 77.685C114.259 78.0849 114.967 78.4073 115.772 78.6524C116.577 78.8974 117.369 79.02 118.148 79.02C119.628 79.02 120.368 78.6524 120.368 77.9173C120.368 77.5303 120.154 77.2465 119.725 77.066C119.31 76.8725 118.635 76.6727 117.7 76.4663C116.674 76.247 115.817 76.0147 115.129 75.7697C114.441 75.5118 113.85 75.1055 113.357 74.5508C112.863 73.9963 112.617 73.2482 112.617 72.3067C112.617 71.4813 112.844 70.7396 113.298 70.0818C113.753 69.4112 114.428 68.8823 115.324 68.4954C116.232 68.1085 117.343 67.915 118.654 67.915C119.55 67.915 120.433 68.0182 121.303 68.2245C122.173 68.4181 122.939 68.7082 123.601 69.0952L122.413 71.9391C121.115 71.2426 119.855 70.8945 118.635 70.8945C117.869 70.8945 117.31 71.0105 116.96 71.2426C116.609 71.4619 116.434 71.7521 116.434 72.1133C116.434 72.4744 116.642 72.7452 117.057 72.9258C117.472 73.1063 118.141 73.2933 119.063 73.4869C120.102 73.706 120.959 73.9447 121.634 74.2027C122.322 74.4477 122.913 74.8475 123.406 75.4022C123.913 75.9439 124.166 76.6855 124.166 77.627C124.166 78.4396 123.939 79.1748 123.484 79.8326C123.03 80.4903 122.348 81.0191 121.439 81.4189C120.53 81.8059 119.427 81.9993 118.128 81.9993Z" fill="#FC4665"/>
<path d="M125.949 68.1855H129.805V81.7282H125.949V68.1855Z" fill="#FC4665"/>
<path d="M145.52 68.1855V81.7282H142.345L136.327 74.5119V81.7282H132.549V68.1855H135.723L141.742 75.4019V68.1855H145.52Z" fill="#FC4665"/>
<path d="M155.115 81.9993C153.674 81.9993 152.376 81.6962 151.22 81.0901C150.077 80.4839 149.175 79.6455 148.513 78.575C147.864 77.5045 147.539 76.2986 147.539 74.9572C147.539 73.6159 147.864 72.4098 148.513 71.3393C149.175 70.2688 150.077 69.4306 151.22 68.8243C152.376 68.2181 153.674 67.915 155.115 67.915C156.556 67.915 157.848 68.2181 158.991 68.8243C160.146 69.4306 161.049 70.2688 161.698 71.3393C162.36 72.4098 162.691 73.6159 162.691 74.9572C162.691 76.2986 162.36 77.5045 161.698 78.575C161.049 79.6455 160.146 80.4839 158.991 81.0901C157.848 81.6962 156.556 81.9993 155.115 81.9993ZM155.115 78.8265C155.803 78.8265 156.427 78.6653 156.985 78.3429C157.543 78.0204 157.985 77.5689 158.309 76.9885C158.634 76.3953 158.796 75.7182 158.796 74.9572C158.796 74.1963 158.634 73.5256 158.309 72.9452C157.985 72.3518 157.543 71.894 156.985 71.5716C156.427 71.249 155.803 71.0879 155.115 71.0879C154.427 71.0879 153.804 71.249 153.246 71.5716C152.687 71.894 152.246 72.3518 151.921 72.9452C151.597 73.5256 151.434 74.1963 151.434 74.9572C151.434 75.7182 151.597 76.3953 151.921 76.9885C152.246 77.5689 152.687 78.0204 153.246 78.3429C153.804 78.6653 154.427 78.8265 155.115 78.8265Z" fill="#FC4665"/>
</svg>
