<svg width="240" height="100" viewBox="0 0 240 100" fill="none" xmlns="http://www.w3.org/2000/svg">
<path d="M74.9085 64.468C74.827 64.4271 74.7409 64.3957 74.6522 64.3741C72.9873 64.1696 72.147 63.5837 71.825 61.3489C71.3888 58.3215 71.0226 55.2852 70.6308 52.2534C70.28 49.5465 69.9381 46.8375 69.5874 44.1328C69.311 42.0084 69.0436 39.883 68.7382 37.7619C68.5296 36.3084 69.382 35.2894 70.8694 35.2883H74.1994C75.5313 35.2883 76.4304 36.0001 76.6723 37.3198C76.861 38.3455 76.9786 39.3845 77.1163 40.4146C77.4707 43.0113 77.8241 45.6087 78.1763 48.207C78.2396 48.6711 78.3062 49.1343 78.3894 49.7377C79.062 48.522 79.6726 47.4232 80.2763 46.3224C82.0901 43.0308 83.903 39.7396 85.7153 36.4488C86.1593 35.6397 86.8885 35.233 87.7976 35.2164C89.2616 35.1833 90.7189 35.1821 92.1808 35.2186C92.556 35.2275 92.9257 35.4176 93.3064 35.6055C92.455 36.2863 91.8867 37.0965 91.7302 38.0968C91.6114 38.8595 91.6824 39.652 91.657 40.4301C91.6492 40.6688 91.6691 40.9418 91.5636 41.1397C87.691 48.4247 83.7939 55.6975 79.9346 62.988C79.4772 63.8512 78.8134 64.2901 77.9021 64.468H74.9085Z" fill="#F59D2B"/>
<path d="M34 40.5731C34.1698 39.6403 34.4007 38.7129 34.4962 37.7723C34.6471 36.3067 36.0501 35.4081 37.3688 35.4181C39.935 35.4379 42.5013 35.4181 45.0686 35.4181H57.5314C58.2617 35.4181 58.9277 35.5651 59.314 36.163C58.9866 37.0019 58.6336 37.7812 58.3816 38.5947C58.0897 39.5308 58.3871 40.4416 58.6835 41.3314C58.9798 42.2211 58.5781 42.9716 57.6657 43.1938C57.3602 43.2629 57.0477 43.2962 56.7344 43.2933C55.0905 43.3032 53.4478 43.3098 51.8039 43.2933C51.4199 43.2933 51.2589 43.396 51.1723 43.7752C49.8108 49.765 48.4392 55.7529 47.0577 61.7383C46.7247 63.1675 45.8567 64.0893 44.4215 64.4706H40.0926C38.683 63.918 38.1469 62.9641 38.4721 61.503C39.3279 57.6643 40.1981 53.831 41.0572 49.9968C41.5522 47.7863 42.0429 45.5757 42.5501 43.2999H41.9085C40.2114 43.2999 38.512 43.259 36.8149 43.3131C35.5406 43.354 34.545 43.0125 34 41.7845V40.5731Z" fill="#F59D2B"/>
<path d="M56.7269 64.4678C56.2951 64.207 55.8 64.0113 55.4471 63.6709C55.0108 63.2498 54.8666 62.6761 55.0208 62.0494C56.1597 57.3962 57.2922 52.7414 58.4185 48.0852C58.7115 46.8848 59.8148 46.0327 61.1534 46.0017C62.4443 45.973 63.7374 45.9929 65.0305 45.9951C66.3236 45.9973 67.1073 47.2385 66.8331 48.3162C65.6677 52.9054 64.5954 57.5167 63.4688 62.1158C63.1713 63.3315 62.3288 64.0699 61.1601 64.4689L56.7269 64.4678Z" fill="#F6F6F6"/>
<path d="M90.0981 64.4684C89.7651 64.3147 89.3999 64.213 89.118 63.9974C88.452 63.4868 88.1856 62.806 88.3932 61.9604C89.5254 57.3256 90.6535 52.69 91.7774 48.0536C92.0605 46.8931 93.1783 46.0255 94.4758 46.0011C95.7735 45.9768 97.0976 45.9757 98.4073 46.0011C99.6894 46.0255 100.469 47.0401 100.171 48.2781C99.0677 52.8621 97.9578 57.4446 96.8412 62.0257C96.5282 63.3067 95.6968 64.1135 94.4203 64.4684H90.0981Z" fill="#F6F6F6"/>
<path d="M119.073 43.1897C117.904 48.274 116.743 53.3042 115.591 58.3322C115.33 59.4729 115.082 60.6168 114.804 61.753C114.457 63.1756 113.319 64.4389 111.503 64.3439C110.504 64.2919 109.505 64.335 108.506 64.3339C106.847 64.3339 105.878 63.159 106.234 61.5508C107.114 57.5873 107.998 53.6248 108.889 49.6634C109.341 47.6466 109.794 45.6301 110.248 43.6141C110.268 43.4837 110.281 43.3524 110.287 43.2206C110.079 43.2107 109.887 43.1941 109.695 43.1941H104.21C102.488 43.1941 101.611 42.217 101.843 40.5414C101.984 39.526 102.142 38.5136 102.316 37.5041C102.532 36.2429 103.648 35.3322 105.063 35.3289C111.843 35.3149 118.622 35.3149 125.401 35.3289C126.614 35.3289 127.963 36.1899 127.497 37.9661C127.201 39.0968 127.016 40.2574 126.774 41.4024C126.497 42.7188 125.9 43.1963 124.543 43.1974C122.74 43.1908 120.931 43.1897 119.073 43.1897Z" fill="#F59D2B"/>
<path d="M197.111 64.468H135.064C132.549 64.468 130.944 62.4376 131.477 59.9362L135.747 39.9526C136.281 37.448 138.754 35.4209 141.27 35.4209H203.317C205.832 35.4209 207.439 37.4513 206.903 39.9526L202.639 59.933C202.099 62.4376 199.628 64.468 197.111 64.468Z" fill="#F59D2B"/>
<path d="M196.784 44.0557C195.765 48.4769 194.76 52.8505 193.755 57.2208C193.527 58.2156 193.311 59.2104 193.07 60.1962C192.769 61.4319 191.779 62.5306 190.2 62.4488C189.335 62.4035 188.465 62.44 187.598 62.44C186.155 62.44 185.312 61.4176 185.623 60.0194C186.387 56.573 187.158 53.1275 187.931 49.6827C188.323 47.9286 188.72 46.1756 189.113 44.4215C189.131 44.3084 189.142 44.1944 189.147 44.08C188.966 44.0711 188.8 44.0568 188.632 44.0568H183.858C182.363 44.0568 181.6 43.2068 181.801 41.7467C181.924 40.8625 182.062 39.9783 182.212 39.1062C182.4 38.0097 183.368 37.2172 184.602 37.215C190.498 37.2018 196.392 37.2018 202.288 37.215C203.343 37.215 204.515 37.9633 204.11 39.5085C203.852 40.4911 203.691 41.498 203.481 42.4928C203.24 43.6379 202.721 44.0535 201.54 44.0535L196.784 44.0557Z" fill="#F6F6F6"/>
<path d="M64.2117 43.4124C61.7187 43.3859 60.0193 41.8131 59.764 39.5925C59.5509 37.7522 61.0826 35.755 63.0806 35.304C64.5235 34.9791 65.8633 35.2134 67.0477 36.1186C67.1763 36.2181 67.2385 36.4502 67.2575 36.6348C67.3817 37.7777 67.4861 38.9216 67.5904 40.0612C67.637 40.542 67.8924 41.1753 67.6782 41.4726C67.2267 42.0885 66.6417 42.5951 65.9666 42.9548C65.356 43.2754 64.5979 43.3196 64.2117 43.4124Z" fill="#F6F6F6"/>
<path d="M100.443 42.5702C99.8883 43.1229 99.0724 43.3042 98.2234 43.365C96.5716 43.4843 95.0521 43.1572 93.9288 41.8363C92.9499 40.6913 92.6801 39.3494 93.2239 37.9347C93.7935 36.4525 94.9366 35.5903 96.4995 35.2963C98.2533 34.9647 99.6241 35.6865 100.773 36.9266C100.884 37.0504 100.897 37.3212 100.869 37.5113C100.688 38.7194 100.451 39.9176 100.301 41.1334C100.247 41.5655 100.382 42.0176 100.443 42.5702Z" fill="#F6F6F6"/>
<path d="M180.524 38.053C180.328 37.8109 180.079 37.6157 179.798 37.4818C179.515 37.3479 179.207 37.2787 178.894 37.2793H165.198C164.349 37.2826 163.526 37.5746 162.866 38.107C162.205 38.6394 161.747 39.3804 161.568 40.2072L157.773 57.987C157.658 58.5255 157.665 59.0828 157.794 59.6184C157.923 60.1538 158.17 60.6537 158.518 61.0816C158.866 61.5096 159.306 61.8547 159.805 62.0915C160.304 62.3285 160.85 62.4514 161.403 62.4511H174.917C175.397 62.4488 175.861 62.2831 176.235 61.9817C176.608 61.6801 176.866 61.2609 176.968 60.7933L177.388 58.8247C177.453 58.5204 177.449 58.2056 177.376 57.9031C177.303 57.6006 177.163 57.3182 176.967 57.0763C176.77 56.8346 176.522 56.6397 176.24 56.5058C175.957 56.3718 175.65 56.3023 175.337 56.3025H166.321C166.187 56.3023 166.055 56.2736 165.934 56.2181C165.813 56.1625 165.705 56.0815 165.618 55.9807C165.531 55.8799 165.467 55.7615 165.43 55.6337C165.393 55.5058 165.385 55.3717 165.405 55.2402L165.879 53.8443C165.893 53.8041 165.904 53.7631 165.913 53.7216C165.958 53.5153 166.072 53.3305 166.236 53.1976C166.401 53.0647 166.606 52.9919 166.818 52.991H175.594C176.074 52.9886 176.538 52.823 176.912 52.5215C177.285 52.22 177.543 51.8007 177.645 51.333L178.065 49.3645C178.13 49.0602 178.125 48.7454 178.053 48.4428C177.98 48.1403 177.84 47.8579 177.644 47.6162C177.447 47.3744 177.199 47.1795 176.917 47.0455C176.634 46.9117 176.327 46.8422 176.014 46.8422H168.528C168.25 46.8326 167.98 46.7432 167.751 46.5848C167.562 46.4521 167.422 46.2612 167.353 46.0415C167.283 45.8218 167.289 45.5855 167.367 45.3689L167.742 44.2636C167.757 44.2232 167.768 44.1818 167.777 44.1398C167.822 43.9336 167.936 43.7489 168.101 43.6162C168.265 43.4835 168.471 43.4109 168.683 43.4103H178.474C178.955 43.408 179.42 43.2423 179.794 42.9409C180.166 42.6394 180.425 42.2201 180.525 41.7524L180.947 39.7839C181.009 39.4822 181.003 39.1704 180.931 38.8711C180.858 38.5717 180.719 38.2923 180.524 38.053Z" fill="#F6F6F6"/>
<path d="M158.572 44.4572C158.972 42.5782 158.606 40.7755 157.573 39.4989C156.376 38.0255 154.398 37.2783 151.691 37.2783H142.206C141.418 37.2813 140.655 37.5521 140.043 38.046C139.43 38.5398 139.006 39.2271 138.84 39.994L134.929 58.3098C134.822 58.8092 134.829 59.3262 134.948 59.8228C135.068 60.3193 135.297 60.7831 135.62 61.1799C135.943 61.5769 136.351 61.8969 136.813 62.1166C137.276 62.3365 137.783 62.4503 138.296 62.4502H145.322C154.474 62.4502 156.617 57.0342 157.114 54.7131C157.732 51.8174 156.963 50.071 155.814 49.0165C156.879 48.2151 158.062 46.8479 158.572 44.4572ZM150.265 53.7847C149.894 55.5278 148.855 56.3059 146.897 56.3059H143.137C143.049 56.3059 142.961 56.286 142.881 56.248C142.801 56.21 142.731 56.1548 142.675 56.0864C142.619 56.0179 142.579 55.9378 142.559 55.8522C142.538 55.7664 142.536 55.6771 142.554 55.5908L143.153 52.7888C143.182 52.6565 143.255 52.5378 143.361 52.4524C143.467 52.367 143.598 52.3201 143.734 52.3191H148.468C149.255 52.3191 149.883 52.5136 150.148 52.8397C150.213 52.916 150.401 53.1502 150.265 53.7847ZM145.28 46.2687C145.191 46.2688 145.104 46.2493 145.024 46.2114C144.944 46.1736 144.873 46.1183 144.818 46.0499C144.762 45.9815 144.722 45.9015 144.701 45.8158C144.681 45.7302 144.679 45.6409 144.698 45.5547L145.053 43.8968C145.082 43.7644 145.155 43.6458 145.261 43.5605C145.367 43.4753 145.499 43.4286 145.635 43.4282H149.769C151.237 43.4282 151.594 43.7277 151.669 43.8194C151.764 43.9377 151.779 44.2129 151.697 44.5766C151.398 45.9792 149.969 46.2743 148.823 46.2743L145.28 46.2687Z" fill="#F6F6F6"/>
</svg>
