<svg width="179" height="34" fill="none" xmlns="http://www.w3.org/2000/svg"><g clip-path="url(#a)" fill="#fff"><path opacity=".95" d="M56.089 33.738v-1.877h-.77c-1.213 1.559-3.044 2.338-5.494 2.338-1.936 0-3.475-.567-4.618-1.7-1.143-1.134-1.715-2.503-1.715-4.108 0-1.63.56-3.023 1.68-4.18 1.12-1.156 2.81-1.735 5.073-1.735h5.739v-.708c0-1.133-.35-2.03-1.05-2.692-.7-.684-1.784-1.027-3.254-1.027-2.566 0-3.93.862-4.094 2.586h-2.974c.116-1.63.805-2.905 2.064-3.825 1.283-.921 2.928-1.381 4.934-1.381 2.263 0 4.035.53 5.318 1.593 1.307 1.063 1.96 2.586 1.96 4.569v12.147h-2.8Zm-5.529-2.16c1.47 0 2.741-.484 3.814-1.452 1.073-.992 1.61-2.196 1.61-3.613v-1.629H50.7c-2.822 0-4.234 1.134-4.234 3.4 0 1.016.35 1.818 1.05 2.409.723.59 1.738.885 3.044.885ZM63.11 7.991h2.974v25.747H63.11V7.991Zm18.72 25.747v-1.877h-.769c-1.213 1.559-3.044 2.338-5.494 2.338-1.936 0-3.475-.567-4.618-1.7-1.143-1.134-1.715-2.503-1.715-4.108 0-1.63.56-3.023 1.68-4.18 1.12-1.156 2.81-1.735 5.073-1.735h5.739v-.708c0-1.133-.35-2.03-1.05-2.692-.7-.684-1.784-1.027-3.254-1.027-2.566 0-3.93.862-4.094 2.586h-2.974c.117-1.63.805-2.905 2.065-3.825 1.282-.921 2.927-1.381 4.933-1.381 2.263 0 4.036.53 5.318 1.593 1.307 1.063 1.96 2.586 1.96 4.569v12.147h-2.8Zm-5.527-2.16c1.469 0 2.74-.484 3.813-1.452 1.073-.992 1.61-2.196 1.61-3.613v-1.629h-5.284c-2.822 0-4.234 1.134-4.234 3.4 0 1.016.35 1.818 1.05 2.409.723.59 1.738.885 3.045.885Zm28.224 2.16h-2.974V23.043c0-3.282-1.493-4.923-4.48-4.923-1.539 0-2.799.59-3.778 1.77-.98 1.158-1.47 2.55-1.47 4.18v9.668H88.85v-17.85h2.87v1.913h.77c.513-.708 1.236-1.275 2.168-1.7.934-.448 1.983-.672 3.15-.672 2.146 0 3.802.625 4.968 1.876 1.167 1.228 1.75 2.928 1.75 5.1v11.333Zm13.349-18.31c2.38 0 4.258.874 5.634 2.621 1.4 1.747 2.099 4.002 2.099 6.765 0 2.715-.699 4.958-2.099 6.729-1.376 1.77-3.254 2.656-5.634 2.656-2.402 0-4.233-.791-5.493-2.373h-.77v1.912h-2.869V7.991h2.974v9.81h.77c1.166-1.582 2.962-2.372 5.388-2.372Zm-.665 16.15c1.727 0 3.057-.614 3.989-1.842.957-1.251 1.435-2.892 1.435-4.922s-.478-3.66-1.435-4.888c-.932-1.251-2.262-1.877-3.989-1.877-1.842 0-3.23.65-4.163 1.948-.91 1.299-1.365 2.904-1.365 4.817 0 1.912.455 3.517 1.365 4.816.933 1.299 2.321 1.948 4.163 1.948Zm23.067 2.16v-1.877h-.77c-1.213 1.559-3.044 2.338-5.493 2.338-1.937 0-3.476-.567-4.619-1.7-1.143-1.134-1.714-2.503-1.714-4.108 0-1.63.559-3.023 1.679-4.18 1.12-1.156 2.811-1.735 5.073-1.735h5.739v-.708c0-1.133-.35-2.03-1.05-2.692-.699-.684-1.784-1.027-3.254-1.027-2.566 0-3.931.862-4.094 2.586H128.8c.117-1.63.805-2.905 2.065-3.825 1.283-.921 2.927-1.381 4.933-1.381 2.263 0 4.036.53 5.319 1.593 1.306 1.063 1.959 2.586 1.959 4.569v12.147h-2.799Zm-5.528-2.16c1.469 0 2.74-.484 3.813-1.452 1.074-.992 1.61-2.196 1.61-3.613v-1.629h-5.283c-2.823 0-4.234 1.134-4.234 3.4 0 1.016.35 1.818 1.049 2.409.724.59 1.738.885 3.045.885Zm17.447-8.96 1.68.283 1.994.319c3.359.59 5.038 2.385 5.038 5.383 0 1.558-.641 2.88-1.924 3.967-1.283 1.086-3.056 1.629-5.319 1.629-2.425 0-4.291-.496-5.598-1.488-1.283-.991-2.029-2.372-2.239-4.143h3.008c.281 2.006 1.844 3.01 4.689 3.01 1.377 0 2.45-.248 3.219-.744.794-.495 1.19-1.216 1.19-2.16 0-.78-.256-1.393-.77-1.842-.513-.448-1.329-.767-2.449-.956l-3.953-.673c-2.823-.52-4.235-2.018-4.235-4.498 0-1.558.584-2.821 1.75-3.79 1.19-.99 2.928-1.486 5.214-1.486 2.052 0 3.673.46 4.863 1.38 1.213.898 1.913 2.137 2.1 3.72h-2.974c-.117-.827-.549-1.44-1.295-1.842-.747-.425-1.692-.638-2.834-.638-1.167 0-2.1.213-2.8.638-.676.401-1.014.98-1.014 1.735 0 .661.209 1.157.629 1.488.42.33 1.097.566 2.03.708Zm27.142 1.133v1.027h-13.436c.046 2.149.548 3.825 1.504 5.03.956 1.18 2.333 1.77 4.129 1.77 2.426 0 3.919-.92 4.479-2.762h3.008c-.303 1.605-1.107 2.904-2.414 3.895-1.283.992-2.974 1.488-5.073 1.488-2.683 0-4.782-.886-6.298-2.656-1.517-1.771-2.275-4.073-2.275-6.906 0-2.787.758-5.018 2.275-6.694 1.516-1.676 3.592-2.515 6.228-2.515 2.496 0 4.42.803 5.773 2.409 1.353 1.582 2.053 3.553 2.1 5.914Zm-7.943-5.702c-1.516 0-2.73.402-3.639 1.204-.91.78-1.469 1.783-1.68 3.01h10.183c-.094-1.204-.572-2.207-1.435-3.01-.863-.802-2.006-1.204-3.429-1.204Z"/><path d="M16.269.478A16.66 16.66 0 0 0 5.342 5.364 16.793 16.793 0 0 0 .477 16.336h15.792V.478ZM12.743 9.82c-.281 0-.556-.083-.79-.24a1.408 1.408 0 0 1-.627-1.045 1.433 1.433 0 0 1 1.14-1.542 1.418 1.418 0 0 1 1.458.608 1.431 1.431 0 0 1-.176 1.801 1.418 1.418 0 0 1-1.005.418ZM.477 18.048h15.792v15.858A16.659 16.659 0 0 1 5.342 29.02 16.79 16.79 0 0 1 .477 18.05v-.002Zm33.292 15.858-15.794.02V18.069a16.651 16.651 0 0 1 10.924 4.875 16.777 16.777 0 0 1 4.87 10.961ZM17.975 16.334V.478a16.65 16.65 0 0 1 10.924 4.874 16.78 16.78 0 0 1 4.87 10.961l-15.794.02Z"/></g><defs><clipPath id="a"><path fill="#fff" d="M0 0h179v34H0z"/></clipPath></defs></svg>