<svg width="622" height="497" fill="none" xmlns="http://www.w3.org/2000/svg"><path d="M189.821 466.263s-12.207 2.639-23.104 1.004c-10.217-1.53-33.093.054-33.084 13.519.009 15.019 30.513 11.307 42.415 8.927a1588.785 1588.785 0 0 1 23.754-4.538l-9.981-18.912Z" fill="#4971FF"/><path d="M162.426 485.503c-.158.035-.818-2.305-1.475-5.226-.656-2.924-1.061-5.321-.903-5.356.157-.035.818 2.304 1.473 5.228.657 2.921 1.062 5.318.905 5.354Zm4.163.198c-.161.022-.621-2.378-1.03-5.359-.41-2.982-.611-5.417-.452-5.438.161-.023.621 2.376 1.031 5.358.409 2.982.611 5.417.451 5.439Zm4.02-1.571c-.16.021-.546-2.076-.86-4.682-.314-2.605-.439-4.732-.279-4.752.161-.02.546 2.077.861 4.683.313 2.605.439 4.734.278 4.751Zm6.315-1.575c-.142.062-1.009-1.69-1.571-4.02-.57-2.33-.601-4.283-.448-4.294.168-.016.459 1.876 1.017 4.156.549 2.282 1.158 4.095 1.002 4.158Z" fill="#17282F"/><path d="M198.594 483.188c.002.01-.102.044-.308.097l-.915.23c-.849.192-2.033.462-3.539.805a521.465 521.465 0 0 1-13.093 2.7c-5.549 1.062-12.176 2.281-19.608 3.292-3.705.498-7.673.949-11.781.588-2.05-.151-4.138-.503-6.17-1.18-1.008-.362-2.02-.756-2.962-1.315-.944-.561-1.854-1.171-2.601-2.096l.045.05c-.377-.365-.772-.781-1.061-1.275-1.248-1.993-1.287-4.468-.621-6.572.684-2.147 2.212-3.857 3.912-5.114 1.724-1.254 3.64-2.13 5.563-2.756.974-.277 1.922-.611 2.885-.83.971-.192 1.919-.451 2.874-.582 7.65-1.209 14.608-.594 20.389-.593a98.152 98.152 0 0 0 7.811-.165c2.292-.173 4.256-.433 5.844-.739l2.105-.442c.589-.168 1.094-.311 1.516-.433.385-.105.694-.189.937-.257.212-.055.322-.079.326-.07.003.01-.1.052-.307.127l-.921.314-1.506.487-2.105.498c-1.589.342-3.562.636-5.864.842a94.094 94.094 0 0 1-7.838.253c-1.48.012-3.035-.016-4.657-.043-4.728-.08-10.019-.16-15.641.751-.943.136-1.876.393-2.831.587-.95.217-1.88.55-2.837.823-1.887.621-3.749 1.48-5.401 2.689-1.633 1.21-3.07 2.837-3.701 4.833-.624 1.968-.57 4.282.562 6.083.261.445.619.818.957 1.149l.019.019.026.031c.62.77 1.521 1.406 2.412 1.925.901.536 1.88.918 2.855 1.272 1.974.659 4.017 1.009 6.033 1.161 4.044.363 7.958-.068 11.664-.549 7.417-.98 14.047-2.154 19.603-3.165 5.553-1.019 10.03-1.909 13.122-2.517l3.56-.701c.382-.069.687-.126.928-.171.209-.037.318-.049.32-.041Z" fill="#17282F"/><path d="M153.96 490.42c-.086 0-.156-1.193-.296-3.12a124.076 124.076 0 0 0-.757-7.495 125.16 125.16 0 0 0-1.242-7.432c-.373-1.893-.619-3.064-.536-3.086.073-.02.462 1.117.939 2.997.48 1.878 1.025 4.507 1.419 7.443.393 2.936.558 5.616.591 7.554.033 1.941-.042 3.138-.118 3.139Zm132.911-76.61c-1.243.414-81.178-21.985-113.504-31.075a30.712 30.712 0 0 0-24.999 3.784l-.39.253a30.709 30.709 0 0 0 .639 51.962c21.318 13.058 66.431 40.533 67.81 39.998 1.809-.7 58.15-2.162 58.15-2.162l-67.78-48.745 32.245 20.839 47.829-34.854Z" fill="#17282F"/><path d="m213.786 348.741 15.673 51.575c.18.589.703 1.008 1.318 1.054l42.712 3.205a1.496 1.496 0 0 1 1.382 1.491v2.666c0 .836-.687 1.508-1.522 1.494l-116.758-2.194a1.499 1.499 0 0 1-1.368-.962l-20.532-53.794a1.494 1.494 0 0 1 1.325-2.025l76.27-3.568a1.497 1.497 0 0 1 1.5 1.058Z" fill="#33535F"/><path d="M515.227 118.448h105.774s-9.352-17.032-36.58-14.552c-26.004 2.366-27.325-8.38-40.548-9.704-13.221-1.322-24.239 8.822-28.646 24.256Zm-335.36-80.915h162.806s-14.395-26.229-56.304-22.41c-40.024 3.643-42.058-12.906-62.41-14.945-20.349-2.036-37.308 13.587-44.092 37.355Zm71.992 81.84c-2.805-1.869-6.654-.738-9.457 1.132-2.804 1.871-5.2 4.434-8.341 5.654-5.901 2.294-13.634-.424-18.221 3.941-2.909 2.769-3.206 7.315-5.43 10.661-3.744 5.636-12.733 7.753-13.503 14.476-.45 3.92 2.652 7.68 6.443 8.78 3.791 1.1 7.961-.061 11.248-2.245 3.839-2.552 6.856-6.487 11.23-7.94 4.471-1.484 9.989-.241 13.518-3.362 3.534-3.128 2.999-8.864 5.528-12.849 1.346-2.122 3.468-3.601 5.371-5.243 1.903-1.642 3.712-3.674 4.03-6.166.319-2.492-.703-6.743-2.416-6.839Z" fill="#F3F2F1"/><path d="M183.895 321.278c.143.119-.597 1.371-1.657 2.796-1.056 1.429-2.052 2.494-2.187 2.406-.175-.117.577-1.36 1.645-2.804 1.07-1.441 2.055-2.515 2.199-2.398Zm8.689-9.575c.132.131-.757 1.282-1.987 2.572-1.229 1.29-2.335 2.235-2.474 2.11-.137-.126.753-1.276 1.987-2.572 1.233-1.297 2.342-2.242 2.474-2.11Zm9.101-9.192c.134.128-.774 1.265-2.03 2.539-1.255 1.273-2.378 2.199-2.51 2.067-.13-.131.777-1.268 2.03-2.54 1.252-1.269 2.377-2.195 2.51-2.066Zm8.495-9.747c.148.111-.653 1.326-1.791 2.713-1.138 1.389-2.172 2.412-2.311 2.288-.139-.124.662-1.339 1.789-2.713 1.129-1.374 2.164-2.399 2.313-2.288Zm6.597-11.094c.17.069-.256 1.478-1.086 3.077-.827 1.601-1.721 2.765-1.876 2.669-.162-.1.465-1.403 1.278-2.978.817-1.573 1.511-2.841 1.684-2.768Zm3.147-12.491c.182.012.227 1.484-.07 3.264-.294 1.781-.814 3.158-.99 3.11-.184-.048.039-1.475.326-3.22.292-1.746.545-3.168.734-3.154Zm-.96-12.847c.177-.046.683 1.337.958 3.121.278 1.783.217 3.254.035 3.265-.189.011-.428-1.413-.701-3.162-.268-1.749-.475-3.178-.292-3.224Zm-5.078-11.823c.149-.104 1.1 1.022 1.951 2.614.854 1.59 1.27 3.002 1.102 3.07-.176.073-.858-1.197-1.696-2.752-.832-1.557-1.515-2.826-1.357-2.932Zm-9.02-9.175c.1-.153 1.407.535 2.792 1.696 1.391 1.158 2.296 2.324 2.164 2.448-.137.132-1.237-.802-2.596-1.933-1.353-1.133-2.464-2.054-2.36-2.211Zm-11.75-5.245c.039-.179 1.503 0 3.214.586 1.711.583 2.978 1.338 2.9 1.502-.08.172-1.445-.296-3.119-.864-1.671-.576-3.037-1.04-2.995-1.224Zm-12.842-.585c-.032-.178 1.391-.58 3.198-.672 1.808-.096 3.265.15 3.252.331-.012.19-1.453.247-3.216.341-1.763.089-3.202.187-3.234 0Zm-11.923 4.751c-.106-.146 1.004-1.124 2.6-1.98 1.597-.862 3.028-1.242 3.091-1.072.067.177-1.219.826-2.771 1.664-1.555.832-2.81 1.545-2.92 1.388Zm-8.876 9.293c-.157-.093.473-1.429 1.586-2.858 1.108-1.43 2.248-2.371 2.376-2.243.135.133-.763 1.26-1.845 2.657-1.086 1.392-1.954 2.543-2.117 2.444Zm-4.353 12.077c-.181-.017-.18-1.499.25-3.261.426-1.762 1.097-3.081 1.265-3.015.178.068-.197 1.46-.609 3.174-.42 1.713-.718 3.122-.906 3.102Zm1.532 12.727c-.168.066-.836-1.254-1.264-3.014-.432-1.761-.439-3.241-.26-3.259.189-.022.494 1.386.915 3.099.415 1.714.788 3.107.609 3.174Zm6.556 11.076c-.139.12-1.209-.888-2.262-2.353-1.056-1.464-1.664-2.806-1.505-2.898.163-.094 1.016 1.069 2.051 2.504 1.033 1.437 1.859 2.624 1.716 2.747Zm20.722 15.139c-.074.171-1.432-.351-3.035-1.166-1.601-.814-2.823-1.605-2.73-1.765.094-.161 1.453.36 3.035 1.166 1.582.804 2.805 1.595 2.73 1.765Zm12.299 3.914c-.032.18-1.495.068-3.238-.382-1.745-.446-3.083-1.049-3.024-1.223.059-.178 1.472.131 3.191.571 1.717.444 3.105.848 3.071 1.034Zm12.877.664c.02.182-1.418.49-3.222.523-1.801.037-3.25-.213-3.237-.394.011-.19 1.455-.244 3.226-.279 1.768-.031 3.212-.038 3.233.15Zm12.438-3.326c.079.164-1.181.926-2.881 1.534-1.697.613-3.155.826-3.199.649-.047-.182 1.308-.681 2.972-1.282 1.664-.597 3.028-1.073 3.108-.901Zm10.785-7.061c.121.135-.859 1.23-2.289 2.326-1.429 1.099-2.742 1.762-2.84 1.607-.102-.158 1.026-1.06 2.43-2.142 1.406-1.077 2.571-1.931 2.699-1.791Zm8.416-9.78c.153.099-.506 1.412-1.589 2.852-1.081 1.441-2.159 2.44-2.294 2.32-.144-.126.693-1.306 1.755-2.725 1.066-1.417 1.967-2.548 2.128-2.447Zm5.595-11.624c.175.054-.121 1.494-.799 3.164-.672 1.671-1.456 2.914-1.619 2.832-.17-.084.333-1.44.996-3.084.666-1.643 1.242-2.969 1.422-2.912Zm2.502-12.663c.184.012.232 1.478-.014 3.26-.241 1.783-.684 3.182-.864 3.145-.183-.039-.041-1.477.198-3.237.241-1.756.493-3.182.68-3.168Zm-.333-12.912c.185-.026.447 1.406.586 3.198.139 1.792.1 3.247-.086 3.25-.186.003-.448-1.429-.585-3.198-.137-1.77-.098-3.225.085-3.25Zm-2.806-12.617c.177-.058.701 1.302 1.171 3.035.468 1.736.702 3.172.52 3.212-.182.039-.706-1.319-1.17-3.036-.465-1.715-.697-3.152-.521-3.211Zm-4.949-11.944c.163-.083.945 1.15 1.722 2.766.726 1.643 1.175 3.031 1.002 3.102-.172.07-.895-1.192-1.611-2.818-.771-1.601-1.279-2.962-1.113-3.05Zm-6.359-11.261c.16-.095 1.022 1.078 1.927 2.619.905 1.544 1.507 2.867 1.345 2.959-.161.093-1.023-1.079-1.927-2.619-.902-1.539-1.504-2.864-1.345-2.959Zm-6.415-11.228c.164-.086.999 1.108 1.86 2.667.863 1.559 1.431 2.898 1.27 2.991-.16.094-.992-1.1-1.86-2.668-.866-1.565-1.436-2.906-1.27-2.99Zm-5.05-11.886c.178-.053.824 1.25 1.442 2.909.619 1.661.983 3.069.812 3.144-.169.075-.816-1.227-1.443-2.91-.627-1.683-.988-3.09-.811-3.143Zm-2.201-12.712c.188-.007.385 1.426.574 3.189.186 1.761.296 3.204.111 3.238-.18.033-.592-1.377-.781-3.167-.191-1.791-.087-3.255.096-3.26Zm1.069-12.861c.185.04.022 1.477-.233 3.233-.258 1.754-.513 3.178-.702 3.164-.182-.013-.226-1.48.037-3.263.258-1.781.72-3.175.898-3.134Zm4.213-12.196c.168.085-.349 1.434-1.03 3.069-.685 1.637-1.282 2.953-1.462 2.893-.173-.058.145-1.49.84-3.151.693-1.662 1.489-2.896 1.652-2.811Zm7.205-10.704c.141.127-.712 1.294-1.797 2.697-1.087 1.399-2.003 2.518-2.161 2.414-.154-.101.523-1.404 1.629-2.827 1.101-1.424 2.193-2.406 2.329-2.284Zm9.703-8.505c.104.158-1.013 1.077-2.416 2.161-1.405 1.082-2.578 1.929-2.704 1.788-.122-.136.866-1.223 2.293-2.32 1.425-1.102 2.726-1.782 2.827-1.629Zm11.506-5.85c.062.178-1.248.792-2.874 1.498-1.628.703-2.974 1.233-3.061 1.066-.085-.161 1.141-.97 2.794-1.684 1.652-.716 3.081-1.053 3.141-.88Zm9.372-2.37c.027.183-.657.464-1.528.624-.871.16-1.611.143-1.652-.039-.04-.181.645-.46 1.529-.623.885-.164 1.625-.146 1.651.038Z" fill="#17282F"/><path d="M290.18 79.585s15.181-10.828 36.191-3.835c0 0 1.726 17.392-15.124 31.226" fill="#F03D5F"/><path d="M242.318 111.721c.647.969 17.121 27.458 17.121 27.458l49.473-30.479c8.637-5.321 10.87-16.895 4.832-25.047-5.508-7.435-15.886-9.225-23.565-4.07l-47.861 32.138Z" fill="#F03D5F"/><path d="m259.44 139.18-1.108 18.635s32.061-15.525 24.059-32.775l-22.951 14.14Zm5.795-42.846s-21.736-9.59-39.637 4.475l16.72 10.912 22.917-15.387Zm-.153 15.4-30.939 19.353s1.061 3.328 1.895 3.05c.696-.232 23.943-13.959 31.481-18.416a2.327 2.327 0 0 0 .609-3.486 2.336 2.336 0 0 0-3.046-.501Z" fill="#17282F"/><path d="M303.483 97.07c0 5.469-4.435 9.906-9.905 9.906-5.471 0-9.906-4.437-9.906-9.907s4.435-9.905 9.906-9.905c5.47 0 9.905 4.435 9.905 9.905Z" fill="#FAFAF9"/><path d="M303.483 97.07c-.077.004-.036-.884-.437-2.387a9.865 9.865 0 0 0-3.62-5.298c-1.101-.812-2.482-1.5-4.072-1.771-1.578-.263-3.357-.206-5.045.443a9.505 9.505 0 0 0-4.442 3.352c-1.176 1.57-1.838 3.583-1.859 5.659.021 2.076.681 4.091 1.859 5.66a9.5 9.5 0 0 0 4.442 3.353c1.688.649 3.467.704 5.047.443 1.588-.271 2.97-.96 4.071-1.771a9.874 9.874 0 0 0 3.619-5.298c.401-1.503.36-2.391.437-2.386.022 0 .035.217.035.636.009.416-.042 1.037-.218 1.814-.329 1.533-1.292 3.817-3.585 5.612-1.134.878-2.58 1.629-4.257 1.943-1.666.301-3.554.263-5.361-.411a10.06 10.06 0 0 1-4.761-3.545c-1.266-1.671-1.983-3.83-2-6.05.018-2.22.735-4.378 2-6.05a10.063 10.063 0 0 1 4.761-3.544c1.807-.673 3.695-.712 5.361-.41 1.677.313 3.121 1.066 4.257 1.942 2.292 1.795 3.256 4.08 3.585 5.612.176.777.227 1.399.218 1.815 0 .419-.013.636-.035.636Zm12.061 6.601c-.128.013-.277-1.922-1.036-4.934-.368-1.507-.948-3.264-1.723-5.159a40.664 40.664 0 0 0-3.095-5.887 40.877 40.877 0 0 0-4.093-5.246c-1.409-1.485-2.771-2.736-3.994-3.692-2.431-1.93-4.135-2.864-4.07-2.975.023-.041.46.168 1.233.583.392.202.86.464 1.378.815.52.343 1.134.71 1.749 1.2 1.277.92 2.695 2.155 4.154 3.643a37.861 37.861 0 0 1 4.209 5.306 37.733 37.733 0 0 1 3.103 6.018c.755 1.942 1.298 3.742 1.612 5.285.194.763.274 1.473.372 2.089.106.614.154 1.151.178 1.589.059.878.069 1.361.023 1.365Z" fill="#17282F"/><path d="M312.874 105.096c-.128.014-.284-1.956-1.055-5.018-.375-1.535-.964-3.322-1.749-5.252a41.934 41.934 0 0 0-3.135-5.996 42.073 42.073 0 0 0-4.144-5.353c-1.427-1.519-2.804-2.8-4.041-3.78-2.464-1.978-4.187-2.941-4.121-3.052.023-.04.464.175 1.248.605.396.208.87.48 1.394.838.526.355 1.148.73 1.769 1.234 1.293.946 2.728 2.21 4.204 3.73a38.898 38.898 0 0 1 4.258 5.413 38.905 38.905 0 0 1 3.143 6.127c.765 1.977 1.316 3.808 1.637 5.377.197.776.28 1.497.382 2.123.107.625.157 1.171.181 1.617.063.89.075 1.383.029 1.387Z" fill="#17282F"/><path d="m35.941 493.048 48.166.376.475-60.797-48.166-.376-.475 60.797Z" fill="#E7E8E5"/><path d="m65.75 434.406-.857 58.868-7.61-.059 1.63-58.862 6.836.053Z" fill="#FAFAF9"/><path d="m8.768 433.962 27.634.215 48.166.376-48.219 6.344-.406 52.151-27.623-.216.448-58.87Z" fill="#DADBD8"/><path d="m23.812 434.079-1.098 58.866-8.2-.064 1.34-58.865 7.958.063Z" fill="#FAFAF9"/><path d="M45.679 416.162c.01.3-.8.615-2.28.916-1.482.295-3.638.593-6.365.687-1.362.044-2.869.03-4.496-.108a31.817 31.817 0 0 1-2.524-.313c-.881-.149-1.718-.29-2.756-.602a7.792 7.792 0 0 1-1.63-.71c-.566-.335-1.192-.828-1.665-1.565-.488-.733-.7-1.653-.71-2.395-.016-.755.105-1.384.223-1.923.46-1.922.928-3.901 1.83-6.009a16.04 16.04 0 0 1 1.704-3.011c.357-.473.712-.905 1.14-1.352a8.34 8.34 0 0 1 1.51-1.225 6.092 6.092 0 0 1 2.012-.813 5.303 5.303 0 0 1 2.28.054c1.427.371 2.361 1.11 3.115 1.718 2.895 2.415 4.961 5.134 6.313 7.593 1.357 2.467 1.996 4.665 2.249 6.194.24 1.541.12 2.42-.16 2.484-.642.161-1.644-2.995-4.674-7.012a30.551 30.551 0 0 0-6.195-6.102c-.622-.46-1.208-.773-1.583-.828-.345-.046-.586 0-1.067.304a4.337 4.337 0 0 0-.704.618c-.238.259-.5.588-.731.904a12.789 12.789 0 0 0-1.221 2.209c-.7 1.615-1.195 3.486-1.672 5.257-.102.389-.152.698-.157.881-.001.191.006.21.02.251-.007.093.431.456 1.076.689.627.238 1.466.458 2.211.644.759.193 1.51.344 2.241.485 1.464.274 2.859.462 4.145.612 2.576.293 4.713.467 6.196.692 1.485.219 2.316.475 2.325.776Z" fill="#DADBD8"/><path d="M44.685 416.603c-.108-.622 3.504-1.624 9.168-3.185 2.82-.807 6.139-1.805 9.583-3.316.851-.364 1.649-.768 2.171-1.191.259-.205.414-.408.438-.485.022-.081.016-.022-.008-.207-.032-.177-.163-.521-.381-.975l-.692-1.446c-.465-.95-.952-1.851-1.497-2.68-.548-.823-1.14-1.549-1.803-2.146a9.227 9.227 0 0 0-1.034-.819 4.866 4.866 0 0 0-.987-.523c-.654-.246-1.194-.28-1.742-.127-.561.151-1.206.554-1.865 1.101-2.794 2.377-5.02 4.987-6.585 7.327-3.185 4.71-3.905 8.352-4.567 8.247-.281-.038-.477-1.008-.297-2.747.183-1.73.799-4.227 2.202-7.039 1.397-2.821 3.55-5.894 6.603-8.801.814-.743 1.835-1.565 3.247-2.046 1.416-.499 3.092-.42 4.446.076a8.961 8.961 0 0 1 1.899.934c.548.365 1.078.752 1.568 1.196.994.873 1.833 1.9 2.542 2.967.703 1.07 1.271 2.155 1.765 3.197l.705 1.538c.233.533.533 1.193.677 2.077.161.867.012 2.038-.48 2.88-.473.852-1.086 1.393-1.643 1.809-1.133.812-2.203 1.229-3.174 1.596-3.862 1.441-7.453 2.166-10.449 2.611-3.002.436-5.431.586-7.12.604-1.69.009-2.642-.132-2.69-.427Z" fill="#FAFAF9"/><path d="m0 433.893 70.798.553.157-20.124-70.798-.552L0 433.893Z" fill="#DADBD8"/><path d="m26.033 434.096 63.996.5.157-20.123-63.996-.5-.157 20.123Z" fill="#E7E8E5"/><path d="m70.551 414.319-.45 20.217-7.464-.154.52-20.121 7.394.058Zm-53.028-.314-.722 20.036-8.205-.066.44-20.137 8.487.167Z" fill="#FAFAF9"/><path d="M92.056 378.68c-14.536-14.877-37.31-21.128-57.404-15.755 17.455 11.704 37.07 17.975 58.083 18.148m-20.148-71.34c2.392-16.915-4.182-35.944-16.847-48.239-.418 16.764 6.66 35.629 16.847 48.239Zm10.126 31.955c-9.025-17.252-23.84-31.41-41.482-39.644 5.286 19.476 21.945 35.409 41.637 39.824m1.942 5.985c-10.216.286-20.555-.073-30.436-2.687-9.881-2.615-19.344-7.64-25.919-15.466 19.875.024 39.704 6.077 56.203 17.158m.402 53.932c3.535 10.45 2.856 23.079-5.002 32.085-3.197-10.723-1.308-22.844 5.001-32.085Zm-13.803-5.804c-.983 13.435-9.573 26.055-21.711 31.896-.603.291-1.3.568-1.92.316-.957-.39-1.045-1.697-.927-2.723 1.54-13.388 11.458-26.335 24.558-29.489Zm-9.017-1.358c-5.978 6.458-14.695 10.295-23.495 10.34-8.8.045-17.556-3.703-23.598-10.099 14.969-1.639 32.24-2.731 47.093-.241Z" fill="#F03D5F"/><path d="M53.505 317.138c-.026.03.36.398 1.079 1.039.811.705 1.845 1.601 3.08 2.672a957.16 957.16 0 0 0 10.305 8.653 939.244 939.244 0 0 0 10.414 8.525l3.196 2.532c.763.588 1.196.898 1.22.867.025-.031-.361-.399-1.08-1.04l-3.082-2.673a935.002 935.002 0 0 0-10.303-8.651 938.534 938.534 0 0 0-10.408-8.521l-3.198-2.533c-.763-.588-1.197-.9-1.223-.87Zm-3.681 19.801c-.045.152 7.815 2.608 17.553 5.485 9.742 2.878 17.673 5.088 17.718 4.936.044-.152-7.814-2.607-17.555-5.485-9.739-2.878-17.67-5.087-17.716-4.936Zm31.718 88.406c.156.023 1.092-5.491 2.09-12.313.998-6.824 1.68-12.373 1.524-12.396-.156-.023-1.092 5.489-2.09 12.314-.998 6.822-1.68 12.372-1.524 12.395Zm-27.677-10.052c.066.05.997-1.099 2.494-2.961a420.294 420.294 0 0 1 5.911-7.217 427.16 427.16 0 0 1 6.093-7.068c1.576-1.794 2.548-2.91 2.488-2.967-.029-.027-.31.216-.793.679a68.968 68.968 0 0 0-1.994 2.015 148.508 148.508 0 0 0-6.232 6.972 148.776 148.776 0 0 0-5.794 7.339 67.499 67.499 0 0 0-1.64 2.311c-.374.556-.565.875-.533.897Zm-2.735-48.246c-.007.038.61.203 1.728.467l4.733 1.14a201.07 201.07 0 0 1 15.405 4.482 202.377 202.377 0 0 1 14.986 5.739l4.46 1.951c1.051.467 1.64.708 1.658.672.018-.035-.54-.344-1.562-.872-1.02-.534-2.52-1.261-4.392-2.12-3.741-1.722-9.006-3.904-14.967-5.912-5.961-2.002-11.474-3.445-15.495-4.334-2.01-.446-3.645-.773-4.78-.964-1.135-.198-1.766-.289-1.773-.249Z" fill="#17282F"/><path d="m464.659 327.904-.053.006a.655.655 0 0 1-.702-.604 56.6 56.6 0 0 1-.106-1.653.657.657 0 0 1 1.31-.064c.025.539.059 1.078.103 1.616a.659.659 0 0 1-.552.699Z" fill="#BDD0FB"/><path fill-rule="evenodd" clip-rule="evenodd" d="M429.438 318.995c0 15.19 12.315 27.505 27.503 27.505 15.193 0 27.506-12.315 27.506-27.505 0-15.191-12.313-27.505-27.506-27.505-15.188 0-27.503 12.314-27.503 27.505Zm4.823.599c0-12.857 10.422-23.279 23.282-23.279 12.856 0 23.278 10.422 23.278 23.279s-10.422 23.28-23.278 23.28c-12.86 0-23.282-10.423-23.282-23.28Zm27.641-25.137a.569.569 0 0 1-.481.129 25.058 25.058 0 0 0-4.477-.403c-5.722 0-11.102 1.93-15.397 5.332 4.294-3.401 9.673-5.33 15.394-5.33 1.505 0 3.014.136 4.477.403a.569.569 0 0 0 .484-.131Zm-19.257 2.831a25.997 25.997 0 0 0-8.899 10.018.58.58 0 0 0 .838.745.582.582 0 0 1-.585.036.58.58 0 0 1-.256-.779 25.98 25.98 0 0 1 8.902-10.02Z" fill="url(#a)"/><path d="M457.545 342.873c-12.859 0-23.279-10.424-23.279-23.281 0-12.856 10.42-23.279 23.279-23.279 12.858 0 23.279 10.423 23.279 23.279 0 12.857-10.421 23.281-23.279 23.281Z" fill="#fff"/><path d="M455.256 336.901v-2.533c-2.641-.106-5.254-.729-7.108-1.541a1.465 1.465 0 0 1-.81-1.731l.646-2.359a1.475 1.475 0 0 1 2.005-.966c1.838.772 4.106 1.382 6.556 1.382 2.545 0 4.442-.863 4.442-2.63 0-1.595-1.465-2.543-5-3.491-5.041-1.379-8.661-3.577-8.661-8.017 0-4.009 2.93-7.069 8.015-7.888v-2.533c0-.815.662-1.475 1.477-1.475h1.487c.816 0 1.475.66 1.475 1.475v2.275c2.443.097 4.222.515 5.634 1.011a1.47 1.47 0 0 1 .916 1.773l-.593 2.181a1.466 1.466 0 0 1-1.939.994 15.405 15.405 0 0 0-5.527-1.003c-3.015 0-3.878 1.25-3.878 2.371 0 1.379 1.81 2.327 5.732 3.534 5.606 1.681 7.93 4.009 7.93 8.19 0 3.836-2.842 7.284-8.36 8.146v2.835c0 .815-.662 1.475-1.474 1.475h-1.491c-.815 0-1.474-.66-1.474-1.475Z" fill="url(#b)"/><path fill-rule="evenodd" clip-rule="evenodd" d="M523.027 257.856c0 17.768 14.406 32.171 32.174 32.171s32.169-14.403 32.169-32.171c0-17.767-14.401-32.171-32.169-32.171-17.768 0-32.174 14.404-32.174 32.171Zm5.647.701c0-15.038 12.187-27.229 27.225-27.229 15.041 0 27.233 12.191 27.233 27.229 0 15.038-12.192 27.229-27.233 27.229-15.038 0-27.225-12.191-27.225-27.229Zm-.61-14.37c5.203-10.306 15.601-16.707 27.137-16.707 1.843 0 3.683.165 5.48.493a.677.677 0 0 1 .544.79.68.68 0 0 1-.131.296" fill="url(#c)"/><path d="M555.903 285.786c-15.04 0-27.229-12.191-27.229-27.229 0-15.038 12.189-27.229 27.229-27.229s27.23 12.191 27.23 27.229c0 15.038-12.19 27.229-27.23 27.229Z" fill="url(#d)"/><path d="M553.231 278.799v-2.962c-3.088-.124-6.143-.852-8.316-1.802-.774-.339-1.166-1.209-.946-2.025l.752-2.759a1.73 1.73 0 0 1 2.348-1.13c2.15.902 4.809 1.616 7.673 1.616 2.976 0 5.19-1.008 5.19-3.076 0-1.865-1.713-2.974-5.845-4.083-5.9-1.613-10.133-4.184-10.133-9.377 0-4.689 3.425-8.268 9.378-9.226v-2.963c0-.953.774-1.726 1.724-1.726h1.742c.95 0 1.724.773 1.724 1.726v2.66c2.861.115 4.94.604 6.589 1.183a1.719 1.719 0 0 1 1.073 2.074l-.692 2.552a1.72 1.72 0 0 1-2.27 1.162 18.008 18.008 0 0 0-6.461-1.173c-3.53 0-4.539 1.462-4.539 2.773 0 1.613 2.116 2.722 6.704 4.134 6.555 1.966 9.277 4.688 9.277 9.579 0 4.487-3.328 8.52-9.778 9.528v3.315c0 .953-.774 1.726-1.731 1.726h-1.739a1.724 1.724 0 0 1-1.724-1.726Z" fill="url(#e)"/><path fill-rule="evenodd" clip-rule="evenodd" d="M378.742 170.022c0 30.638 24.836 55.476 55.469 55.476 30.642 0 55.478-24.838 55.478-55.476 0-30.638-24.836-55.473-55.478-55.473-30.633 0-55.469 24.835-55.469 55.473Zm9.727 1.209c0-25.93 21.021-46.95 46.951-46.95 25.934 0 46.95 21.02 46.95 46.95 0 25.93-21.016 46.955-46.95 46.955-25.93 0-46.951-21.025-46.951-46.955Zm-.883-24.374a.893.893 0 0 0 1.416.841.893.893 0 0 1-.931.081.891.891 0 0 1-.485-.922Zm4.808-4.84c9.279-13.898 24.803-22.309 41.82-22.309a50.774 50.774 0 0 1-.003.002c-17.017 0-32.537 8.41-41.817 22.307Zm50.95-21.485Z" fill="url(#f)"/><path d="M435.416 218.186c-25.926 0-46.953-21.023-46.953-46.953 0-25.929 21.027-46.952 46.953-46.952 25.934 0 46.952 21.023 46.952 46.952 0 25.93-21.018 46.953-46.952 46.953Z" fill="#fff"/><path d="M430.81 206.14v-5.108c-5.322-.214-10.592-1.47-14.33-3.107-1.339-.587-2.017-2.084-1.637-3.493l1.3-4.758c.473-1.746 2.373-2.648 4.04-1.947 3.712 1.553 8.294 2.788 13.236 2.788 5.129 0 8.955-1.742 8.955-5.305 0-3.217-2.959-5.13-10.085-7.042-10.171-2.78-17.476-7.213-17.476-16.168 0-8.084 5.913-14.26 16.172-15.91v-5.108a2.974 2.974 0 0 1 2.976-2.976h2.999a2.974 2.974 0 0 1 2.976 2.976v4.587c4.928.197 8.517 1.037 11.362 2.039 1.462.513 2.259 2.084 1.851 3.576l-1.194 4.399a2.969 2.969 0 0 1-3.918 2.005c-2.617-.99-6.329-2.022-11.143-2.022-6.084 0-7.821 2.521-7.821 4.779 0 2.784 3.65 4.696 11.563 7.13 11.297 3.392 15.993 8.084 15.993 16.518 0 7.738-5.738 14.689-16.864 16.431v5.716a2.98 2.98 0 0 1-2.981 2.976h-2.998a2.977 2.977 0 0 1-2.976-2.976Z" fill="url(#g)"/><path d="M216.554 493.5c.016.038-.463.261-1.348.635-.896.338-2.207.813-3.881 1.202-3.335.841-8.09 1.318-13.313 1.263-5.227-.058-9.936-.296-13.352-.432-1.615-.085-2.97-.157-4.04-.215-.954-.063-1.48-.117-1.479-.158 0-.04.53-.063 1.486-.068l4.046.028 13.341.261c5.2.055 9.898-.352 13.22-1.08 3.334-.686 5.28-1.543 5.32-1.436Zm56.151 1.454c-.011.039.492.204 1.415.469.93.23 2.288.545 3.996.733 3.411.439 8.189.346 13.369-.329 5.183-.68 9.83-1.475 13.204-2.016l3.988-.693c.939-.178 1.455-.294 1.449-.334-.005-.04-.533.001-1.483.108l-4.015.51-13.215 1.846c-5.157.671-9.869.826-13.255.497-3.391-.283-5.425-.904-5.453-.791Z" fill="#17282F"/><path d="M271.775 495.866c.057.074.938-.593 2.453-1.487 1.5-.867 3.772-1.964 6.422-1.874 2.657.088 4.717 1.62 6.067 2.692 1.364 1.115 2.176 1.866 2.24 1.799.046-.049-.654-.899-1.972-2.113-.665-.6-1.499-1.286-2.554-1.871-1.043-.591-2.35-1.043-3.758-1.089-2.842-.093-5.19 1.135-6.662 2.106-1.491 1.003-2.278 1.784-2.236 1.837Z" fill="#17282F"/><path d="M382.786 323.4c.004.006-.052.058-.163.15l-.494.396-1.837 1.426c-.786.602-1.714 1.31-2.74 2.094-.524.384-1.039.825-1.657 1.202-.604.365-1.426.613-2.18.287a1.64 1.64 0 0 1-.809-.829 2.336 2.336 0 0 1-.19-1.101c.039-.747.44-1.381.87-1.87.439-.494.927-.883 1.368-1.252l1.235-1.027c.743-.607 1.352-1.107 1.799-1.473l.496-.393c.115-.088.177-.132.182-.126.005.006-.049.06-.155.159l-.47.422-1.756 1.524c-.374.322-.782.672-1.22 1.046-.436.375-.915.766-1.335 1.246-.412.479-.778 1.073-.81 1.757-.048.663.226 1.433.88 1.727.319.141.685.163 1.027.101.345-.059.667-.202.964-.375.591-.356 1.12-.8 1.645-1.179l2.767-2.058 1.878-1.373.517-.364c.118-.083.183-.122.188-.117Z" fill="#F68260"/><path d="M384.609 327.264c.008.012-.128.125-.38.318a35.32 35.32 0 0 1-1.091.787 59.738 59.738 0 0 1-3.737 2.396c-.375.218-.735.442-1.12.61-.382.168-.796.269-1.195.227-.8-.096-1.373-.681-1.544-1.244a1.823 1.823 0 0 1 .106-1.352 1.58 1.58 0 0 1 .205-.309l.098-.087c.015.012-.108.144-.229.43-.114.281-.22.752-.04 1.271.171.506.709 1.025 1.424 1.099.354.032.729-.06 1.092-.222.364-.162.722-.385 1.096-.604 1.49-.878 2.811-1.72 3.762-2.337l1.126-.732c.266-.172.418-.262.427-.251Z" fill="#F68260"/><path d="M385.673 331.035c.007.013-.135.094-.394.231-.303.153-.674.34-1.112.559-.943.466-2.25 1.094-3.7 1.776-.363.167-.713.348-1.083.472-.367.124-.764.174-1.126.09-.359-.077-.682-.301-.837-.601a1.385 1.385 0 0 1-.129-.886c.104-.552.439-.884.655-1.076.228-.194.376-.266.382-.257.011.014-.122.11-.325.316-.196.204-.492.54-.566 1.039-.033.246-.006.531.135.78.137.25.407.433.727.497.321.069.673.023 1.019-.097.347-.117.695-.297 1.059-.466 1.45-.683 2.768-1.289 3.726-1.72l1.14-.5c.27-.113.423-.171.429-.157Z" fill="#F68260"/><path d="M386.265 334.536c.006.029-.493.157-1.305.341-.812.184-1.936.424-3.181.676l-.909.183c-.292.058-.586.118-.878.106-.291-.011-.573-.102-.778-.279a.827.827 0 0 1-.297-.663 1.18 1.18 0 0 1 .501-.872c.197-.141.334-.159.335-.151.009.019-.115.064-.284.214-.161.145-.395.423-.404.812a.676.676 0 0 0 .26.528c.173.139.416.215.673.218.261.006.538-.051.831-.113.295-.061.597-.124.908-.187 1.246-.252 2.374-.47 3.194-.617.819-.147 1.329-.224 1.334-.196Zm-8.909-1.667c-.016.064-1.035-.303-2.335-.234-1.301.054-2.28.515-2.303.454-.033-.039.941-.605 2.294-.662 1.351-.071 2.373.4 2.344.442Z" fill="#F68260"/><path d="M306.156 250.118h20.455v-20.454h-20.455v20.454Z" fill="#F9B2C4"/><path d="M179.877 354.091c.138-.085.593.369 1.018 1.014.423.644.66 1.242.528 1.335-.132.093-.588-.361-1.017-1.014-.43-.653-.667-1.251-.529-1.335Zm165.263-67.943c4.727-1.227 8.237-6.069 7.933-10.943-.137-2.198-.953-4.337-.86-6.537.146-3.415 2.412-6.302 4.117-9.264 1.705-2.961 2.849-6.868.861-9.649-1.289-1.804-3.564-2.616-5.127-4.19-1.528-1.54-2.254-3.675-3.072-5.685-.819-2.011-1.88-4.083-3.766-5.157-1.886-1.073-4.778-.597-5.542 1.434m-14.948-5.41c3.364-2.135 4.177-7.088 2.354-10.633-1.824-3.542-5.693-5.694-9.627-6.33-5.694-.918-11.782 1.1-15.801 5.237-2.172 2.235-3.93 5.153-6.874 6.177-2.589.901-5.451.088-8.168.439-3.643.472-6.765 3.062-8.632 6.225-1.868 3.162-2.638 6.85-3.07 10.497-.396 3.348-.657 7.022-2.98 9.465-2.264 2.382-5.843 2.888-8.659 4.583-5.299 3.188-7.016 11.087-3.52 16.188 1.115 1.626 2.714 3.117 2.845 5.085.118 1.797-1.044 3.397-1.587 5.113-1.4 4.419 2.217 9.668 6.844 9.934 2.336.134 4.839-.777 6.934.267 2.08 1.038 2.854 3.547 4.184 5.453 2.617 3.749 8.092 5.163 12.197 3.15 1.719-.843 3.341-2.234 5.252-2.105 1.904.128 3.405 1.756 5.28 2.119 2.456.474 4.786-1.334 6.246-3.364 1.458-2.03 2.476-4.421 4.344-6.082 2.446-2.177 5.883-2.714 8.978-3.781 6.833-2.352 12.541-7.774 15.243-14.475 2.701-6.702 2.349-14.568-.942-21.001" fill="#17282F"/><path d="M332.127 235.166a5.378 5.378 0 0 1 4.8 5.466l-3.208 72.632c-.134 8.577-12.673 13.397-21.858 13.184-9.275-.215-9.573-4.764-9.69-12.926-.194-13.633-.177-18.752-.182-18.674 0 0-11.716-1.973-14.109-17.269-1.192-7.607-.782-20.074-.117-30.264.598-9.171 6.7-20.413 15.84-19.426l28.524 7.277Z" fill="#F8A58D"/><path d="M291.126 257.215c-.039 1.036.806 1.922 1.887 1.982 1.078.061 1.986-.727 2.026-1.763.038-1.035-.806-1.924-1.886-1.984-1.08-.06-1.988.73-2.027 1.765Zm-.673-3.407c.242.256 1.731-.84 3.84-.83 2.108-.02 3.653 1.07 3.884.811.113-.113-.134-.576-.807-1.068-.662-.491-1.794-.969-3.108-.966-1.316.004-2.422.486-3.057.98-.652.496-.872.958-.752 1.073Zm21.708 3.407c-.039 1.036.806 1.922 1.886 1.982 1.079.061 1.987-.727 2.026-1.763.038-1.035-.806-1.924-1.884-1.984-1.082-.06-1.988.73-2.028 1.765Zm-.967-2.968c.244.256 1.733-.84 3.842-.829 2.108-.02 3.655 1.068 3.884.811.112-.115-.131-.576-.808-1.069-.661-.491-1.793-.968-3.107-.966-1.315.004-2.42.486-3.058.979-.648.498-.871.959-.753 1.074Zm-7.691 15.633c.01-.122-1.301-.351-3.427-.627-.539-.057-1.049-.165-1.139-.532-.126-.391.101-.971.364-1.597.51-1.303 1.042-2.669 1.603-4.1 2.226-5.836 3.838-10.637 3.603-10.724-.236-.089-2.232 4.572-4.458 10.409l-1.536 4.124c-.205.612-.557 1.306-.284 2.115.144.403.54.696.884.789.345.107.65.114.916.129 2.138.122 3.466.133 3.474.014Z" fill="#17282F"/><path d="M301.988 294.848s10.285.686 20.49-5.418c0 0-5.19 10.782-20.49 9.317v-3.899Z" fill="#F68260"/><path d="M304.384 274.966c.76-1 2.091-1.55 3.411-1.404.915.1 1.841.545 2.394 1.292.555.747.67 1.805.162 2.516-.571.799-1.761.981-2.767.693-1.008-.289-1.871-.955-2.695-1.615-.226-.185-.459-.376-.6-.627-.142-.251-.171-.578.004-.785" fill="#4971FF"/><path d="M309.707 271.353c-.343-.02-.352 2.271-2.316 3.892-1.961 1.626-4.402 1.364-4.421 1.684-.033.144.543.446 1.572.476 1.012.037 2.488-.284 3.691-1.277 1.198-.992 1.715-2.322 1.796-3.262.088-.957-.165-1.525-.322-1.513Zm.546-20.804c.208.575 2.316.308 4.79.611 2.482.255 4.475.984 4.806.47.147-.246-.199-.787-1.006-1.344-.798-.557-2.075-1.086-3.56-1.255-1.486-.165-2.847.067-3.75.432-.909.364-1.369.814-1.28 1.086Zm-19.012-2.847c.371.48 1.825-.014 3.573-.034 1.747-.081 3.228.33 3.57-.171.149-.243-.082-.724-.728-1.179-.636-.454-1.702-.825-2.903-.792-1.202.036-2.243.467-2.851.957-.62.492-.824.985-.661 1.219Z" fill="#17282F"/><path d="M322.09 230.193c3.504-2.358 8.04-3.441 12.12-2.27 4.079 1.171 7.459 4.847 7.598 9.004.088 2.701-1.077 5.573.122 8.007 1.14 2.318 3.951 3.262 5.945 4.942 3.131 2.638 4.055 7.465 2.112 11.033-1.669 3.065-5.18 5.311-5.474 8.771-.277 3.257 2.468 6.004 3.135 9.205.738 3.532-1.219 7.185-4.02 9.529-2.801 2.342-6.341 3.632-9.8 4.878-2.7.971-5.591 1.957-8.393 1.321-3.338-.756-5.831-3.851-6.289-7.171-.458-3.32.91-6.726 3.184-9.231 1.963-2.163 4.719-4.001 5.19-6.856.735-4.446-4.562-8.1-4.237-12.593.169-2.317 1.802-4.235 3.162-6.14 1.361-1.905 2.548-4.302 1.713-6.476-1.085-2.828-4.802-3.564-7.045-5.638-1.878-1.734-2.634-4.539-1.877-6.953.758-2.414 2.995-4.321 5.545-4.726" fill="#17282F"/><path d="M323.733 226.744c.013 3.062-1.399 6.099-3.746 8.063-2.346 1.964-5.585 2.819-8.596 2.268-2.336-.427-4.896-1.607-6.919-.363-2.127 1.309-2.214 4.515-4.1 6.152-2.696 2.341-6.982.145-10.404 1.159-2.644.785-4.294 3.311-6.049 5.436-1.756 2.125-4.386 4.145-7.028 3.36.168-2.375.341-4.775 1.049-7.051.707-2.274 2.008-4.444 4.002-5.744 1.095-.712 2.365-1.147 3.381-1.967 2.193-1.77 2.701-4.853 4.056-7.326 1.746-3.186 5.119-5.424 8.735-5.794 3.008-.307 6.107.596 9.039-.143 2.167-.547 4.06-1.953 6.257-2.371 4.277-.813 8.251 2.256 11.351 5.311" fill="#17282F"/><path d="M351.666 263.299c-.076-.024.454-.582.339-1.765-.096-1.154-1.059-2.8-3.079-3.517-.976-.395-2.123-.624-3.361-.904-1.231-.296-2.604-.66-3.807-1.569-1.239-.892-1.905-2.513-1.981-4.092-.099-1.596.152-3.198.237-4.813.031-.808.011-1.6-.122-2.353a5.035 5.035 0 0 0-.902-2.008c-.918-1.146-2.36-1.655-3.68-2.112-1.343-.432-2.659-.926-3.75-1.617a12.985 12.985 0 0 1-2.764-2.257 12.905 12.905 0 0 1-2.7-4.357 9.072 9.072 0 0 1-.393-1.338c-.063-.312-.087-.478-.067-.482.054-.014.204.639.671 1.736a13.656 13.656 0 0 0 2.789 4.155c1.469 1.548 3.64 2.896 6.385 3.649 1.328.451 2.884.956 3.955 2.262a5.582 5.582 0 0 1 1.028 2.255c.148.824.166 1.66.132 2.494-.086 1.66-.335 3.245-.248 4.748.077 1.493.645 2.889 1.741 3.704 1.073.834 2.383 1.215 3.588 1.523 1.221.299 2.394.556 3.408.994 1.01.423 1.864 1.043 2.369 1.78.518.722.742 1.48.778 2.1.031.626-.124 1.103-.278 1.387-.149.288-.281.403-.288.397Zm-90.07 9.542c-.005.009-.088-.031-.25-.118-.16-.088-.378-.27-.575-.579-.383-.626-.404-1.839.313-3.02a4.02 4.02 0 0 1 1.637-1.565c.73-.398 1.576-.7 2.458-1.038.875-.344 1.821-.739 2.572-1.458.756-.715 1.228-1.754 1.469-2.901.259-1.148.334-2.401.543-3.706.195-1.297.608-2.703 1.516-3.855 1.781-2.347 4.699-3.593 6.875-5.793 1.072-1.109 1.878-2.505 2.389-4.051.533-1.541.826-3.2 1.082-4.897.474-3.358.95-7.123 3.213-10.196 1.102-1.525 2.784-2.655 4.612-2.981 1.825-.361 3.626-.093 5.325.132 1.705.237 3.378.491 4.976.291a6.462 6.462 0 0 0 4.065-2.099c2.087-2.25 3.286-5.282 5.851-6.833 2.482-1.534 5.383-1.728 7.726-1.064a8.564 8.564 0 0 1 5.084 3.953 9.63 9.63 0 0 1 1.321 4.715c.028 1.359-.243 2.397-.49 3.059-.242.667-.45.981-.45.981-.029-.013.135-.349.339-1.018.207-.665.436-1.69.374-3.016a9.508 9.508 0 0 0-1.375-4.553 8.239 8.239 0 0 0-4.915-3.723c-2.244-.612-5.021-.393-7.354 1.076-1.159.735-2.104 1.823-2.952 3.045-.862 1.21-1.653 2.558-2.767 3.749-.557.591-1.205 1.133-1.954 1.531-.756.372-1.577.663-2.432.751-1.706.218-3.424-.046-5.125-.276-1.696-.225-3.443-.47-5.132-.131-1.69.307-3.218 1.328-4.261 2.762-1.061 1.425-1.728 3.104-2.186 4.793-.459 1.695-.66 3.43-.926 5.138-.263 1.706-.564 3.397-1.12 4.994-.534 1.598-1.391 3.079-2.531 4.244-2.307 2.285-5.196 3.505-6.876 5.711-.858 1.073-1.25 2.362-1.457 3.634-.216 1.275-.304 2.536-.583 3.725-.262 1.185-.785 2.313-1.618 3.079-.831.771-1.825 1.16-2.712 1.493-.898.328-1.732.609-2.444.978a3.82 3.82 0 0 0-1.573 1.439c-.712 1.109-.726 2.246-.402 2.845.342.599.753.713.72.753Z" fill="#33535F"/><path d="m224.071 378.113 27.125-2.485s16.693-43.965 37.27-54.627l13.329 23.284-28.532 53.609h-55.712l6.52-19.781Z" fill="#4971FF"/><path d="M261.335 397.894h-33.781c-3.051-.848-6.114-1.7-9.161-2.549l5.679-17.232 27.125-2.485s16.692-43.965 37.269-54.627l-11.376 14.464-5.92 8.41c-3.434 4.873-6.038 10.322-7.335 16.142-1.434 6.44-1.632 12.723-1.632 19.564l-.868 18.313Z" fill="#2C4BB8"/><path d="M234.79 390.531c-.138-.085.885-2.051 2.285-4.394 1.402-2.344 2.651-4.177 2.789-4.094.139.084-.884 2.05-2.287 4.394-1.4 2.343-2.649 4.176-2.787 4.094Zm19.216-.535c-.125.103-1.608-1.535-3.313-3.655-1.704-2.121-2.984-3.921-2.858-4.023.127-.101 1.609 1.535 3.314 3.657 1.704 2.12 2.984 3.92 2.857 4.021Zm3.338-10.081c-.161 0-.293-1.592-.293-3.556 0-1.966.132-3.557.293-3.557.162 0 .293 1.591.293 3.557 0 1.964-.131 3.556-.293 3.556Zm-9.546 15.723c-.089.136-1.249-.468-2.594-1.346-1.344-.879-2.362-1.7-2.273-1.836.088-.136 1.249.467 2.593 1.346 1.345.879 2.362 1.701 2.274 1.836Zm15.574-40.414c.147.067-.691 2.259-1.873 4.897-1.182 2.64-2.26 4.726-2.408 4.66-.147-.067.692-2.259 1.874-4.898 1.182-2.639 2.26-4.725 2.407-4.659Zm10.992-17.815c.098.128-.873 1.028-2.165 2.008-1.295.981-2.423 1.67-2.52 1.542-.097-.129.872-1.027 2.166-2.008 1.294-.98 2.421-1.67 2.519-1.542Z" fill="#FAFAF9"/><path d="m314.936 394.419 13.989-56.5c2.435-9.837 12.091-16.093 22.065-14.296 10.266 1.851 17.182 11.553 15.583 21.861l-8.564 55.219a27.633 27.633 0 0 1-22.923 22.354l-11.121 1.733-9.029-30.371Z" fill="#4971FF"/><path d="M359.022 319.974c-.07.134-1.565-1.694-4.989-2.508a13.3 13.3 0 0 0-6.021.041c-2.225.522-4.509 1.722-6.546 3.413-4.1 3.437-6.33 7.902-7.847 11.03-.749 1.59-1.319 2.897-1.726 3.793-.405.898-.646 1.389-.683 1.373-.038-.015.131-.534.473-1.46.342-.924.855-2.256 1.56-3.877.714-1.615 1.623-3.525 2.876-5.514 1.246-1.989 2.88-4.041 4.973-5.794 2.097-1.742 4.471-2.975 6.797-3.488 2.325-.522 4.515-.374 6.244.082 1.734.468 3.009 1.213 3.79 1.829.387.315.675.57.849.77.179.189.265.296.25.31Zm-79.25 12.713c.014.013-.122.194-.392.525l-1.196 1.432a93.28 93.28 0 0 0-4.199 5.422c-3.343 4.676-7.557 11.664-9.549 20.275-1.953 8.615-2.049 16.682-2.38 22.46-.139 2.898-.275 5.244-.4 6.862l-.165 1.861c-.045.426-.077.649-.098.648-.02-.002-.027-.228-.019-.653l.055-1.869.214-6.866c.227-5.777.254-13.874 2.222-22.575 2.021-8.725 6.34-15.749 9.787-20.387a71.373 71.373 0 0 1 4.359-5.327c.541-.606.986-1.053 1.281-1.362.3-.306.464-.46.48-.446Z" fill="#17282F"/><path d="M369.417 332.565c-1.534-10.103-7.115-12.527-12.893-15.674-1.89-1.028-10.998-3.366-18.22-5.126a5189.377 5189.377 0 0 0-2.196-13.862c-.382-2.323-36.789 3.485-37.25 4.355-.306.578-1.144 9.651-1.674 15.696l-8.717 3.047-11.376 14.465-5.92 8.409c-3.433 4.873-6.038 10.322-7.335 16.142-1.434 6.44-1.632 12.724-1.632 19.564l-1.759 37.09 76.175 21.541 5.897-37.573 19.652-26.75c1.678-10.82 9.136-28.901 7.248-41.324Z" fill="#4971FF"/><path d="M304.405 319.123c-.08.007-.267-.976-.506-2.573-.24-1.6-.527-3.813-.811-6.262-.134-1.21-.26-2.365-.378-3.454-.097-1.059-.232-2.016-.202-2.856.023-.834.255-1.515.543-1.897.294-.382.547-.486.561-.461.033.039-.163.204-.368.581-.201.381-.349.995-.322 1.78.021.779.195 1.729.323 2.792l.423 3.449c.283 2.447.508 4.669.642 6.279.133 1.611.176 2.611.095 2.622Zm9.712-2.297c-.072.021-.418-.868-.811-2.355-.394-1.486-.809-3.579-1.027-5.92-.215-2.341-.19-4.476-.074-6.009.113-1.534.291-2.471.366-2.463.179.014-.151 3.791.291 8.419.413 4.628 1.429 8.281 1.255 8.328Zm18.077-2.628c-.193-.02.614-3.794-.207-8.377-.769-4.593-2.8-7.875-2.625-7.959.058-.036.638.729 1.336 2.114.696 1.38 1.455 3.407 1.865 5.745.401 2.338.368 4.504.176 6.038-.189 1.537-.479 2.454-.545 2.439Z" fill="#17282F"/><path d="M280.467 347.235c-.133-.086 1.128-2.253 2.982-4.721 1.851-2.47 3.579-4.289 3.698-4.185.125.108-1.392 2.082-3.229 4.536-1.841 2.452-3.313 4.461-3.451 4.37Zm17.157-13.956c-.128.098-1.485-1.461-3.029-3.482-1.544-2.02-2.692-3.738-2.564-3.836.128-.098 1.484 1.46 3.029 3.481 1.544 2.021 2.692 3.738 2.564 3.837Zm17.933-8.77c.107.129-1.577 1.667-3.583 3.626-2.01 1.954-3.591 3.596-3.717 3.487-.119-.1 1.277-1.931 3.309-3.906 2.027-1.98 3.893-3.329 3.991-3.207Zm-5.037-10.687c-.109.119-1.362-.839-2.8-2.141-1.438-1.304-2.517-2.456-2.408-2.575.109-.12 1.363.839 2.8 2.14 1.438 1.303 2.516 2.455 2.408 2.576Zm15.712-8.382c.034.159-1.658.655-3.78 1.109-2.121.455-3.869.694-3.903.537-.033-.159 1.659-.654 3.781-1.109 2.121-.455 3.869-.695 3.902-.537Zm3.144 24.873c-.161.008-.381-1.744-.491-3.915-.109-2.171-.067-3.938.094-3.946.162-.007.381 1.746.491 3.917.109 2.169.067 3.936-.094 3.944Zm-5.731 11.965c-.152.055-1.033-1.979-1.967-4.543-.936-2.564-1.569-4.687-1.417-4.742.15-.057 1.032 1.977 1.967 4.542.935 2.563 1.569 4.687 1.417 4.743Zm-15.558 8.431c-.152.058-1.119-2.071-2.162-4.755-1.044-2.684-1.766-4.908-1.616-4.966.15-.059 1.118 2.07 2.16 4.755 1.044 2.683 1.768 4.907 1.618 4.966Zm-14.651 9.559c-.159.033-.724-2.074-1.261-4.706-.541-2.631-.848-4.791-.69-4.824.158-.031.723 2.076 1.262 4.707.538 2.632.846 4.791.689 4.823Zm-17.403.381c-.146.072-1.2-1.793-2.354-4.162-1.153-2.368-1.972-4.347-1.826-4.417.145-.072 1.197 1.791 2.353 4.162 1.153 2.369 1.972 4.348 1.827 4.417Zm-.375 11.158c.072.145-1.97 1.3-4.56 2.58-2.591 1.278-4.749 2.199-4.821 2.054-.072-.145 1.97-1.3 4.562-2.58 2.589-1.279 4.747-2.199 4.819-2.054Zm.216 17.654c-.146.056-.963-1.741-1.585-4.087-.629-2.347-.816-4.312-.661-4.337.165-.027.605 1.872 1.226 4.185.614 2.316 1.176 4.181 1.02 4.239Zm-3.597 12.402c-.11.12-1.752-1.205-3.667-2.959-1.917-1.754-3.38-3.271-3.272-3.39.11-.119 1.751 1.205 3.668 2.959 1.915 1.753 3.38 3.272 3.271 3.39Zm22.93-8.463c.043.169-2.537.905-5.546 2.233-3.017 1.313-5.306 2.709-5.401 2.564-.088-.122 2.094-1.763 5.167-3.101 3.065-1.351 5.751-1.843 5.78-1.696Zm-6.709-6.149c-.151.053-.89-1.669-1.647-3.845-.759-2.178-1.251-3.985-1.099-4.037.154-.054.892 1.667 1.65 3.845.759 2.175 1.249 3.985 1.096 4.037Zm13.605-15.183c.137.087-1.24 2.516-3.075 5.427-1.835 2.912-3.433 5.201-3.57 5.115-.135-.086 1.24-2.515 3.076-5.426 1.835-2.911 3.432-5.201 3.569-5.116Zm14.612 1.456c-.121.095-1.935-2.096-3.732-5.1-1.803-2.999-2.883-5.63-2.742-5.692.151-.073 1.457 2.422 3.244 5.391 1.778 2.974 3.366 5.301 3.23 5.401Zm8.757-14.422c.032.152-1.868.644-4.274.76-2.408.122-4.346-.179-4.331-.332.014-.168 1.94-.131 4.301-.253 2.363-.112 4.275-.339 4.304-.175Zm20.787-16.433c.069.147-2.396 1.467-5.505 2.947-3.11 1.482-5.687 2.565-5.756 2.419-.07-.145 2.395-1.464 5.505-2.946 3.109-1.482 5.686-2.565 5.756-2.42Zm1.381-10.448c-.143-.073.737-2.145 1.969-4.629 1.232-2.487 2.349-4.442 2.493-4.371.145.071-.736 2.144-1.97 4.63-1.23 2.485-2.348 4.441-2.492 4.37Zm13.21 8.199c-.161.039-.817-2.281-1.704-5.108-.884-2.832-1.666-5.109-1.511-5.172.144-.06 1.178 2.14 2.069 4.996.896 2.854 1.3 5.252 1.146 5.284Zm2.071 10.873c.055.146-2.113 1.084-4.929 1.803-2.814.724-5.165.944-5.187.79-.025-.166 2.261-.641 5.043-1.358 2.783-.709 5.015-1.393 5.073-1.235Zm-22.633 13.277c-.171-.034.311-2.766.447-6.169.154-3.403-.094-6.167.078-6.187.147-.025.661 2.75.507 6.211-.139 3.462-.887 6.184-1.032 6.145Zm-4.516 13.66c-.103.114-2.078-1.563-4.108-4.017-2.039-2.448-3.322-4.699-3.192-4.78.143-.093 1.628 1.989 3.641 4.406 2.005 2.425 3.777 4.269 3.659 4.391Zm22.699-2.875c.062.15-2.034 1.167-4.684 2.272-2.649 1.108-4.846 1.884-4.909 1.734-.063-.149 2.035-1.166 4.685-2.273 2.647-1.105 4.846-1.882 4.908-1.733Zm-8.132 25.71c-.162 0-.266-2.766-.231-6.179.034-3.413.193-6.175.354-6.175.162.002.265 2.768.23 6.181-.033 3.412-.193 6.176-.353 6.173Zm-17.424-1.475c-.153-.021.128-2.898.998-6.348.86-3.454 1.972-6.123 2.116-6.069.158.057-.695 2.791-1.549 6.212-.862 3.418-1.398 6.23-1.565 6.205Zm.8 6.745c.01.17-2.791.437-6.203 1.006-3.416.558-6.153 1.206-6.199 1.042-.044-.147 2.651-1.053 6.104-1.619 3.449-.574 6.293-.581 6.298-.429Zm-19.271-4.325c-.117-.111 1.376-1.843 3.33-3.867 1.956-2.025 3.635-3.575 3.752-3.463.115.114-1.376 1.845-3.331 3.869s-3.635 3.575-3.751 3.461Zm-12.483 12.145c-.167.032-.665-1.988-1.518-4.394-.842-2.411-1.719-4.298-1.569-4.377.133-.076 1.26 1.723 2.121 4.183.869 2.455 1.116 4.563.966 4.588Zm20.147 6.94c-.066.148-2.588-.829-5.634-2.18-3.046-1.352-5.463-2.569-5.396-2.716.065-.148 2.587.828 5.633 2.18 3.046 1.353 5.463 2.569 5.397 2.716Zm-35.118-2.036c-.154-.051.319-1.891 1.056-4.108.736-2.219 1.457-3.976 1.611-3.925.153.052-.32 1.89-1.057 4.109-.736 2.217-1.458 3.975-1.61 3.924Zm23.137 3.915c-.031.172-3.226-.346-7.196-.549-3.971-.219-7.203-.044-7.216-.217-.018-.148 3.227-.588 7.246-.367 4.02.207 7.199.987 7.166 1.133Z" fill="#FAFAF9"/><path d="M314.937 389.858c-.018 0-.028-.151-.03-.443-.007-.29.023-.729.181-1.274.146-.539.498-1.224 1.221-1.672.711-.462 1.694-.619 2.741-.453l-.23.134c1.231-4.306 3.194-10.599 5.16-17.65 1.842-6.601 3.081-12.682 3.954-17.089l1.028-5.223c.248-1.232.404-1.911.443-1.903.041.006-.04.697-.219 1.942a195.742 195.742 0 0 1-.845 5.259c-.77 4.429-1.95 10.547-3.796 17.169-1.971 7.071-4.005 13.337-5.35 17.609l-.052.168-.178-.033c-.929-.173-1.86-.056-2.495.334-.659.372-1.011.973-1.18 1.475-.342 1.026-.279 1.658-.353 1.65Z" fill="#17282F"/><path d="M340.12 405.478c-.097.045-.786-1.476-2.215-3.743-1.421-2.267-3.676-5.231-6.693-7.982-3.029-2.744-6.193-4.706-8.586-5.904-2.392-1.205-3.972-1.748-3.936-1.849.012-.038.416.071 1.138.299.723.218 1.747.617 2.979 1.178 2.464 1.115 5.721 3.056 8.799 5.842 3.067 2.797 5.307 5.853 6.653 8.201.676 1.173 1.17 2.153 1.456 2.854.296.696.442 1.088.405 1.104Z" fill="#17282F"/><path d="M338.896 399.167c-.28 0-.566-.05-.828-.143-.715-.253-1.303-.765-1.859-1.28a83.644 83.644 0 0 0-1.986-1.771c-.096-.109-.195-.217-.294-.327.165-.702.348-1.465.549-2.261.357-1.433.716-2.746.999-3.792 2.202 1.571 4.003 3.647 4.929 6.171.355.969.524 2.192-.209 2.917-.341.337-.816.486-1.301.486Zm-5.423-4.012a34.974 34.974 0 0 0-1.868-1.835 35.905 35.905 0 0 0-7.06-4.984c-1.202-.696-2.464-1.29-3.713-1.691a16.733 16.733 0 0 0-1.004-.346c-.23-.072-.426-.133-.588-.18l.293-.928c4.198.303 7.668.641 11.633 2.127a18.964 18.964 0 0 1 3.916 2.002 44.237 44.237 0 0 0-1.171 3.922 45.833 45.833 0 0 0-.438 1.913Z" fill="#3053D0"/><path d="M333.929 395.647c-.15-.164-.301-.328-.456-.492.124-.605.27-1.249.438-1.913a44.206 44.206 0 0 1 1.171-3.921c.133.09.264.181.394.273-.283 1.045-.641 2.358-.998 3.792a138.25 138.25 0 0 0-.549 2.261Z" fill="#BFC0BE"/><path d="m319.073 386.218-.067-.011.005-.016.062.027Zm.166-.098-.189-.054.271-.891.212.016-.294.929Z" fill="#111D23"/><path d="M334.225 395.974c-1.85-1.603-3.734-3.125-5.613-4.742a27.452 27.452 0 0 0-4.066-2.895 35.888 35.888 0 0 1 7.061 4.983 35.353 35.353 0 0 1 2.324 2.327l.294.327Zm-13.392-9.328a12.144 12.144 0 0 0-1.758-.428l-.061-.027.038-.125.19.054c.161.047.358.108.587.179.289.088.626.204 1.004.347Z" fill="#111D23"/><path d="M311.226 378.011c.015.032-.391.291-1.172.679-.78.388-1.953.872-3.454 1.303-2.984.87-7.442 1.347-12.106.137-4.664-1.212-8.329-3.799-10.51-6.011-1.105-1.106-1.893-2.1-2.384-2.819-.494-.719-.723-1.143-.693-1.163.093-.069 1.116 1.579 3.365 3.684 2.217 2.099 5.826 4.562 10.369 5.742 4.542 1.179 8.893.783 11.852.029 2.989-.745 4.684-1.687 4.733-1.581Z" fill="#17282F"/><path d="m296.441 384.99-.132-.001c-2.609-.043-5.026-1.381-7.094-2.973-3.434-2.647-5.619-6.554-7.457-10.494a21.095 21.095 0 0 0 2.228 2.596c2.181 2.212 5.846 4.799 10.51 6.011.67.174 1.336.313 1.994.421-.699 1.211-1.107 2.01-1.029 2.059.002.001.004.003.009.003.109 0 .691-.773 1.517-1.986 1.134.161 2.242.231 3.302.231a23.2 23.2 0 0 0 5.765-.715c-2.807 2.373-5.957 4.848-9.613 4.848Z" fill="#3053D0"/><path d="M295.468 382.613c-.005 0-.007-.002-.009-.002-.078-.05.33-.848 1.029-2.06.167.027.332.052.497.076-.826 1.213-1.408 1.986-1.517 1.986Z" fill="#BFC0BE"/><path d="M300.597 380.308c-1.042 0-2.133-.066-3.25-.217l.121-.18c1.086.195 2.183.33 3.283.396l-.154.001Zm-3.793-.296a22.73 22.73 0 0 1-2.162-.45c-4.254-1.105-7.691-3.335-9.931-5.339 3.295 2.668 7.631 4.669 12.215 5.584l-.122.205Z" fill="#3053D0"/><path d="M297.347 380.092c-.18-.023-.361-.05-.542-.079l.121-.205c.18.036.361.071.542.103l-.121.181Z" fill="#BFC0BE"/><path d="M300.288 380.858a23.667 23.667 0 0 1-3.799-.308 22.304 22.304 0 0 1-1.994-.421c-4.664-1.212-8.329-3.798-10.51-6.011a21.098 21.098 0 0 1-2.228-2.595 34.516 34.516 0 0 1-.239-.518 19.848 19.848 0 0 0 3.193 3.219c2.24 2.004 5.677 4.234 9.931 5.339a22.415 22.415 0 0 0 2.704.529 24.31 24.31 0 0 0 3.251.217l.153-.001c.54.033 1.081.05 1.619.05 1.267 0 2.528-.093 3.768-.287l-.084.072a23.246 23.246 0 0 1-5.765.715Z" fill="#111D23"/><path d="M323.039 315.968c-.179-.011.036-3.858-.426-8.562-.439-4.709-1.38-8.446-1.207-8.49.074-.019.402.892.778 2.411.379 1.515.783 3.644 1.012 6.023.226 2.377.234 4.544.15 6.105-.083 1.561-.232 2.518-.307 2.513ZM178.277 477.066c-.003-.033.563-.128 1.595-.105 1.028.028 2.538.195 4.286.838.44.165.897.377 1.319.712.417.321.81.844.827 1.487.014 1.328-1.445 2.286-2.764 2.009-1.333-.255-2.347-1.231-3.186-2.27-.849-1.061-1.462-2.358-1.803-3.753-.669-2.802-.171-5.7 1.344-7.778.22-.249.524-.488.906-.545.369-.062.769.082 1.015.318.5.474.675 1.075.765 1.638a8.332 8.332 0 0 1-.162 3.054 8.49 8.49 0 0 1-2.059 3.852c-.36.374-.67.632-.891.79-.224.157-.345.23-.357.214-.034-.043.425-.383 1.077-1.156a8.763 8.763 0 0 0 1.826-3.791 8.059 8.059 0 0 0 .086-2.892c-.078-.484-.272-1.011-.624-1.323-.345-.318-.84-.229-1.177.198-1.318 1.854-1.829 4.66-1.18 7.283.321 1.316.895 2.539 1.685 3.54.78.987 1.74 1.882 2.831 2.09 1.043.257 2.205-.557 2.183-1.467-.001-.454-.272-.859-.628-1.15-.355-.298-.773-.507-1.183-.675a14.86 14.86 0 0 0-4.149-.996c-1.012-.092-1.579-.074-1.582-.122Z" fill="#17282F"/><path d="M193.799 486.287c3.656-.684 6.003-1.112 6.003-1.112l-6.003 1.112Zm-7.733-19.372-.002-.001 2.242-.651.158.262c-.618.111-1.431.247-2.398.39Z" fill="#8C8F8F"/><path d="m193.8 486.287-.719-1.802.753-.165c1.506-.342 2.689-.613 3.539-.805.376-.093.678-.169.915-.229.201-.053.305-.085.308-.097l1.207 1.986s-2.347.428-6.003 1.112Zm-.81-2.028-6.609-16.556 1.029-.243 1.357-.44 9.827 16.169c-.002-.002-.005-.003-.012-.003-.036 0-.139.015-.307.044-.24.045-.545.101-.927.17l-3.56.701-.798.158Zm-6.684-16.745-.24-.599c.967-.143 1.78-.279 2.399-.39l.235.385-1.335.381-1.059.223Z" fill="#1C348A"/><path d="m193.08 484.484-.091-.226.798-.157 3.56-.702.928-.17c.167-.029.27-.044.306-.044.007 0 .01.001.012.003h.002c-.003.012-.107.044-.308.097-.237.06-.539.136-.915.229-.849.192-2.033.463-3.539.805l-.753.165Zm-6.7-16.782-.075-.189 1.059-.223c.507-.144.952-.27 1.335-.381l.067.111c-.388.125-.841.271-1.357.439l-1.029.243Z" fill="#0C1418"/><path d="m220.136 389.485 16.992-8.789 16.663 10.446 62.386 2.037 9.029 30.373-90.295-20.934s-16.435 1.455-17.666-2.239c-1.231-3.694 2.891-10.894 2.891-10.894Z" fill="#F8A58D"/><path d="m271.245 438.159-8.397 27.58 1.043 8.405c15.302 15.424 39.685 17.067 56.919 3.836a42.294 42.294 0 0 0 16.535-33.73l-.127-28.818-65.973 22.727Z" fill="#17282F"/><path d="M221.231 438.338c-.096.129-9.846-6.979-21.773-15.875-11.93-8.899-21.522-16.215-21.426-16.344.097-.131 9.845 6.975 21.777 15.875 11.927 8.896 21.519 16.215 21.422 16.344Z" fill="#33535F"/><path d="M235.982 386.201c.049.155-3.673 1.484-8.312 2.971-4.64 1.486-8.44 2.567-8.49 2.413-.049-.155 3.672-1.483 8.312-2.969 4.638-1.488 8.44-2.569 8.49-2.415Zm1.271 5.179c.008.086-1.105.253-2.894.544-1.789.293-4.253.731-6.945 1.348a112.139 112.139 0 0 0-6.839 1.821c-1.737.519-2.811.856-2.84.775-.027-.071.997-.546 2.711-1.167a60.08 60.08 0 0 1 6.837-1.998c2.714-.622 5.208-1.001 7.021-1.188 1.814-.189 2.942-.209 2.949-.135Zm-1.423 4.752c.031.16-4.16 1.123-9.361 2.155-5.203 1.031-9.445 1.739-9.477 1.58-.03-.159 4.16-1.123 9.362-2.153 5.201-1.033 9.446-1.74 9.476-1.582Z" fill="#F68260"/><path d="M180.883 370.964c-.83.217-2.147 1.39-2.31 2.622-.162 1.232.501 2.488 1.51 3.213 1.229.885 3.009 1.005 4.267.161 1.259-.846 1.816-2.516 1.166-4.311-.517-1.425-3.123-2.421-4.633-1.685Z" fill="#DADBD8"/><path d="m199.801 485.175-12.34-20.301 90.748-71.123a36.473 36.473 0 0 1 19.821-8.123c22.572-2.055 41.532 16.763 39.645 39.351l-1.45 17.352-60.236 19.356-76.188 23.488Z" fill="#17282F"/><path d="M316.175 436.972c.007.008-.075.083-.24.224l-.742.61-2.889 2.307c-.635.5-1.334 1.055-2.099 1.658-.765.608-1.668 1.17-2.6 1.828l-3.015 2.065c-.535.365-1.079.75-1.652 1.121l-1.801 1.084c-2.465 1.473-5.127 3.158-8.145 4.682-1.496.783-3.022 1.637-4.635 2.434-1.626.772-3.298 1.565-5.014 2.377-6.908 3.15-14.646 6.317-22.942 9.138-16.574 5.711-31.9 9.824-42.876 13.151a385.28 385.28 0 0 0-7.403 2.254c-2.177.672-4.052 1.252-5.569 1.768l-3.513 1.142-.919.283c-.209.06-.317.087-.32.077-.004-.009.098-.054.3-.134.233-.087.53-.198.899-.338.835-.297 1.999-.716 3.48-1.245 1.508-.55 3.373-1.162 5.542-1.864a316.96 316.96 0 0 1 7.384-2.338c10.952-3.431 26.257-7.607 42.803-13.308 8.283-2.817 16.007-5.962 22.909-9.075l5.011-2.349c1.613-.787 3.138-1.629 4.635-2.401 3.02-1.5 5.684-3.161 8.157-4.605l1.807-1.065c.576-.364 1.12-.745 1.659-1.1l3.031-2.023c.939-.644 1.849-1.192 2.623-1.786l2.125-1.612c1.256-.943 2.245-1.684 2.952-2.217l.78-.565c.176-.125.27-.186.277-.178Z" fill="#33535F"/><path d="M318.378 446.464c.015.038-.312.207-.916.48a41.12 41.12 0 0 1-2.604 1.052c-2.221.828-5.357 1.811-8.899 2.574-3.543.758-6.806 1.151-9.172 1.309a40.536 40.536 0 0 1-2.806.11c-.663 0-1.03-.02-1.032-.06-.003-.091 1.456-.199 3.801-.463a93.408 93.408 0 0 0 9.087-1.469 93.737 93.737 0 0 0 8.887-2.393c2.245-.723 3.62-1.223 3.654-1.14Zm-43.801-49.302c.1.129-19.323 15.39-43.376 34.085-24.061 18.702-43.64 33.752-43.74 33.625-.099-.127 19.321-15.385 43.381-34.088 24.053-18.693 43.636-33.748 43.735-33.622Z" fill="#33535F"/><path d="M269.333 472.636c-4.352-2.322-9.24-.95-13.404.453-2.772.935-5.654 2.415-8.469 1.623-2.036-.574-3.55-2.223-5.106-3.658-6.271-5.784-14.92-8.939-23.457-8.405-2.424.152-4.794 1.128-6.442 2.912-4.275 4.631-1.051 10.657 2.77 14.551 6.745 6.876 15.931 11.306 25.509 12.306 7.962.832 18.909-.269 26.984-3.726 4.979-2.131 7.531-8.002 4.919-12.747-.76-1.382-1.873-2.545-3.304-3.309Z" fill="#4971FF"/><path d="M246.089 492.683c-1.884 0-3.691-.09-5.366-.265-5.698-.596-11.258-2.404-16.246-5.22h.009c4.988 2.816 10.548 4.624 16.246 5.22a52.46 52.46 0 0 0 5.362.265h-.005Zm-22.606-6.069h-.01a41.664 41.664 0 0 1-8.024-6.264l.008-.002a41.586 41.586 0 0 0 8.026 6.266Z" fill="#8C8F8F"/><path d="M224.477 487.198a41.688 41.688 0 0 1-1.004-.585h.01c.331.2.666.394 1.003.585h-.009Zm-9.027-6.848-.064-.064.008-.002.064.064-.008.002Zm-.371-.378c-1.413-1.465-2.727-3.219-3.597-5.08.872 1.861 2.192 3.613 3.604 5.077l-.007.003Z" fill="#0C1418"/><path d="m215.386 480.287-.172-.175-.136-.139.008-.003.138.142.17.172-.008.003Z" fill="#1A2C33"/><path d="M246.095 492.683a52.475 52.475 0 0 1-5.362-.265c-5.698-.596-11.257-2.404-16.246-5.22a41.617 41.617 0 0 1-9.029-6.85l-.064-.064-.169-.172-.138-.143c-1.413-1.464-2.733-3.216-3.604-5.077a11.87 11.87 0 0 1-.833-2.378c.287-1.124.848-2.221 1.795-3.247 1.649-1.784 4.018-2.76 6.442-2.912a30.219 30.219 0 0 1 1.878-.058c7.913 0 15.768 3.103 21.58 8.463 1.554 1.434 3.069 3.084 5.106 3.657a6.117 6.117 0 0 0 1.685.226c2.271 0 4.562-1.098 6.784-1.848 2.541-.856 5.353-1.702 8.149-1.702 1.783 0 3.56.345 5.255 1.249 1.431.764 2.542 1.927 3.304 3.309.392.712.654 1.45.823 2.197-.645 2.928-2.749 5.563-5.742 6.844-6.376 2.729-14.541 3.989-21.614 3.991Z" fill="#1C348A"/><path d="M273.45 481.848c-.08.026-.059-1.064-1.067-2.58a8.435 8.435 0 0 0-2.329-2.277 9.28 9.28 0 0 0-4.002-1.532c-3.232-.379-6.977.981-11.136 2.106-2.057.545-4.303 1.377-6.763 1.069a8.972 8.972 0 0 1-3.477-1.204c-1.069-.641-2.043-1.433-2.988-2.25-3.586-3.501-7.839-5.692-11.905-7.075a31.143 31.143 0 0 0-5.923-1.374c-1.892-.249-3.674-.281-5.268-.032-1.593.248-2.977.771-4.076 1.423a10.407 10.407 0 0 0-2.496 2.115c-1.155 1.399-1.545 2.358-1.608 2.321 0 0 .308-.99 1.432-2.466a10.246 10.246 0 0 1 2.501-2.25c1.119-.699 2.543-1.268 4.179-1.55 1.639-.285 3.473-.275 5.394-.042a30.93 30.93 0 0 1 6.034 1.345 34.774 34.774 0 0 1 6.25 2.756c1.023.596 2.066 1.215 3.041 1.982.968.758 1.886 1.592 2.827 2.403.937.812 1.888 1.583 2.903 2.193a8.414 8.414 0 0 0 3.253 1.137c2.278.301 4.462-.478 6.548-1.021 4.142-1.083 7.95-2.44 11.33-1.997 3.353.535 5.513 2.549 6.47 4.096.491.792.708 1.491.805 1.967.082.48.087.735.071.737Z" fill="#17282F"/><path d="M273.45 481.848c-.08.026-.059-1.064-1.067-2.58a8.435 8.435 0 0 0-2.329-2.277 9.28 9.28 0 0 0-4.002-1.532c-3.232-.379-6.977.981-11.136 2.106-2.057.545-4.303 1.377-6.763 1.069a8.972 8.972 0 0 1-3.477-1.204c-1.069-.641-2.043-1.433-2.988-2.25-3.586-3.501-7.839-5.692-11.905-7.075a31.143 31.143 0 0 0-5.923-1.374c-1.892-.249-3.674-.281-5.268-.032-1.593.248-2.977.771-4.076 1.423a10.407 10.407 0 0 0-2.496 2.115c-1.155 1.399-1.545 2.358-1.608 2.321 0 0 .308-.99 1.432-2.466a10.246 10.246 0 0 1 2.501-2.25c1.119-.699 2.543-1.268 4.179-1.55 1.639-.285 3.473-.275 5.394-.042a30.93 30.93 0 0 1 6.034 1.345 34.774 34.774 0 0 1 6.25 2.756c1.023.596 2.066 1.215 3.041 1.982.968.758 1.886 1.592 2.827 2.403.937.812 1.888 1.583 2.903 2.193a8.414 8.414 0 0 0 3.253 1.137c2.278.301 4.462-.478 6.548-1.021 4.142-1.083 7.95-2.44 11.33-1.997 3.353.535 5.513 2.549 6.47 4.096.491.792.708 1.491.805 1.967.082.48.087.735.071.737Z" fill="#17282F"/><path d="M219.464 480.8c-.04-.067.799-.674 2.229-1.545a62.602 62.602 0 0 1 5.767-3.079 63.035 63.035 0 0 1 6.05-2.476c1.583-.545 2.586-.805 2.612-.732.027.08-.928.478-2.464 1.118-1.538.64-3.652 1.541-5.95 2.62a147.026 147.026 0 0 0-5.811 2.909c-1.475.775-2.389 1.257-2.433 1.185Zm1.496 4.354c-.071-.146 3.736-2.131 8.502-4.436 4.766-2.303 8.686-4.053 8.756-3.908.07.146-3.735 2.131-8.501 4.435-4.767 2.305-8.687 4.053-8.757 3.909Z" fill="#17282F"/><path d="M238.993 487.042c-.087.136-4.725-2.632-10.36-6.182-5.635-3.55-10.133-6.539-10.048-6.676.087-.137 4.724 2.631 10.361 6.182 5.634 3.55 10.132 6.539 10.047 6.676Zm2.611-4.517c-.052.064-.906-.534-2.271-1.518a354.054 354.054 0 0 0-5.354-3.805c-2.109-1.46-4.041-2.746-5.441-3.678-1.399-.934-2.261-1.522-2.218-1.595.039-.066.976.398 2.437 1.244a83.472 83.472 0 0 1 5.555 3.549 84.523 84.523 0 0 1 5.274 3.957c1.304 1.07 2.066 1.784 2.018 1.846Z" fill="#17282F"/><defs><linearGradient id="a" x1="429.438" y1="318.995" x2="484.447" y2="318.995" gradientUnits="userSpaceOnUse"><stop stop-color="#F03D5F"/><stop offset="1" stop-color="#F03D5F"/></linearGradient><linearGradient id="b" x1="447.285" y1="320.748" x2="468.055" y2="320.748" gradientUnits="userSpaceOnUse"><stop stop-color="#F03D5F"/><stop offset="1" stop-color="#F03D5F"/></linearGradient><linearGradient id="c" x1="523.027" y1="257.856" x2="587.37" y2="257.856" gradientUnits="userSpaceOnUse"><stop stop-color="#F03D5F"/><stop offset="1" stop-color="#F03D5F"/></linearGradient><linearGradient id="d" x1="766.559" y1="110.445" x2="594.805" y2="369.916" gradientUnits="userSpaceOnUse"><stop stop-color="#fff"/><stop offset="1" stop-color="#fff"/></linearGradient><linearGradient id="e" x1="543.908" y1="259.906" x2="568.203" y2="259.906" gradientUnits="userSpaceOnUse"><stop stop-color="#F03D5F"/><stop offset="1" stop-color="#F03D5F"/></linearGradient><linearGradient id="f" x1="378.742" y1="170.023" x2="489.689" y2="170.023" gradientUnits="userSpaceOnUse"><stop stop-color="#F03D5F"/><stop offset="1" stop-color="#F03D5F"/></linearGradient><linearGradient id="g" x1="414.738" y1="173.561" x2="456.629" y2="173.561" gradientUnits="userSpaceOnUse"><stop stop-color="#F03D5F"/><stop offset="1" stop-color="#F03D5F"/></linearGradient></defs></svg>