<svg width="408" height="417" fill="none" xmlns="http://www.w3.org/2000/svg"><g clip-path="url(#a)"><path d="M131.147 47.435a7.842 7.842 0 0 0 .194 11.073 7.806 7.806 0 0 0 11.052-.196 7.839 7.839 0 0 0-.194-11.071 7.806 7.806 0 0 0-11.052.194Zm-3.883-9.723a17.854 17.854 0 0 1 4.356-1.897l.897-4.32 7.285-.127 1.049 4.285a17.88 17.88 0 0 1 4.42 1.742l3.681-2.418 5.242 5.071-2.282 3.77a17.894 17.894 0 0 1 1.893 4.366l4.311.899.128 7.297-4.278 1.051a17.874 17.874 0 0 1-1.738 4.428l2.413 3.69-5.06 5.25-3.764-2.285a17.879 17.879 0 0 1-4.357 1.896l-.897 4.32-7.285.127-1.049-4.285a17.835 17.835 0 0 1-4.419-1.742l-3.682 2.418-5.242-5.07 2.283-3.77a17.914 17.914 0 0 1-1.894-4.366l-4.311-.9-.128-7.298 4.277-1.05a17.956 17.956 0 0 1 1.739-4.428l-2.413-3.689 5.061-5.251 3.764 2.286Z" fill="#DADBD8" fill-opacity=".3"/><path d="M131.231 254.089a4.521 4.521 0 0 0 .112 6.385 4.502 4.502 0 0 0 6.374-.112 4.523 4.523 0 0 0-.113-6.386 4.5 4.5 0 0 0-6.373.113Zm-2.239-5.607c.794-.482 1.64-.846 2.511-1.095l.518-2.49 4.202-.075.604 2.472c.88.217 1.738.552 2.549 1.004l2.124-1.394 3.022 2.924-1.316 2.175c.48.796.844 1.643 1.092 2.518l2.486.518.074 4.209-2.467.605a10.353 10.353 0 0 1-1.002 2.554l1.392 2.128-2.919 3.028-2.171-1.318c-.795.48-1.64.845-2.512 1.093l-.518 2.491-4.201.074-.605-2.471a10.304 10.304 0 0 1-2.549-1.005l-2.123 1.395-3.023-2.924 1.317-2.175a10.316 10.316 0 0 1-1.093-2.517l-2.486-.519-.074-4.208 2.467-.607a10.31 10.31 0 0 1 1.003-2.553l-1.392-2.128 2.919-3.029 2.171 1.32ZM39.003 64.748a3.087 3.087 0 0 0 .076 4.36 3.073 3.073 0 0 0 4.35-.077 3.087 3.087 0 0 0-.076-4.359 3.072 3.072 0 0 0-4.35.076Zm-1.529-3.826a6.986 6.986 0 0 1 1.715-.748l.353-1.7 2.868-.05.413 1.686a7.017 7.017 0 0 1 1.74.687l1.449-.953 2.063 1.996-.898 1.485a7.04 7.04 0 0 1 .745 1.719l1.697.353.05 2.873-1.683.413a7.03 7.03 0 0 1-.685 1.743l.95 1.453-1.992 2.067-1.481-.9a7.019 7.019 0 0 1-1.715.746l-.354 1.701-2.867.05-.413-1.687a6.967 6.967 0 0 1-1.74-.685l-1.45.951-2.063-1.996.899-1.483a7.035 7.035 0 0 1-.745-1.72l-1.698-.353-.05-2.873 1.684-.414a7.062 7.062 0 0 1 .684-1.743L34 62.09l1.992-2.068 1.482.9Z" fill="#DADBD8"/><path d="M180.577 31.101a6.102 6.102 0 0 0 .152 8.615 6.073 6.073 0 0 0 8.599-.15 6.101 6.101 0 0 0-.152-8.616 6.073 6.073 0 0 0-8.599.151Zm-3.021-7.565a13.834 13.834 0 0 1 3.389-1.476l.698-3.361 5.669-.1.815 3.334a13.9 13.9 0 0 1 3.44 1.356l2.865-1.881 4.078 3.945-1.775 2.934a13.938 13.938 0 0 1 1.472 3.396l3.355.7.099 5.679-3.327.817a13.932 13.932 0 0 1-1.354 3.446l1.877 2.87-3.936 4.085-2.929-1.779a13.84 13.84 0 0 1-3.39 1.477l-.698 3.36-5.668.1-.816-3.335a13.859 13.859 0 0 1-3.439-1.355l-2.864 1.881-4.079-3.945 1.776-2.933a13.914 13.914 0 0 1-1.474-3.398l-3.354-.698-.099-5.679 3.327-.818a13.94 13.94 0 0 1 1.354-3.445l-1.878-2.87 3.938-4.087 2.928 1.78Z" fill="#E7E8E5" fill-opacity=".6"/><path d="M331.26 173.402a7.834 7.834 0 0 0 .194 11.062 7.798 7.798 0 0 0 11.041-.195 7.834 7.834 0 0 0-.194-11.062 7.8 7.8 0 0 0-11.041.195Zm-3.879-9.712a17.869 17.869 0 0 1 4.351-1.896l.897-4.315 7.278-.128 1.047 4.28c1.525.377 3.011.957 4.416 1.742l3.677-2.416 5.237 5.065-2.28 3.767a17.843 17.843 0 0 1 1.891 4.361l4.307.898.129 7.292-4.273 1.049a17.97 17.97 0 0 1-1.737 4.424l2.41 3.684-5.056 5.247-3.76-2.284a17.776 17.776 0 0 1-4.352 1.894l-.897 4.316-7.277.128-1.048-4.282a17.8 17.8 0 0 1-4.415-1.74l-3.678 2.415-5.237-5.065 2.281-3.767a17.823 17.823 0 0 1-1.892-4.36l-4.308-.899-.127-7.29 4.274-1.05a17.838 17.838 0 0 1 1.737-4.424l-2.411-3.685 5.055-5.246 3.761 2.285Zm31.717-133.257c-4.791 0-8.674-3.89-8.674-8.69 0-4.8 3.883-8.692 8.674-8.692 4.791 0 8.674 3.892 8.674 8.691 0 4.8-3.883 8.69-8.674 8.69Zm19.711-8.598c0-12.16-10.968-21.75-23.532-19.389-7.902 1.487-14.2 7.953-15.584 15.888-.866 4.96.156 9.626 2.415 13.477h-.011l.056.074c.756 1.276 1.703 2.19 2.66 3.53l11.444 15.188a3.556 3.556 0 0 0 5.682 0l11.253-14.938s2.101-2.51 2.863-3.8l.041-.054h-.008a19.655 19.655 0 0 0 2.721-9.976Z" fill="#DADBD8"/><path d="M31.829 305.996c3.89-2.607 6.052-7.572 5.075-12.734-1.286-6.762-7.458-11.267-13.788-10.063-6.327 1.203-10.417 7.662-9.131 14.424.99 5.209 4.885 9.046 9.515 9.998-17.103 6.096-12.575 25.125-12.575 25.125l41.702-7.935s-2.819-19.579-20.798-18.815Zm50.512 81.117-8.584-2.12s-1.776 7.221-9.298 5.502c-3.906-.893-5.296-3.944-5.634-6.103-.393-2.505.531-5.022 2.324-6.814 2.048-2.045 5.776-3.444 11.31-.995l4.769-19.392-8.488-2.095-2.794 11.359s-12.663.145-15.895 13.289c-3.093 12.576 7.446 18.276 12.264 19.466 3.685.91 16.457 3.115 20.026-12.097Zm-10.739-44.097 8.614 2.126-1.982 8.061-8.615-2.127 1.983-8.06Z" fill="#E7E8E5"/><path d="M23.146 211.142h19.59l-1.733 8.812H5.689l1.4-7.009 21.254-16.688c5.264-4.206 6.863-6.675 6.863-9.747 0-3.07-2.332-5.139-6.863-5.139-3.73 0-7.329 1.735-9.927 4.873l-7.263-5.274c3.731-5.14 10.727-8.545 18.79-8.545 9.86 0 16.324 5.274 16.324 12.55 0 5.541-2.533 10.213-10.728 16.556l-12.393 9.611Zm66.297-1.001h-7.662l-1.932 9.813H69.321l2-9.813H46.2l1.4-7.276 27.45-29.638h11.794L61.26 201.33h12.259l1.733-8.745h10.06l-1.732 8.745h7.662l-1.799 8.811Zm30.783-46.393h9.728L95.706 226.63h-9.661l34.181-62.882Zm44.441 9.479-1.4 7.009-24.918 39.718h-11.994l23.921-37.916H135.15l-1.532 7.61h-9.595l3.265-16.421h37.379Z" fill="#fff"/><path d="M27.965 159.394H14.293c0-19.071 7.702-38.57 21.13-53.496C49.56 90.186 67.9 81.533 87.067 81.533c39.107 0 66.421 28.601 66.421 69.553h-13.672c0-33.409-21.199-55.854-52.75-55.854-30.93 0-59.1 30.582-59.1 64.162Z" fill="#D7DFFF"/><path d="M35.462 155.583c2.185.036 3.954.22 3.953.412-.001.191-1.774.348-3.959.352-2.184.002-3.954-.182-3.952-.412.001-.23 1.774-.388 3.957-.352Zm9.438-30.027c1.83 1.199 3.144 2.436 2.937 2.763-.206.327-1.884-.336-3.748-1.479-1.861-1.143-3.177-2.381-2.935-2.763.24-.38 1.919.282 3.746 1.479Zm23.654-20.695c.885 2.002 1.324 3.754.981 3.914-.344.16-1.398-1.306-2.355-3.274-.957-1.967-1.396-3.719-.98-3.914.415-.192 1.47 1.273 2.354 3.274Zm31.152-2.46c-.544 2.12-1.284 3.768-1.65 3.681-.368-.088-.289-1.893.176-4.032.463-2.138 1.203-3.786 1.65-3.68.447.106.369 1.911-.176 4.031Zm25.454 17.912c-1.821 1.212-3.468 1.945-3.681 1.637-.214-.307 1.05-1.597 2.82-2.88 1.769-1.283 3.418-2.016 3.681-1.636.262.379-1.001 1.668-2.82 2.879Zm8.382 29.541c-2.185-.002-3.957-.162-3.958-.357-.002-.194 1.768-.375 3.954-.404 2.183-.028 3.955.132 3.957.357.001.226-1.769.406-3.953.404Z" fill="#17282F"/><path d="M83.335 153.917a3.033 3.033 0 0 1-1.863-.64l-22.977-17.879a3.049 3.049 0 0 1-.536-4.272 3.036 3.036 0 0 1 4.264-.537l20.936 16.292 28.957-26.635a3.032 3.032 0 0 1 4.293.157 3.049 3.049 0 0 1-.156 4.303l-30.849 28.396c-.58.54-1.324.815-2.07.815Zm15.581-81.473H72.57a.744.744 0 0 1-.744-.745v-9.556c0-.412.333-.746.744-.746h26.347c.41 0 .743.334.743.745V71.7a.745.745 0 0 1-.743.745Z" fill="#D7DFFF"/><path d="M92.938 79.988H78.55V66.921h14.387v13.067Zm-57.306 22.721-10.807 13.409a1.212 1.212 0 0 1-1.705.182l-7.386-5.975a1.216 1.216 0 0 1-.181-1.708l10.807-13.41a1.21 1.21 0 0 1 1.705-.181L35.45 101c.52.421.602 1.186.181 1.708Z" fill="#D7DFFF"/><path d="M98.92 72.444c0 .155-5.9.28-13.176.28-7.279 0-13.178-.125-13.178-.28 0-.155 5.899-.28 13.178-.28 7.276 0 13.175.125 13.175.28ZM26.115 113.81c-.147.167-2.137-1.354-4.595-3.206-2.456-1.858-4.464-3.355-4.343-3.543.114-.181 2.336 1.031 4.819 2.91 2.486 1.873 4.261 3.679 4.12 3.839Zm2.285-3.375c-.147.167-2.137-1.353-4.595-3.206-2.456-1.858-4.463-3.355-4.343-3.543.114-.181 2.336 1.031 4.819 2.91 2.486 1.874 4.261 3.679 4.12 3.839Zm2.813-2.829c-.147.169-2.137-1.353-4.596-3.205-2.456-1.859-4.463-3.355-4.342-3.543.114-.181 2.335 1.032 4.818 2.91 2.486 1.873 4.262 3.679 4.12 3.838Zm2.721-3.374c-.148.169-2.138-1.353-4.596-3.205-2.456-1.859-4.463-3.355-4.343-3.543.114-.181 2.336 1.032 4.819 2.91 2.486 1.873 4.262 3.679 4.12 3.838Z" fill="#17282F"/><path d="m143.1 107.529-11.632-12.697a1.216 1.216 0 0 1 .073-1.716l6.994-6.431a1.21 1.21 0 0 1 1.713.073l11.632 12.698c.454.493.42 1.261-.073 1.716l-6.994 6.431a1.21 1.21 0 0 1-1.713-.074Z" fill="#D7DFFF"/><path d="M133.557 96.453c-.145-.172 1.653-1.918 3.846-4.08 2.198-2.156 3.973-3.922 4.141-3.776.162.14-1.364 2.162-3.588 4.343-2.217 2.185-4.263 3.676-4.399 3.513Zm2.99 2.765c-.143-.171 1.653-1.917 3.846-4.078 2.199-2.157 3.974-3.924 4.142-3.776.162.14-1.365 2.16-3.587 4.342-2.218 2.184-4.264 3.677-4.401 3.512Zm2.375 3.207c-.144-.17 1.653-1.916 3.846-4.078 2.199-2.156 3.973-3.923 4.141-3.775.162.139-1.364 2.16-3.587 4.341-2.218 2.185-4.264 3.677-4.4 3.512Zm2.926 3.196c-.145-.171 1.653-1.917 3.846-4.077 2.199-2.158 3.974-3.925 4.141-3.777.162.14-1.364 2.16-3.588 4.342-2.217 2.185-4.262 3.677-4.399 3.512ZM75.526 72.432c-.218 0-.395-2.44-.395-5.447 0-3.009.177-5.448.395-5.448.219 0 .396 2.44.396 5.448 0 3.007-.177 5.447-.396 5.447Zm5.157 0c-.219 0-.396-2.44-.396-5.447 0-3.009.177-5.448.396-5.448.218 0 .395 2.44.395 5.448 0 3.007-.177 5.447-.395 5.447Zm5.157 0c-.22 0-.397-2.44-.397-5.447 0-3.009.178-5.448.396-5.448.218 0 .396 2.44.396 5.448 0 3.007-.178 5.447-.396 5.447Zm5.157 0c-.218 0-.395-2.44-.395-5.447 0-3.009.177-5.448.395-5.448.219 0 .396 2.44.396 5.448 0 3.007-.177 5.447-.396 5.447Zm5.155 0c-.219 0-.396-2.44-.396-5.447 0-3.009.177-5.448.396-5.448.219 0 .395 2.44.395 5.448 0 3.007-.176 5.447-.395 5.447Z" fill="#17282F"/><path d="M90.927 149.821c0 3.811-3.084 6.901-6.887 6.901-3.804 0-6.888-3.09-6.888-6.901 0-3.81 3.084-6.9 6.888-6.9 3.803 0 6.887 3.09 6.887 6.9Z" fill="#D7DFFF"/><path d="m326.497 142.108 11.772-1.865a39.277 39.277 0 0 0 19.813 8.433c21.671 2.744 41.462-12.656 44.205-34.396 2.744-21.743-12.599-41.592-34.269-44.337-21.671-2.745-41.462 12.654-44.205 34.397a39.59 39.59 0 0 0 5.176 25.132l-.016-.015-2.476 12.651Z" fill="#fff" fill-opacity=".3"/><path d="M375.195 110.456a4.026 4.026 0 0 1 4.023-4.03 4.026 4.026 0 0 1 4.023 4.03 4.026 4.026 0 0 1-4.023 4.03 4.026 4.026 0 0 1-4.023-4.03Zm-16.097 0a4.026 4.026 0 0 1 4.022-4.03 4.026 4.026 0 0 1 4.023 4.03 4.026 4.026 0 0 1-4.023 4.03 4.026 4.026 0 0 1-4.022-4.03Zm-16.058 2.016a4.035 4.035 0 0 1 1.472-5.506 4.02 4.02 0 0 1 5.495 1.475 4.034 4.034 0 0 1-1.473 5.506 4.019 4.019 0 0 1-5.494-1.475Z" fill="#fff"/><path d="M61.883 254.801c-2.476-1.177-6.63-3.627-9.196-4.589-2.567-.962-5.445-1.417-8.043-.546-1.52.51-3.028 1.718-3.038 3.323l10.09 7.412 10.187-2.686v-2.914Z" fill="#F57F62"/><path d="M50.845 254.696s-18.128-3.935-21.111-5.494c-2.983-1.559-18.813-9.496-21.439-9.496-2.625 0-4.892.718-5.37 3.347l3.449 2.686.438 1.371 5.894 3.075 1.078 1.983 14.995 8.027s15.75 8.01 18.375 8.488c2.626.478 15.751 1.555 21.36 6.337l22.522-9.262s-6.508-9.261-11.513-11.537c-4.466-2.031-11.964-2.035-17.214.117l-11.464.358Z" fill="#F9A78D"/><path d="M65.918 269.876s28.67 62.637 33.283 75.182c0 0 32.049-5.276 33.147-23.102L91.037 265.55l-25.119 4.326Z" fill="#F9A78D"/><path d="M39.288 256.114c-.002.017-.107.014-.307-.007-.203-.013-.492-.078-.863-.174-.735-.206-1.764-.612-2.984-1.208-1.223-.59-2.636-1.37-4.195-2.244-.78-.434-1.597-.897-2.453-1.343-.847-.448-1.779-.819-2.724-1.235-1.89-.816-3.712-1.531-5.425-1.976-1.7-.422-3.334-.745-4.563-.331-1.237.425-1.791 1.484-2.105 2.129-.32.677-.432 1.085-.48 1.07-.015-.004 0-.109.046-.303.04-.198.122-.483.259-.842a5.09 5.09 0 0 1 .667-1.237 3.28 3.28 0 0 1 1.497-1.144c.669-.261 1.456-.29 2.261-.223.808.071 1.651.226 2.53.444 1.755.43 3.609 1.144 5.505 1.963.942.414 1.883.792 2.753 1.26.866.458 1.679.929 2.454 1.375 1.547.896 2.937 1.703 4.13 2.329 1.19.63 2.181 1.077 2.885 1.334.704.259 1.118.314 1.112.363Z" fill="#F57F62"/><path d="M21.999 247.109c-.02.056-1.011-.221-2.538-.88-1.508-.683-3.576-1.644-5.957-2.383-1.173-.357-2.37-.381-3.427-.294-1.056.087-1.941.508-2.419 1.129-.48.618-.618 1.282-.71 1.722-.062.451-.1.707-.136.707-.032 0-.059-.256-.054-.728.04-.462.121-1.18.626-1.912.26-.351.626-.687 1.087-.923.462-.232.995-.372 1.554-.443 1.108-.118 2.363-.104 3.613.271 2.441.758 4.506 1.782 5.969 2.54 1.473.733 2.42 1.124 2.392 1.194Zm45.193 5.821c.01.032-.252.145-.736.323-.482.182-1.195.403-2.087.638-1.781.474-4.304.937-7.122 1.063-2.82.12-5.373-.122-7.19-.439a22.205 22.205 0 0 1-2.134-.454c-.498-.134-.768-.224-.76-.257.017-.077 1.13.144 2.945.369 1.813.227 4.335.41 7.118.291a43.547 43.547 0 0 0 7.064-.91c1.787-.381 2.878-.699 2.902-.624Z" fill="#F57F62"/><path d="m334.262 215.59-41.753-8.65-10.264-7.757-55.093 10.645c-.879 1.613-9.808 14.07-9.808 14.07l-21.692 7.383c-9.279 2.498-17.553 7.731-23.541 15.061-4.577 5.601-9.679 13.335-14.046 23.6-9.761 22.948-23.848 49.463-23.848 49.463l-8.832-14.248-37.213 17.554s21.8 44.037 29.018 50.324c8.023 6.989 26.466 7.794 39.22-5.239 7.689-7.857 29.904-38.926 34.531-46.702l6.831 32.525 6.319 37.116-10.211 25.538h149.024l-6.166-24.138s6.075-62.936 7.75-74.643c3.953-27.632-10.226-101.902-10.226-101.902Z" fill="#D7DFFF"/><path d="M334.173 215.737s29.843 8.388 36.411 38.101c3.981 18.009 17.495 69.33 22.248 111.588 2.824 25.12 2.736 48.338 2.824 50.994h-45.797l-19.412-192.297 3.726-8.386Z" fill="#D7DFFF"/><path d="M257.634 241.255c.011.005-.032.112-.126.309l-.424.865c-.371.758-.907 1.868-1.547 3.294-1.318 2.831-2.88 7.01-5.39 11.68l-.129.238-.207-.177c-3.094-2.642-6.459-5.82-9.93-9.255-6.141-6.109-11.529-11.799-15.514-15.833l-4.73-4.765-1.293-1.288c-.293-.299-.441-.462-.429-.474.011-.012.182.126.495.402l1.358 1.223a209.143 209.143 0 0 1 4.844 4.657c4.051 3.975 9.48 9.629 15.612 15.73 3.467 3.43 6.812 6.613 9.873 9.267l-.336.061c2.525-4.61 4.148-8.771 5.537-11.577a62.19 62.19 0 0 1 1.662-3.248l.486-.834c.113-.187.177-.281.188-.275Zm35.416-33.112c.017.003-.014.229-.088.658l-.349 1.873c-.34 1.619-.904 3.946-1.708 6.792-1.618 5.69-4.245 13.43-7.471 21.85a410.673 410.673 0 0 1-4.978 12.403l-.121.285-.233-.205c-4.253-3.759-8.062-6.719-10.646-8.925a108.8 108.8 0 0 1-2.991-2.596l-.767-.718c-.172-.166-.257-.256-.248-.266.008-.009.109.063.295.211l.813.664 3.069 2.498c2.63 2.144 6.473 5.05 10.771 8.798l-.353.079a512.224 512.224 0 0 0 4.933-12.403c3.223-8.412 5.896-16.12 7.596-21.772a147.695 147.695 0 0 0 1.853-6.737l.438-1.85c.106-.422.169-.643.185-.639Zm-96.54 141.46c-.009.003-.036-.069-.083-.213l-.196-.639-.707-2.474c-.318-1.072-.632-2.402-1.007-3.944-.393-1.539-.777-3.305-1.183-5.262-1.666-7.816-3.335-18.749-4.373-30.899-1.057-12.153-1.29-23.202-1.24-31.19.033-3.995.11-7.228.22-9.459l.126-2.569.045-.667c.013-.15.024-.227.033-.227.008 0 .014.078.017.229l.003.669-.034 2.571c-.051 2.232-.076 5.462-.063 9.453.036 7.98.324 19.013 1.38 31.148 1.036 12.132 2.648 23.052 4.225 30.873.383 1.957.743 3.725 1.11 5.267.349 1.546.636 2.881.925 3.959l.619 2.495.148.653c.031.147.043.225.035.226Zm140.138-100.9c.007-.003.05.083.128.256l.332.773 1.231 2.992c.261.652.569 1.371.87 2.172l.891 2.635 1.021 3.032.944 3.46c2.794 9.679 4.215 23.672 3.409 38.992-.825 15.326-2.607 29.1-3.715 39.079l-1.366 11.815-.389 3.209-.114.834c-.028.188-.047.283-.055.282-.008 0-.006-.097.005-.286l.066-.84.297-3.22c.265-2.796.678-6.838 1.213-11.832 1.019-9.989 2.747-23.769 3.57-39.064.802-15.288-.557-29.211-3.255-38.881l-.907-3.458-.983-3.035-.852-2.643c-.286-.804-.581-1.526-.828-2.182-.488-1.289-.87-2.3-1.145-3.022l-.286-.792c-.062-.18-.09-.273-.082-.276ZM134.34 351.579c-.135.001-.292-7.168-.351-16.011-.059-8.846.003-16.016.138-16.017.135 0 .292 7.167.351 16.014.058 8.842-.003 16.013-.138 16.014Zm135.418 43.389c-.008-.002.001-.136.027-.394l.13-1.148.543-4.407.405-3.183c.124-1.168.259-2.435.402-3.795.274-2.724.651-5.82.897-9.258l.443-5.392c.15-1.875.234-3.83.362-5.852.28-4.043.396-8.372.56-12.925.208-9.109.175-19.131-.296-29.636-.516-10.507-1.421-20.49-2.482-29.541-.59-4.518-1.111-8.817-1.769-12.816-.317-2.001-.584-3.941-.909-5.793l-.945-5.326c-.568-3.4-1.233-6.447-1.761-9.133l-.756-3.74-.701-3.131-.954-4.335-.236-1.131c-.051-.255-.072-.387-.064-.389.008-.002.046.126.113.378l.283 1.118 1.044 4.317.743 3.122.796 3.735c.553 2.683 1.242 5.727 1.833 9.126l.976 5.325c.336 1.853.612 3.793.938 5.794.677 4.001 1.213 8.303 1.816 12.825 1.087 9.058 2.006 19.052 2.523 29.571.471 10.519.491 20.553.258 29.673-.176 4.557-.307 8.89-.606 12.936-.137 2.023-.231 3.981-.39 5.857l-.474 5.393c-.269 3.44-.67 6.535-.97 9.259l-.442 3.793-.448 3.178-.634 4.397-.178 1.141c-.043.257-.068.388-.077.387Zm19.836-101.492a1.096 1.096 0 0 1 .189-.031l.585-.071 2.306-.257 8.787-.938 31.301-3.246.231-.023.007.234.808 31.612.003.099-.069.073-3.776 4.065-13.668 14.697-.121.129-.157-.079c-8.392-4.172-16.173-8.041-23.06-11.467l-.1-.05-.011-.11-2.413-25.235-.645-6.973c-.067-.78-.12-1.385-.159-1.819-.032-.408-.038-.61-.038-.61s.038.227.087.648l.208 1.852.75 7.009 2.609 25.087-.11-.16 23.091 11.403-.278.052 13.658-14.708 3.777-4.064-.065.173-.755-31.613.239.211-31.184 3.014-8.847.828-2.353.211-.611.049a1.52 1.52 0 0 1-.216.008Z" fill="#040606"/><path d="M333.055 300.099c.004.034-.575.142-1.625.311-1.05.171-2.575.384-4.461.626-3.773.488-8.999 1.041-14.773 1.591l-14.782 1.449-4.476.472c-1.058.109-1.645.155-1.649.121-.005-.033.573-.142 1.625-.31 1.05-.171 2.574-.384 4.46-.627 3.773-.487 8.999-1.04 14.776-1.592l14.78-1.448 4.476-.471c1.058-.11 1.644-.155 1.649-.122Z" fill="#040606"/><path d="m343.694 356.289-.411-5.011.476 4.708-.065.303Z" fill="#A7A9A8"/><path d="m343.759 355.987-.476-4.708c-.359-4.375-.717-8.75-1.077-13.124 1.094-9.527 2.548-21.74 3.269-35.14.292-5.556.292-10.939.039-16.003-.166-6.203-.969-11.873-1.918-16.558a76.09 76.09 0 0 0-1.39-5.939 95.42 95.42 0 0 0-.444-1.605l-.64-2.347c-.347-1.03-.676-2.005-.983-2.921 9.251 15.102 10.818 31.147 11.655 47.71.844 16.695-4.554 34.266-8.035 50.635Zm-.39-32.41c.595-6.9 1.28-15.603 1.763-24.033a163.335 163.335 0 0 1-.145 3.448c-.393 7.288-.99 14.231-1.618 20.585Z" fill="#2646B9"/><path d="m342.206 338.155-.088-1.077s.566-5.556 1.251-13.501c.628-6.354 1.226-13.297 1.618-20.585.061-1.157.109-2.307.145-3.447.127-2.208.24-4.395.333-6.528.09-2.045.101-4.052.049-6.005a156.71 156.71 0 0 1-.039 16.003c-.721 13.4-2.175 25.613-3.269 35.14Zm1.39-67.701a100.593 100.593 0 0 0-1.39-5.939 75.638 75.638 0 0 1 1.39 5.939Zm-1.834-7.544c-1.015-3.551-1.836-5.613-1.836-5.613l.213.345.983 2.921.64 2.347Z" fill="#040606"/><path d="M128.125 301.322c-.627-1.084-1.352-2.251-2.535-2.659-1.318-.455-2.738.182-3.985.804-11.352 5.661-22.703 11.324-34.054 16.987-2.235 1.114-4.665 2.44-5.512 4.793-1.084 3.01.893 6.183 2.772 8.769 3.139 4.321 6.89 9.016 12.189 9.627l29.28-20.12c3.581-.528 5.806-4.519 5.668-8.142-.139-3.623-2.005-6.923-3.823-10.059Z" fill="#D7DFFF"/><path d="M131.822 313.616c.011.012-.092.125-.299.329l-.921.874c-.805.754-1.997 1.814-3.494 3.097-2.992 2.567-7.246 5.978-12.157 9.455-4.917 3.474-9.548 6.35-12.964 8.316a111.598 111.598 0 0 1-4.081 2.262l-1.13.577c-.261.127-.403.187-.41.172-.009-.015.116-.103.362-.259l1.085-.657 3.998-2.392a222.617 222.617 0 0 0 12.857-8.419 222.346 222.346 0 0 0 12.219-9.32c1.469-1.219 2.681-2.223 3.589-2.975l.981-.804c.228-.181.354-.269.365-.256Z" fill="#040606"/><path d="M278.934 261.072c-.773 0-1.438-.691-1.942-1.325a113.507 113.507 0 0 1-12.371-19.327c.675.609 1.632 1.441 2.835 2.454 2.584 2.206 6.393 5.166 10.646 8.925l.233.205.121-.285a410.673 410.673 0 0 0 4.978-12.403c3.226-8.42 5.853-16.16 7.471-21.85.804-2.846 1.368-5.173 1.708-6.792.012-.069.025-.135.038-.201 2.228 9.448-1.092 20.052-4.52 29.135l-7.391 19.58c-.299.794-.727 1.7-1.559 1.861a1.306 1.306 0 0 1-.247.023Zm1.629-15.741c3.927-10.713 8.159-22.394 11.456-33.099a158.95 158.95 0 0 1-1.445 5.137c-1.7 5.652-4.373 13.36-7.596 21.772a583.628 583.628 0 0 1-2.415 6.19Z" fill="#2646B9"/><path d="m278.333 252.004-.233-.205c-4.253-3.759-8.062-6.719-10.646-8.925a114.807 114.807 0 0 1-2.835-2.454l-.099-.199c4.04 3.435 9.688 7.975 13.728 11.411l2.312-6.301c.791-1.991 1.6-4.063 2.416-6.19 3.223-8.412 5.896-16.12 7.596-21.772a158.95 158.95 0 0 0 1.445-5.137c.2-.649.396-1.294.589-1.935l.043.176a5.97 5.97 0 0 0-.038.201c-.34 1.619-.904 3.946-1.708 6.792-1.618 5.69-4.245 13.43-7.471 21.85a410.673 410.673 0 0 1-4.978 12.403l-.121.285Z" fill="#040606"/><path d="M229.258 65.253c12.167-3.519 23.611.03 34.864 5.848 11.253 5.82 20.326 15.5 26.203 26.738 6.19 11.837 8.929 25.635 6.688 38.807-2.241 13.174-9.67 25.58-20.806 32.933-15.209 10.041-36.17 9.518-51.841.219-15.672-9.298-25.968-26.444-28.707-44.485-1.888-12.429-.353-25.537 5.439-36.69 5.792-11.153 16.028-20.156 28.16-23.37Z" fill="#17282F"/><path d="M269.311 103.515c-2.352-4.549-2.248-9.937-3.535-14.895-2.835-10.917-12.764-18.803-23.574-21.96-10.056-2.935-21.684-.727-32.827 4.331-7.639 3.467-14.595 8.791-19.152 15.844-6.048 9.36-7.153 21.738-2.859 32.024l55.734-14.694c5.803 3.795 11.74 7.652 18.452 9.374 1.97.506 4.064.817 6.022.274 1.96-.543 3.746-2.123 3.996-4.143.274-2.209-1.236-4.179-2.257-6.155Z" fill="#17282F"/><path d="M282.608 202.526 268.22 101.147c-.635-4.795-2.804-9.676-7.625-9.454l-50.662-4.89c-15.873.734-23.323 21.593-21.918 37.452 1.562 17.618 4.163 39.067 8.211 51.772 8.14 25.547 28.677 25.815 28.677 25.815-.008-.089 1.249 5.075 2.809 14.571l32.845 21.884 22.051-35.771Z" fill="#F9A78D"/><path d="M200.244 143.532c.207 1.784 1.886 3.077 3.748 2.894 1.858-.182 3.201-1.772 2.994-3.556-.209-1.782-1.887-3.078-3.745-2.895-1.863.183-3.205 1.775-2.997 3.557Zm-5.913-8.878c.483.374 2.735-1.896 6.343-2.439 3.595-.593 6.526.861 6.85.358.162-.225-.382-.949-1.662-1.615-1.262-.663-3.321-1.181-5.566-.828-2.245.356-4.008 1.474-4.965 2.487-.978 1.022-1.234 1.872-1 2.037Zm39.255 3.449c.206 1.784 1.885 3.078 3.747 2.894 1.858-.183 3.2-1.772 2.993-3.556-.207-1.781-1.887-3.078-3.745-2.895-1.863.182-3.204 1.776-2.995 3.557Zm-4.957-8.234c.484.373 2.739-1.896 6.345-2.439 3.595-.593 6.525.86 6.85.358.16-.225-.379-.95-1.663-1.614-1.263-.665-3.322-1.183-5.566-.83-2.244.357-4.008 1.474-4.966 2.488-.976 1.022-1.233 1.872-1 2.037Zm-7.75 28.834c-.014-.208-2.315-.252-6.018-.163-.936.045-1.836-.003-2.087-.61-.319-.635-.085-1.687.198-2.828l1.653-7.443c2.257-10.581 3.742-19.225 3.316-19.313-.426-.087-2.603 8.419-4.86 19-.534 2.606-1.046 5.09-1.532 7.467-.189 1.101-.607 2.383.074 3.694.354.652 1.106 1.049 1.72 1.118.619.09 1.138.021 1.597-.022 3.686-.362 5.957-.692 5.939-.9Z" fill="#17282F"/><path d="M224.904 201.843s17.754-1.554 33.573-14.707c0 0-8.192 20.54-31.931 22.607l-1.642-7.9Zm-1.173-34.664c1.035-1.916 3.164-3.208 5.457-3.31 1.591-.07 3.288.444 4.433 1.576 1.146 1.13 1.62 2.914.942 4.263-.765 1.52-2.75 2.147-4.546 1.921-1.796-.228-3.45-1.136-5.029-2.051-.436-.254-.884-.52-1.193-.912-.309-.391-.446-.944-.2-1.344" fill="#F57F62"/><path d="M231.874 159.579c-.592.056-.001 3.978-2.929 7.276-2.917 3.303-7.158 3.502-7.105 4.054-.017.255 1.046.62 2.814.398 1.737-.205 4.175-1.147 5.965-3.163 1.785-2.019 2.317-4.432 2.205-6.061-.101-1.662-.686-2.567-.95-2.504Zm-4.257-40.506c.504.928 4.036-.088 8.343-.224 4.308-.223 7.909.495 8.336-.471.186-.461-.549-1.294-2.074-2.034-1.513-.74-3.832-1.309-6.416-1.204-2.582.11-4.846.87-6.291 1.734-1.457.865-2.122 1.756-1.898 2.199Zm-34.647-.38c.759.722 3.113-.508 6.096-1.006 2.963-.601 5.601-.293 6.052-1.24.192-.455-.331-1.216-1.555-1.825-1.208-.607-3.126-.961-5.17-.585-2.042.379-3.708 1.396-4.618 2.395-.927 1.004-1.145 1.903-.805 2.261Z" fill="#17282F"/><path d="M277.515 94.832c-6.833-14.512-31.552-32.54-47.24-29.314l-23.267 18.576c2.68 8.43 10.335 15.058 19.048 16.494 4.653.766 10.089.421 13.26 3.918 3.239 3.571 2.415 9.512 5.482 13.232 4.251 5.154 13.79 3.609 17.227 9.34 1.503 2.504 1.325 5.759 2.872 8.236 2.06 3.3 11.529 6.568 15.044 4.911 3.517-1.657 2.694-7.92 3.457-11.362 1.304-5.881.072-8.675-1.021-11.717-2.586-7.204-1.601-15.391-4.862-22.314Z" fill="#17282F"/><path d="M269.524 144.773c-.292-1.951 1.256-6.891 3.133-7.486 5.01-1.587 14.324-2.588 16.4 10.457 2.838 17.833-15.618 17.009-15.732 16.503-.087-.396-2.79-12.739-3.801-19.474Z" fill="#F9A78D"/><path d="M277.686 156.622c.07-.07.346.167.907.325.549.152 1.454.174 2.325-.322 1.771-.992 2.879-4.236 2.454-7.464a10.406 10.406 0 0 0-1.576-4.311c-.751-1.217-1.738-1.994-2.712-2.011-.976-.068-1.556.607-1.695 1.144-.159.537.011.875-.079.92-.042.053-.429-.238-.402-.997.017-.365.158-.819.521-1.229.373-.417.972-.693 1.644-.728 1.388-.124 2.824.944 3.678 2.248.931 1.297 1.628 2.968 1.866 4.799.458 3.611-.843 7.267-3.298 8.423-1.199.527-2.305.316-2.911-.019-.621-.351-.778-.736-.722-.778Z" fill="#F57F62"/><path d="M211.593 78.084c-.822 7.486-10.836 18.1-15.054 24.333-8.047 11.893-9.469 15.7-6.641 39.926-5.324-7.874-9.602-15.696-10.333-25.178-.731-9.482 1.672-19.337 7.458-26.876 5.784-7.54 15.083-12.501 24.57-12.205Zm42.515-25.501c3.783-4.152 9.179-6.851 14.809-8.259 8.028-2.008 16.832-1.465 24.14 2.03 7.308 3.498 12.947 10.039 14.452 17.576 1.504 7.538-1.398 15.9-7.773 20.908 4.056 3.986 9.202 7.006 14.838 8.708-1.523 2.282-4.331 3.62-7.162 4.101-2.83.48-5.724.212-8.573-.058 1.834 2.829 4.8 4.997 8.199 5.993-4.576 1.178-9.472.808-13.977-.452-4.503-1.26-8.661-3.375-12.637-5.688-13.727-7.99-21.299-14.98-30.574-27.313-1.245-5.246.476-13.395 4.258-17.546Z" fill="#17282F"/><path d="M283.704 90.259c-10.074-14.744-22.9-22.64-34.513-25.09l34.513 25.09Z" fill="#17282F"/><path d="M249.191 65.169c-.007.035.579.212 1.645.5 1.059.3 2.588.763 4.427 1.464 3.681 1.38 8.583 3.848 13.373 7.482 4.79 3.636 8.571 7.604 11.089 10.637 1.241 1.533 2.247 2.775 2.895 3.67.669.88 1.054 1.358 1.084 1.337.03-.02-.297-.538-.915-1.458-.599-.935-1.563-2.216-2.773-3.788-2.456-3.109-6.225-7.154-11.06-10.824-4.834-3.668-9.82-6.11-13.563-7.41a39.374 39.374 0 0 0-4.507-1.311c-1.085-.227-1.687-.335-1.695-.3Zm46.534 37.665c-.005-.009-.083.017-.23.073-.177.07-.391.157-.651.262-.564.248-1.416.568-2.517.956-2.21.747-5.502 1.623-9.664 1.975-4.157.361-9.167.149-14.583-.919-5.424-1.048-11.221-2.949-17.136-5.346-5.91-2.418-11.482-4.9-16.447-7.337-4.959-2.453-9.276-4.964-12.699-7.369-3.434-2.388-5.992-4.622-7.677-6.244-.859-.797-1.477-1.463-1.91-1.904l-.496-.497c-.114-.11-.176-.163-.183-.157-.007.007.042.072.142.194l.458.533c.408.465 1.005 1.156 1.844 1.98 1.647 1.674 4.181 3.963 7.607 6.405 3.412 2.456 7.731 5.013 12.696 7.498 4.973 2.473 10.538 4.966 16.467 7.393 5.933 2.404 11.771 4.303 17.241 5.334 5.465 1.05 10.522 1.224 14.709.811 4.194-.402 7.498-1.343 9.699-2.155 1.098-.419 1.94-.772 2.492-1.052l.63-.312c.141-.073.212-.114.208-.122Zm-53.177 88.54-1.712-3.348c.119-.06 11.901-6.125 16.434-9.94 10.679-8.988 20.502-23.347 20.6-23.492l3.102 2.118c-.412.605-10.206 14.926-21.287 24.254-4.857 4.088-16.639 10.151-17.137 10.408Z" fill="#33535F"/><path d="M251.321 180.986s-16.12 7.196-16.12 8.795c0 1.598 2.554 4.797 4.469 4.637 1.915-.16 7.45-3.279 8.409-4.559.957-1.279 2.757-4.566 4.672-6.164l-1.43-2.709Z" fill="#17282F"/><path d="m280.851 132.599-3.75-.177c.007-.158.658-15.956-5.503-31.856-8.145-21.017-23.8-32.304-46.531-33.549-1.867-.11-3.94.048-6.18.423l1.642-1.552a9.15 9.15 0 0 1 7.113-2.459c28.703 2.49 41.666 20.766 47.497 35.885 6.415 16.633 5.743 32.612 5.712 33.285Z" fill="#33535F"/><path d="M290.872 149.637c0 9.459-5.326 17.127-11.894 17.127-6.569 0-11.894-7.668-11.894-17.127 0-9.46 5.325-17.128 11.894-17.128 6.568 0 11.894 7.668 11.894 17.128Z" fill="#33535F"/><path d="M290.873 149.637c-.009 0-.02-.081-.034-.237l-.049-.695c-.017-.611-.119-1.508-.28-2.654-.397-2.25-1.177-5.648-3.669-8.956-.603-.833-1.38-1.587-2.234-2.303-.896-.652-1.876-1.306-3.029-1.643-1.134-.346-2.38-.528-3.641-.348-1.255.179-2.499.646-3.636 1.362-2.262 1.465-4.051 3.832-5.199 6.545-1.188 2.71-1.738 5.789-1.773 8.927.034 3.139.584 6.218 1.773 8.929 1.147 2.714 2.937 5.081 5.199 6.547 1.138.715 2.381 1.183 3.637 1.362 1.26.18 2.507-.002 3.641-.348 1.153-.338 2.133-.991 3.029-1.644.853-.716 1.631-1.47 2.234-2.303 2.492-3.308 3.271-6.705 3.668-8.955.161-1.147.263-2.043.28-2.654l.049-.695c.014-.157.025-.237.034-.237.008 0 .013.08.016.237v.698c.014.615-.058 1.519-.191 2.679-.343 2.277-1.072 5.726-3.581 9.137-.609.859-1.399 1.642-2.274 2.389-.921.684-1.934 1.369-3.137 1.733-1.185.372-2.496.571-3.822.39-1.323-.179-2.634-.665-3.824-1.407-2.368-1.521-4.215-3.961-5.398-6.738-1.223-2.776-1.787-5.919-1.822-9.12.035-3.2.6-6.342 1.823-9.118 1.183-2.776 3.029-5.215 5.397-6.736 1.19-.742 2.5-1.228 3.823-1.407 1.327-.181 2.637.018 3.822.389 1.203.364 2.216 1.05 3.137 1.734.875.746 1.665 1.529 2.274 2.387 2.51 3.411 3.239 6.861 3.582 9.139.133 1.16.205 2.064.191 2.678v.698c-.003.157-.008.238-.016.238Z" fill="#17282F"/><path d="M288.379 148.674c0 6.022-3.39 10.903-7.571 10.903-4.182 0-7.572-4.881-7.572-10.903 0-6.021 3.39-10.902 7.572-10.902 4.181 0 7.571 4.881 7.571 10.902Z" fill="#33535F"/><path d="M288.379 148.674c-.055.002-.037-.823-.265-2.278-.261-1.427-.768-3.58-2.35-5.668-.787-1.023-1.887-2.013-3.324-2.479-.714-.216-1.494-.329-2.285-.214a5.866 5.866 0 0 0-2.281.858c-1.42.923-2.549 2.416-3.272 4.131-.751 1.714-1.099 3.662-1.121 5.648.022 1.987.369 3.936 1.12 5.65.723 1.716 1.852 3.21 3.273 4.133.714.45 1.494.745 2.281.859.791.113 1.572 0 2.285-.215 1.437-.467 2.537-1.457 3.324-2.48 1.582-2.087 2.089-4.24 2.35-5.668.228-1.454.21-2.279.265-2.277.017 0 .026.204.028.596.015.392-.025.969-.105 1.71-.209 1.454-.663 3.659-2.264 5.849-.797 1.072-1.933 2.135-3.471 2.656-.764.241-1.609.371-2.466.255a6.264 6.264 0 0 1-2.468-.904c-1.527-.978-2.712-2.544-3.472-4.323-.785-1.78-1.147-3.791-1.169-5.841.023-2.048.385-4.059 1.169-5.838.76-1.778 1.945-3.345 3.472-4.322a6.28 6.28 0 0 1 2.467-.904c.858-.116 1.703.013 2.466.255 1.539.521 2.675 1.583 3.472 2.655 1.601 2.19 2.055 4.395 2.264 5.85.08.742.12 1.318.105 1.71-.002.391-.011.596-.028.596Z" fill="#17282F"/><path d="M286.777 148.674c0 4.332-2.438 7.843-5.446 7.843-3.008 0-5.446-3.511-5.446-7.843 0-4.331 2.438-7.843 5.446-7.843 3.008 0 5.446 3.512 5.446 7.843Z" fill="#33535F"/><path d="M286.778 148.674c-.049.001-.045-.592-.217-1.635-.196-1.023-.567-2.564-1.703-4.051-.564-.729-1.35-1.431-2.37-1.759-1.01-.341-2.226-.197-3.232.462-2.039 1.349-3.123 4.168-3.126 6.982.003 2.815 1.087 5.635 3.126 6.984 1.006.659 2.223.803 3.232.463 1.02-.329 1.806-1.031 2.37-1.76 1.136-1.487 1.507-3.029 1.703-4.051.172-1.043.168-1.636.217-1.635.017 0 .028.147.034.429.015.283-.009.699-.063 1.234-.143 1.05-.462 2.644-1.616 4.233-.575.779-1.397 1.553-2.518 1.935-.556.178-1.174.273-1.8.19a4.578 4.578 0 0 1-1.801-.657c-1.114-.711-1.974-1.848-2.525-3.136-.57-1.29-.832-2.746-.848-4.229.016-1.482.278-2.938.848-4.227.551-1.288 1.411-2.424 2.525-3.135a4.573 4.573 0 0 1 1.801-.657c.626-.083 1.244.012 1.799.189 1.122.383 1.943 1.157 2.518 1.934 1.154 1.59 1.474 3.184 1.617 4.234.054.535.078.952.063 1.234-.006.282-.017.429-.034.429Z" fill="#17282F"/></g><defs><clipPath id="a"><path fill="#fff" d="M0 0h408v416.664H0z"/></clipPath></defs></svg>