<svg width="72" height="72" viewBox="0 0 72 72" fill="none" xmlns="http://www.w3.org/2000/svg">
<path d="M69.1875 0H2.8125C1.25903 0 0 1.25903 0 2.8125V69.1875C0 70.741 1.25903 72 2.8125 72H69.1875C70.741 72 72 70.741 72 69.1875V2.8125C72 1.25903 70.741 0 69.1875 0ZM66.375 5.625V22.1248H5.625V5.625H66.375ZM5.625 66.375V27.7498H66.375V66.375H5.625ZM10.3596 13.8752C10.3596 11.9333 11.9333 10.3596 13.8752 10.3596C15.8165 10.3596 17.3908 11.9333 17.3908 13.8752C17.3908 15.8165 15.8165 17.3908 13.8752 17.3908C11.9333 17.3908 10.3596 15.8165 10.3596 13.8752ZM21.4217 13.8752C21.4217 11.9333 22.996 10.3596 24.9373 10.3596C26.8792 10.3596 28.4529 11.9333 28.4529 13.8752C28.4529 15.8165 26.8792 17.3908 24.9373 17.3908C22.996 17.3908 21.4217 15.8165 21.4217 13.8752ZM24.9373 33.1875H13.8752C12.3217 33.1875 11.0627 34.4465 11.0627 36V58.1248C11.0627 59.6783 12.3217 60.9373 13.8752 60.9373C15.4286 60.9373 16.6877 59.6783 16.6877 58.1248V49.8752H22.1254V58.1248C22.1254 59.6783 23.3844 60.9373 24.9379 60.9373C26.4908 60.9373 27.7504 59.6783 27.7504 58.1248V36C27.7498 34.4465 26.4908 33.1875 24.9373 33.1875ZM16.6877 44.2502V38.8125H22.1254V44.2502H16.6877ZM47.0627 33.1875H36C34.4465 33.1875 33.1875 34.4465 33.1875 36V58.1248C33.1875 59.6783 34.4465 60.9373 36 60.9373C37.5535 60.9373 38.8125 59.6783 38.8125 58.1248V49.8752H47.0627C48.6161 49.8752 49.8752 48.6161 49.8752 47.0627V36C49.8752 34.4465 48.6156 33.1875 47.0627 33.1875ZM44.2502 44.2502H38.8125V38.8125H44.2502V44.2502ZM60.9373 36V58.1248C60.9373 59.6783 59.6783 60.9373 58.1248 60.9373C56.5714 60.9373 55.3123 59.6783 55.3123 58.1248V36C55.3123 34.4465 56.5714 33.1875 58.1248 33.1875C59.6783 33.1875 60.9373 34.4465 60.9373 36Z" fill="white"/>
</svg>
