<svg width="72" height="72" viewBox="0 0 72 72" fill="none" xmlns="http://www.w3.org/2000/svg">
<g clip-path="url(#clip0_727_174301)">
<path d="M70.6333 5.74365C69.7852 5.23553 68.7327 5.21027 67.8609 5.67609L50.942 14.7261L37.559 5.81506C36.6147 5.18665 35.3853 5.18665 34.441 5.81506L21.0586 14.7261L4.1391 5.67609C3.26733 5.21027 2.21484 5.23553 1.3667 5.74365C0.519104 6.25177 0 7.16748 0 8.15625V63.8438C0 65.3972 1.25903 66.6562 2.8125 66.6562H69.1875C70.741 66.6562 72 65.3972 72 63.8438V8.15625C72 7.16748 71.4809 6.25177 70.6333 5.74365ZM66.375 61.0312H5.625V12.8502L19.8896 20.4802C20.8037 20.9691 21.9122 20.9152 22.7747 20.3412L36 11.5351L49.2253 20.3412C50.0878 20.9152 51.1963 20.9691 52.1104 20.4802L66.375 12.8502V61.0312ZM42.8906 26.2161C39.9271 26.2161 37.626 27.4026 36 28.8248C34.374 27.4026 32.0729 26.2161 29.1094 26.2161C23.6684 26.2161 19.4062 30.7282 19.4062 36.4889C19.4062 44.5594 27.5273 50.4602 34.7827 53.944C35.5523 54.3137 36.4477 54.3137 37.2173 53.944C44.4677 50.4624 52.5938 44.5605 52.5938 36.4889C52.5938 30.7282 48.3316 26.2161 42.8906 26.2161ZM36 48.2695C26.1304 43.2043 25.0312 38.378 25.0312 36.4889C25.0312 33.4704 27.1324 31.8411 29.1094 31.8411C31.979 31.8411 33.3435 34.2729 33.4731 34.5163C33.9263 35.5034 34.8931 36.111 35.9802 36.1241H36.0132C37.092 36.1241 38.0638 35.4765 38.5334 34.5026C38.5461 34.4762 39.9007 31.8411 42.8906 31.8411C44.8676 31.8411 46.9688 33.4698 46.9688 36.4889C46.9688 38.378 45.8696 43.2043 36 48.2695Z" fill="white"/>
</g>
<defs>
<clipPath id="clip0_727_174301">
<rect width="72" height="72" fill="white"/>
</clipPath>
</defs>
</svg>
