<svg width="72" height="72" viewBox="0 0 72 72" fill="none" xmlns="http://www.w3.org/2000/svg">
<path d="M36 5.625C16.1038 5.625 0 21.7261 0 41.625C0 50.3959 3.19275 58.8475 8.98987 65.4225C9.52383 66.0281 10.2922 66.375 11.0995 66.375H60.9005C61.7078 66.375 62.4762 66.0281 63.01 65.4225C68.8073 58.8475 72 50.3959 72 41.625C72 21.729 55.8989 5.625 36 5.625ZM59.5966 60.75H12.4034C8.61469 56.08 6.31027 50.4044 5.75663 44.4375H8.4375C9.99084 44.4375 11.25 43.1783 11.25 41.625C11.25 40.0717 9.99084 38.8125 8.4375 38.8125H5.75452C6.31294 32.6904 8.69034 26.9509 12.6245 22.2269L14.5218 24.1242C15.6201 25.2225 17.4008 25.2225 18.4992 24.1241C19.5976 23.0257 19.5976 21.2449 18.4992 20.1466L16.602 18.2495C21.3258 14.3153 27.0654 11.9379 33.1875 11.3795V14.0625C33.1875 15.6158 34.4467 16.875 36 16.875C37.5533 16.875 38.8125 15.6158 38.8125 14.0625V11.3795C53.3476 12.7053 64.9198 24.2795 66.2455 38.8125H63.5625C62.0092 38.8125 60.75 40.0717 60.75 41.625C60.75 43.1783 62.0092 44.4375 63.5625 44.4375H66.2434C65.6897 50.4044 63.3852 56.08 59.5966 60.75ZM49.5162 24.1314L39.6354 34.0121C38.5339 33.4839 37.3009 33.1875 36 33.1875C31.3476 33.1875 27.5625 36.9726 27.5625 41.625C27.5625 46.2774 31.3476 50.0625 36 50.0625C40.6524 50.0625 44.4375 46.2774 44.4375 41.625C44.4375 40.3241 44.1411 39.0911 43.613 37.9896L53.4936 28.109C54.592 27.0105 54.592 25.2297 53.4936 24.1314C52.3952 23.0331 50.6145 23.033 49.5162 24.1314ZM36 44.4375C34.4492 44.4375 33.1875 43.1758 33.1875 41.625C33.1875 40.0742 34.4492 38.8125 36 38.8125C37.5508 38.8125 38.8125 40.0742 38.8125 41.625C38.8125 43.1758 37.5508 44.4375 36 44.4375Z" fill="white"/>
</svg>
