<svg width="72" height="72" viewBox="0 0 72 72" fill="none" xmlns="http://www.w3.org/2000/svg">
<path d="M38.8125 26.6402V2.8125C38.8125 1.25903 37.5535 0 36 0C34.4465 0 33.1875 1.25903 33.1875 2.8125V26.6402C29.161 27.8509 26.2194 31.5873 26.2194 36C26.2194 40.4127 29.1616 44.1491 33.1875 45.3598V69.1875C33.1875 70.741 34.4465 72 36 72C37.5535 72 38.8125 70.741 38.8125 69.1875V45.3598C42.839 44.1491 45.7806 40.4127 45.7806 36C45.7806 31.5873 42.839 27.8509 38.8125 26.6402ZM36 40.1484C33.7088 40.1484 31.8444 38.2874 31.8444 36C31.8444 33.7126 33.7088 31.8516 36 31.8516C38.2912 31.8516 40.1556 33.7126 40.1556 36C40.1556 38.2874 38.2912 40.1484 36 40.1484ZM12.5931 52.8668V2.8125C12.5931 1.25903 11.334 0 9.78058 0C8.22711 0 6.96808 1.25903 6.96808 2.8125V52.8668C2.94214 54.0775 0 57.8145 0 62.2266C0 67.6154 4.38739 72 9.78058 72C15.1738 72 19.5612 67.6154 19.5612 62.2266C19.5612 57.8145 16.6196 54.0775 12.5931 52.8668ZM9.78058 66.375C7.48938 66.375 5.625 64.5139 5.625 62.2266C5.625 59.9392 7.48938 58.0781 9.78058 58.0781C12.0723 58.0781 13.9362 59.9392 13.9362 62.2266C13.9362 64.5139 12.0723 66.375 9.78058 66.375ZM62.2194 0C56.8262 0 52.4388 4.38464 52.4388 9.77344C52.4388 14.1855 55.3804 17.9225 59.4069 19.1332V69.1875C59.4069 70.741 60.666 72 62.2194 72C63.7729 72 65.0319 70.741 65.0319 69.1875V19.1332C69.0579 17.9225 72 14.1855 72 9.77344C72 4.38464 67.6126 0 62.2194 0V0ZM62.2194 13.9219C59.9277 13.9219 58.0638 12.0608 58.0638 9.77344C58.0638 7.48608 59.9277 5.625 62.2194 5.625C64.5106 5.625 66.375 7.48608 66.375 9.77344C66.375 12.0608 64.5106 13.9219 62.2194 13.9219Z" fill="white"/>
</svg>
