<svg width="72" height="72" viewBox="0 0 72 72" fill="none" xmlns="http://www.w3.org/2000/svg">
<path d="M60.75 0H11.25C5.04675 0 0 5.04675 0 11.25C0 12.6875 0 59.9292 0 60.75V60.9251C0 67.0319 4.96814 72 11.0749 72H11.25H60.75H60.9251C67.0319 72 72 67.0319 72 60.9251V60.75C72 59.929 72 12.6861 72 11.25C72 5.04675 66.9532 0 60.75 0ZM66.375 60.75C66.375 63.8516 63.8516 66.375 60.75 66.375H11.25C8.14837 66.375 5.625 63.8516 5.625 60.75V60.5271L23.78 33.5869L38.6857 55.7065C39.2085 56.4823 40.0828 56.9472 41.0181 56.9472C41.9535 56.9472 42.8276 56.482 43.3505 55.7065L53.2382 41.0328L66.375 60.527V60.75ZM66.375 50.4613L55.5706 34.4282C55.0478 33.6524 54.1735 33.1875 53.2382 33.1875C52.3028 33.1875 51.4287 33.6527 50.9058 34.4282L41.0181 49.1019L26.1124 26.9824C25.5895 26.2067 24.7154 25.7417 23.78 25.7417C22.8447 25.7417 21.9704 26.2067 21.4476 26.9824L5.625 50.4617V11.25C5.625 8.14837 8.14837 5.625 11.25 5.625H60.75C63.8516 5.625 66.375 8.14837 66.375 11.25V50.4613Z" fill="white"/>
</svg>
