<svg width="72" height="72" viewBox="0 0 72 72" fill="none" xmlns="http://www.w3.org/2000/svg">
<path d="M36 27.5625C37.5508 27.5625 38.8125 28.8242 38.8125 30.375C38.8125 31.9283 40.0717 33.1875 41.625 33.1875C43.1783 33.1875 44.4375 31.9283 44.4375 30.375C44.4375 26.7085 42.086 23.5824 38.8125 22.4213V19.125C38.8125 17.5717 37.5533 16.3125 36 16.3125C34.4467 16.3125 33.1875 17.5717 33.1875 19.125V22.4213C29.914 23.5823 27.5625 26.7085 27.5625 30.375C27.5625 35.0274 31.3476 38.8125 36 38.8125C37.5508 38.8125 38.8125 40.0742 38.8125 41.625C38.8125 43.1758 37.5508 44.4375 36 44.4375C34.4492 44.4375 33.1875 43.1758 33.1875 41.625C33.1875 40.0717 31.9283 38.8125 30.375 38.8125C28.8217 38.8125 27.5625 40.0717 27.5625 41.625C27.5625 45.2915 29.914 48.4176 33.1875 49.5788V52.875C33.1875 54.4283 34.4467 55.6875 36 55.6875C37.5533 55.6875 38.8125 54.4283 38.8125 52.875V49.5788C42.086 48.4178 44.4375 45.2915 44.4375 41.625C44.4375 36.9726 40.6524 33.1875 36 33.1875C34.4492 33.1875 33.1875 31.9258 33.1875 30.375C33.1875 28.8242 34.4492 27.5625 36 27.5625Z" fill="white"/>
<path d="M69.1875 33.1875H66.8083C65.4664 18.3684 53.6316 6.53358 38.8125 5.19173V2.8125C38.8125 1.25916 37.5533 0 36 0C34.4467 0 33.1875 1.25916 33.1875 2.8125V5.19173C18.3684 6.53358 6.53358 18.3684 5.19173 33.1875H2.8125C1.25916 33.1875 0 34.4467 0 36C0 37.5533 1.25916 38.8125 2.8125 38.8125H5.19173C6.53358 53.6316 18.3684 65.4664 33.1875 66.8083V69.1875C33.1875 70.7408 34.4467 72 36 72C37.5533 72 38.8125 70.7408 38.8125 69.1875V66.8083C53.6316 65.4664 65.4664 53.6316 66.8083 38.8125H69.1875C70.7408 38.8125 72 37.5533 72 36C72 34.4467 70.7408 33.1875 69.1875 33.1875ZM36 61.3125C22.0427 61.3125 10.6875 49.9573 10.6875 36C10.6875 22.0427 22.0427 10.6875 36 10.6875C49.9573 10.6875 61.3125 22.0427 61.3125 36C61.3125 49.9573 49.9573 61.3125 36 61.3125Z" fill="white"/>
</svg>
