<svg width="72" height="72" viewBox="0 0 72 72" fill="none" xmlns="http://www.w3.org/2000/svg">
<path d="M19.125 29.8125C20.6758 29.8125 21.9375 31.0742 21.9375 32.625C21.9375 34.1783 23.1967 35.4375 24.75 35.4375C26.3033 35.4375 27.5625 34.1783 27.5625 32.625C27.5625 28.9585 25.211 25.8323 21.9375 24.6713V21.375C21.9375 19.8217 20.6783 18.5625 19.125 18.5625C17.5717 18.5625 16.3125 19.8217 16.3125 21.375V24.6713C13.039 25.8323 10.6875 28.9585 10.6875 32.625C10.6875 37.2774 14.4726 41.0625 19.125 41.0625C20.6758 41.0625 21.9375 42.3242 21.9375 43.875C21.9375 45.4258 20.6758 46.6875 19.125 46.6875C17.5742 46.6875 16.3125 45.4258 16.3125 43.875C16.3125 42.3217 15.0533 41.0625 13.5 41.0625C11.9467 41.0625 10.6875 42.3217 10.6875 43.875C10.6875 47.5415 13.039 50.6678 16.3125 51.8288V55.125C16.3125 56.6783 17.5717 57.9375 19.125 57.9375C20.6783 57.9375 21.9375 56.6783 21.9375 55.125V51.8288C25.211 50.6678 27.5625 47.5415 27.5625 43.875C27.5625 39.2226 23.7774 35.4375 19.125 35.4375C17.5742 35.4375 16.3125 34.1758 16.3125 32.625C16.3125 31.0742 17.5742 29.8125 19.125 29.8125Z" fill="white"/>
<path d="M71.1764 50.3238L65.5514 44.6988C64.4529 43.6004 62.6721 43.6004 61.5738 44.6988L60.75 45.5224V8.4375C60.75 7.62342 60.3973 6.84928 59.7831 6.31519L53.3143 0.690188C52.2889 -0.201234 50.7731 -0.232594 49.7118 0.616359L44.4375 4.83581L39.1632 0.616359C38.136 -0.205453 36.6764 -0.205453 35.6493 0.616359L30.375 4.83581L25.1007 0.616359C24.0736 -0.205453 22.6139 -0.205453 21.5869 0.616359L16.3125 4.83581L11.0382 0.616359C9.9772 -0.232453 8.46098 -0.201375 7.43583 0.690188L0.967078 6.31519C0.352687 6.84928 0 7.62342 0 8.4375V57.9375C0 65.6916 6.30844 72 14.0625 72H63.5625C68.2149 72 72 68.2149 72 63.5625V52.3125C72 51.5666 71.7037 50.8513 71.1764 50.3238ZM5.625 57.9375V9.71902L9.35634 6.47438L14.5555 10.6338C15.5827 11.4556 17.0423 11.4556 18.0693 10.6338L23.3438 6.41433L28.618 10.6338C29.6452 11.4556 31.1048 11.4556 32.1318 10.6338L37.4062 6.41433L42.6805 10.6338C43.7078 11.4556 45.1673 11.4556 46.1945 10.6338L51.3937 6.47438L55.125 9.71902V63.5625C55.125 64.5484 55.2966 65.4947 55.6087 66.375H14.0625C9.41006 66.375 5.625 62.5899 5.625 57.9375ZM66.375 63.5625C66.375 65.1133 65.1133 66.375 63.5625 66.375C62.0117 66.375 60.75 65.1133 60.75 63.5625V53.4774L63.5625 50.6649L66.375 53.4774V63.5625Z" fill="white"/>
<path d="M47.25 27H36C34.4467 27 33.1875 28.2592 33.1875 29.8125C33.1875 31.3658 34.4467 32.625 36 32.625H47.25C48.8033 32.625 50.0625 31.3658 50.0625 29.8125C50.0625 28.2592 48.8033 27 47.25 27Z" fill="white"/>
<path d="M47.25 38.25H36C34.4467 38.25 33.1875 39.5092 33.1875 41.0625C33.1875 42.6158 34.4467 43.875 36 43.875H47.25C48.8033 43.875 50.0625 42.6158 50.0625 41.0625C50.0625 39.5092 48.8033 38.25 47.25 38.25Z" fill="white"/>
<path d="M47.25 49.5H36C34.4467 49.5 33.1875 50.7592 33.1875 52.3125C33.1875 53.8658 34.4467 55.125 36 55.125H47.25C48.8033 55.125 50.0625 53.8658 50.0625 52.3125C50.0625 50.7592 48.8033 49.5 47.25 49.5Z" fill="white"/>
</svg>
