<svg width="72" height="72" viewBox="0 0 72 72" fill="none" xmlns="http://www.w3.org/2000/svg">
<path d="M32.4014 41.3605H19.6875C11.9333 41.3605 5.625 35.052 5.625 27.298C5.625 19.5439 11.9333 13.2355 19.6875 13.2355H41.625C49.3792 13.2355 55.6875 19.5439 55.6875 27.298C55.6875 28.1981 55.6021 29.0984 55.4338 29.9737C55.1403 31.499 56.1392 32.9733 57.6644 33.2667C59.1906 33.5602 60.6642 32.5613 60.9574 31.0359C61.193 29.8114 61.3124 28.5538 61.3124 27.2978C61.3124 16.4422 52.4805 7.61035 41.6249 7.61035H19.6875C8.83181 7.61035 0 16.4422 0 27.2978C0 38.1535 8.83181 46.9853 19.6875 46.9853H32.4014C33.9548 46.9853 35.2139 45.7262 35.2139 44.1728C35.2139 42.6195 33.9548 41.3605 32.4014 41.3605Z" fill="white"/>
<path d="M71.0231 59.4471L59.924 49.8787L67.331 46.7846C68.448 46.318 69.1411 45.189 69.0517 43.9817C68.9623 42.7744 68.1103 41.7598 66.9368 41.4628L42.5495 35.2925C41.5169 35.0313 40.4249 35.3759 39.7293 36.1826C39.0337 36.9895 38.8536 38.1202 39.2642 39.1031L48.9602 62.3153C49.4248 63.4273 50.5495 64.1254 51.7632 64.0359C52.9705 63.9465 53.9851 63.0946 54.282 61.9209L56.251 54.139L67.3501 63.7074C68.5263 64.7216 70.3023 64.5903 71.3167 63.4137C72.3311 62.2372 72.1996 60.4613 71.0231 59.4471ZM50.8985 52.3615L46.6228 42.1255L57.3773 44.8465L53.5568 46.4425C52.8133 46.753 52.2116 47.3857 51.9577 48.1951C51.942 48.2454 51.9274 48.2962 51.9143 48.3477L50.8985 52.3615Z" fill="white"/>
</svg>
