<svg width="72" height="72" viewBox="0 0 72 72" fill="none" xmlns="http://www.w3.org/2000/svg">
<g clip-path="url(#clip0_727_174290)">
<path d="M71.999 32.4806C71.999 26.8935 69.0211 21.9892 64.5689 19.2711C66.5657 17.2398 67.8005 14.4575 67.8005 11.3912C67.8005 5.1894 62.7551 0.143375 56.5527 0.143375C53.838 0.143375 51.3452 1.11017 49.3995 2.71747C40.8637 -0.713559 31.1842 -0.719601 22.6395 2.70704C20.6961 1.10633 18.2077 0.143375 15.499 0.143375C9.29719 0.143375 4.25117 5.1894 4.25117 11.3912C4.25117 14.4503 5.48054 17.226 7.46852 19.2558C3.00312 21.971 0.0142877 26.883 0.0142877 32.4806C0.215338 34.4965 -1.38262 45.1945 6.24793 56.3874C9.86848 61.6976 14.7832 65.9054 20.5412 68.6448V69.3166C20.5412 70.8695 21.8002 72.1286 23.3531 72.1286H48.6601C50.213 72.1286 51.4721 70.8695 51.4721 69.3166V68.6448C64.1476 62.6139 72.6845 49.3951 71.9556 34.3625C72.0292 33.934 71.9863 33.805 71.999 32.4806ZM56.5335 22.639C61.4828 22.639 65.5906 26.3112 66.2751 31.0743H46.7919C47.4764 26.3112 51.5841 22.639 56.5335 22.639ZM62.1766 11.3912C62.1766 14.4921 59.6536 17.0151 56.5527 17.0151C53.4518 17.0151 50.9288 14.4921 50.9288 11.3912C50.9288 8.29029 53.4518 5.76728 56.5527 5.76728C59.6536 5.76728 62.1766 8.29029 62.1766 11.3912ZM15.499 5.76728C18.5999 5.76728 21.1229 8.29029 21.1229 11.3912C21.1229 14.4921 18.5999 17.0151 15.499 17.0151C12.3981 17.0151 9.87507 14.4921 9.87507 11.3912C9.87507 8.29029 12.3981 5.76728 15.499 5.76728ZM15.4798 22.639C20.4291 22.639 24.5369 26.3112 25.2213 31.0743H5.73817C6.42262 26.3112 10.5304 22.639 15.4798 22.639ZM26.265 66.5047C26.9495 61.7416 31.0573 58.0688 36.0066 58.0688C40.956 58.0688 45.0638 61.7416 45.7482 66.5047H26.265ZM36.0258 52.4449C32.925 52.4449 30.4019 49.9219 30.4019 46.821C30.4019 43.7201 32.925 41.1971 36.0258 41.1971C39.1267 41.1971 41.6497 43.7201 41.6497 46.821C41.6497 49.9219 39.1267 52.4449 36.0258 52.4449ZM50.5965 62.7809C49.4023 59.3949 47.0616 56.545 44.042 54.701C46.0388 52.6701 47.2737 49.8873 47.2737 46.821C47.2737 40.6192 42.2282 35.5738 36.0258 35.5738C29.8241 35.5738 24.7786 40.6192 24.7786 46.821C24.7786 49.8802 26.0074 52.6564 27.9954 54.6856C24.9637 56.5291 22.6137 59.3855 21.4168 62.7809C11.8955 57.5799 5.84309 47.6988 5.64314 36.6982H28.1333C29.6862 36.6982 30.9452 35.4392 30.9452 33.8863V32.4806C30.9452 26.8935 27.9668 21.9892 23.5152 19.2711C26.6655 16.0664 27.5318 11.4379 26.0299 7.44379C32.4591 5.20313 39.586 5.20533 46.0174 7.45588C44.5183 11.456 45.3983 16.0664 48.5223 19.2558C44.0569 21.971 41.068 26.883 41.068 32.4806V33.8863C41.068 35.4392 42.3271 36.6982 43.88 36.6982H66.3701C66.1702 47.6988 60.1178 57.5799 50.5965 62.7809Z" fill="white"/>
</g>
<defs>
<clipPath id="clip0_727_174290">
<rect width="72" height="72" fill="white"/>
</clipPath>
</defs>
</svg>
