<svg width="72" height="72" viewBox="0 0 72 72" fill="none" xmlns="http://www.w3.org/2000/svg">
<g clip-path="url(#clip0_727_174284)">
<path d="M24.7605 55.2498C26.3794 53.365 27.3615 50.9178 27.3615 48.2438C27.3615 42.3067 22.5314 37.4761 16.5938 37.4761C10.6568 37.4761 5.82666 42.3067 5.82666 48.2438C5.82666 50.9178 6.80829 53.365 8.42768 55.2498C5.11255 56.8593 2.27972 59.4323 0.379084 62.715C-0.399298 64.0592 0.0593819 65.7796 1.40356 66.558C2.74774 67.3364 4.4682 66.8782 5.24713 65.5341C7.50482 61.6345 11.6401 59.1625 16.1214 58.9994C16.4884 59.0153 16.6993 59.0153 17.0668 58.9994C21.5481 59.1625 25.6828 61.6345 27.9411 65.5341C28.7172 66.8739 30.4361 67.3391 31.7846 66.558C33.1288 65.7796 33.5875 64.0592 32.8091 62.715C30.9079 59.4328 28.0756 56.8593 24.7605 55.2498ZM16.9657 53.3716C16.5488 53.3629 16.6427 53.3629 16.2225 53.3716C13.5599 53.1799 11.4517 50.9541 11.4517 48.2438C11.4517 45.4082 13.7582 43.1011 16.5938 43.1011C19.4294 43.1011 21.7365 45.4082 21.7365 48.2438C21.7365 50.9541 19.6282 53.1799 16.9657 53.3716ZM71.6211 62.715C69.7199 59.4328 66.8876 56.8593 63.5725 55.2498C65.1913 53.365 66.1735 50.9178 66.1735 48.2438C66.1735 42.3067 61.3434 37.4766 55.4058 37.4766C49.4688 37.4766 44.6386 42.3067 44.6386 48.2438C44.6386 50.9178 45.6203 53.3656 47.2397 55.2498C43.924 56.8593 41.0917 59.4328 39.1911 62.715C38.4127 64.0592 38.8714 65.7802 40.2155 66.5585C41.5597 67.3364 43.2802 66.8782 44.0586 65.5341C46.3168 61.6345 50.4521 59.1625 54.9334 58.9994C55.3003 59.0153 55.5113 59.0153 55.8788 58.9994C60.3601 59.1625 64.4948 61.6345 66.7531 65.5341C67.5292 66.8739 69.248 67.3391 70.5966 66.5585C71.9408 65.7802 72.3995 64.0592 71.6211 62.715ZM55.7777 53.3716C55.3608 53.3629 55.4547 53.3629 55.0345 53.3716C52.3719 53.1799 50.2637 50.9541 50.2637 48.2438C50.2637 45.4082 52.5702 43.1011 55.4058 43.1011C58.2414 43.1011 60.5485 45.4082 60.5485 48.2438C60.5485 50.9541 58.4402 53.1799 55.7777 53.3716ZM47.3468 33.2595C48.1246 34.6042 49.8451 35.0634 51.1893 34.2856C52.534 33.5078 52.9932 31.7873 52.2154 30.4431C50.3136 27.1555 47.4797 24.5786 44.1618 22.968C45.784 21.0844 46.7673 18.6367 46.7673 15.962C46.7673 10.0294 41.9371 5.20312 36.0001 5.20312C30.0625 5.20312 25.2324 10.0294 25.2324 15.962C25.2324 18.6367 26.2162 21.0844 27.8378 22.968C24.5205 24.5786 21.686 27.1555 19.7843 30.4431C19.0064 31.7873 19.4657 33.5078 20.8104 34.2856C22.1546 35.0634 23.8756 34.6042 24.6534 33.2595C26.9397 29.3066 31.1507 26.8198 35.6969 26.7138C36.071 26.7243 35.9287 26.7243 36.3028 26.7138C40.8489 26.8198 45.06 29.3066 47.3468 33.2595ZM36.2819 21.0883C35.8869 21.0822 36.1649 21.0817 35.7183 21.0883C33.0135 20.9416 30.8574 18.6987 30.8574 15.962C30.8574 13.1314 33.1645 10.8281 36.0001 10.8281C38.8357 10.8281 41.1428 13.1314 41.1428 15.962C41.1428 18.6987 38.9867 20.9416 36.2819 21.0883Z" fill="white"/>
</g>
<defs>
<clipPath id="clip0_727_174284">
<rect width="72" height="72" fill="white"/>
</clipPath>
</defs>
</svg>
