<svg width="24" height="24" viewBox="0 0 24 24" fill="none" xmlns="http://www.w3.org/2000/svg">
<g clip-path="url(#clip0_727_171986)">
<path d="M24 5.53809H0V7.38402H24V5.53809Z" fill="#F5F5F5"/>
<path d="M22.7461 1.8457H1.25264C0.797578 2.37952 0.447375 3.00544 0.234375 3.69187H23.7644C23.5514 3.00544 23.2012 2.37952 22.7461 1.8457Z" fill="#F5F5F5"/>
<path d="M24 9.23047H0V11.0764H24V9.23047Z" fill="#F5F5F5"/>
<path d="M24 12.9229H0V14.7688H24V12.9229Z" fill="#F5F5F5"/>
<path d="M24 16.6152H0V18.4612H24V16.6152Z" fill="#F5F5F5"/>
<path d="M23.7644 20.3076H0.234375C0.447328 20.9941 0.797578 21.6199 1.25264 22.1537H22.7461C23.2012 21.6199 23.5514 20.9941 23.7644 20.3076Z" fill="#F5F5F5"/>
<path d="M18.7507 0H5.25066C3.64997 0 2.21686 0.716578 1.25391 1.84617H22.7474C21.7845 0.716578 20.3513 0 18.7507 0Z" fill="#FF4B55"/>
<path d="M24 7.38477H0V9.2307H24V7.38477Z" fill="#FF4B55"/>
<path d="M24 5.25004C24 4.70765 23.9177 4.18452 23.765 3.69238H0.234984C0.0822656 4.18452 0 4.70765 0 5.25004V5.53851H24V5.25004Z" fill="#FF4B55"/>
<path d="M24 11.0771H0V12.9231H24V11.0771Z" fill="#FF4B55"/>
<path d="M24 18.7504V18.4619H0V18.7504C0 19.2928 0.0822656 19.8159 0.234984 20.3081H23.765C23.9177 19.8159 24 19.2928 24 18.7504Z" fill="#FF4B55"/>
<path d="M22.7474 22.1543H1.25391C2.21686 23.2839 3.64997 24.0005 5.25066 24.0005H18.7507C20.3513 24.0005 21.7845 23.2839 22.7474 22.1543Z" fill="#FF4B55"/>
<path d="M24 14.7695H0V16.6155H24V14.7695Z" fill="#FF4B55"/>
<path d="M12.9231 0H5.25C2.3505 0 0 2.3505 0 5.25V12.9231H12.9231V0Z" fill="#41479B"/>
<path d="M1.39468 2.01814C1.3824 2.057 1.4266 2.08916 1.45979 2.06544L1.71586 1.88244L1.97194 2.06544C2.00508 2.08916 2.04933 2.057 2.03705 2.01814L1.94213 1.71805L2.19535 1.53106C2.22811 1.50683 2.21124 1.45484 2.17046 1.45452L1.85574 1.45208L1.80202 1.29102C1.66711 1.40863 1.53844 1.53312 1.41624 1.66377L1.48969 1.71805L1.39468 2.01814Z" fill="#F5F5F5"/>
<path d="M1.75584 3.64521L1.8554 3.94381L2.17012 3.94625C2.21085 3.94657 2.22778 3.99856 2.19501 4.02279L1.94179 4.20978L2.03671 4.50987C2.049 4.54873 2.00479 4.58084 1.9716 4.55717L1.71553 4.37412L1.45945 4.55717C1.42631 4.58089 1.38206 4.54873 1.39434 4.50987L1.48926 4.20978L1.23604 4.02279C1.20328 3.99861 1.22015 3.94657 1.26089 3.94625L1.5756 3.94381L1.67517 3.64521C1.68825 3.60654 1.74295 3.60654 1.75584 3.64521Z" fill="#F5F5F5"/>
<path d="M1.75584 6.40693L1.8554 6.70553L2.17012 6.70796C2.21085 6.70829 2.22778 6.76028 2.19501 6.78451L1.94179 6.9715L2.03671 7.27159C2.049 7.31045 2.00479 7.34256 1.9716 7.31889L1.71553 7.13589L1.45945 7.31889C1.42631 7.34256 1.38206 7.31045 1.39434 7.27159L1.48926 6.9715L1.23604 6.78451C1.20328 6.76032 1.22015 6.70829 1.26089 6.70796L1.5756 6.70553L1.67517 6.40693C1.68825 6.36826 1.74295 6.36826 1.75584 6.40693Z" fill="#F5F5F5"/>
<path d="M1.75584 8.94502L1.8554 9.24361L2.17012 9.24605C2.21085 9.24638 2.22778 9.29836 2.19501 9.3226L1.94179 9.50958L2.03671 9.80968C2.049 9.84854 2.00479 9.88064 1.9716 9.85697L1.71553 9.67393L1.45945 9.85697C1.42631 9.88064 1.38206 9.84854 1.39434 9.80968L1.48926 9.50958L1.23604 9.3226C1.20328 9.29841 1.22015 9.24638 1.26089 9.24605L1.5756 9.24361L1.67517 8.94502C1.68825 8.90635 1.74295 8.90635 1.75584 8.94502Z" fill="#F5F5F5"/>
<path d="M1.75584 11.2546L1.8554 11.5532L2.17012 11.5556C2.21085 11.5559 2.22778 11.6079 2.19501 11.6322L1.94179 11.8192L2.03671 12.1192C2.049 12.1581 2.00479 12.1902 1.9716 12.1665L1.71553 11.9835L1.45945 12.1665C1.42631 12.1902 1.38206 12.1581 1.39434 12.1192L1.48926 11.8192L1.23604 11.6322C1.20328 11.608 1.22015 11.5559 1.26089 11.5556L1.5756 11.5532L1.67517 11.2546C1.68825 11.2159 1.74295 11.2159 1.75584 11.2546Z" fill="#F5F5F5"/>
<path d="M2.96859 2.33369L3.06815 2.63229L3.38287 2.63472C3.4236 2.63505 3.44053 2.68704 3.40776 2.71122L3.15454 2.89821L3.24946 3.1983C3.26175 3.23716 3.21754 3.26932 3.18435 3.2456L2.92837 3.06255L2.67229 3.2456C2.63915 3.26932 2.5949 3.23716 2.60718 3.1983L2.7021 2.89821L2.44893 2.71122C2.41617 2.68704 2.43304 2.635 2.47378 2.63472L2.7885 2.63229L2.88806 2.33369C2.901 2.29502 2.9557 2.29502 2.96859 2.33369Z" fill="#F5F5F5"/>
<path d="M2.96868 5.09639L3.06825 5.39498L3.38296 5.39742C3.4237 5.39775 3.44062 5.44973 3.40785 5.47396L3.15464 5.66095L3.24956 5.96104C3.26184 5.9999 3.21764 6.03206 3.18445 6.00834L2.92837 5.82529L2.67229 6.00834C2.63915 6.03206 2.5949 5.9999 2.60718 5.96104L2.7021 5.66095L2.44893 5.47396C2.41617 5.44978 2.43304 5.39775 2.47378 5.39742L2.7885 5.39498L2.88806 5.09639C2.90109 5.05771 2.95579 5.05771 2.96868 5.09639Z" fill="#F5F5F5"/>
<path d="M2.96868 7.72038L3.06825 8.01897L3.38296 8.02141C3.4237 8.02173 3.44062 8.07372 3.40785 8.09795L3.15464 8.28494L3.24956 8.58503C3.26184 8.62389 3.21764 8.656 3.18445 8.63233L2.92837 8.44928L2.67229 8.63233C2.63915 8.65605 2.5949 8.62389 2.60718 8.58503L2.7021 8.28494L2.44893 8.09795C2.41617 8.07377 2.43304 8.02173 2.47378 8.02141L2.7885 8.01897L2.88806 7.72038C2.90109 7.68175 2.95579 7.68175 2.96868 7.72038Z" fill="#F5F5F5"/>
<path d="M2.96868 10.0778L3.06825 10.3764L3.38296 10.3789C3.4237 10.3792 3.44062 10.4312 3.40785 10.4554L3.15464 10.6424L3.24956 10.9425C3.26184 10.9813 3.21764 11.0135 3.18445 10.9898L2.92837 10.8068L2.67229 10.9898C2.63915 11.0135 2.5949 10.9813 2.60718 10.9425L2.7021 10.6424L2.44893 10.4554C2.41617 10.4312 2.43304 10.3792 2.47378 10.3789L2.7885 10.3764L2.88806 10.0778C2.90109 10.0392 2.95579 10.0392 2.96868 10.0778Z" fill="#F5F5F5"/>
<path d="M4.17962 1.15397L4.27918 1.45256L4.5939 1.455C4.63464 1.45533 4.65156 1.50731 4.61879 1.5315L4.36557 1.71848L4.46049 2.01858C4.47278 2.05744 4.42857 2.08955 4.39539 2.06587L4.13931 1.88283L3.88323 2.06587C3.85009 2.08959 3.80584 2.05744 3.81812 2.01858L3.91304 1.71848L3.65987 1.5315C3.6271 1.50731 3.64398 1.45528 3.68471 1.455L3.99943 1.45256L4.09899 1.15397C4.11203 1.11534 4.16673 1.11534 4.17962 1.15397Z" fill="#F5F5F5"/>
<path d="M4.17962 3.64521L4.27918 3.94381L4.5939 3.94625C4.63464 3.94657 4.65156 3.99856 4.61879 4.02279L4.36557 4.20978L4.46049 4.50987C4.47278 4.54873 4.42857 4.58084 4.39539 4.55717L4.13931 4.37412L3.88323 4.55717C3.85009 4.58089 3.80584 4.54873 3.81812 4.50987L3.91304 4.20978L3.65987 4.02279C3.6271 3.99861 3.64398 3.94657 3.68471 3.94625L3.99943 3.94381L4.09899 3.64521C4.11203 3.60654 4.16673 3.60654 4.17962 3.64521Z" fill="#F5F5F5"/>
<path d="M4.17962 6.40693L4.27918 6.70553L4.5939 6.70796C4.63464 6.70829 4.65156 6.76028 4.61879 6.78451L4.36557 6.9715L4.46049 7.27159C4.47278 7.31045 4.42857 7.34256 4.39539 7.31889L4.13931 7.13589L3.88323 7.31889C3.85009 7.34256 3.80584 7.31045 3.81812 7.27159L3.91304 6.9715L3.65987 6.78451C3.6271 6.76032 3.64398 6.70829 3.68471 6.70796L3.99943 6.70553L4.09899 6.40693C4.11203 6.36826 4.16673 6.36826 4.17962 6.40693Z" fill="#F5F5F5"/>
<path d="M4.17962 8.94502L4.27918 9.24361L4.5939 9.24605C4.63464 9.24638 4.65156 9.29836 4.61879 9.3226L4.36557 9.50958L4.46049 9.80968C4.47278 9.84854 4.42857 9.88064 4.39539 9.85697L4.13931 9.67393L3.88323 9.85697C3.85009 9.88064 3.80584 9.84854 3.81812 9.80968L3.91304 9.50958L3.65987 9.3226C3.6271 9.29841 3.64398 9.24638 3.68471 9.24605L3.99943 9.24361L4.09899 8.94502C4.11203 8.90635 4.16673 8.90635 4.17962 8.94502Z" fill="#F5F5F5"/>
<path d="M4.17962 11.2546L4.27918 11.5532L4.5939 11.5556C4.63464 11.5559 4.65156 11.6079 4.61879 11.6322L4.36557 11.8192L4.46049 12.1192C4.47278 12.1581 4.42857 12.1902 4.39539 12.1665L4.13931 11.9835L3.88323 12.1665C3.85009 12.1902 3.80584 12.1581 3.81812 12.1192L3.91304 11.8192L3.65987 11.6322C3.6271 11.608 3.64398 11.5559 3.68471 11.5556L3.99943 11.5532L4.09899 11.2546C4.11203 11.2159 4.16673 11.2159 4.17962 11.2546Z" fill="#F5F5F5"/>
<path d="M5.39256 2.33369L5.49212 2.63229L5.80684 2.63472C5.84757 2.63505 5.86449 2.68704 5.83168 2.71122L5.57851 2.89821L5.67343 3.1983C5.68571 3.23716 5.64151 3.26932 5.60832 3.2456L5.35224 3.06255L5.09616 3.2456C5.06302 3.26932 5.01877 3.23716 5.03106 3.1983L5.12598 2.89821L4.87276 2.71122C4.83999 2.68704 4.85687 2.635 4.89765 2.63472L5.21237 2.63229L5.31193 2.33369C5.32501 2.29502 5.37966 2.29502 5.39256 2.33369Z" fill="#F5F5F5"/>
<path d="M5.39256 5.09639L5.49212 5.39498L5.80684 5.39742C5.84757 5.39775 5.86449 5.44973 5.83168 5.47396L5.57851 5.66095L5.67343 5.96104C5.68571 5.9999 5.64151 6.03206 5.60832 6.00834L5.35224 5.82529L5.09616 6.00834C5.06302 6.03206 5.01877 5.9999 5.03106 5.96104L5.12598 5.66095L4.87276 5.47396C4.83999 5.44978 4.85687 5.39775 4.89765 5.39742L5.21237 5.39498L5.31193 5.09639C5.32501 5.05771 5.37966 5.05771 5.39256 5.09639Z" fill="#F5F5F5"/>
<path d="M5.39256 7.72038L5.49212 8.01897L5.80684 8.02141C5.84757 8.02173 5.86449 8.07372 5.83168 8.09795L5.57851 8.28494L5.67343 8.58503C5.68571 8.62389 5.64151 8.656 5.60832 8.63233L5.35224 8.44928L5.09616 8.63233C5.06302 8.65605 5.01877 8.62389 5.03106 8.58503L5.12598 8.28494L4.87276 8.09795C4.83999 8.07377 4.85687 8.02173 4.89765 8.02141L5.21237 8.01897L5.31193 7.72038C5.32501 7.68175 5.37966 7.68175 5.39256 7.72038Z" fill="#F5F5F5"/>
<path d="M5.39256 10.0778L5.49212 10.3764L5.80684 10.3789C5.84757 10.3792 5.86449 10.4312 5.83168 10.4554L5.57851 10.6424L5.67343 10.9425C5.68571 10.9813 5.64151 11.0135 5.60832 10.9898L5.35224 10.8068L5.09616 10.9898C5.06302 11.0135 5.01877 10.9813 5.03106 10.9425L5.12598 10.6424L4.87276 10.4554C4.83999 10.4312 4.85687 10.3792 4.89765 10.3789L5.21237 10.3764L5.31193 10.0778C5.32501 10.0392 5.37966 10.0392 5.39256 10.0778Z" fill="#F5F5F5"/>
<path d="M6.6054 1.15397L6.70496 1.45256L7.01968 1.455C7.06041 1.45533 7.07734 1.50731 7.04452 1.5315L6.79135 1.71848L6.88627 2.01858C6.89856 2.05744 6.85435 2.08955 6.82116 2.06587L6.56509 1.88283L6.30901 2.06587C6.27587 2.08959 6.23162 2.05744 6.2439 2.01858L6.33882 1.71848L6.08565 1.5315C6.05288 1.50731 6.06976 1.45528 6.11054 1.455L6.42526 1.45256L6.52482 1.15397C6.53785 1.11534 6.59251 1.11534 6.6054 1.15397Z" fill="#F5F5F5"/>
<path d="M6.60535 3.64522L6.70491 3.94381L7.01963 3.94625C7.06037 3.94658 7.07729 3.99856 7.04448 4.0228L6.7913 4.20978L6.88627 4.50983C6.89855 4.54869 6.85435 4.5808 6.82116 4.55713L6.56509 4.37408L6.30901 4.55713C6.27587 4.58085 6.23162 4.54869 6.2439 4.50983L6.33882 4.20974L6.08565 4.02275C6.05288 3.99856 6.06976 3.94653 6.11054 3.94621L6.42526 3.94377L6.52482 3.64517C6.5378 3.60655 6.59246 3.60655 6.60535 3.64522Z" fill="#F5F5F5"/>
<path d="M6.6054 6.40693L6.70496 6.70553L7.01968 6.70796C7.06041 6.70829 7.07734 6.76028 7.04452 6.78451L6.79135 6.9715L6.88627 7.27159C6.89856 7.31045 6.85435 7.34256 6.82116 7.31889L6.56509 7.13589L6.30901 7.31889C6.27587 7.34256 6.23162 7.31045 6.2439 7.27159L6.33882 6.9715L6.08565 6.78451C6.05288 6.76032 6.06976 6.70829 6.11054 6.70796L6.42526 6.70553L6.52482 6.40693C6.53785 6.36826 6.59251 6.36826 6.6054 6.40693Z" fill="#F5F5F5"/>
<path d="M6.6054 8.94502L6.70496 9.24361L7.01968 9.24605C7.06041 9.24638 7.07734 9.29836 7.04452 9.3226L6.79135 9.50958L6.88627 9.80968C6.89856 9.84854 6.85435 9.88064 6.82116 9.85697L6.56509 9.67393L6.30901 9.85697C6.27587 9.88064 6.23162 9.84854 6.2439 9.80968L6.33882 9.50958L6.08565 9.3226C6.05288 9.29841 6.06976 9.24638 6.11054 9.24605L6.42526 9.24361L6.52482 8.94502C6.53785 8.90635 6.59251 8.90635 6.6054 8.94502Z" fill="#F5F5F5"/>
<path d="M6.6054 11.2546L6.70496 11.5532L7.01968 11.5556C7.06041 11.5559 7.07734 11.6079 7.04452 11.6322L6.79135 11.8192L6.88627 12.1192C6.89856 12.1581 6.85435 12.1902 6.82116 12.1665L6.56509 11.9835L6.30901 12.1665C6.27587 12.1902 6.23162 12.1581 6.2439 12.1192L6.33882 11.8192L6.08565 11.6322C6.05288 11.608 6.06976 11.5559 6.11054 11.5556L6.42526 11.5532L6.52482 11.2546C6.53785 11.2159 6.59251 11.2159 6.6054 11.2546Z" fill="#F5F5F5"/>
<path d="M7.81834 2.33369L7.9179 2.63229L8.23262 2.63472C8.27335 2.63505 8.29028 2.68704 8.25746 2.71122L8.00424 2.89821L8.09917 3.1983C8.11145 3.23716 8.0672 3.26932 8.03406 3.2456L7.77798 3.06255L7.5219 3.2456C7.48876 3.26932 7.44451 3.23716 7.45679 3.1983L7.55171 2.89821L7.29854 2.71122C7.26578 2.68704 7.28265 2.635 7.32339 2.63472L7.6381 2.63229L7.73767 2.33369C7.75079 2.29502 7.80545 2.29502 7.81834 2.33369Z" fill="#F5F5F5"/>
<path d="M7.81834 5.09639L7.9179 5.39498L8.23262 5.39742C8.27335 5.39775 8.29028 5.44973 8.25746 5.47396L8.00424 5.66095L8.09917 5.96104C8.11145 5.9999 8.0672 6.03206 8.03406 6.00834L7.77798 5.82529L7.5219 6.00834C7.48876 6.03206 7.44451 5.9999 7.45679 5.96104L7.55171 5.66095L7.29854 5.47396C7.26578 5.44978 7.28265 5.39775 7.32339 5.39742L7.6381 5.39498L7.73767 5.09639C7.75079 5.05771 7.80545 5.05771 7.81834 5.09639Z" fill="#F5F5F5"/>
<path d="M7.81834 7.72038L7.9179 8.01897L8.23262 8.02141C8.27335 8.02173 8.29028 8.07372 8.25746 8.09795L8.00424 8.28494L8.09917 8.58503C8.11145 8.62389 8.0672 8.656 8.03406 8.63233L7.77798 8.44928L7.5219 8.63233C7.48876 8.65605 7.44451 8.62389 7.45679 8.58503L7.55171 8.28494L7.29854 8.09795C7.26578 8.07377 7.28265 8.02173 7.32339 8.02141L7.6381 8.01897L7.73767 7.72038C7.75079 7.68175 7.80545 7.68175 7.81834 7.72038Z" fill="#F5F5F5"/>
<path d="M7.81834 10.0778L7.9179 10.3764L8.23262 10.3789C8.27335 10.3792 8.29028 10.4312 8.25746 10.4554L8.00424 10.6424L8.09917 10.9425C8.11145 10.9813 8.0672 11.0135 8.03406 10.9898L7.77798 10.8068L7.5219 10.9898C7.48876 11.0135 7.44451 10.9813 7.45679 10.9425L7.55171 10.6424L7.29854 10.4554C7.26578 10.4312 7.28265 10.3792 7.32339 10.3789L7.6381 10.3764L7.73767 10.0778C7.75079 10.0392 7.80545 10.0392 7.81834 10.0778Z" fill="#F5F5F5"/>
<path d="M9.02932 1.15397L9.12888 1.45256L9.4436 1.455C9.48434 1.45533 9.50126 1.50731 9.46845 1.5315L9.21523 1.71848L9.31015 2.01858C9.32243 2.05744 9.27818 2.08955 9.24504 2.06587L8.98896 1.88283L8.73288 2.06587C8.69974 2.08959 8.65549 2.05744 8.66777 2.01858L8.7627 1.71848L8.50948 1.5315C8.47671 1.50731 8.49359 1.45528 8.53437 1.455L8.84909 1.45256L8.94865 1.15397C8.96177 1.11534 9.01643 1.11534 9.02932 1.15397Z" fill="#F5F5F5"/>
<path d="M9.02932 3.64521L9.12888 3.94381L9.4436 3.94625C9.48434 3.94657 9.50126 3.99856 9.46845 4.02279L9.21523 4.20978L9.31015 4.50987C9.32243 4.54873 9.27818 4.58084 9.24504 4.55717L8.98896 4.37412L8.73288 4.55717C8.69974 4.58089 8.65549 4.54873 8.66777 4.50987L8.7627 4.20978L8.50948 4.02279C8.47671 3.99861 8.49359 3.94657 8.53437 3.94625L8.84909 3.94381L8.94865 3.64521C8.96177 3.60654 9.01643 3.60654 9.02932 3.64521Z" fill="#F5F5F5"/>
<path d="M9.02932 6.40693L9.12888 6.70553L9.4436 6.70796C9.48434 6.70829 9.50126 6.76028 9.46845 6.78451L9.21523 6.9715L9.31015 7.27159C9.32243 7.31045 9.27818 7.34256 9.24504 7.31889L8.98896 7.13589L8.73288 7.31889C8.69974 7.34256 8.65549 7.31045 8.66777 7.27159L8.7627 6.9715L8.50948 6.78451C8.47671 6.76032 8.49359 6.70829 8.53437 6.70796L8.84909 6.70553L8.94865 6.40693C8.96177 6.36826 9.01643 6.36826 9.02932 6.40693Z" fill="#F5F5F5"/>
<path d="M9.02932 8.94502L9.12888 9.24361L9.4436 9.24605C9.48434 9.24638 9.50126 9.29836 9.46845 9.3226L9.21523 9.50958L9.31015 9.80968C9.32243 9.84854 9.27818 9.88064 9.24504 9.85697L8.98896 9.67393L8.73288 9.85697C8.69974 9.88064 8.65549 9.84854 8.66777 9.80968L8.7627 9.50958L8.50948 9.3226C8.47671 9.29841 8.49359 9.24638 8.53437 9.24605L8.84909 9.24361L8.94865 8.94502C8.96177 8.90635 9.01643 8.90635 9.02932 8.94502Z" fill="#F5F5F5"/>
<path d="M9.02932 11.2546L9.12888 11.5532L9.4436 11.5556C9.48434 11.5559 9.50126 11.6079 9.46845 11.6322L9.21523 11.8192L9.31015 12.1192C9.32243 12.1581 9.27818 12.1902 9.24504 12.1665L8.98896 11.9835L8.73288 12.1665C8.69974 12.1902 8.65549 12.1581 8.66777 12.1192L8.7627 11.8192L8.50948 11.6322C8.47671 11.608 8.49359 11.5559 8.53437 11.5556L8.84909 11.5532L8.94865 11.2546C8.96177 11.2159 9.01643 11.2159 9.02932 11.2546Z" fill="#F5F5F5"/>
<path d="M10.2422 2.33369L10.3417 2.63229L10.6565 2.63472C10.6972 2.63505 10.7142 2.68704 10.6813 2.71122L10.4281 2.89821L10.523 3.1983C10.5353 3.23716 10.4911 3.26932 10.4579 3.2456L10.2019 3.06255L9.94578 3.2456C9.91264 3.26932 9.86839 3.23716 9.88067 3.1983L9.97559 2.89821L9.72237 2.71122C9.6896 2.68704 9.70648 2.635 9.74721 2.63472L10.062 2.63229L10.1615 2.33369C10.1746 2.29502 10.2293 2.29502 10.2422 2.33369Z" fill="#F5F5F5"/>
<path d="M10.2422 5.09639L10.3417 5.39498L10.6565 5.39742C10.6972 5.39775 10.7142 5.44973 10.6813 5.47396L10.4281 5.66095L10.523 5.96104C10.5353 5.9999 10.4911 6.03206 10.4579 6.00834L10.2019 5.82529L9.94578 6.00834C9.91264 6.03206 9.86839 5.9999 9.88067 5.96104L9.97559 5.66095L9.72237 5.47396C9.6896 5.44978 9.70648 5.39775 9.74721 5.39742L10.062 5.39498L10.1615 5.09639C10.1746 5.05771 10.2293 5.05771 10.2422 5.09639Z" fill="#F5F5F5"/>
<path d="M10.2422 7.72038L10.3417 8.01897L10.6565 8.02141C10.6972 8.02173 10.7142 8.07372 10.6813 8.09795L10.4281 8.28494L10.523 8.58503C10.5353 8.62389 10.4911 8.656 10.4579 8.63233L10.2019 8.44928L9.94578 8.63233C9.91264 8.65605 9.86839 8.62389 9.88067 8.58503L9.97559 8.28494L9.72237 8.09795C9.6896 8.07377 9.70648 8.02173 9.74721 8.02141L10.062 8.01897L10.1615 7.72038C10.1746 7.68175 10.2293 7.68175 10.2422 7.72038Z" fill="#F5F5F5"/>
<path d="M10.2422 10.0778L10.3417 10.3764L10.6565 10.3789C10.6972 10.3792 10.7142 10.4312 10.6813 10.4554L10.4281 10.6424L10.523 10.9425C10.5353 10.9813 10.4911 11.0135 10.4579 10.9898L10.2019 10.8068L9.94578 10.9898C9.91264 11.0135 9.86839 10.9813 9.88067 10.9425L9.97559 10.6424L9.72237 10.4554C9.6896 10.4312 9.70648 10.3792 9.74721 10.3789L10.062 10.3764L10.1615 10.0778C10.1746 10.0392 10.2293 10.0392 10.2422 10.0778Z" fill="#F5F5F5"/>
<path d="M11.4551 1.15397L11.5546 1.45256L11.8693 1.455C11.9101 1.45533 11.927 1.50731 11.8942 1.5315L11.641 1.71848L11.7359 2.01858C11.7482 2.05744 11.704 2.08955 11.6708 2.06587L11.4147 1.88283L11.1587 2.06587C11.1255 2.08959 11.0813 2.05744 11.0936 2.01858L11.1885 1.71848L10.9353 1.5315C10.9025 1.50731 10.9194 1.45528 10.9601 1.455L11.2748 1.45256L11.3744 1.15397C11.3875 1.11534 11.4422 1.11534 11.4551 1.15397Z" fill="#F5F5F5"/>
<path d="M11.4551 3.64521L11.5546 3.94381L11.8693 3.94625C11.9101 3.94657 11.927 3.99856 11.8942 4.02279L11.641 4.20978L11.7359 4.50987C11.7482 4.54873 11.704 4.58084 11.6708 4.55717L11.4147 4.37412L11.1587 4.55717C11.1255 4.58089 11.0813 4.54873 11.0936 4.50987L11.1885 4.20978L10.9353 4.02279C10.9025 3.99861 10.9194 3.94657 10.9601 3.94625L11.2748 3.94381L11.3744 3.64521C11.3875 3.60654 11.4422 3.60654 11.4551 3.64521Z" fill="#F5F5F5"/>
<path d="M11.4551 6.40693L11.5546 6.70553L11.8693 6.70796C11.9101 6.70829 11.927 6.76028 11.8942 6.78451L11.641 6.9715L11.7359 7.27159C11.7482 7.31045 11.704 7.34256 11.6708 7.31889L11.4147 7.13589L11.1587 7.31889C11.1255 7.34256 11.0813 7.31045 11.0936 7.27159L11.1885 6.9715L10.9353 6.78451C10.9025 6.76032 10.9194 6.70829 10.9601 6.70796L11.2748 6.70553L11.3744 6.40693C11.3875 6.36826 11.4422 6.36826 11.4551 6.40693Z" fill="#F5F5F5"/>
<path d="M11.4551 8.94502L11.5546 9.24361L11.8693 9.24605C11.9101 9.24638 11.927 9.29836 11.8942 9.3226L11.641 9.50958L11.7359 9.80968C11.7482 9.84854 11.704 9.88064 11.6708 9.85697L11.4147 9.67393L11.1587 9.85697C11.1255 9.88064 11.0813 9.84854 11.0936 9.80968L11.1885 9.50958L10.9353 9.3226C10.9025 9.29841 10.9194 9.24638 10.9601 9.24605L11.2748 9.24361L11.3744 8.94502C11.3875 8.90635 11.4422 8.90635 11.4551 8.94502Z" fill="#F5F5F5"/>
<path d="M11.4551 11.2546L11.5546 11.5532L11.8693 11.5556C11.9101 11.5559 11.927 11.6079 11.8942 11.6322L11.641 11.8192L11.7359 12.1192C11.7482 12.1581 11.704 12.1902 11.6708 12.1665L11.4147 11.9835L11.1587 12.1665C11.1255 12.1902 11.0813 12.1581 11.0936 12.1192L11.1885 11.8192L10.9353 11.6322C10.9025 11.608 10.9194 11.5559 10.9601 11.5556L11.2748 11.5532L11.3744 11.2546C11.3875 11.2159 11.4422 11.2159 11.4551 11.2546Z" fill="#F5F5F5"/>
</g>
<defs>
<clipPath id="clip0_727_171986">
<rect width="24" height="24" fill="white"/>
</clipPath>
</defs>
</svg>
