<svg width="179" height="34" viewBox="0 0 179 34" fill="none" xmlns="http://www.w3.org/2000/svg">
<g clip-path="url(#clip0_703_156227)">
<path opacity="0.95" d="M56.0886 33.7383V31.8613H55.3188C54.1058 33.4196 52.2747 34.1987 49.8253 34.1987C47.8893 34.1987 46.3497 33.6321 45.2067 32.4988C44.0637 31.3655 43.4922 29.9961 43.4922 28.3906C43.4922 26.7615 44.052 25.3684 45.1717 24.2115C46.2913 23.0546 47.9826 22.4761 50.2453 22.4761H55.9837V21.7678C55.9837 20.6346 55.6338 19.7374 54.934 19.0763C54.2341 18.3916 53.1495 18.0492 51.6798 18.0492C49.1139 18.0492 47.7493 18.911 47.586 20.6346H44.6118C44.7284 19.0054 45.4166 17.7305 46.6763 16.8097C47.9592 15.8889 49.6038 15.4285 51.6099 15.4285C53.8726 15.4285 55.6454 15.9597 56.9284 17.0221C58.2347 18.0846 58.8878 19.6075 58.8878 21.5908V33.7383H56.0886ZM50.5602 31.578C52.0298 31.578 53.301 31.094 54.3741 30.126C55.4471 29.1343 55.9837 27.9301 55.9837 26.5135V24.8845H50.7001C47.8776 24.8845 46.4663 26.0177 46.4663 28.2843C46.4663 29.2996 46.8162 30.1023 47.516 30.6926C48.2392 31.2829 49.2539 31.578 50.5602 31.578ZM63.109 7.99121H66.0831V33.7383H63.109V7.99121ZM81.8299 33.7383V31.8613H81.0601C79.8466 33.4196 78.0156 34.1987 75.5663 34.1987C73.6305 34.1987 72.091 33.6321 70.9479 32.4988C69.8048 31.3655 69.2332 29.9961 69.2332 28.3906C69.2332 26.7615 69.7933 25.3684 70.9127 24.2115C72.0321 23.0546 73.7239 22.4761 75.9864 22.4761H81.725V21.7678C81.725 20.6346 81.3746 19.7374 80.6753 19.0763C79.9752 18.3916 78.8909 18.0492 77.4211 18.0492C74.8548 18.0492 73.4905 18.911 73.3267 20.6346H70.3526C70.4697 19.0054 71.1575 17.7305 72.4177 16.8097C73.7001 15.8889 75.3452 15.4285 77.3507 15.4285C79.614 15.4285 81.3869 15.9597 82.6692 17.0221C83.9761 18.0846 84.6288 19.6075 84.6288 21.5908V33.7383H81.8299ZM76.3017 31.578C77.7707 31.578 79.0424 31.094 80.1152 30.126C81.1879 29.1343 81.725 27.9301 81.725 26.5135V24.8845H76.4409C73.619 24.8845 72.2073 26.0177 72.2073 28.2843C72.2073 29.2996 72.557 30.1023 73.2571 30.6926C73.9802 31.2829 74.9948 31.578 76.3017 31.578ZM104.526 33.7383H101.552V23.0428C101.552 19.761 100.059 18.1201 97.0725 18.1201C95.533 18.1201 94.2735 18.7103 93.2941 19.8909C92.314 21.0478 91.8243 22.4408 91.8243 24.0699V33.7383H88.8501V15.8889H91.7195V17.8013H92.4892C93.0026 17.093 93.7257 16.5263 94.6584 16.1014C95.5919 15.6528 96.6409 15.4285 97.8078 15.4285C99.954 15.4285 101.61 16.0542 102.776 17.3055C103.943 18.5332 104.526 20.2332 104.526 22.4054V33.7383ZM117.875 15.4285C120.255 15.4285 122.133 16.3021 123.509 18.0492C124.909 19.7964 125.608 22.0512 125.608 24.8136C125.608 27.5288 124.909 29.7718 123.509 31.5426C122.133 33.3134 120.255 34.1987 117.875 34.1987C115.473 34.1987 113.642 33.4078 112.382 31.8259H111.612V33.7383H108.743V7.99121H111.717V17.8013H112.487C113.653 16.2194 115.449 15.4285 117.875 15.4285ZM117.21 31.578C118.937 31.578 120.267 30.9641 121.199 29.7364C122.156 28.485 122.634 26.8441 122.634 24.8136C122.634 22.7831 122.156 21.154 121.199 19.9263C120.267 18.6749 118.937 18.0492 117.21 18.0492C115.368 18.0492 113.98 18.6985 113.047 19.9971C112.137 21.2957 111.682 22.9012 111.682 24.8136C111.682 26.726 112.137 28.3315 113.047 29.6302C113.98 30.9287 115.368 31.578 117.21 31.578ZM140.277 33.7383V31.8613H139.507C138.294 33.4196 136.463 34.1987 134.014 34.1987C132.077 34.1987 130.538 33.6321 129.395 32.4988C128.252 31.3655 127.681 29.9961 127.681 28.3906C127.681 26.7615 128.24 25.3684 129.36 24.2115C130.48 23.0546 132.171 22.4761 134.433 22.4761H140.172V21.7678C140.172 20.6346 139.822 19.7374 139.122 19.0763C138.423 18.3916 137.338 18.0492 135.868 18.0492C133.302 18.0492 131.937 18.911 131.774 20.6346H128.8C128.917 19.0054 129.605 17.7305 130.865 16.8097C132.148 15.8889 133.792 15.4285 135.798 15.4285C138.061 15.4285 139.834 15.9597 141.117 17.0221C142.423 18.0846 143.076 19.6075 143.076 21.5908V33.7383H140.277ZM134.749 31.578C136.218 31.578 137.489 31.094 138.562 30.126C139.636 29.1343 140.172 27.9301 140.172 26.5135V24.8845H134.889C132.066 24.8845 130.655 26.0177 130.655 28.2843C130.655 29.2996 131.005 30.1023 131.704 30.6926C132.428 31.2829 133.442 31.578 134.749 31.578ZM152.196 22.6179L153.876 22.9012L155.87 23.2199C159.229 23.8102 160.908 25.6045 160.908 28.6031C160.908 30.1613 160.267 31.4835 158.984 32.5696C157.701 33.6557 155.928 34.1987 153.665 34.1987C151.24 34.1987 149.374 33.7029 148.067 32.7113C146.784 31.7196 146.038 30.3385 145.828 28.5677H148.836C149.117 30.5745 150.68 31.578 153.525 31.578C154.902 31.578 155.975 31.3301 156.744 30.8343C157.538 30.3385 157.934 29.6183 157.934 28.6739C157.934 27.8948 157.678 27.2809 157.164 26.8323C156.651 26.3837 155.835 26.0649 154.715 25.8761L150.762 25.2031C147.939 24.6838 146.527 23.1845 146.527 20.7054C146.527 19.1471 147.111 17.8839 148.277 16.9159C149.467 15.9243 151.205 15.4285 153.491 15.4285C155.543 15.4285 157.164 15.8889 158.354 16.8097C159.567 17.7069 160.267 18.9464 160.454 20.5283H157.48C157.363 19.7019 156.931 19.0881 156.185 18.6867C155.438 18.2617 154.493 18.0492 153.351 18.0492C152.184 18.0492 151.251 18.2617 150.551 18.6867C149.875 19.0881 149.537 19.6665 149.537 20.4221C149.537 21.0832 149.746 21.579 150.166 21.9096C150.586 22.2401 151.263 22.4761 152.196 22.6179ZM179.338 23.7511V24.7782H165.902C165.948 26.9267 166.45 28.6031 167.406 29.8072C168.362 30.9877 169.739 31.578 171.535 31.578C173.961 31.578 175.454 30.6571 176.014 28.8156H179.022C178.719 30.4211 177.915 31.7196 176.608 32.7113C175.325 33.7029 173.634 34.1987 171.535 34.1987C168.852 34.1987 166.753 33.3134 165.237 31.5426C163.72 29.7718 162.962 27.4698 162.962 24.6366C162.962 21.8505 163.72 19.6193 165.237 17.943C166.753 16.2666 168.829 15.4285 171.465 15.4285C173.961 15.4285 175.885 16.2312 177.238 17.8367C178.591 19.4186 179.291 21.3901 179.338 23.7511ZM171.395 18.0492C169.879 18.0492 168.665 18.4506 167.756 19.2533C166.846 20.0325 166.287 21.036 166.076 22.2637H176.259C176.165 21.0595 175.687 20.0561 174.824 19.2533C173.961 18.4506 172.818 18.0492 171.395 18.0492Z" fill="#2A2C3A"/>
<path d="M16.2688 0.477539C12.1571 0.692088 8.26741 2.43151 5.34216 5.36388C2.42632 8.29257 0.692335 12.2011 0.476562 16.3358H16.2688V0.477539ZM12.7426 9.82035C12.4619 9.82058 12.1874 9.7371 11.9534 9.58032C11.7783 9.46455 11.6311 9.31053 11.5226 9.12957C11.4141 8.94861 11.347 8.74531 11.3263 8.53474C11.3056 8.32409 11.3318 8.11146 11.403 7.91237C11.4742 7.71335 11.5885 7.533 11.7376 7.38456C11.9369 7.18417 12.1904 7.04797 12.4661 6.99304C12.7417 6.9381 13.0273 6.96679 13.2869 7.07567C13.5463 7.18387 13.7689 7.36589 13.9245 7.60103C14.1069 7.8751 14.1891 8.20504 14.1567 8.5339C14.1244 8.86276 13.9797 9.16989 13.7476 9.40227C13.4802 9.67038 13.1189 9.82065 12.7426 9.82035ZM0.476562 18.0476H16.2688V33.9059C12.1572 33.6918 8.26756 31.9527 5.34216 29.0205C2.42632 26.0928 0.692335 22.1834 0.476562 18.0496V18.0476ZM33.7688 33.9059L17.9746 33.9256V18.0692C22.0842 18.2802 25.9732 20.0155 28.8993 22.9438C31.8114 25.8585 33.5472 29.7659 33.7688 33.905V33.9059ZM17.9746 16.3339V0.477539C22.0842 0.688338 25.9732 2.42363 28.8993 5.35209C31.8151 8.27589 33.5501 12.1814 33.7688 16.3132L17.9746 16.3339Z" fill="#2A2C3A"/>
</g>
<defs>
<clipPath id="clip0_703_156227">
<rect width="179" height="34" fill="white"/>
</clipPath>
</defs>
</svg>
