<svg width="622" height="497" viewBox="0 0 622 497" fill="none" xmlns="http://www.w3.org/2000/svg">
<path d="M189.821 466.263C189.821 466.263 177.614 468.902 166.717 467.267C156.5 465.737 133.624 467.321 133.633 480.786C133.642 495.805 164.146 492.093 176.048 489.713C187.95 487.332 199.802 485.175 199.802 485.175L189.821 466.263Z" fill="#4971FF"/>
<path d="M162.426 485.503C162.268 485.538 161.608 483.198 160.951 480.277C160.295 477.353 159.89 474.956 160.048 474.921C160.205 474.886 160.866 477.225 161.521 480.149C162.178 483.07 162.583 485.467 162.426 485.503Z" fill="#17282F"/>
<path d="M166.589 485.701C166.428 485.723 165.968 483.323 165.559 480.342C165.149 477.36 164.948 474.925 165.107 474.904C165.268 474.881 165.728 477.28 166.138 480.262C166.547 483.244 166.749 485.679 166.589 485.701Z" fill="#17282F"/>
<path d="M170.609 484.13C170.449 484.151 170.063 482.054 169.749 479.448C169.435 476.843 169.31 474.716 169.47 474.696C169.631 474.676 170.016 476.773 170.331 479.379C170.644 481.984 170.77 484.113 170.609 484.13Z" fill="#17282F"/>
<path d="M176.924 482.555C176.782 482.617 175.915 480.865 175.353 478.535C174.783 476.205 174.752 474.252 174.905 474.241C175.073 474.225 175.364 476.117 175.922 478.397C176.471 480.679 177.08 482.492 176.924 482.555Z" fill="#17282F"/>
<path d="M198.594 483.188C198.596 483.198 198.492 483.232 198.286 483.285C198.049 483.345 197.747 483.421 197.371 483.515C196.522 483.707 195.338 483.977 193.832 484.32C190.754 484.997 186.287 485.948 180.739 487.02C175.19 488.082 168.563 489.301 161.131 490.312C157.426 490.81 153.458 491.261 149.35 490.9C147.3 490.749 145.212 490.397 143.18 489.72C142.172 489.358 141.16 488.964 140.218 488.405C139.274 487.844 138.364 487.234 137.617 486.309L137.662 486.359C137.285 485.994 136.89 485.578 136.601 485.084C135.353 483.091 135.314 480.616 135.98 478.512C136.664 476.365 138.192 474.655 139.892 473.398C141.616 472.144 143.532 471.268 145.455 470.642C146.429 470.365 147.377 470.031 148.34 469.812C149.311 469.62 150.259 469.361 151.214 469.23C158.864 468.021 165.822 468.636 171.603 468.637C174.501 468.691 177.119 468.612 179.414 468.472C181.706 468.299 183.67 468.039 185.258 467.733C186.045 467.568 186.748 467.421 187.363 467.291C187.952 467.123 188.457 466.98 188.879 466.858C189.264 466.753 189.573 466.669 189.816 466.601C190.028 466.546 190.138 466.522 190.142 466.531C190.145 466.541 190.042 466.583 189.835 466.658C189.597 466.739 189.294 466.842 188.914 466.972C188.494 467.108 187.993 467.27 187.408 467.459C186.791 467.605 186.089 467.771 185.303 467.957C183.714 468.299 181.741 468.593 179.439 468.799C177.136 468.971 174.504 469.078 171.601 469.052C170.121 469.064 168.566 469.036 166.944 469.009C162.216 468.929 156.925 468.849 151.303 469.76C150.36 469.896 149.427 470.153 148.472 470.347C147.522 470.564 146.592 470.897 145.635 471.17C143.748 471.791 141.886 472.65 140.234 473.859C138.601 475.069 137.164 476.696 136.533 478.692C135.909 480.66 135.963 482.974 137.095 484.775C137.356 485.22 137.714 485.593 138.052 485.924L138.071 485.943L138.097 485.974C138.717 486.744 139.618 487.38 140.509 487.899C141.41 488.435 142.389 488.817 143.364 489.171C145.338 489.83 147.381 490.18 149.397 490.332C153.441 490.695 157.355 490.264 161.061 489.783C168.478 488.803 175.108 487.629 180.664 486.618C186.217 485.599 190.694 484.709 193.786 484.101C195.301 483.802 196.493 483.568 197.346 483.4C197.728 483.331 198.033 483.274 198.274 483.229C198.483 483.192 198.592 483.18 198.594 483.188Z" fill="#17282F"/>
<path d="M153.96 490.42C153.874 490.42 153.804 489.227 153.664 487.3C153.526 485.376 153.297 482.722 152.907 479.805C152.515 476.889 152.038 474.267 151.665 472.373C151.292 470.48 151.046 469.309 151.129 469.287C151.202 469.267 151.591 470.404 152.068 472.284C152.548 474.162 153.093 476.791 153.487 479.727C153.88 482.663 154.045 485.343 154.078 487.281C154.111 489.222 154.036 490.419 153.96 490.42Z" fill="#17282F"/>
<path d="M286.871 413.81C285.628 414.224 205.693 391.825 173.367 382.735C164.876 380.349 155.771 381.727 148.368 386.519L147.978 386.772C137.11 393.807 131.822 406.902 134.756 419.511C136.618 427.517 141.607 434.438 148.617 438.734C169.935 451.792 215.048 479.267 216.427 478.732C218.236 478.032 274.577 476.57 274.577 476.57L206.797 427.825L239.042 448.664L286.871 413.81Z" fill="#17282F"/>
<path d="M213.786 348.741L229.459 400.316C229.639 400.905 230.162 401.324 230.777 401.37L273.489 404.575C274.267 404.634 274.871 405.283 274.871 406.066V408.732C274.871 409.568 274.184 410.24 273.349 410.226L156.591 408.032C155.983 408.02 155.441 407.639 155.223 407.07L134.691 353.276C134.328 352.326 135.001 351.299 136.016 351.251L212.286 347.683C212.969 347.652 213.587 348.088 213.786 348.741Z" fill="#33535F"/>
<path d="M515.227 118.448H621.001C621.001 118.448 611.649 101.416 584.421 103.896C558.417 106.262 557.096 95.5157 543.873 94.1917C530.652 92.8695 519.634 103.014 515.227 118.448Z" fill="#F3F2F1"/>
<path d="M179.867 37.5332H342.673C342.673 37.5332 328.278 11.3041 286.369 15.1235C246.345 18.7659 244.311 2.21715 223.959 0.178165C203.61 -1.85809 186.651 13.765 179.867 37.5332Z" fill="#F3F2F1"/>
<path d="M251.859 119.373C249.054 117.504 245.205 118.635 242.402 120.505C239.598 122.376 237.202 124.939 234.061 126.159C228.16 128.453 220.427 125.735 215.84 130.1C212.931 132.869 212.634 137.415 210.41 140.761C206.666 146.397 197.677 148.514 196.907 155.237C196.457 159.157 199.559 162.917 203.35 164.017C207.141 165.117 211.311 163.956 214.598 161.772C218.437 159.22 221.454 155.285 225.828 153.832C230.299 152.348 235.817 153.591 239.346 150.47C242.88 147.342 242.345 141.606 244.874 137.621C246.22 135.499 248.342 134.02 250.245 132.378C252.148 130.736 253.957 128.704 254.275 126.212C254.594 123.72 253.572 119.469 251.859 119.373Z" fill="#F3F2F1"/>
<path d="M183.895 321.278C184.038 321.397 183.298 322.649 182.238 324.074C181.182 325.503 180.186 326.568 180.051 326.48C179.876 326.363 180.628 325.12 181.696 323.676C182.766 322.235 183.751 321.161 183.895 321.278Z" fill="#17282F"/>
<path d="M192.584 311.703C192.716 311.834 191.827 312.985 190.597 314.275C189.368 315.565 188.262 316.51 188.123 316.385C187.986 316.259 188.876 315.109 190.11 313.813C191.343 312.516 192.452 311.571 192.584 311.703Z" fill="#17282F"/>
<path d="M201.685 302.511C201.819 302.639 200.911 303.776 199.655 305.05C198.4 306.323 197.277 307.249 197.145 307.117C197.015 306.986 197.922 305.849 199.175 304.577C200.427 303.308 201.552 302.382 201.685 302.511Z" fill="#17282F"/>
<path d="M210.18 292.764C210.328 292.875 209.527 294.09 208.389 295.477C207.251 296.866 206.217 297.889 206.078 297.765C205.939 297.641 206.74 296.426 207.867 295.052C208.996 293.678 210.031 292.653 210.18 292.764Z" fill="#17282F"/>
<path d="M216.777 281.67C216.947 281.739 216.521 283.148 215.691 284.747C214.864 286.348 213.97 287.512 213.815 287.416C213.653 287.316 214.28 286.013 215.093 284.438C215.91 282.865 216.604 281.597 216.777 281.67Z" fill="#17282F"/>
<path d="M219.924 269.179C220.106 269.191 220.151 270.663 219.854 272.443C219.56 274.224 219.04 275.601 218.864 275.553C218.68 275.505 218.903 274.078 219.19 272.333C219.482 270.587 219.735 269.165 219.924 269.179Z" fill="#17282F"/>
<path d="M218.964 256.332C219.141 256.286 219.647 257.669 219.922 259.453C220.2 261.236 220.139 262.707 219.957 262.718C219.768 262.729 219.529 261.305 219.256 259.556C218.988 257.807 218.781 256.378 218.964 256.332Z" fill="#17282F"/>
<path d="M213.886 244.509C214.035 244.405 214.986 245.531 215.837 247.123C216.691 248.713 217.107 250.125 216.939 250.193C216.763 250.266 216.081 248.996 215.243 247.441C214.411 245.884 213.728 244.615 213.886 244.509Z" fill="#17282F"/>
<path d="M204.866 235.334C204.966 235.181 206.273 235.869 207.658 237.03C209.049 238.188 209.954 239.354 209.822 239.478C209.685 239.61 208.585 238.676 207.226 237.545C205.873 236.412 204.762 235.491 204.866 235.334Z" fill="#17282F"/>
<path d="M193.116 230.089C193.155 229.91 194.619 230.089 196.33 230.675C198.041 231.258 199.308 232.013 199.23 232.177C199.15 232.349 197.785 231.881 196.111 231.313C194.44 230.737 193.074 230.273 193.116 230.089Z" fill="#17282F"/>
<path d="M180.274 229.504C180.242 229.326 181.665 228.924 183.472 228.832C185.28 228.736 186.737 228.982 186.724 229.163C186.712 229.353 185.271 229.41 183.508 229.504C181.745 229.593 180.306 229.691 180.274 229.504Z" fill="#17282F"/>
<path d="M168.351 234.255C168.245 234.109 169.355 233.131 170.951 232.275C172.548 231.413 173.979 231.033 174.042 231.203C174.109 231.38 172.823 232.029 171.271 232.867C169.716 233.699 168.461 234.412 168.351 234.255Z" fill="#17282F"/>
<path d="M159.475 243.548C159.318 243.455 159.948 242.119 161.061 240.69C162.169 239.26 163.309 238.319 163.437 238.447C163.572 238.58 162.674 239.707 161.592 241.104C160.506 242.496 159.638 243.647 159.475 243.548Z" fill="#17282F"/>
<path d="M155.122 255.625C154.941 255.608 154.942 254.126 155.372 252.364C155.798 250.602 156.469 249.283 156.637 249.349C156.815 249.417 156.44 250.809 156.028 252.523C155.608 254.236 155.31 255.645 155.122 255.625Z" fill="#17282F"/>
<path d="M156.654 268.352C156.486 268.418 155.818 267.098 155.39 265.338C154.958 263.577 154.951 262.097 155.13 262.079C155.319 262.057 155.624 263.465 156.045 265.178C156.46 266.892 156.833 268.285 156.654 268.352Z" fill="#17282F"/>
<path d="M163.21 279.428C163.071 279.548 162.001 278.54 160.948 277.075C159.892 275.611 159.284 274.269 159.443 274.177C159.606 274.083 160.459 275.246 161.494 276.681C162.527 278.118 163.353 279.305 163.21 279.428Z" fill="#17282F"/>
<path d="M183.932 294.567C183.858 294.738 182.5 294.216 180.897 293.401C179.296 292.587 178.074 291.796 178.167 291.636C178.261 291.475 179.62 291.996 181.202 292.802C182.784 293.606 184.007 294.397 183.932 294.567Z" fill="#17282F"/>
<path d="M196.231 298.481C196.199 298.661 194.736 298.549 192.993 298.099C191.248 297.653 189.91 297.05 189.969 296.876C190.028 296.698 191.441 297.007 193.16 297.447C194.877 297.891 196.265 298.295 196.231 298.481Z" fill="#17282F"/>
<path d="M209.108 299.145C209.128 299.327 207.69 299.635 205.886 299.668C204.085 299.705 202.636 299.455 202.649 299.274C202.66 299.084 204.104 299.03 205.875 298.995C207.643 298.964 209.087 298.957 209.108 299.145Z" fill="#17282F"/>
<path d="M221.546 295.819C221.625 295.983 220.365 296.745 218.665 297.353C216.968 297.966 215.51 298.179 215.466 298.002C215.419 297.82 216.774 297.321 218.438 296.72C220.102 296.123 221.466 295.647 221.546 295.819Z" fill="#17282F"/>
<path d="M232.331 288.758C232.452 288.893 231.472 289.988 230.042 291.084C228.613 292.183 227.3 292.846 227.202 292.691C227.1 292.533 228.228 291.631 229.632 290.549C231.038 289.472 232.203 288.618 232.331 288.758Z" fill="#17282F"/>
<path d="M240.747 278.978C240.9 279.077 240.241 280.39 239.158 281.83C238.077 283.271 236.999 284.27 236.864 284.15C236.72 284.024 237.557 282.844 238.619 281.425C239.685 280.008 240.586 278.877 240.747 278.978Z" fill="#17282F"/>
<path d="M246.342 267.354C246.517 267.408 246.221 268.848 245.543 270.518C244.871 272.189 244.087 273.432 243.924 273.35C243.754 273.266 244.257 271.91 244.92 270.266C245.586 268.623 246.162 267.297 246.342 267.354Z" fill="#17282F"/>
<path d="M248.844 254.691C249.028 254.703 249.076 256.169 248.83 257.951C248.589 259.734 248.146 261.133 247.966 261.096C247.783 261.057 247.925 259.619 248.164 257.859C248.405 256.103 248.657 254.677 248.844 254.691Z" fill="#17282F"/>
<path d="M248.511 241.779C248.696 241.753 248.958 243.185 249.097 244.977C249.236 246.769 249.197 248.224 249.011 248.227C248.825 248.23 248.563 246.798 248.426 245.029C248.289 243.259 248.328 241.804 248.511 241.779Z" fill="#17282F"/>
<path d="M245.705 229.162C245.882 229.104 246.406 230.464 246.876 232.197C247.344 233.933 247.578 235.369 247.396 235.409C247.214 235.448 246.69 234.09 246.226 232.373C245.761 230.658 245.529 229.221 245.705 229.162Z" fill="#17282F"/>
<path d="M240.756 217.218C240.919 217.135 241.701 218.368 242.478 219.984C243.204 221.627 243.653 223.015 243.48 223.086C243.308 223.156 242.585 221.894 241.869 220.268C241.098 218.667 240.59 217.306 240.756 217.218Z" fill="#17282F"/>
<path d="M234.397 205.957C234.557 205.862 235.419 207.035 236.324 208.576C237.229 210.12 237.831 211.443 237.669 211.535C237.508 211.628 236.646 210.456 235.742 208.916C234.84 207.377 234.238 206.052 234.397 205.957Z" fill="#17282F"/>
<path d="M227.982 194.729C228.146 194.643 228.981 195.837 229.842 197.396C230.705 198.955 231.273 200.294 231.112 200.387C230.952 200.481 230.12 199.287 229.252 197.719C228.386 196.154 227.816 194.813 227.982 194.729Z" fill="#17282F"/>
<path d="M222.932 182.843C223.11 182.79 223.756 184.093 224.374 185.752C224.993 187.413 225.357 188.821 225.186 188.896C225.017 188.971 224.37 187.669 223.743 185.986C223.116 184.303 222.755 182.896 222.932 182.843Z" fill="#17282F"/>
<path d="M220.731 170.131C220.919 170.124 221.116 171.557 221.305 173.32C221.491 175.081 221.601 176.524 221.416 176.558C221.236 176.591 220.824 175.181 220.635 173.391C220.444 171.6 220.548 170.136 220.731 170.131Z" fill="#17282F"/>
<path d="M221.8 157.27C221.985 157.31 221.822 158.747 221.567 160.503C221.309 162.257 221.054 163.681 220.865 163.667C220.683 163.654 220.639 162.187 220.902 160.404C221.16 158.623 221.622 157.229 221.8 157.27Z" fill="#17282F"/>
<path d="M226.013 145.074C226.181 145.159 225.664 146.508 224.983 148.143C224.298 149.78 223.701 151.096 223.521 151.036C223.348 150.978 223.666 149.546 224.361 147.885C225.054 146.223 225.85 144.989 226.013 145.074Z" fill="#17282F"/>
<path d="M233.218 134.37C233.359 134.497 232.506 135.664 231.421 137.067C230.334 138.466 229.418 139.585 229.26 139.481C229.106 139.38 229.783 138.077 230.889 136.654C231.99 135.23 233.082 134.248 233.218 134.37Z" fill="#17282F"/>
<path d="M242.921 125.865C243.025 126.023 241.908 126.942 240.505 128.026C239.1 129.108 237.927 129.955 237.801 129.814C237.679 129.678 238.667 128.591 240.094 127.494C241.519 126.392 242.82 125.712 242.921 125.865Z" fill="#17282F"/>
<path d="M254.427 120.015C254.489 120.193 253.179 120.807 251.553 121.513C249.925 122.216 248.579 122.746 248.492 122.579C248.407 122.418 249.633 121.609 251.286 120.895C252.938 120.179 254.367 119.842 254.427 120.015Z" fill="#17282F"/>
<path d="M263.799 117.645C263.826 117.828 263.142 118.109 262.271 118.269C261.4 118.429 260.66 118.412 260.619 118.23C260.579 118.049 261.264 117.77 262.148 117.607C263.033 117.443 263.773 117.461 263.799 117.645Z" fill="#17282F"/>
<path d="M290.18 79.5846C290.18 79.5846 305.361 68.7567 326.371 75.7495C326.371 75.7495 328.097 93.1424 311.247 106.976" fill="#F03D5F"/>
<path d="M242.318 111.721C242.965 112.69 259.439 139.179 259.439 139.179L308.912 108.7C317.549 103.379 319.782 91.805 313.744 83.6527C308.236 76.2178 297.858 74.4276 290.179 79.5837L242.318 111.721Z" fill="#F03D5F"/>
<path d="M259.44 139.18L258.332 157.815C258.332 157.815 290.393 142.29 282.391 125.04L259.44 139.18Z" fill="#17282F"/>
<path d="M265.235 96.3344C265.235 96.3344 243.499 86.7435 225.598 100.809L242.318 111.721L265.235 96.3344Z" fill="#17282F"/>
<path d="M265.082 111.734L234.143 131.087C234.143 131.087 235.204 134.415 236.038 134.137C236.734 133.905 259.981 120.178 267.519 115.721C268.753 114.992 269.036 113.341 268.128 112.235C267.382 111.325 266.078 111.111 265.082 111.734Z" fill="#17282F"/>
<path d="M303.483 97.0693C303.483 102.539 299.048 106.976 293.578 106.976C288.107 106.976 283.672 102.539 283.672 97.0693C283.672 91.5991 288.107 87.1643 293.578 87.1643C299.048 87.1643 303.483 91.5991 303.483 97.0693Z" fill="#FAFAF9"/>
<path d="M303.483 97.0691C303.406 97.0743 303.447 96.1863 303.046 94.683C302.65 93.2069 301.649 91.047 299.426 89.3847C298.325 88.573 296.944 87.8854 295.354 87.6139C293.776 87.3515 291.997 87.4084 290.309 88.0573C288.621 88.6674 287.011 89.8191 285.867 91.4089C284.691 92.9781 284.029 94.9919 284.008 97.0678C284.029 99.1437 284.689 101.159 285.867 102.728C287.011 104.319 288.621 105.471 290.309 106.081C291.997 106.73 293.776 106.785 295.356 106.524C296.944 106.253 298.326 105.564 299.427 104.753C301.649 103.09 302.65 100.93 303.046 99.4552C303.447 97.952 303.406 97.0639 303.483 97.0691C303.505 97.0691 303.518 97.2863 303.518 97.7051C303.527 98.1213 303.476 98.7417 303.3 99.5186C302.971 101.052 302.008 103.336 299.715 105.131C298.581 106.009 297.135 106.76 295.458 107.074C293.792 107.375 291.904 107.337 290.097 106.663C288.293 106.029 286.565 104.812 285.336 103.118C284.07 101.447 283.353 99.2884 283.336 97.0678C283.354 94.8472 284.071 92.6899 285.336 91.0186C286.566 89.324 288.293 88.109 290.097 87.4743C291.904 86.8009 293.792 86.7621 295.458 87.0646C297.135 87.3774 298.579 88.1297 299.715 89.006C302.007 90.8014 302.971 93.0854 303.3 94.6184C303.476 95.3952 303.527 96.017 303.518 96.4332C303.518 96.852 303.505 97.0691 303.483 97.0691Z" fill="#17282F"/>
<path d="M315.544 103.671C315.416 103.684 315.267 101.749 314.508 98.7371C314.14 97.2299 313.56 95.4733 312.785 93.5784C311.98 91.6951 310.962 89.6826 309.69 87.6907C308.397 85.7118 306.982 83.9552 305.597 82.4454C304.188 80.9603 302.826 79.709 301.603 78.7525C299.172 76.8227 297.468 75.8895 297.533 75.7783C297.556 75.737 297.993 75.9464 298.766 76.3613C299.158 76.5629 299.626 76.8253 300.144 77.1756C300.664 77.5194 301.278 77.8852 301.893 78.3751C303.17 79.2954 304.588 80.5311 306.047 82.0189C307.481 83.5312 308.939 85.3098 310.256 87.3249C311.551 89.3543 312.572 91.4146 313.359 93.3432C314.114 95.2846 314.657 97.0852 314.971 98.6285C315.165 99.3911 315.245 100.101 315.343 100.717C315.449 101.331 315.497 101.868 315.521 102.306C315.58 103.184 315.59 103.667 315.544 103.671Z" fill="#17282F"/>
<path d="M312.874 105.096C312.746 105.11 312.59 103.14 311.819 100.078C311.444 98.5435 310.855 96.7559 310.07 94.8261C309.253 92.9105 308.223 90.8605 306.935 88.8298C305.626 86.8121 304.191 85.0193 302.791 83.4773C301.364 81.9585 299.987 80.6776 298.75 79.6978C296.286 77.7189 294.563 76.7559 294.629 76.6447C294.652 76.6046 295.093 76.8205 295.877 77.2497C296.273 77.4578 296.747 77.7305 297.271 78.0885C297.797 78.4427 298.419 78.8189 299.04 79.3217C300.333 80.2678 301.768 81.532 303.244 83.052C304.694 84.5967 306.169 86.4114 307.502 88.4653C308.814 90.5335 309.845 92.6313 310.645 94.5921C311.41 96.5685 311.961 98.4001 312.282 99.9693C312.479 100.745 312.562 101.466 312.664 102.092C312.771 102.717 312.821 103.263 312.845 103.709C312.908 104.599 312.92 105.092 312.874 105.096Z" fill="#17282F"/>
<path d="M35.9414 493.048L84.1067 493.424L84.5819 432.627L36.416 432.251L35.9414 493.048Z" fill="#E7E8E5"/>
<path d="M65.7494 434.406L64.8931 493.274L57.2832 493.215L58.9136 434.353L65.7494 434.406Z" fill="#FAFAF9"/>
<path d="M8.76758 433.962L36.4022 434.177L84.5681 434.553L36.3494 440.897L35.9426 493.048L8.32031 492.832L8.76758 433.962Z" fill="#DADBD8"/>
<path d="M23.8119 434.079L22.714 492.945L14.5137 492.881L15.854 434.016L23.8119 434.079Z" fill="#FAFAF9"/>
<path d="M45.679 416.162C45.6881 416.462 44.8797 416.777 43.3995 417.078C41.9172 417.373 39.7607 417.671 37.0343 417.765C35.6721 417.809 34.1654 417.795 32.538 417.657C31.7248 417.585 30.8806 417.491 30.0135 417.344C29.1328 417.195 28.2964 417.054 27.2581 416.742C26.7457 416.576 26.2035 416.373 25.6281 416.032C25.0625 415.697 24.4365 415.204 23.9635 414.467C23.4752 413.734 23.2622 412.814 23.2534 412.072C23.2374 411.317 23.3584 410.688 23.4759 410.149C23.9361 408.227 24.4039 406.248 25.3062 404.14C25.7622 403.099 26.3216 402.074 27.0099 401.129C27.367 400.656 27.7216 400.224 28.1506 399.777C28.5883 399.334 29.0819 398.914 29.6602 398.552C30.2406 398.192 30.9161 397.89 31.6716 397.739C32.4231 397.587 33.2462 397.615 33.9524 397.793C35.3785 398.164 36.3131 398.903 37.0666 399.511C39.962 401.926 42.0281 404.645 43.3802 407.104C44.7368 409.571 45.3756 411.769 45.629 413.298C45.8691 414.839 45.7481 415.718 45.4682 415.782C44.8272 415.943 43.8254 412.787 40.7954 408.77C39.2779 406.779 37.2281 404.594 34.5996 402.668C33.9778 402.208 33.3917 401.895 33.0172 401.84C32.6721 401.794 32.431 401.84 31.9502 402.144C31.7251 402.298 31.4824 402.508 31.2456 402.762C31.0078 403.021 30.7465 403.35 30.5149 403.666C30.0533 404.324 29.6501 405.064 29.294 405.875C28.5933 407.49 28.0991 409.361 27.6215 411.132C27.5204 411.521 27.4695 411.83 27.4649 412.013C27.464 412.204 27.4705 412.223 27.4845 412.264C27.4783 412.357 27.9163 412.72 28.5609 412.953C29.1876 413.191 30.0272 413.411 30.772 413.597C31.5307 413.79 32.2823 413.941 33.0133 414.082C34.4769 414.356 35.8717 414.544 37.1582 414.694C39.7336 414.987 41.8715 415.161 43.3541 415.386C44.8386 415.605 45.6698 415.861 45.679 416.162Z" fill="#DADBD8"/>
<path d="M44.6849 416.603C44.5766 415.981 48.1892 414.979 53.8534 413.418C56.6721 412.611 59.9915 411.613 63.4361 410.102C64.2872 409.738 65.0845 409.334 65.6073 408.911C65.866 408.706 66.0207 408.503 66.0445 408.426C66.0669 408.345 66.0611 408.404 66.0366 408.219C66.0046 408.042 65.8745 407.698 65.6559 407.244C65.4269 406.765 65.196 406.284 64.9637 405.798C64.4989 404.848 64.0116 403.947 63.4671 403.118C62.9188 402.295 62.3271 401.569 61.6636 400.972C61.3394 400.665 60.9812 400.401 60.6302 400.153C60.2998 399.93 59.9637 399.751 59.6428 399.63C58.9894 399.384 58.4489 399.35 57.9009 399.503C57.3398 399.654 56.6946 400.057 56.0356 400.604C53.2424 402.981 51.0161 405.591 49.451 407.931C46.266 412.641 45.5464 416.283 44.8839 416.178C44.603 416.14 44.407 415.17 44.5867 413.431C44.7704 411.701 45.3856 409.204 46.7886 406.392C48.186 403.571 50.3396 400.498 53.3922 397.591C54.2063 396.848 55.2271 396.026 56.6392 395.545C58.0555 395.046 59.7308 395.125 61.0846 395.621C61.7728 395.859 62.4018 396.183 62.9837 396.555C63.5321 396.92 64.0624 397.307 64.5521 397.751C65.546 398.624 66.3847 399.651 67.0938 400.718C67.7971 401.788 68.3654 402.873 68.8586 403.915C69.0954 404.432 69.3306 404.944 69.5638 405.453C69.797 405.986 70.0972 406.646 70.241 407.53C70.4021 408.397 70.2531 409.568 69.7602 410.41C69.2876 411.262 68.6753 411.803 68.1178 412.219C66.9852 413.031 65.915 413.448 64.9442 413.815C61.0823 415.256 57.4912 415.981 54.495 416.426C51.4934 416.862 49.0638 417.012 47.3744 417.03C45.6854 417.039 44.7325 416.898 44.6849 416.603Z" fill="#FAFAF9"/>
<path d="M0 433.893L70.7984 434.446L70.9553 414.322L0.156902 413.77L0 433.893Z" fill="#DADBD8"/>
<path d="M26.0332 434.096L90.029 434.596L90.1859 414.473L26.1904 413.973L26.0332 434.096Z" fill="#E7E8E5"/>
<path d="M70.5513 414.319L70.1002 434.536L62.6367 434.382L63.1576 414.261L70.5513 414.319Z" fill="#FAFAF9"/>
<path d="M17.5229 414.005L16.8013 434.041L8.5957 433.975L9.03579 413.838L17.5229 414.005Z" fill="#FAFAF9"/>
<path d="M92.0562 378.68C77.5202 363.803 54.7457 357.552 34.6523 362.925C52.1067 374.629 71.7211 380.9 92.7351 381.073" fill="#F03D5F"/>
<path d="M72.5872 309.733C74.9792 292.818 68.4053 273.789 55.7403 261.494C55.3217 278.258 62.3996 297.123 72.5872 309.733Z" fill="#F03D5F"/>
<path d="M82.7135 341.688C73.6883 324.436 58.8733 310.278 41.2305 302.044C46.5171 321.52 63.1759 337.453 82.8684 341.868" fill="#F03D5F"/>
<path d="M84.8107 347.853C74.5941 348.139 64.2546 347.78 54.3736 345.166C44.493 342.551 35.03 337.526 28.4551 329.7C48.3304 329.724 68.1591 335.777 84.6579 346.858" fill="#F03D5F"/>
<path d="M85.0595 400.79C88.5951 411.24 87.9162 423.869 80.0577 432.875C76.8606 422.152 78.7503 410.031 85.0595 400.79Z" fill="#F03D5F"/>
<path d="M71.2571 394.986C70.2736 408.421 61.6838 421.041 49.5456 426.882C48.943 427.173 48.2454 427.45 47.6259 427.198C46.6685 426.808 46.5814 425.501 46.6991 424.475C48.2385 411.087 58.1566 398.14 71.2571 394.986Z" fill="#F03D5F"/>
<path d="M62.2396 393.628C56.262 400.086 47.545 403.923 38.7451 403.968C29.9449 404.013 21.1894 400.265 15.1465 393.869C30.1158 392.23 47.3877 391.138 62.2396 393.628Z" fill="#F03D5F"/>
<path d="M53.5051 317.138C53.4791 317.168 53.8643 317.536 54.5836 318.177C55.3955 318.882 56.4289 319.778 57.6639 320.849C60.2817 323.086 63.9237 326.148 67.9688 329.502C72.0157 332.857 75.6988 335.87 78.3827 338.027C79.6648 339.043 80.7366 339.892 81.5792 340.559C82.3418 341.147 82.7751 341.457 82.7999 341.426C82.8241 341.395 82.4378 341.027 81.7185 340.386C80.9062 339.682 79.8725 338.784 78.6369 337.713C76.0195 335.475 72.3788 332.415 68.3342 329.062C64.2913 325.709 60.6101 322.699 57.9264 320.541C56.6438 319.526 55.5713 318.675 54.7284 318.008C53.9651 317.42 53.531 317.108 53.5051 317.138Z" fill="#17282F"/>
<path d="M49.8244 336.939C49.7794 337.091 57.6392 339.547 67.3775 342.424C77.1188 345.302 85.0498 347.512 85.0949 347.36C85.1391 347.208 77.2813 344.753 67.5396 341.875C57.8013 338.997 49.8691 336.788 49.8244 336.939Z" fill="#17282F"/>
<path d="M81.5417 425.345C81.6983 425.368 82.6342 419.854 83.6323 413.032C84.6302 406.208 85.3125 400.659 85.1563 400.636C85.0002 400.613 84.0641 406.125 83.0661 412.95C82.0679 419.772 81.3858 425.322 81.5417 425.345Z" fill="#17282F"/>
<path d="M53.8648 415.293C53.9307 415.343 54.862 414.194 56.3589 412.332C57.8548 410.469 59.9276 407.904 62.2703 405.115C64.6151 402.326 66.7859 399.842 68.3627 398.047C69.9386 396.253 70.9107 395.137 70.851 395.08C70.8223 395.053 70.5417 395.296 70.058 395.759C69.5736 396.222 68.8918 396.91 68.0642 397.774C66.4081 399.501 64.1832 401.95 61.8322 404.746C59.4829 407.543 57.4549 410.156 56.038 412.085C55.3294 413.049 54.769 413.839 54.3971 414.396C54.0239 414.952 53.8328 415.271 53.8648 415.293Z" fill="#17282F"/>
<path d="M51.1309 367.047C51.1234 367.085 51.7393 367.25 52.8584 367.514C54.0729 367.806 55.6667 368.19 57.591 368.654C61.5791 369.641 67.0556 371.141 72.9963 373.136C78.9375 375.138 84.2079 377.253 87.9824 378.875C89.7954 379.669 91.2977 380.325 92.4417 380.826C93.4931 381.293 94.0826 381.534 94.1002 381.498C94.1177 381.463 93.5607 381.154 92.5378 380.626C91.5173 380.092 90.0175 379.365 88.1461 378.506C84.405 376.784 79.14 374.602 73.1794 372.594C67.2177 370.592 61.7047 369.149 57.6839 368.26C55.6739 367.814 54.0393 367.487 52.9038 367.296C51.7689 367.098 51.1384 367.007 51.1309 367.047Z" fill="#17282F"/>
<path d="M464.659 327.904L464.606 327.91C464.247 327.937 463.932 327.668 463.904 327.306C463.86 326.756 463.826 326.206 463.798 325.653C463.779 325.291 464.06 324.986 464.422 324.966C464.784 324.948 465.089 325.227 465.108 325.589C465.133 326.128 465.167 326.667 465.211 327.205C465.236 327.549 464.993 327.851 464.659 327.904Z" fill="#BDD0FB"/>
<path fill-rule="evenodd" clip-rule="evenodd" d="M429.438 318.995C429.438 334.185 441.753 346.5 456.941 346.5C472.134 346.5 484.447 334.185 484.447 318.995C484.447 303.804 472.134 291.49 456.941 291.49C441.753 291.49 429.438 303.804 429.438 318.995ZM434.261 319.594C434.261 306.737 444.683 296.315 457.543 296.315C470.399 296.315 480.821 306.737 480.821 319.594C480.821 332.451 470.399 342.874 457.543 342.874C444.683 342.874 434.261 332.451 434.261 319.594ZM461.902 294.457C461.8 294.545 461.669 294.596 461.53 294.596C461.493 294.596 461.459 294.593 461.421 294.586C459.955 294.319 458.448 294.183 456.944 294.183C451.222 294.183 445.842 296.113 441.547 299.515C445.841 296.114 451.22 294.185 456.941 294.185C458.446 294.185 459.955 294.321 461.418 294.588C461.454 294.595 461.489 294.598 461.528 294.598C461.668 294.598 461.8 294.546 461.902 294.457ZM442.645 297.288C438.933 299.734 435.846 303.149 433.746 307.306C433.601 307.592 433.718 307.941 434.004 308.085C434.087 308.128 434.177 308.147 434.264 308.147C434.377 308.147 434.489 308.114 434.584 308.051C434.488 308.115 434.376 308.15 434.261 308.15C434.174 308.15 434.087 308.13 433.999 308.087C433.714 307.942 433.598 307.593 433.743 307.308C435.843 303.149 438.931 299.734 442.645 297.288Z" fill="url(#paint0_linear_707_200539)"/>
<path d="M457.545 342.873C444.686 342.873 434.266 332.449 434.266 319.592C434.266 306.736 444.686 296.313 457.545 296.313C470.403 296.313 480.824 306.736 480.824 319.592C480.824 332.449 470.403 342.873 457.545 342.873Z" fill="white"/>
<path d="M455.256 336.901V334.368C452.615 334.262 450.002 333.639 448.148 332.827C447.486 332.537 447.147 331.794 447.338 331.096L447.984 328.737C448.217 327.872 449.158 327.424 449.989 327.771C451.827 328.543 454.095 329.153 456.545 329.153C459.09 329.153 460.987 328.29 460.987 326.523C460.987 324.928 459.522 323.98 455.987 323.032C450.946 321.653 447.326 319.455 447.326 315.015C447.326 311.006 450.256 307.946 455.341 307.127V304.594C455.341 303.779 456.003 303.119 456.818 303.119H458.305C459.121 303.119 459.78 303.779 459.78 304.594V306.869C462.223 306.966 464.002 307.384 465.414 307.88C466.135 308.134 466.531 308.913 466.33 309.653L465.737 311.834C465.511 312.676 464.614 313.137 463.798 312.828C462.496 312.337 460.658 311.825 458.271 311.825C455.256 311.825 454.393 313.075 454.393 314.196C454.393 315.575 456.203 316.523 460.125 317.73C465.731 319.411 468.055 321.739 468.055 325.92C468.055 329.756 465.213 333.204 459.695 334.066V336.901C459.695 337.716 459.033 338.376 458.221 338.376H456.73C455.915 338.376 455.256 337.716 455.256 336.901Z" fill="url(#paint1_linear_707_200539)"/>
<path fill-rule="evenodd" clip-rule="evenodd" d="M523.027 257.856C523.027 275.624 537.433 290.027 555.201 290.027C572.969 290.027 587.37 275.624 587.37 257.856C587.37 240.089 572.969 225.685 555.201 225.685C537.433 225.685 523.027 240.089 523.027 257.856ZM528.674 258.557C528.674 243.519 540.861 231.328 555.899 231.328C570.94 231.328 583.132 243.519 583.132 258.557C583.132 273.595 570.94 285.786 555.899 285.786C540.861 285.786 528.674 273.595 528.674 258.557ZM528.064 244.187C533.267 233.881 543.665 227.48 555.201 227.48C557.044 227.48 558.884 227.645 560.681 227.973C561.048 228.04 561.295 228.394 561.225 228.763C561.205 228.874 561.159 228.975 561.094 229.059" fill="url(#paint2_linear_707_200539)"/>
<path d="M555.903 285.786C540.863 285.786 528.674 273.595 528.674 258.557C528.674 243.519 540.863 231.328 555.903 231.328C570.943 231.328 583.133 243.519 583.133 258.557C583.133 273.595 570.943 285.786 555.903 285.786Z" fill="url(#paint3_linear_707_200539)"/>
<path d="M553.231 278.799V275.837C550.143 275.713 547.088 274.985 544.915 274.035C544.141 273.696 543.749 272.826 543.969 272.01L544.721 269.251C544.997 268.239 546.1 267.716 547.069 268.121C549.219 269.023 551.878 269.737 554.742 269.737C557.718 269.737 559.932 268.729 559.932 266.661C559.932 264.796 558.219 263.687 554.087 262.578C548.187 260.965 543.954 258.394 543.954 253.201C543.954 248.512 547.379 244.933 553.332 243.975V241.012C553.332 240.059 554.106 239.286 555.056 239.286H556.798C557.748 239.286 558.522 240.059 558.522 241.012V243.672C561.383 243.787 563.462 244.276 565.111 244.855C565.956 245.153 566.419 246.064 566.184 246.929L565.492 249.481C565.227 250.465 564.172 251.004 563.222 250.643C561.701 250.069 559.55 249.47 556.761 249.47C553.231 249.47 552.222 250.932 552.222 252.243C552.222 253.856 554.338 254.965 558.926 256.377C565.481 258.343 568.203 261.065 568.203 265.956C568.203 270.443 564.875 274.476 558.425 275.484V278.799C558.425 279.752 557.651 280.525 556.694 280.525H554.955C554.001 280.525 553.231 279.752 553.231 278.799Z" fill="url(#paint4_linear_707_200539)"/>
<path fill-rule="evenodd" clip-rule="evenodd" d="M378.742 170.022C378.742 200.66 403.578 225.498 434.211 225.498C464.853 225.498 489.689 200.66 489.689 170.022C489.689 139.384 464.853 114.549 434.211 114.549C403.578 114.549 378.742 139.384 378.742 170.022ZM388.469 171.231C388.469 145.301 409.49 124.281 435.42 124.281C461.354 124.281 482.37 145.301 482.37 171.231C482.37 197.161 461.354 218.186 435.42 218.186C409.49 218.186 388.469 197.161 388.469 171.231ZM387.586 146.857C387.536 147.224 387.719 147.599 388.071 147.776C388.196 147.841 388.333 147.871 388.467 147.871C388.66 147.871 388.848 147.811 389.002 147.698C388.849 147.812 388.662 147.875 388.469 147.875C388.332 147.875 388.199 147.843 388.071 147.779C387.718 147.6 387.532 147.225 387.586 146.857ZM392.394 142.017C401.673 128.119 417.197 119.708 434.214 119.708C436.978 119.708 439.746 119.934 442.452 120.38C439.742 119.936 436.975 119.71 434.211 119.71C417.194 119.71 401.674 128.12 392.394 142.017ZM443.344 120.532C443.383 120.537 443.423 120.539 443.462 120.539C443.541 120.539 443.62 120.528 443.694 120.507C443.62 120.528 443.542 120.539 443.463 120.539C443.424 120.539 443.384 120.537 443.344 120.532Z" fill="url(#paint5_linear_707_200539)"/>
<path d="M435.416 218.186C409.49 218.186 388.463 197.163 388.463 171.233C388.463 145.304 409.49 124.281 435.416 124.281C461.35 124.281 482.368 145.304 482.368 171.233C482.368 197.163 461.35 218.186 435.416 218.186Z" fill="white"/>
<path d="M430.81 206.14V201.032C425.488 200.818 420.218 199.562 416.48 197.925C415.141 197.338 414.463 195.841 414.843 194.432L416.143 189.674C416.616 187.928 418.516 187.026 420.183 187.727C423.895 189.28 428.477 190.515 433.419 190.515C438.548 190.515 442.374 188.773 442.374 185.21C442.374 181.993 439.415 180.08 432.289 178.168C422.118 175.388 414.813 170.955 414.813 162C414.813 153.916 420.726 147.74 430.985 146.09V140.982C430.985 139.336 432.316 138.006 433.961 138.006H436.96C438.605 138.006 439.936 139.336 439.936 140.982V145.569C444.864 145.766 448.453 146.606 451.298 147.608C452.76 148.121 453.557 149.692 453.149 151.184L451.955 155.583C451.495 157.281 449.679 158.209 448.037 157.588C445.42 156.598 441.708 155.566 436.894 155.566C430.81 155.566 429.073 158.087 429.073 160.345C429.073 163.129 432.723 165.041 440.636 167.475C451.933 170.867 456.629 175.559 456.629 183.993C456.629 191.731 450.891 198.682 439.765 200.424V206.14C439.765 207.781 438.43 209.116 436.784 209.116H433.786C432.141 209.116 430.81 207.781 430.81 206.14Z" fill="url(#paint6_linear_707_200539)"/>
<path d="M216.554 493.5C216.57 493.538 216.091 493.761 215.206 494.135C214.31 494.473 212.999 494.948 211.325 495.337C207.99 496.178 203.235 496.655 198.012 496.6C192.785 496.542 188.076 496.304 184.66 496.168C183.045 496.083 181.69 496.011 180.62 495.953C179.666 495.89 179.14 495.836 179.141 495.795C179.141 495.755 179.671 495.732 180.627 495.727C181.698 495.734 183.055 495.744 184.673 495.755C188.205 495.824 192.863 495.915 198.014 496.016C203.214 496.071 207.912 495.664 211.234 494.936C214.568 494.25 216.514 493.393 216.554 493.5Z" fill="#17282F"/>
<path d="M272.705 494.954C272.694 494.993 273.197 495.158 274.12 495.423C275.05 495.653 276.408 495.968 278.116 496.156C281.527 496.595 286.305 496.502 291.485 495.827C296.668 495.147 301.315 494.352 304.689 493.811C306.284 493.533 307.621 493.301 308.677 493.118C309.616 492.94 310.132 492.824 310.126 492.784C310.121 492.744 309.593 492.785 308.643 492.892C307.58 493.027 306.234 493.198 304.628 493.402C301.129 493.891 296.516 494.535 291.413 495.248C286.256 495.919 281.544 496.074 278.158 495.745C274.767 495.462 272.733 494.841 272.705 494.954Z" fill="#17282F"/>
<path d="M271.775 495.866C271.832 495.94 272.713 495.273 274.228 494.379C275.728 493.512 278 492.415 280.65 492.505C283.307 492.593 285.367 494.125 286.717 495.197C288.081 496.312 288.893 497.063 288.957 496.996C289.003 496.947 288.303 496.097 286.985 494.883C286.32 494.283 285.486 493.597 284.431 493.012C283.388 492.421 282.081 491.969 280.673 491.923C277.831 491.83 275.483 493.058 274.011 494.029C272.52 495.032 271.733 495.813 271.775 495.866Z" fill="#17282F"/>
<path d="M382.786 323.4C382.79 323.406 382.734 323.458 382.623 323.55C382.492 323.656 382.328 323.786 382.129 323.946C381.672 324.301 381.05 324.784 380.292 325.372C379.506 325.974 378.578 326.682 377.552 327.466C377.028 327.85 376.513 328.291 375.895 328.668C375.291 329.033 374.469 329.281 373.715 328.955C373.345 328.792 373.064 328.475 372.906 328.126C372.747 327.773 372.694 327.392 372.716 327.025C372.755 326.278 373.156 325.644 373.586 325.155C374.025 324.661 374.513 324.272 374.954 323.903C375.397 323.535 375.81 323.192 376.189 322.876C376.932 322.269 377.541 321.769 377.988 321.403C378.188 321.244 378.352 321.114 378.484 321.01C378.599 320.922 378.661 320.878 378.666 320.884C378.671 320.89 378.617 320.944 378.511 321.043C378.387 321.155 378.23 321.294 378.041 321.465C377.603 321.844 377.009 322.36 376.285 322.989C375.911 323.311 375.503 323.661 375.065 324.035C374.629 324.41 374.15 324.801 373.73 325.281C373.318 325.76 372.952 326.354 372.92 327.038C372.872 327.701 373.146 328.471 373.8 328.765C374.119 328.906 374.485 328.928 374.827 328.866C375.172 328.807 375.494 328.664 375.791 328.491C376.382 328.135 376.911 327.691 377.436 327.312C378.472 326.542 379.408 325.845 380.203 325.254C380.978 324.688 381.613 324.223 382.081 323.881C382.29 323.734 382.46 323.613 382.598 323.517C382.716 323.434 382.781 323.395 382.786 323.4Z" fill="#F68260"/>
<path d="M384.609 327.264C384.617 327.276 384.481 327.389 384.229 327.582C383.976 327.774 383.604 328.044 383.138 328.369C382.207 329.02 380.894 329.883 379.401 330.765C379.026 330.983 378.666 331.207 378.281 331.375C377.899 331.543 377.485 331.644 377.086 331.602C376.286 331.506 375.713 330.921 375.542 330.358C375.365 329.784 375.505 329.29 375.648 329.006C375.72 328.861 375.8 328.762 375.853 328.697L375.951 328.61C375.966 328.622 375.843 328.754 375.722 329.04C375.608 329.321 375.502 329.792 375.682 330.311C375.853 330.817 376.391 331.336 377.106 331.41C377.46 331.442 377.835 331.35 378.198 331.188C378.562 331.026 378.92 330.803 379.294 330.584C380.784 329.706 382.105 328.864 383.056 328.247C383.503 327.957 383.881 327.711 384.182 327.515C384.448 327.343 384.6 327.253 384.609 327.264Z" fill="#F68260"/>
<path d="M385.673 331.035C385.68 331.048 385.538 331.129 385.279 331.266C384.976 331.419 384.605 331.606 384.167 331.825C383.224 332.291 381.917 332.919 380.467 333.601C380.104 333.768 379.754 333.949 379.384 334.073C379.017 334.197 378.62 334.247 378.258 334.163C377.899 334.086 377.576 333.862 377.421 333.562C377.264 333.265 377.245 332.945 377.292 332.676C377.396 332.124 377.731 331.792 377.947 331.6C378.175 331.406 378.323 331.334 378.329 331.343C378.34 331.357 378.207 331.453 378.004 331.659C377.808 331.863 377.512 332.199 377.438 332.698C377.405 332.944 377.432 333.229 377.573 333.478C377.71 333.728 377.98 333.911 378.3 333.975C378.621 334.044 378.973 333.998 379.319 333.878C379.666 333.761 380.014 333.581 380.378 333.412C381.828 332.729 383.146 332.123 384.104 331.692C384.552 331.496 384.934 331.329 385.244 331.192C385.514 331.079 385.667 331.021 385.673 331.035Z" fill="#F68260"/>
<path d="M386.265 334.536C386.271 334.565 385.772 334.693 384.96 334.877C384.148 335.061 383.024 335.301 381.779 335.553C381.468 335.616 381.165 335.677 380.87 335.736C380.578 335.794 380.284 335.854 379.992 335.842C379.701 335.831 379.419 335.74 379.214 335.563C379.003 335.391 378.907 335.126 378.917 334.9C378.952 334.439 379.231 334.165 379.418 334.028C379.615 333.887 379.752 333.869 379.753 333.877C379.762 333.896 379.638 333.941 379.469 334.091C379.308 334.236 379.074 334.514 379.065 334.903C379.067 335.091 379.148 335.294 379.325 335.431C379.498 335.57 379.741 335.646 379.998 335.649C380.259 335.655 380.536 335.598 380.829 335.536C381.124 335.475 381.426 335.412 381.737 335.349C382.983 335.097 384.111 334.879 384.931 334.732C385.75 334.585 386.26 334.508 386.265 334.536Z" fill="#F68260"/>
<path d="M377.356 332.869C377.34 332.933 376.321 332.566 375.021 332.635C373.72 332.689 372.741 333.15 372.718 333.089C372.685 333.05 373.659 332.484 375.012 332.427C376.363 332.356 377.385 332.827 377.356 332.869Z" fill="#F68260"/>
<path d="M306.156 250.118H326.611V229.664H306.156V250.118Z" fill="#F9B2C4"/>
<path d="M179.877 354.091C180.015 354.006 180.47 354.46 180.895 355.105C181.318 355.749 181.555 356.347 181.423 356.44C181.291 356.533 180.835 356.079 180.406 355.426C179.976 354.773 179.739 354.175 179.877 354.091Z" fill="#17282F"/>
<path d="M345.14 286.148C349.867 284.921 353.377 280.079 353.073 275.205C352.936 273.007 352.12 270.868 352.213 268.668C352.359 265.253 354.625 262.366 356.33 259.404C358.035 256.443 359.179 252.536 357.191 249.755C355.902 247.951 353.627 247.139 352.064 245.565C350.536 244.025 349.81 241.89 348.992 239.88C348.173 237.869 347.112 235.797 345.226 234.723C343.34 233.65 340.448 234.126 339.684 236.157" fill="#17282F"/>
<path d="M324.736 230.747C328.1 228.612 328.913 223.659 327.09 220.114C325.266 216.572 321.397 214.42 317.463 213.784C311.769 212.866 305.681 214.884 301.662 219.021C299.49 221.256 297.732 224.174 294.788 225.198C292.199 226.099 289.337 225.286 286.62 225.637C282.977 226.109 279.855 228.699 277.988 231.862C276.12 235.024 275.35 238.712 274.918 242.359C274.522 245.707 274.261 249.381 271.938 251.824C269.674 254.206 266.095 254.712 263.279 256.407C257.98 259.595 256.263 267.494 259.759 272.595C260.874 274.221 262.473 275.712 262.604 277.68C262.722 279.477 261.56 281.077 261.017 282.793C259.617 287.212 263.234 292.461 267.861 292.727C270.197 292.861 272.7 291.95 274.795 292.994C276.875 294.032 277.649 296.541 278.979 298.447C281.596 302.196 287.071 303.61 291.176 301.597C292.895 300.754 294.517 299.363 296.428 299.492C298.332 299.62 299.833 301.248 301.708 301.611C304.164 302.085 306.494 300.277 307.954 298.247C309.412 296.217 310.43 293.826 312.298 292.165C314.744 289.988 318.181 289.451 321.276 288.384C328.109 286.032 333.817 280.61 336.519 273.909C339.22 267.207 338.868 259.341 335.577 252.908" fill="#17282F"/>
<path d="M332.127 235.166C334.904 235.465 336.988 237.84 336.927 240.632L333.719 313.264C333.585 321.841 321.046 326.661 311.861 326.448C302.586 326.233 302.288 321.684 302.171 313.522C301.977 299.889 301.994 294.77 301.989 294.848C301.989 294.848 290.273 292.875 287.88 277.579C286.688 269.972 287.098 257.505 287.763 247.315C288.361 238.144 294.463 226.902 303.603 227.889L332.127 235.166Z" fill="#F8A58D"/>
<path d="M291.126 257.215C291.087 258.251 291.932 259.137 293.013 259.197C294.091 259.258 294.999 258.47 295.039 257.434C295.077 256.399 294.233 255.51 293.153 255.45C292.073 255.39 291.165 256.18 291.126 257.215Z" fill="#17282F"/>
<path d="M290.453 253.808C290.695 254.064 292.184 252.968 294.293 252.978C296.401 252.958 297.946 254.048 298.177 253.789C298.29 253.676 298.043 253.213 297.37 252.721C296.708 252.23 295.576 251.752 294.262 251.755C292.946 251.759 291.84 252.241 291.205 252.735C290.553 253.231 290.333 253.693 290.453 253.808Z" fill="#17282F"/>
<path d="M312.161 257.215C312.122 258.251 312.967 259.137 314.047 259.197C315.126 259.258 316.034 258.47 316.073 257.434C316.111 256.399 315.267 255.51 314.189 255.45C313.107 255.39 312.201 256.18 312.161 257.215Z" fill="#17282F"/>
<path d="M311.194 254.247C311.438 254.503 312.927 253.407 315.036 253.418C317.144 253.398 318.691 254.486 318.92 254.229C319.032 254.114 318.789 253.653 318.112 253.16C317.451 252.669 316.319 252.192 315.005 252.194C313.69 252.198 312.585 252.68 311.947 253.173C311.299 253.671 311.076 254.132 311.194 254.247Z" fill="#17282F"/>
<path d="M303.503 269.88C303.513 269.758 302.202 269.529 300.076 269.253C299.537 269.196 299.027 269.088 298.937 268.721C298.811 268.33 299.038 267.75 299.301 267.124C299.811 265.821 300.343 264.455 300.904 263.024C303.13 257.188 304.742 252.387 304.507 252.3C304.271 252.211 302.275 256.872 300.049 262.709C299.513 264.149 299.001 265.521 298.513 266.833C298.308 267.445 297.956 268.139 298.229 268.948C298.373 269.351 298.769 269.644 299.113 269.737C299.458 269.844 299.763 269.851 300.029 269.866C302.167 269.988 303.495 269.999 303.503 269.88Z" fill="#17282F"/>
<path d="M301.988 294.848C301.988 294.848 312.273 295.534 322.478 289.43C322.478 289.43 317.288 300.212 301.988 298.747V294.848Z" fill="#F68260"/>
<path d="M304.384 274.966C305.144 273.966 306.475 273.416 307.795 273.562C308.71 273.662 309.636 274.107 310.189 274.854C310.744 275.601 310.859 276.659 310.351 277.37C309.78 278.169 308.59 278.351 307.584 278.063C306.576 277.774 305.713 277.108 304.889 276.448C304.663 276.263 304.43 276.072 304.289 275.821C304.147 275.57 304.118 275.243 304.293 275.036" fill="#4971FF"/>
<path d="M309.707 271.353C309.364 271.333 309.355 273.624 307.391 275.245C305.43 276.871 302.989 276.609 302.97 276.929C302.937 277.073 303.513 277.375 304.542 277.405C305.554 277.442 307.03 277.121 308.233 276.128C309.431 275.136 309.948 273.806 310.029 272.866C310.117 271.909 309.864 271.341 309.707 271.353Z" fill="#17282F"/>
<path d="M310.253 250.549C310.461 251.124 312.569 250.857 315.043 251.16C317.525 251.415 319.518 252.144 319.849 251.63C319.996 251.384 319.65 250.843 318.843 250.286C318.045 249.729 316.768 249.2 315.283 249.031C313.797 248.866 312.436 249.098 311.533 249.463C310.624 249.827 310.164 250.277 310.253 250.549Z" fill="#17282F"/>
<path d="M291.241 247.702C291.612 248.182 293.066 247.688 294.814 247.668C296.561 247.587 298.042 247.998 298.384 247.497C298.533 247.254 298.302 246.773 297.656 246.318C297.02 245.864 295.954 245.493 294.753 245.526C293.551 245.562 292.51 245.993 291.902 246.483C291.282 246.975 291.078 247.468 291.241 247.702Z" fill="#17282F"/>
<path d="M322.09 230.193C325.594 227.835 330.13 226.752 334.21 227.923C338.289 229.094 341.669 232.77 341.808 236.927C341.896 239.628 340.731 242.5 341.93 244.934C343.07 247.252 345.881 248.196 347.875 249.876C351.006 252.514 351.93 257.341 349.987 260.909C348.318 263.974 344.807 266.22 344.513 269.68C344.236 272.937 346.981 275.684 347.648 278.885C348.386 282.417 346.429 286.07 343.628 288.414C340.827 290.756 337.287 292.046 333.828 293.292C331.128 294.263 328.237 295.249 325.435 294.613C322.097 293.857 319.604 290.762 319.146 287.442C318.688 284.122 320.056 280.716 322.33 278.211C324.293 276.048 327.049 274.21 327.52 271.355C328.255 266.909 322.958 263.255 323.283 258.762C323.452 256.445 325.085 254.527 326.445 252.622C327.806 250.717 328.993 248.32 328.158 246.146C327.073 243.318 323.356 242.582 321.113 240.508C319.235 238.774 318.479 235.969 319.236 233.555C319.994 231.141 322.231 229.234 324.781 228.829" fill="#17282F"/>
<path d="M323.733 226.744C323.746 229.806 322.334 232.843 319.987 234.807C317.641 236.771 314.402 237.626 311.391 237.075C309.055 236.648 306.495 235.468 304.472 236.712C302.345 238.021 302.258 241.227 300.372 242.864C297.676 245.205 293.39 243.009 289.968 244.023C287.324 244.808 285.674 247.334 283.919 249.459C282.163 251.584 279.533 253.604 276.891 252.819C277.059 250.444 277.232 248.044 277.94 245.768C278.647 243.494 279.948 241.324 281.942 240.024C283.037 239.312 284.307 238.877 285.323 238.057C287.516 236.287 288.024 233.204 289.379 230.731C291.125 227.545 294.498 225.307 298.114 224.937C301.122 224.63 304.221 225.533 307.153 224.794C309.32 224.247 311.213 222.841 313.41 222.423C317.687 221.61 321.661 224.679 324.761 227.734" fill="#17282F"/>
<path d="M351.666 263.299C351.59 263.275 352.12 262.717 352.005 261.534C351.909 260.38 350.946 258.734 348.926 258.017C347.95 257.622 346.803 257.393 345.565 257.113C344.334 256.817 342.961 256.453 341.758 255.544C340.519 254.652 339.853 253.031 339.777 251.452C339.678 249.856 339.929 248.254 340.014 246.639C340.045 245.831 340.025 245.039 339.892 244.286C339.736 243.538 339.426 242.857 338.99 242.278C338.072 241.132 336.63 240.623 335.31 240.166C333.967 239.734 332.651 239.24 331.56 238.549C330.458 237.88 329.54 237.092 328.796 236.292C327.299 234.69 326.512 233.068 326.096 231.935C325.888 231.365 325.763 230.911 325.703 230.597C325.64 230.285 325.616 230.119 325.636 230.115C325.69 230.101 325.84 230.754 326.307 231.851C326.78 232.938 327.606 234.489 329.096 236.006C330.565 237.554 332.736 238.902 335.481 239.655C336.809 240.106 338.365 240.611 339.436 241.917C339.939 242.572 340.293 243.35 340.464 244.172C340.612 244.996 340.63 245.832 340.596 246.666C340.51 248.326 340.261 249.911 340.348 251.414C340.425 252.907 340.993 254.303 342.089 255.118C343.162 255.952 344.472 256.333 345.677 256.641C346.898 256.94 348.071 257.197 349.085 257.635C350.095 258.058 350.949 258.678 351.454 259.415C351.972 260.137 352.196 260.895 352.232 261.515C352.263 262.141 352.108 262.618 351.954 262.902C351.805 263.19 351.673 263.305 351.666 263.299Z" fill="#33535F"/>
<path d="M261.596 272.841C261.591 272.85 261.508 272.81 261.346 272.723C261.186 272.635 260.968 272.453 260.771 272.144C260.388 271.518 260.367 270.305 261.084 269.124C261.424 268.535 261.971 267.941 262.721 267.559C263.451 267.161 264.297 266.859 265.179 266.521C266.054 266.177 267 265.782 267.751 265.063C268.507 264.348 268.979 263.309 269.22 262.162C269.479 261.014 269.554 259.761 269.763 258.456C269.958 257.159 270.371 255.753 271.279 254.601C273.06 252.254 275.978 251.008 278.154 248.808C279.226 247.699 280.032 246.303 280.543 244.757C281.076 243.216 281.369 241.557 281.625 239.86C282.099 236.502 282.575 232.737 284.838 229.664C285.94 228.139 287.622 227.009 289.45 226.683C291.275 226.322 293.076 226.59 294.775 226.815C296.48 227.052 298.153 227.306 299.751 227.106C301.353 226.927 302.775 226.152 303.816 225.007C305.903 222.757 307.102 219.725 309.667 218.174C312.149 216.64 315.05 216.446 317.393 217.11C319.773 217.775 321.525 219.393 322.477 221.063C323.463 222.739 323.774 224.432 323.798 225.778C323.826 227.137 323.555 228.175 323.308 228.837C323.066 229.504 322.858 229.818 322.858 229.818C322.829 229.805 322.993 229.469 323.197 228.8C323.404 228.135 323.633 227.11 323.571 225.784C323.514 224.471 323.176 222.833 322.196 221.231C321.247 219.632 319.561 218.119 317.281 217.508C315.037 216.896 312.26 217.115 309.927 218.584C308.768 219.319 307.823 220.407 306.975 221.629C306.113 222.839 305.322 224.187 304.208 225.378C303.651 225.969 303.003 226.511 302.254 226.909C301.498 227.281 300.677 227.572 299.822 227.66C298.116 227.878 296.398 227.614 294.697 227.384C293.001 227.159 291.254 226.914 289.565 227.253C287.875 227.56 286.347 228.581 285.304 230.015C284.243 231.44 283.576 233.119 283.118 234.808C282.659 236.503 282.458 238.238 282.192 239.946C281.929 241.652 281.628 243.343 281.072 244.94C280.538 246.538 279.681 248.019 278.541 249.184C276.234 251.469 273.345 252.689 271.665 254.895C270.807 255.968 270.415 257.257 270.208 258.529C269.992 259.804 269.904 261.065 269.625 262.254C269.363 263.439 268.84 264.567 268.007 265.333C267.176 266.104 266.182 266.493 265.295 266.826C264.397 267.154 263.563 267.435 262.851 267.804C262.133 268.154 261.624 268.686 261.278 269.243C260.566 270.352 260.552 271.489 260.876 272.088C261.218 272.687 261.629 272.801 261.596 272.841Z" fill="#33535F"/>
<path d="M224.071 378.113L251.196 375.628C251.196 375.628 267.889 331.663 288.466 321.001L301.795 344.285L273.263 397.894H217.551L224.071 378.113Z" fill="#4971FF"/>
<path d="M261.335 397.894H227.554C224.503 397.046 221.44 396.194 218.393 395.345L224.072 378.113L251.197 375.628C251.197 375.628 267.889 331.663 288.466 321.001L277.09 335.465L271.17 343.875C267.736 348.748 265.132 354.197 263.835 360.017C262.401 366.457 262.203 372.74 262.203 379.581L261.335 397.894Z" fill="#2C4BB8"/>
<path d="M234.79 390.531C234.652 390.446 235.675 388.48 237.075 386.137C238.477 383.793 239.726 381.96 239.864 382.043C240.003 382.127 238.98 384.093 237.577 386.437C236.177 388.78 234.928 390.613 234.79 390.531Z" fill="#FAFAF9"/>
<path d="M254.006 389.996C253.881 390.099 252.398 388.461 250.693 386.341C248.989 384.22 247.709 382.42 247.835 382.318C247.962 382.217 249.444 383.853 251.149 385.975C252.853 388.095 254.133 389.895 254.006 389.996Z" fill="#FAFAF9"/>
<path d="M257.344 379.915C257.183 379.915 257.051 378.323 257.051 376.359C257.051 374.393 257.183 372.802 257.344 372.802C257.506 372.802 257.637 374.393 257.637 376.359C257.637 378.323 257.506 379.915 257.344 379.915Z" fill="#FAFAF9"/>
<path d="M247.798 395.638C247.709 395.774 246.549 395.17 245.204 394.292C243.86 393.413 242.842 392.592 242.931 392.456C243.019 392.32 244.18 392.923 245.524 393.802C246.869 394.681 247.886 395.503 247.798 395.638Z" fill="#FAFAF9"/>
<path d="M263.372 355.224C263.519 355.291 262.681 357.483 261.499 360.121C260.317 362.761 259.239 364.847 259.091 364.781C258.944 364.714 259.783 362.522 260.965 359.883C262.147 357.244 263.225 355.158 263.372 355.224Z" fill="#FAFAF9"/>
<path d="M274.364 337.409C274.462 337.537 273.491 338.437 272.199 339.417C270.904 340.398 269.776 341.087 269.679 340.959C269.582 340.83 270.551 339.932 271.845 338.951C273.139 337.971 274.266 337.281 274.364 337.409Z" fill="#FAFAF9"/>
<path d="M314.936 394.419L328.925 337.919C331.36 328.082 341.016 321.826 350.99 323.623C361.256 325.474 368.172 335.176 366.573 345.484L358.009 400.703C355.903 412.274 346.704 421.243 335.086 423.057L323.965 424.79L314.936 394.419Z" fill="#4971FF"/>
<path d="M359.022 319.974C358.952 320.108 357.457 318.28 354.033 317.466C352.35 317.076 350.237 316.977 348.012 317.507C345.787 318.029 343.503 319.229 341.466 320.92C337.366 324.357 335.136 328.822 333.619 331.95C332.87 333.54 332.3 334.847 331.893 335.743C331.488 336.641 331.247 337.132 331.21 337.116C331.172 337.101 331.341 336.582 331.683 335.656C332.025 334.732 332.538 333.4 333.243 331.779C333.957 330.164 334.866 328.254 336.119 326.265C337.365 324.276 338.999 322.224 341.092 320.471C343.189 318.729 345.563 317.496 347.889 316.983C350.214 316.461 352.404 316.609 354.133 317.065C355.867 317.533 357.142 318.278 357.923 318.894C358.31 319.209 358.598 319.464 358.772 319.664C358.951 319.853 359.037 319.96 359.022 319.974Z" fill="#17282F"/>
<path d="M279.772 332.687C279.786 332.7 279.65 332.881 279.38 333.212C279.065 333.588 278.669 334.063 278.184 334.644C277.148 335.891 275.669 337.713 273.985 340.066C270.642 344.742 266.428 351.73 264.436 360.341C262.483 368.956 262.387 377.023 262.056 382.801C261.917 385.699 261.781 388.045 261.656 389.663C261.589 390.419 261.535 391.036 261.491 391.524C261.446 391.95 261.414 392.173 261.393 392.172C261.373 392.17 261.366 391.944 261.374 391.519C261.389 391.026 261.407 390.409 261.429 389.65C261.482 387.949 261.555 385.623 261.643 382.784C261.87 377.007 261.897 368.91 263.865 360.209C265.886 351.484 270.205 344.46 273.652 339.822C275.388 337.487 276.92 335.699 278.011 334.495C278.552 333.889 278.997 333.442 279.292 333.133C279.592 332.827 279.756 332.673 279.772 332.687Z" fill="#17282F"/>
<path d="M369.417 332.565C367.883 322.462 362.302 320.038 356.524 316.891C354.634 315.863 345.526 313.525 338.304 311.765C337.615 307.387 336.378 299.557 336.108 297.903C335.726 295.58 299.319 301.388 298.858 302.258C298.552 302.836 297.714 311.909 297.184 317.954L288.467 321.001L277.091 335.466L271.171 343.875C267.738 348.748 265.133 354.197 263.836 360.017C262.402 366.457 262.204 372.741 262.204 379.581L260.445 416.671L336.62 438.212L342.517 400.639L362.169 373.889C363.847 363.069 371.305 344.988 369.417 332.565Z" fill="#4971FF"/>
<path d="M304.405 319.123C304.325 319.13 304.138 318.147 303.899 316.55C303.659 314.95 303.372 312.737 303.088 310.288C302.954 309.078 302.828 307.923 302.71 306.834C302.613 305.775 302.478 304.818 302.508 303.978C302.531 303.144 302.763 302.463 303.051 302.081C303.345 301.699 303.598 301.595 303.612 301.62C303.645 301.659 303.449 301.824 303.244 302.201C303.043 302.582 302.895 303.196 302.922 303.981C302.943 304.76 303.117 305.71 303.245 306.773C303.379 307.859 303.519 309.012 303.668 310.222C303.951 312.669 304.176 314.891 304.31 316.501C304.443 318.112 304.486 319.112 304.405 319.123Z" fill="#17282F"/>
<path d="M314.117 316.826C314.045 316.847 313.699 315.958 313.306 314.471C312.912 312.985 312.497 310.892 312.279 308.551C312.064 306.21 312.089 304.075 312.205 302.542C312.318 301.008 312.496 300.071 312.571 300.079C312.75 300.093 312.42 303.87 312.862 308.498C313.275 313.126 314.291 316.779 314.117 316.826Z" fill="#17282F"/>
<path d="M332.194 314.198C332.001 314.178 332.808 310.404 331.987 305.821C331.218 301.228 329.187 297.946 329.362 297.862C329.42 297.826 330 298.591 330.698 299.976C331.394 301.356 332.153 303.383 332.563 305.721C332.964 308.059 332.931 310.225 332.739 311.759C332.55 313.296 332.26 314.213 332.194 314.198Z" fill="#17282F"/>
<path d="M280.467 347.235C280.334 347.149 281.595 344.982 283.449 342.514C285.3 340.044 287.028 338.225 287.147 338.329C287.272 338.437 285.755 340.411 283.918 342.865C282.077 345.317 280.605 347.326 280.467 347.235Z" fill="#FAFAF9"/>
<path d="M297.624 333.279C297.496 333.377 296.139 331.818 294.595 329.797C293.051 327.777 291.903 326.059 292.031 325.961C292.159 325.863 293.515 327.421 295.06 329.442C296.604 331.463 297.752 333.18 297.624 333.279Z" fill="#FAFAF9"/>
<path d="M315.557 324.509C315.664 324.638 313.98 326.176 311.974 328.135C309.964 330.089 308.383 331.731 308.257 331.622C308.138 331.522 309.534 329.691 311.566 327.716C313.593 325.736 315.459 324.387 315.557 324.509Z" fill="#FAFAF9"/>
<path d="M310.52 313.822C310.411 313.941 309.158 312.983 307.72 311.681C306.282 310.377 305.203 309.225 305.312 309.106C305.421 308.986 306.675 309.945 308.112 311.246C309.55 312.549 310.628 313.701 310.52 313.822Z" fill="#FAFAF9"/>
<path d="M326.232 305.44C326.266 305.599 324.574 306.095 322.452 306.549C320.331 307.004 318.583 307.243 318.549 307.086C318.516 306.927 320.208 306.432 322.33 305.977C324.451 305.522 326.199 305.282 326.232 305.44Z" fill="#FAFAF9"/>
<path d="M329.376 330.313C329.215 330.321 328.995 328.569 328.885 326.398C328.776 324.227 328.818 322.46 328.979 322.452C329.141 322.445 329.36 324.198 329.47 326.369C329.579 328.538 329.537 330.305 329.376 330.313Z" fill="#FAFAF9"/>
<path d="M323.645 342.278C323.493 342.333 322.612 340.299 321.678 337.735C320.742 335.171 320.109 333.048 320.261 332.993C320.411 332.936 321.293 334.97 322.228 337.535C323.163 340.098 323.797 342.222 323.645 342.278Z" fill="#FAFAF9"/>
<path d="M308.087 350.709C307.935 350.767 306.968 348.638 305.925 345.954C304.881 343.27 304.159 341.046 304.309 340.988C304.459 340.929 305.427 343.058 306.469 345.743C307.513 348.426 308.237 350.65 308.087 350.709Z" fill="#FAFAF9"/>
<path d="M293.436 360.268C293.277 360.301 292.712 358.194 292.175 355.562C291.634 352.931 291.327 350.771 291.485 350.738C291.643 350.707 292.208 352.814 292.747 355.445C293.285 358.077 293.593 360.236 293.436 360.268Z" fill="#FAFAF9"/>
<path d="M276.033 360.649C275.887 360.721 274.833 358.856 273.679 356.487C272.526 354.119 271.707 352.14 271.853 352.07C271.998 351.998 273.05 353.861 274.206 356.232C275.359 358.601 276.178 360.58 276.033 360.649Z" fill="#FAFAF9"/>
<path d="M275.658 371.807C275.73 371.952 273.688 373.107 271.098 374.387C268.507 375.665 266.349 376.586 266.277 376.441C266.205 376.296 268.247 375.141 270.839 373.861C273.428 372.582 275.586 371.662 275.658 371.807Z" fill="#FAFAF9"/>
<path d="M275.874 389.461C275.728 389.517 274.911 387.72 274.289 385.374C273.66 383.027 273.473 381.062 273.628 381.037C273.793 381.01 274.233 382.909 274.854 385.222C275.468 387.538 276.03 389.403 275.874 389.461Z" fill="#FAFAF9"/>
<path d="M272.277 401.863C272.167 401.983 270.525 400.658 268.61 398.904C266.693 397.15 265.23 395.633 265.338 395.514C265.448 395.395 267.089 396.719 269.006 398.473C270.921 400.226 272.386 401.745 272.277 401.863Z" fill="#FAFAF9"/>
<path d="M295.207 393.4C295.25 393.569 292.67 394.305 289.661 395.633C286.644 396.946 284.355 398.342 284.26 398.197C284.172 398.075 286.354 396.434 289.427 395.096C292.492 393.745 295.178 393.253 295.207 393.4Z" fill="#FAFAF9"/>
<path d="M288.498 387.251C288.347 387.304 287.608 385.582 286.851 383.406C286.092 381.228 285.6 379.421 285.752 379.369C285.906 379.315 286.644 381.036 287.402 383.214C288.161 385.389 288.651 387.199 288.498 387.251Z" fill="#FAFAF9"/>
<path d="M302.103 372.068C302.24 372.155 300.863 374.584 299.028 377.495C297.193 380.407 295.595 382.696 295.458 382.61C295.323 382.524 296.698 380.095 298.534 377.184C300.369 374.273 301.966 371.983 302.103 372.068Z" fill="#FAFAF9"/>
<path d="M316.715 373.524C316.594 373.619 314.78 371.428 312.983 368.424C311.18 365.425 310.1 362.794 310.241 362.732C310.392 362.659 311.698 365.154 313.485 368.123C315.263 371.097 316.851 373.424 316.715 373.524Z" fill="#FAFAF9"/>
<path d="M325.472 359.102C325.504 359.254 323.604 359.746 321.198 359.862C318.79 359.984 316.852 359.683 316.867 359.53C316.881 359.362 318.807 359.399 321.168 359.277C323.531 359.165 325.443 358.938 325.472 359.102Z" fill="#FAFAF9"/>
<path d="M346.259 342.669C346.328 342.816 343.863 344.136 340.754 345.616C337.644 347.098 335.067 348.181 334.998 348.035C334.928 347.89 337.393 346.571 340.503 345.089C343.612 343.607 346.189 342.524 346.259 342.669Z" fill="#FAFAF9"/>
<path d="M347.64 332.221C347.497 332.148 348.377 330.076 349.609 327.592C350.841 325.105 351.958 323.15 352.102 323.221C352.247 323.292 351.366 325.365 350.132 327.851C348.902 330.336 347.784 332.292 347.64 332.221Z" fill="#FAFAF9"/>
<path d="M360.85 340.42C360.689 340.459 360.033 338.139 359.146 335.312C358.262 332.48 357.48 330.203 357.635 330.14C357.779 330.08 358.813 332.28 359.704 335.136C360.6 337.99 361.004 340.388 360.85 340.42Z" fill="#FAFAF9"/>
<path d="M362.921 351.293C362.976 351.439 360.808 352.377 357.992 353.096C355.178 353.82 352.827 354.04 352.805 353.886C352.78 353.72 355.066 353.245 357.848 352.528C360.631 351.819 362.863 351.135 362.921 351.293Z" fill="#FAFAF9"/>
<path d="M340.288 364.57C340.117 364.536 340.599 361.804 340.735 358.401C340.889 354.998 340.641 352.234 340.813 352.214C340.96 352.189 341.474 354.964 341.32 358.425C341.181 361.887 340.433 364.609 340.288 364.57Z" fill="#FAFAF9"/>
<path d="M335.772 378.23C335.669 378.344 333.694 376.667 331.664 374.213C329.625 371.765 328.342 369.514 328.472 369.433C328.615 369.34 330.1 371.422 332.113 373.839C334.118 376.264 335.89 378.108 335.772 378.23Z" fill="#FAFAF9"/>
<path d="M358.471 375.355C358.533 375.505 356.437 376.522 353.787 377.627C351.138 378.735 348.941 379.511 348.878 379.361C348.815 379.212 350.913 378.195 353.563 377.088C356.21 375.983 358.409 375.206 358.471 375.355Z" fill="#FAFAF9"/>
<path d="M350.339 401.065C350.177 401.065 350.073 398.299 350.108 394.886C350.142 391.473 350.301 388.711 350.462 388.711C350.624 388.713 350.727 391.479 350.692 394.892C350.659 398.304 350.499 401.068 350.339 401.065Z" fill="#FAFAF9"/>
<path d="M332.915 399.59C332.762 399.569 333.043 396.692 333.913 393.242C334.773 389.788 335.885 387.119 336.029 387.173C336.187 387.23 335.334 389.964 334.48 393.385C333.618 396.803 333.082 399.615 332.915 399.59Z" fill="#FAFAF9"/>
<path d="M333.715 406.335C333.725 406.505 330.924 406.772 327.512 407.341C324.096 407.899 321.359 408.547 321.313 408.383C321.269 408.236 323.964 407.33 327.417 406.764C330.866 406.19 333.71 406.183 333.715 406.335Z" fill="#FAFAF9"/>
<path d="M314.444 402.01C314.327 401.899 315.82 400.167 317.774 398.143C319.73 396.118 321.409 394.568 321.526 394.68C321.641 394.794 320.15 396.525 318.195 398.549C316.24 400.573 314.56 402.124 314.444 402.01Z" fill="#FAFAF9"/>
<path d="M301.961 414.155C301.794 414.187 301.296 412.167 300.443 409.761C299.601 407.35 298.724 405.463 298.874 405.384C299.007 405.308 300.134 407.107 300.995 409.567C301.864 412.022 302.111 414.13 301.961 414.155Z" fill="#FAFAF9"/>
<path d="M322.108 421.095C322.042 421.243 319.52 420.266 316.474 418.915C313.428 417.563 311.011 416.346 311.078 416.199C311.143 416.051 313.665 417.027 316.711 418.379C319.757 419.732 322.174 420.948 322.108 421.095Z" fill="#FAFAF9"/>
<path d="M286.99 419.059C286.836 419.008 287.309 417.168 288.046 414.951C288.782 412.732 289.503 410.975 289.657 411.026C289.81 411.078 289.337 412.916 288.6 415.135C287.864 417.352 287.142 419.11 286.99 419.059Z" fill="#FAFAF9"/>
<path d="M310.127 422.974C310.096 423.146 306.901 422.628 302.931 422.425C298.96 422.206 295.728 422.381 295.715 422.208C295.697 422.06 298.942 421.62 302.961 421.841C306.981 422.048 310.16 422.828 310.127 422.974Z" fill="#FAFAF9"/>
<path d="M314.937 389.858C314.919 389.858 314.909 389.707 314.907 389.415C314.9 389.125 314.93 388.686 315.088 388.141C315.234 387.602 315.586 386.917 316.309 386.469C317.02 386.007 318.003 385.85 319.05 386.016L318.82 386.15C320.051 381.844 322.014 375.551 323.98 368.5C325.822 361.899 327.061 355.818 327.934 351.411C328.354 349.278 328.7 347.517 328.962 346.188C329.21 344.956 329.366 344.277 329.405 344.285C329.446 344.291 329.365 344.982 329.186 346.227C329.009 347.473 328.722 349.269 328.341 351.486C327.571 355.915 326.391 362.033 324.545 368.655C322.574 375.726 320.54 381.992 319.195 386.264L319.143 386.432L318.965 386.399C318.036 386.226 317.105 386.343 316.47 386.733C315.811 387.105 315.459 387.706 315.29 388.208C314.948 389.234 315.011 389.866 314.937 389.858Z" fill="#17282F"/>
<path d="M340.12 405.478C340.023 405.523 339.334 404.002 337.905 401.735C336.484 399.468 334.229 396.504 331.212 393.753C328.183 391.009 325.019 389.047 322.626 387.849C320.234 386.644 318.654 386.101 318.69 386C318.702 385.962 319.106 386.071 319.828 386.299C320.551 386.517 321.575 386.916 322.807 387.477C325.271 388.592 328.528 390.533 331.606 393.319C334.673 396.116 336.913 399.172 338.259 401.52C338.935 402.693 339.429 403.673 339.715 404.374C340.011 405.07 340.157 405.462 340.12 405.478Z" fill="#17282F"/>
<path d="M338.896 399.167C338.616 399.167 338.33 399.117 338.068 399.024C337.353 398.771 336.765 398.259 336.209 397.744C335.553 397.138 334.89 396.551 334.223 395.973C334.127 395.864 334.028 395.756 333.929 395.646C334.094 394.944 334.277 394.181 334.478 393.385C334.835 391.952 335.194 390.639 335.477 389.593C337.679 391.164 339.48 393.24 340.406 395.764C340.761 396.733 340.93 397.956 340.197 398.681C339.856 399.018 339.381 399.167 338.896 399.167ZM333.473 395.155C332.889 394.537 332.267 393.923 331.605 393.32C329.208 391.148 326.701 389.49 324.545 388.336C323.343 387.64 322.081 387.046 320.832 386.645C320.453 386.502 320.116 386.387 319.828 386.299C319.598 386.227 319.402 386.166 319.24 386.119C319.335 385.818 319.432 385.51 319.533 385.191C323.731 385.494 327.201 385.832 331.166 387.318C332.532 387.83 333.863 388.5 335.082 389.32C334.713 390.369 334.287 391.731 333.911 393.242C333.744 393.906 333.598 394.549 333.473 395.155Z" fill="#3053D0"/>
<path d="M333.929 395.647C333.779 395.483 333.628 395.319 333.473 395.155C333.597 394.55 333.743 393.906 333.911 393.242C334.287 391.731 334.713 390.37 335.082 389.321C335.215 389.411 335.346 389.502 335.476 389.594C335.193 390.639 334.835 391.952 334.478 393.386C334.277 394.182 334.094 394.944 333.929 395.647Z" fill="#BFC0BE"/>
<path d="M319.073 386.218C319.051 386.214 319.028 386.211 319.006 386.207L319.011 386.191C319.032 386.2 319.052 386.209 319.073 386.218ZM319.239 386.12C319.17 386.1 319.106 386.082 319.05 386.066L319.321 385.175C319.392 385.181 319.462 385.186 319.533 385.191C319.432 385.51 319.334 385.819 319.239 386.12Z" fill="#111D23"/>
<path d="M334.225 395.974C332.375 394.371 330.491 392.849 328.612 391.232C327.448 390.23 326.044 389.205 324.546 388.337C326.702 389.49 329.209 391.148 331.607 393.32C332.268 393.923 332.891 394.537 333.475 395.155C333.63 395.319 333.781 395.483 333.931 395.647C334.029 395.756 334.128 395.865 334.225 395.974ZM320.833 386.646C320.241 386.457 319.653 386.311 319.075 386.218C319.054 386.209 319.034 386.2 319.014 386.191L319.052 386.066C319.108 386.082 319.172 386.1 319.242 386.12C319.403 386.167 319.6 386.228 319.829 386.299C320.118 386.387 320.455 386.503 320.833 386.646Z" fill="#111D23"/>
<path d="M311.226 378.011C311.241 378.043 310.835 378.302 310.054 378.69C309.274 379.078 308.101 379.562 306.6 379.993C303.616 380.863 299.158 381.34 294.494 380.13C289.83 378.918 286.165 376.331 283.984 374.119C282.879 373.013 282.091 372.019 281.6 371.3C281.106 370.581 280.877 370.157 280.907 370.137C281 370.068 282.023 371.716 284.272 373.821C286.489 375.92 290.098 378.383 294.641 379.563C299.183 380.742 303.534 380.346 306.493 379.592C309.482 378.847 311.177 377.905 311.226 378.011Z" fill="#17282F"/>
<path d="M296.441 384.99C296.397 384.99 296.353 384.99 296.309 384.989C293.7 384.946 291.283 383.608 289.215 382.016C285.781 379.369 283.596 375.462 281.758 371.522C282.254 372.217 282.992 373.123 283.986 374.118C286.167 376.33 289.832 378.917 294.496 380.129C295.166 380.303 295.832 380.442 296.49 380.55C295.791 381.761 295.383 382.56 295.461 382.609C295.463 382.61 295.465 382.612 295.47 382.612C295.579 382.612 296.161 381.839 296.987 380.626C298.121 380.787 299.229 380.857 300.289 380.857C302.462 380.857 304.441 380.561 306.054 380.142C303.247 382.515 300.097 384.99 296.441 384.99Z" fill="#3053D0"/>
<path d="M295.468 382.613C295.463 382.613 295.461 382.611 295.459 382.611C295.381 382.561 295.789 381.763 296.488 380.551C296.655 380.578 296.82 380.603 296.985 380.627C296.159 381.84 295.577 382.613 295.468 382.613Z" fill="#BFC0BE"/>
<path d="M300.597 380.308C299.555 380.308 298.464 380.242 297.347 380.091C297.386 380.032 297.427 379.971 297.468 379.911C298.554 380.106 299.651 380.241 300.751 380.307C300.7 380.308 300.649 380.308 300.597 380.308ZM296.804 380.012C296.091 379.899 295.369 379.751 294.642 379.562C290.388 378.457 286.951 376.227 284.711 374.223C288.006 376.891 292.342 378.892 296.926 379.807C296.884 379.877 296.844 379.944 296.804 380.012Z" fill="#3053D0"/>
<path d="M297.347 380.092C297.167 380.069 296.986 380.042 296.805 380.013C296.844 379.945 296.884 379.878 296.926 379.808C297.106 379.844 297.287 379.879 297.468 379.911C297.427 379.972 297.386 380.033 297.347 380.092Z" fill="#BFC0BE"/>
<path d="M300.288 380.858C299.228 380.858 298.12 380.787 296.986 380.627C296.821 380.603 296.656 380.577 296.489 380.55C295.831 380.442 295.165 380.303 294.495 380.129C289.831 378.917 286.166 376.331 283.985 374.118C282.991 373.123 282.253 372.218 281.757 371.523C281.676 371.351 281.596 371.178 281.518 371.005C282.412 372.155 283.49 373.236 284.711 374.224C286.951 376.228 290.388 378.458 294.642 379.563C295.369 379.752 296.091 379.9 296.804 380.012C296.985 380.042 297.167 380.068 297.346 380.092C298.464 380.243 299.554 380.309 300.597 380.309C300.648 380.309 300.7 380.309 300.75 380.308C301.29 380.341 301.831 380.358 302.369 380.358C303.636 380.358 304.897 380.265 306.137 380.071C306.109 380.095 306.081 380.119 306.053 380.143C304.44 380.561 302.461 380.858 300.288 380.858Z" fill="#111D23"/>
<path d="M323.039 315.968C322.86 315.957 323.075 312.11 322.613 307.406C322.174 302.697 321.233 298.96 321.406 298.916C321.48 298.897 321.808 299.808 322.184 301.327C322.563 302.842 322.967 304.971 323.196 307.35C323.422 309.727 323.43 311.894 323.346 313.455C323.263 315.016 323.114 315.973 323.039 315.968Z" fill="#17282F"/>
<path d="M178.277 477.066C178.274 477.033 178.84 476.938 179.872 476.961C180.9 476.989 182.41 477.156 184.158 477.799C184.598 477.964 185.055 478.176 185.477 478.511C185.894 478.832 186.287 479.355 186.304 479.998C186.318 481.326 184.859 482.284 183.54 482.007C182.207 481.752 181.193 480.776 180.354 479.737C179.505 478.676 178.892 477.379 178.551 475.984C177.882 473.182 178.38 470.284 179.895 468.206C180.115 467.957 180.419 467.718 180.801 467.661C181.17 467.599 181.57 467.743 181.816 467.979C182.316 468.453 182.491 469.054 182.581 469.617C182.723 470.719 182.644 471.762 182.419 472.671C181.98 474.505 181.065 475.775 180.36 476.523C180 476.897 179.69 477.155 179.469 477.313C179.245 477.47 179.124 477.543 179.112 477.527C179.078 477.484 179.537 477.144 180.189 476.371C180.823 475.6 181.649 474.34 182.015 472.58C182.206 471.708 182.254 470.719 182.101 469.688C182.023 469.204 181.829 468.677 181.477 468.365C181.132 468.047 180.637 468.136 180.3 468.563C178.982 470.417 178.471 473.223 179.12 475.846C179.441 477.162 180.015 478.385 180.805 479.386C181.585 480.373 182.545 481.268 183.636 481.476C184.679 481.733 185.841 480.919 185.819 480.009C185.818 479.555 185.547 479.15 185.191 478.859C184.836 478.561 184.418 478.352 184.008 478.184C182.332 477.512 180.865 477.285 179.859 477.188C178.847 477.096 178.28 477.114 178.277 477.066Z" fill="#17282F"/>
<path d="M193.799 486.287C197.455 485.603 199.802 485.175 199.802 485.175L193.799 486.287ZM186.066 466.915L186.064 466.914L188.306 466.263L188.464 466.525C187.846 466.636 187.033 466.772 186.066 466.915Z" fill="#8C8F8F"/>
<path d="M193.8 486.287L193.081 484.485C193.341 484.429 193.591 484.374 193.834 484.32C195.34 483.978 196.523 483.707 197.373 483.515C197.749 483.422 198.051 483.346 198.288 483.286C198.489 483.233 198.593 483.201 198.596 483.189L199.803 485.175C199.803 485.175 197.456 485.603 193.8 486.287ZM192.99 484.259L186.381 467.703C186.746 467.616 187.09 467.535 187.41 467.46C187.926 467.292 188.379 467.146 188.767 467.02L198.594 483.189C198.592 483.187 198.589 483.186 198.582 483.186C198.546 483.186 198.443 483.201 198.275 483.23C198.035 483.275 197.73 483.331 197.348 483.4C196.494 483.569 195.303 483.803 193.788 484.101C193.532 484.152 193.265 484.205 192.99 484.259ZM186.306 467.514L186.066 466.915C187.033 466.772 187.846 466.636 188.465 466.525L188.7 466.91C188.317 467.02 187.872 467.147 187.365 467.291C187.036 467.361 186.683 467.435 186.306 467.514Z" fill="#1C348A"/>
<path d="M193.08 484.484L192.989 484.258C193.264 484.204 193.531 484.151 193.787 484.101C195.302 483.802 196.493 483.568 197.347 483.399C197.729 483.33 198.034 483.274 198.275 483.229C198.442 483.2 198.545 483.185 198.581 483.185C198.588 483.185 198.591 483.186 198.593 483.188L198.595 483.188C198.592 483.2 198.488 483.232 198.287 483.285C198.05 483.345 197.748 483.421 197.372 483.514C196.523 483.706 195.339 483.977 193.833 484.319C193.59 484.373 193.34 484.428 193.08 484.484ZM186.38 467.702L186.305 467.513C186.682 467.434 187.035 467.36 187.364 467.29C187.871 467.146 188.316 467.02 188.699 466.909L188.766 467.02C188.378 467.145 187.925 467.291 187.409 467.459C187.089 467.534 186.745 467.615 186.38 467.702Z" fill="#0C1418"/>
<path d="M220.136 389.485L237.128 380.696L253.791 391.142L316.177 393.179L325.206 423.552L234.911 402.618C234.911 402.618 218.476 404.073 217.245 400.379C216.014 396.685 220.136 389.485 220.136 389.485Z" fill="#F8A58D"/>
<path d="M271.245 438.159L262.848 465.739L263.891 474.144C279.193 489.568 303.576 491.211 320.81 477.98C331.286 469.936 337.403 457.458 337.345 444.25L337.218 415.432L271.245 438.159Z" fill="#17282F"/>
<path d="M221.231 438.338C221.135 438.467 211.385 431.359 199.458 422.463C187.528 413.564 177.936 406.248 178.032 406.119C178.129 405.988 187.877 413.094 199.809 421.994C211.736 430.89 221.328 438.209 221.231 438.338Z" fill="#33535F"/>
<path d="M235.982 386.201C236.031 386.356 232.309 387.685 227.67 389.172C223.03 390.658 219.23 391.739 219.18 391.585C219.131 391.43 222.852 390.102 227.492 388.616C232.13 387.128 235.932 386.047 235.982 386.201Z" fill="#F68260"/>
<path d="M237.253 391.38C237.261 391.466 236.148 391.633 234.359 391.924C232.57 392.217 230.106 392.655 227.414 393.272C224.72 393.893 222.313 394.574 220.575 395.093C218.838 395.612 217.764 395.949 217.735 395.868C217.708 395.797 218.732 395.322 220.446 394.701C222.159 394.078 224.569 393.328 227.283 392.703C229.997 392.081 232.491 391.702 234.304 391.515C236.118 391.326 237.246 391.306 237.253 391.38Z" fill="#F68260"/>
<path d="M235.83 396.132C235.861 396.292 231.67 397.255 226.469 398.287C221.266 399.318 217.024 400.026 216.992 399.867C216.962 399.708 221.152 398.744 226.354 397.714C231.555 396.681 235.8 395.974 235.83 396.132Z" fill="#F68260"/>
<path d="M180.883 370.964C180.053 371.181 178.736 372.354 178.573 373.586C178.411 374.818 179.074 376.074 180.083 376.799C181.312 377.684 183.092 377.804 184.35 376.96C185.609 376.114 186.166 374.444 185.516 372.649C184.999 371.224 182.393 370.228 180.883 370.964Z" fill="#DADBD8"/>
<path d="M199.801 485.175L187.461 464.874L278.209 393.751C283.853 389.121 290.758 386.291 298.03 385.628C320.602 383.573 339.562 402.391 337.675 424.979L336.225 442.331L275.989 461.687L199.801 485.175Z" fill="#17282F"/>
<path d="M316.175 436.972C316.182 436.98 316.1 437.055 315.935 437.196C315.743 437.355 315.498 437.556 315.193 437.806C314.5 438.36 313.532 439.132 312.304 440.113C311.669 440.613 310.97 441.168 310.205 441.771C309.44 442.379 308.537 442.941 307.605 443.599C306.662 444.245 305.656 444.934 304.59 445.664C304.055 446.029 303.511 446.414 302.938 446.785C302.352 447.138 301.752 447.499 301.137 447.869C298.672 449.342 296.01 451.027 292.992 452.551C291.496 453.334 289.97 454.188 288.357 454.985C286.731 455.757 285.059 456.55 283.343 457.362C276.435 460.512 268.697 463.679 260.401 466.5C243.827 472.211 228.501 476.324 217.525 479.651C214.775 480.46 212.294 481.218 210.122 481.905C207.945 482.577 206.07 483.157 204.553 483.673C203.058 484.16 201.882 484.541 201.04 484.815C200.661 484.931 200.359 485.024 200.121 485.098C199.912 485.158 199.804 485.185 199.801 485.175C199.797 485.166 199.899 485.121 200.101 485.041C200.334 484.954 200.631 484.843 201 484.703C201.835 484.406 202.999 483.987 204.48 483.458C205.988 482.908 207.853 482.296 210.022 481.594C212.187 480.877 214.66 480.091 217.406 479.256C228.358 475.825 243.663 471.649 260.209 465.948C268.492 463.131 276.216 459.986 283.118 456.873C284.833 456.069 286.505 455.286 288.129 454.524C289.742 453.737 291.267 452.895 292.764 452.123C295.784 450.623 298.448 448.962 300.921 447.518C301.539 447.154 302.141 446.799 302.728 446.453C303.304 446.089 303.848 445.708 304.387 445.353C305.459 444.638 306.47 443.963 307.418 443.33C308.357 442.686 309.267 442.138 310.041 441.544C310.815 440.958 311.523 440.42 312.166 439.932C313.422 438.989 314.411 438.248 315.118 437.715C315.439 437.483 315.695 437.297 315.898 437.15C316.074 437.025 316.168 436.964 316.175 436.972Z" fill="#33535F"/>
<path d="M318.378 446.464C318.393 446.502 318.066 446.671 317.462 446.944C316.859 447.221 315.97 447.581 314.858 447.996C312.637 448.824 309.501 449.807 305.959 450.57C302.416 451.328 299.153 451.721 296.787 451.879C295.604 451.958 294.645 451.994 293.981 451.989C293.318 451.989 292.951 451.969 292.949 451.929C292.946 451.838 294.405 451.73 296.75 451.466C299.094 451.205 302.32 450.751 305.837 449.997C309.351 449.239 312.48 448.329 314.724 447.604C316.969 446.881 318.344 446.381 318.378 446.464Z" fill="#33535F"/>
<path d="M274.577 397.162C274.677 397.291 255.254 412.552 231.201 431.247C207.14 449.949 187.561 464.999 187.461 464.872C187.362 464.745 206.782 449.487 230.842 430.784C254.895 412.091 274.478 397.036 274.577 397.162Z" fill="#33535F"/>
<path d="M269.333 472.636C264.981 470.314 260.093 471.686 255.929 473.089C253.157 474.024 250.275 475.504 247.46 474.712C245.424 474.138 243.91 472.489 242.354 471.054C236.083 465.27 227.434 462.115 218.897 462.649C216.473 462.801 214.103 463.777 212.455 465.561C208.18 470.192 211.404 476.218 215.225 480.112C221.97 486.988 231.156 491.418 240.734 492.418C248.696 493.25 259.643 492.149 267.718 488.692C272.697 486.561 275.249 480.69 272.637 475.945C271.877 474.563 270.764 473.4 269.333 472.636Z" fill="#4971FF"/>
<path d="M246.089 492.683C244.205 492.683 242.398 492.593 240.723 492.418C235.025 491.822 229.465 490.014 224.477 487.198H224.486C229.474 490.014 235.034 491.822 240.732 492.418C242.406 492.593 244.211 492.681 246.094 492.683C246.093 492.683 246.09 492.683 246.089 492.683ZM223.483 486.614C223.474 486.614 223.482 486.614 223.473 486.614C220.557 484.861 217.853 482.759 215.449 480.35L215.457 480.348C217.86 482.758 220.566 484.861 223.483 486.614Z" fill="#8C8F8F"/>
<path d="M224.477 487.198C224.139 487.007 223.805 486.813 223.473 486.613C223.482 486.613 223.474 486.613 223.483 486.613C223.814 486.813 224.149 487.007 224.486 487.198H224.477Z" fill="#0C1418"/>
<path d="M215.45 480.35C215.43 480.33 215.408 480.307 215.386 480.286C215.39 480.285 215.392 480.285 215.394 480.284C215.415 480.305 215.437 480.327 215.458 480.348L215.45 480.35ZM215.079 479.972C213.666 478.507 212.352 476.753 211.482 474.892C212.354 476.753 213.674 478.505 215.086 479.969C215.084 479.97 215.081 479.972 215.079 479.972Z" fill="#0C1418"/>
<path d="M215.386 480.287C215.329 480.229 215.271 480.171 215.214 480.112C215.169 480.066 215.123 480.019 215.078 479.973C215.08 479.972 215.084 479.971 215.086 479.97C215.132 480.018 215.178 480.065 215.224 480.112C215.28 480.169 215.338 480.227 215.394 480.284C215.391 480.285 215.389 480.285 215.386 480.287Z" fill="#1A2C33"/>
<path d="M246.095 492.683C244.213 492.681 242.407 492.593 240.733 492.418C235.035 491.822 229.476 490.014 224.487 487.198C224.15 487.008 223.815 486.813 223.484 486.614C220.567 484.861 217.862 482.758 215.458 480.348C215.437 480.327 215.416 480.305 215.394 480.284C215.338 480.226 215.281 480.169 215.225 480.112C215.179 480.065 215.133 480.018 215.087 479.969C213.674 478.505 212.354 476.753 211.483 474.892C211.119 474.114 210.833 473.316 210.65 472.514C210.937 471.39 211.498 470.293 212.445 469.267C214.094 467.483 216.463 466.507 218.887 466.355C219.514 466.316 220.139 466.297 220.765 466.297C228.678 466.297 236.533 469.4 242.345 474.76C243.899 476.194 245.414 477.844 247.451 478.417C248.01 478.576 248.572 478.643 249.136 478.643C251.407 478.643 253.698 477.545 255.92 476.795C258.461 475.939 261.273 475.093 264.069 475.093C265.852 475.093 267.629 475.438 269.324 476.342C270.755 477.106 271.866 478.269 272.628 479.651C273.02 480.363 273.282 481.101 273.451 481.848C272.806 484.776 270.702 487.411 267.709 488.692C261.333 491.421 253.168 492.681 246.095 492.683Z" fill="#1C348A"/>
<path d="M273.45 481.848C273.37 481.874 273.391 480.784 272.383 479.268C271.877 478.529 271.124 477.694 270.054 476.991C269 476.278 267.636 475.661 266.052 475.459C262.82 475.08 259.075 476.44 254.916 477.565C252.859 478.11 250.613 478.942 248.153 478.634C246.953 478.478 245.749 478.08 244.676 477.43C243.607 476.789 242.633 475.997 241.688 475.18C238.102 471.679 233.849 469.488 229.783 468.105C227.749 467.423 225.751 466.973 223.86 466.731C221.968 466.482 220.186 466.45 218.592 466.699C216.999 466.947 215.615 467.47 214.516 468.122C213.422 468.785 212.609 469.553 212.02 470.237C210.865 471.636 210.475 472.595 210.412 472.558C210.412 472.558 210.72 471.568 211.844 470.092C212.419 469.371 213.23 468.554 214.345 467.842C215.464 467.143 216.888 466.574 218.524 466.292C220.163 466.007 221.997 466.017 223.918 466.25C225.844 466.476 227.881 466.914 229.952 467.595C232.026 468.268 234.132 469.19 236.202 470.351C237.225 470.947 238.268 471.566 239.243 472.333C240.211 473.091 241.129 473.925 242.07 474.736C243.007 475.548 243.958 476.319 244.973 476.929C245.982 477.544 247.095 477.912 248.226 478.066C250.504 478.367 252.688 477.588 254.774 477.045C258.916 475.962 262.724 474.605 266.104 475.048C269.457 475.583 271.617 477.597 272.574 479.144C273.065 479.936 273.282 480.635 273.379 481.111C273.461 481.591 273.466 481.846 273.45 481.848Z" fill="#17282F"/>
<path d="M273.45 481.848C273.37 481.874 273.391 480.784 272.383 479.268C271.877 478.529 271.124 477.694 270.054 476.991C269 476.278 267.636 475.661 266.052 475.459C262.82 475.08 259.075 476.44 254.916 477.565C252.859 478.11 250.613 478.942 248.153 478.634C246.953 478.478 245.749 478.08 244.676 477.43C243.607 476.789 242.633 475.997 241.688 475.18C238.102 471.679 233.849 469.488 229.783 468.105C227.749 467.423 225.751 466.973 223.86 466.731C221.968 466.482 220.186 466.45 218.592 466.699C216.999 466.947 215.615 467.47 214.516 468.122C213.422 468.785 212.609 469.553 212.02 470.237C210.865 471.636 210.475 472.595 210.412 472.558C210.412 472.558 210.72 471.568 211.844 470.092C212.419 469.371 213.23 468.554 214.345 467.842C215.464 467.143 216.888 466.574 218.524 466.292C220.163 466.007 221.997 466.017 223.918 466.25C225.844 466.476 227.881 466.914 229.952 467.595C232.026 468.268 234.132 469.19 236.202 470.351C237.225 470.947 238.268 471.566 239.243 472.333C240.211 473.091 241.129 473.925 242.07 474.736C243.007 475.548 243.958 476.319 244.973 476.929C245.982 477.544 247.095 477.912 248.226 478.066C250.504 478.367 252.688 477.588 254.774 477.045C258.916 475.962 262.724 474.605 266.104 475.048C269.457 475.583 271.617 477.597 272.574 479.144C273.065 479.936 273.282 480.635 273.379 481.111C273.461 481.591 273.466 481.846 273.45 481.848Z" fill="#17282F"/>
<path d="M219.464 480.8C219.424 480.733 220.263 480.126 221.693 479.255C223.121 478.384 225.147 477.264 227.46 476.176C229.773 475.091 231.928 474.244 233.51 473.7C235.093 473.155 236.096 472.895 236.122 472.968C236.149 473.048 235.194 473.446 233.658 474.086C232.12 474.726 230.006 475.627 227.708 476.706C225.412 477.787 223.37 478.84 221.897 479.615C220.422 480.39 219.508 480.872 219.464 480.8Z" fill="#17282F"/>
<path d="M220.96 485.154C220.889 485.008 224.696 483.023 229.462 480.718C234.228 478.415 238.148 476.665 238.218 476.81C238.288 476.956 234.483 478.941 229.717 481.245C224.95 483.55 221.03 485.298 220.96 485.154Z" fill="#17282F"/>
<path d="M238.993 487.042C238.906 487.178 234.268 484.41 228.633 480.86C222.998 477.31 218.5 474.321 218.585 474.184C218.672 474.047 223.309 476.815 228.946 480.366C234.58 483.916 239.078 486.905 238.993 487.042Z" fill="#17282F"/>
<path d="M241.604 482.525C241.552 482.589 240.698 481.991 239.333 481.007C237.969 480.023 236.085 478.664 233.979 477.202C231.87 475.742 229.938 474.456 228.538 473.524C227.139 472.59 226.277 472.002 226.32 471.929C226.359 471.863 227.296 472.327 228.757 473.173C230.217 474.018 232.196 475.254 234.312 476.722C236.429 478.189 238.281 479.609 239.586 480.679C240.89 481.749 241.652 482.463 241.604 482.525Z" fill="#17282F"/>
<defs>
<linearGradient id="paint0_linear_707_200539" x1="429.438" y1="318.995" x2="484.447" y2="318.995" gradientUnits="userSpaceOnUse">
<stop stop-color="#F03D5F"/>
<stop offset="1" stop-color="#F03D5F"/>
</linearGradient>
<linearGradient id="paint1_linear_707_200539" x1="447.285" y1="320.748" x2="468.055" y2="320.748" gradientUnits="userSpaceOnUse">
<stop stop-color="#F03D5F"/>
<stop offset="1" stop-color="#F03D5F"/>
</linearGradient>
<linearGradient id="paint2_linear_707_200539" x1="523.027" y1="257.856" x2="587.37" y2="257.856" gradientUnits="userSpaceOnUse">
<stop stop-color="#F03D5F"/>
<stop offset="1" stop-color="#F03D5F"/>
</linearGradient>
<linearGradient id="paint3_linear_707_200539" x1="766.559" y1="110.445" x2="594.805" y2="369.916" gradientUnits="userSpaceOnUse">
<stop stop-color="white"/>
<stop offset="1" stop-color="white"/>
</linearGradient>
<linearGradient id="paint4_linear_707_200539" x1="543.908" y1="259.906" x2="568.203" y2="259.906" gradientUnits="userSpaceOnUse">
<stop stop-color="#F03D5F"/>
<stop offset="1" stop-color="#F03D5F"/>
</linearGradient>
<linearGradient id="paint5_linear_707_200539" x1="378.742" y1="170.023" x2="489.689" y2="170.023" gradientUnits="userSpaceOnUse">
<stop stop-color="#F03D5F"/>
<stop offset="1" stop-color="#F03D5F"/>
</linearGradient>
<linearGradient id="paint6_linear_707_200539" x1="414.738" y1="173.561" x2="456.629" y2="173.561" gradientUnits="userSpaceOnUse">
<stop stop-color="#F03D5F"/>
<stop offset="1" stop-color="#F03D5F"/>
</linearGradient>
</defs>
</svg>
