<svg width="408" height="417" viewBox="0 0 408 417" fill="none" xmlns="http://www.w3.org/2000/svg">
<g clip-path="url(#clip0_703_169091)">
<path d="M131.147 47.4352C128.149 50.5464 128.236 55.5041 131.341 58.5081C134.447 61.5111 139.395 61.4246 142.393 58.3125C145.391 55.2014 145.305 50.2436 142.199 47.2406C139.093 44.2366 134.145 44.3241 131.147 47.4352ZM127.264 37.7125C128.641 36.8785 130.107 36.2467 131.62 35.8152L132.517 31.4958L139.802 31.3679L140.851 35.6525C142.377 36.0305 143.865 36.6096 145.271 37.3947L148.952 34.9774L154.194 40.048L151.912 43.8182C152.745 45.1984 153.375 46.668 153.805 48.1836L158.116 49.0825L158.244 56.3804L153.966 57.4315C153.591 58.9603 153.011 60.4506 152.228 61.859L154.641 65.5484L149.581 70.7995L145.817 68.5138C144.439 69.3468 142.973 69.9796 141.46 70.4102L140.563 74.7296L133.278 74.8574L132.229 70.572C130.703 70.1949 129.216 69.6148 127.81 68.8297L124.128 71.248L118.886 66.1774L121.169 62.4072C120.336 61.026 119.705 59.5574 119.275 58.0418L114.964 57.1429L114.836 49.8441L119.113 48.7938C119.49 47.2651 120.069 45.7748 120.852 44.3664L118.439 40.677L123.5 35.4259L127.264 37.7125Z" fill="#DADBD8" fill-opacity="0.3"/>
<path d="M131.231 254.089C129.502 255.883 129.552 258.742 131.343 260.474C133.134 262.207 135.987 262.156 137.717 260.362C139.445 258.567 139.396 255.709 137.604 253.976C135.814 252.244 132.96 252.294 131.231 254.089ZM128.992 248.482C129.786 248 130.632 247.636 131.503 247.387L132.021 244.897L136.223 244.822L136.827 247.294C137.707 247.511 138.565 247.846 139.376 248.298L141.5 246.904L144.522 249.828L143.206 252.003C143.686 252.799 144.05 253.646 144.298 254.521L146.784 255.039L146.858 259.248L144.391 259.853C144.174 260.735 143.84 261.595 143.389 262.407L144.781 264.535L141.862 267.563L139.691 266.245C138.896 266.725 138.051 267.09 137.179 267.338L136.661 269.829L132.46 269.903L131.855 267.432C130.975 267.214 130.117 266.88 129.306 266.427L127.183 267.822L124.16 264.898L125.477 262.723C124.996 261.927 124.632 261.079 124.384 260.206L121.898 259.687L121.824 255.479L124.291 254.872C124.508 253.99 124.842 253.131 125.294 252.319L123.902 250.191L126.821 247.162L128.992 248.482Z" fill="#DADBD8"/>
<path d="M39.003 64.7484C37.8226 65.9735 37.8568 67.9244 39.0793 69.1072C40.3018 70.29 42.2495 70.2552 43.4298 69.0311C44.6099 67.806 44.5758 65.8541 43.3533 64.6723C42.1307 63.4895 40.1831 63.5233 39.003 64.7484ZM37.4741 60.9218C38.0166 60.5927 38.5935 60.3435 39.1889 60.1743L39.5423 58.4744L42.4097 58.4236L42.8225 60.1103C43.4236 60.2589 44.0091 60.4874 44.5626 60.7967L46.0117 59.8443L48.0752 61.8404L47.1767 63.3249C47.5044 63.8684 47.753 64.4466 47.922 65.0436L49.6192 65.3972L49.6695 68.2704L47.9857 68.6832C47.8376 69.2859 47.6096 69.8726 47.3013 70.4263L48.2511 71.879L46.2592 73.9465L44.7775 73.0458C44.2352 73.3739 43.6579 73.6231 43.0625 73.7923L42.7092 75.4931L39.8418 75.543L39.429 73.8562C38.8278 73.7086 38.2424 73.4801 37.6892 73.1708L36.2397 74.1223L34.1763 72.1263L35.0747 70.6426C34.747 70.0992 34.4984 69.5209 34.3295 68.9239L32.6322 68.5704L32.582 65.6971L34.2657 65.2834C34.4138 64.6817 34.6418 64.095 34.9501 63.5402L34.0003 62.0885L35.9923 60.021L37.4741 60.9218Z" fill="#DADBD8"/>
<path d="M180.577 31.1013C178.245 33.5223 178.313 37.3791 180.729 39.7164C183.145 42.0538 186.995 41.9861 189.328 39.5651C191.66 37.144 191.593 33.2863 189.176 30.9499C186.761 28.6125 182.91 28.6802 180.577 31.1013ZM177.556 23.5363C178.628 22.8866 179.768 22.3949 180.945 22.0602L181.643 18.6989L187.312 18.5993L188.127 21.9333C189.315 22.2266 190.473 22.6789 191.567 23.2891L194.432 21.4077L198.51 25.3528L196.735 28.2872C197.382 29.3609 197.873 30.5042 198.207 31.6833L201.562 32.3828L201.661 38.0617L198.334 38.8787C198.041 40.069 197.59 41.2283 196.98 42.3246L198.857 45.195L194.921 49.2803L191.992 47.5014C190.92 48.1511 189.779 48.6428 188.602 48.9775L187.904 52.3388L182.236 52.4375L181.42 49.1035C180.232 48.8101 179.075 48.3589 177.981 47.7477L175.117 49.6291L171.038 45.684L172.814 42.7505C172.166 41.6758 171.674 40.5335 171.34 39.3535L167.986 38.6549L167.887 32.976L171.214 32.1581C171.507 30.9687 171.958 29.8094 172.568 28.7131L170.69 25.8426L174.628 21.7565L177.556 23.5363Z" fill="#E7E8E5" fill-opacity="0.6"/>
<path d="M331.26 173.402C328.265 176.51 328.352 181.463 331.454 184.464C334.557 187.465 339.5 187.377 342.495 184.269C345.49 181.161 345.403 176.208 342.301 173.207C339.198 170.207 334.256 170.295 331.26 173.402ZM327.381 163.69C328.757 162.857 330.222 162.225 331.732 161.794L332.629 157.479L339.907 157.351L340.954 161.631C342.479 162.008 343.965 162.588 345.37 163.373L349.047 160.957L354.284 166.022L352.004 169.789C352.836 171.168 353.467 172.637 353.895 174.15L358.202 175.048L358.331 182.34L354.058 183.389C353.682 184.917 353.102 186.405 352.321 187.813L354.731 191.497L349.675 196.744L345.915 194.46C344.539 195.293 343.074 195.925 341.563 196.354L340.666 200.67L333.389 200.798L332.341 196.516C330.816 196.14 329.331 195.56 327.926 194.776L324.248 197.191L319.011 192.126L321.292 188.359C320.459 186.98 319.829 185.513 319.4 183.999L315.092 183.1L314.965 175.81L319.239 174.76C319.614 173.232 320.193 171.743 320.976 170.336L318.565 166.651L323.62 161.405L327.381 163.69Z" fill="#DADBD8"/>
<path d="M359.098 30.4328C354.307 30.4328 350.424 26.5422 350.424 21.7424C350.424 16.9426 354.307 13.0511 359.098 13.0511C363.889 13.0511 367.772 16.9426 367.772 21.7424C367.772 26.5422 363.889 30.4328 359.098 30.4328ZM378.809 21.8346C378.809 9.67574 367.841 0.0846519 355.277 2.44646C347.375 3.93294 341.077 10.3988 339.693 18.3342C338.827 23.2938 339.849 27.96 342.108 31.8111H342.097L342.153 31.8854C342.909 33.1613 343.856 34.0742 344.813 35.415L356.257 50.6031C357.681 52.493 360.515 52.493 361.939 50.6031L373.192 35.6651C373.192 35.6651 375.293 33.1556 376.055 31.8657L376.096 31.8111H376.088C377.806 28.8814 378.809 25.4788 378.809 21.8346Z" fill="#DADBD8"/>
<path d="M31.8287 305.996C35.7192 303.389 37.8813 298.424 36.9037 293.262C35.6181 286.5 29.4459 281.995 23.1158 283.199C16.7889 284.402 12.6994 290.861 13.9846 297.623C14.9751 302.832 18.87 306.669 23.5 307.621C6.39747 313.717 10.9255 332.746 10.9255 332.746L52.6271 324.811C52.6271 324.811 49.8081 305.232 31.8287 305.996Z" fill="#E7E8E5"/>
<path d="M82.3415 387.113L73.7573 384.993C73.7573 384.993 71.9812 392.214 64.4593 390.495C60.5526 389.602 59.1633 386.551 58.825 384.392C58.4319 381.887 59.3565 379.37 61.1494 377.578C63.1968 375.533 66.9249 374.134 72.4592 376.583L77.228 357.191L68.7395 355.096L65.9462 366.455C65.9462 366.455 53.2833 366.6 50.0508 379.744C46.958 392.32 57.4969 398.02 62.3151 399.21C66 400.12 78.7721 402.325 82.3415 387.113Z" fill="#E7E8E5"/>
<path d="M71.6016 343.016L80.2159 345.142L78.2338 353.203L69.6191 351.076L71.6016 343.016Z" fill="#E7E8E5"/>
<path d="M23.1464 211.142H42.7351L41.003 219.954H5.68945L7.0887 212.945L28.3434 196.257C33.6072 192.051 35.2058 189.582 35.2058 186.51C35.2058 183.44 32.8741 181.371 28.3434 181.371C24.6124 181.371 21.0144 183.106 18.4157 186.244L11.1534 180.97C14.8844 175.83 21.8802 172.425 29.9425 172.425C39.8036 172.425 46.2668 177.699 46.2668 184.975C46.2668 190.516 43.7344 195.188 35.5391 201.531L23.1464 211.142Z" fill="white"/>
<path d="M89.4432 210.141H81.7812L79.849 219.954H69.3215L71.3204 210.141H46.2012L47.6001 202.865L75.0515 173.227H86.8452L61.2596 201.33H73.5188L75.2517 192.585H85.3121L83.5804 201.33H91.2424L89.4432 210.141Z" fill="white"/>
<path d="M120.226 163.748H129.954L95.7062 226.63H86.0449L120.226 163.748Z" fill="white"/>
<path d="M164.667 173.227L163.267 180.236L138.349 219.954H126.355L150.276 182.038H135.15L133.618 189.648H124.023L127.288 173.227H164.667Z" fill="white"/>
<path d="M27.9653 159.394H14.293C14.293 140.323 21.9948 120.824 35.4238 105.898C49.5599 90.1865 67.9004 81.5327 87.0656 81.5327C126.173 81.5327 153.487 110.134 153.487 151.086H139.815C139.815 117.677 118.616 95.2316 87.0656 95.2316C56.1342 95.2316 27.9653 125.814 27.9653 159.394Z" fill="#D7DFFF"/>
<path d="M35.4615 155.583C37.6467 155.619 39.4162 155.803 39.415 155.995C39.4136 156.186 37.6412 156.343 35.456 156.347C33.2722 156.349 31.502 156.165 31.5039 155.935C31.5053 155.705 33.2781 155.547 35.4615 155.583Z" fill="#17282F"/>
<path d="M44.9004 125.556C46.7292 126.755 48.0438 127.992 47.8374 128.319C47.6307 128.646 45.9528 127.983 44.0895 126.84C42.2277 125.697 40.9123 124.459 41.1535 124.077C41.3948 123.697 43.0729 124.359 44.9004 125.556Z" fill="#17282F"/>
<path d="M68.5543 104.861C69.4389 106.863 69.8781 108.615 69.535 108.775C69.1914 108.935 68.1372 107.469 67.18 105.501C66.2233 103.534 65.7841 101.782 66.1998 101.587C66.6155 101.395 67.6701 102.86 68.5543 104.861Z" fill="#17282F"/>
<path d="M99.7063 102.401C99.162 104.521 98.4225 106.169 98.0555 106.082C97.6876 105.994 97.7674 104.189 98.232 102.05C98.6955 99.912 99.435 98.2638 99.8827 98.37C100.329 98.4763 100.251 100.281 99.7063 102.401Z" fill="#17282F"/>
<path d="M125.16 120.313C123.339 121.525 121.692 122.258 121.479 121.95C121.265 121.643 122.529 120.353 124.299 119.07C126.068 117.787 127.717 117.054 127.98 117.434C128.242 117.813 126.979 119.102 125.16 120.313Z" fill="#17282F"/>
<path d="M133.542 149.854C131.357 149.852 129.585 149.692 129.584 149.497C129.582 149.303 131.352 149.122 133.538 149.093C135.721 149.065 137.493 149.225 137.495 149.45C137.496 149.676 135.726 149.856 133.542 149.854Z" fill="#17282F"/>
<path d="M83.3347 153.917C82.6796 153.917 82.022 153.704 81.4721 153.277L58.4948 135.398C57.1699 134.366 56.9299 132.454 57.9592 131.126C58.9882 129.8 60.8952 129.558 62.2229 130.589L83.1591 146.881L112.116 120.246C113.344 119.101 115.266 119.171 116.409 120.403C117.552 121.635 117.482 123.56 116.253 124.706L85.4045 153.102C84.8241 153.642 84.0803 153.917 83.3347 153.917Z" fill="#D7DFFF"/>
<path d="M98.9165 72.4443H72.5696C72.159 72.4443 71.8262 72.1106 71.8262 71.6988V62.1425C71.8262 61.7306 72.159 61.3969 72.5696 61.3969H98.9165C99.3266 61.3969 99.6597 61.7306 99.6597 62.1425V71.6988C99.6597 72.1106 99.3266 72.4443 98.9165 72.4443Z" fill="#D7DFFF"/>
<path d="M92.9379 79.9883H78.5508V66.9212H92.9379V79.9883Z" fill="#D7DFFF"/>
<path d="M35.632 102.709L24.8252 116.118C24.4044 116.639 23.6411 116.721 23.1202 116.3L15.734 110.325C15.213 109.903 15.1317 109.138 15.5525 108.617L26.3597 95.2073C26.7802 94.6855 27.5434 94.6037 28.0647 95.0258L35.4506 101.001C35.9715 101.422 36.0529 102.187 35.632 102.709Z" fill="#D7DFFF"/>
<path d="M98.9194 72.4435C98.9194 72.5986 93.0198 72.7236 85.7439 72.7236C78.465 72.7236 72.5664 72.5986 72.5664 72.4435C72.5664 72.2893 78.465 72.1642 85.7439 72.1642C93.0198 72.1642 98.9194 72.2893 98.9194 72.4435Z" fill="#17282F"/>
<path d="M26.1154 113.81C25.9681 113.977 23.9783 112.456 21.5196 110.604C19.0639 108.746 17.0564 107.249 17.177 107.061C17.2914 106.88 19.5126 108.092 21.9958 109.971C24.4816 111.844 26.2573 113.65 26.1154 113.81Z" fill="#17282F"/>
<path d="M28.4006 110.435C28.2531 110.602 26.2633 109.082 23.8047 107.229C21.349 105.371 19.3415 103.874 19.4622 103.686C19.5765 103.505 21.7976 104.717 24.2809 106.596C26.7667 108.47 28.5424 110.275 28.4006 110.435Z" fill="#17282F"/>
<path d="M31.213 107.606C31.0657 107.775 29.0759 106.253 26.6172 104.401C24.1612 102.542 22.1541 101.046 22.2747 100.858C22.3891 100.677 24.6102 101.89 27.0934 103.768C29.5792 105.641 31.3549 107.447 31.213 107.606Z" fill="#17282F"/>
<path d="M33.9339 104.232C33.7861 104.401 31.7963 102.879 29.3376 101.027C26.8819 99.1684 24.8745 97.6725 24.9954 97.4835C25.1095 97.303 27.3306 98.5159 29.8138 100.394C32.2997 102.267 34.0757 104.073 33.9339 104.232Z" fill="#17282F"/>
<path d="M143.1 107.529L131.468 94.8318C131.015 94.3382 131.048 93.5691 131.541 93.1159L138.535 86.6848C139.028 86.2307 139.796 86.2636 140.248 86.7582L151.88 99.4557C152.334 99.9493 152.3 100.717 151.807 101.172L144.813 107.603C144.319 108.057 143.552 108.024 143.1 107.529Z" fill="#D7DFFF"/>
<path d="M133.557 96.4526C133.412 96.2815 135.21 94.5355 137.403 92.3739C139.601 90.2171 141.376 88.4505 141.544 88.5971C141.706 88.7372 140.18 90.7587 137.956 92.94C135.739 95.125 133.693 96.6162 133.557 96.4526Z" fill="#17282F"/>
<path d="M136.547 99.2181C136.404 99.047 138.2 97.301 140.393 95.1404C142.592 92.9826 144.367 91.2159 144.535 91.3636C144.697 91.5036 143.17 93.5242 140.948 95.7064C138.73 97.8905 136.684 99.3826 136.547 99.2181Z" fill="#17282F"/>
<path d="M138.922 102.425C138.778 102.255 140.575 100.509 142.768 98.3474C144.967 96.1906 146.741 94.4239 146.909 94.5715C147.071 94.7107 145.545 96.7321 143.322 98.9134C141.104 101.098 139.058 102.59 138.922 102.425Z" fill="#17282F"/>
<path d="M141.848 105.621C141.703 105.45 143.501 103.704 145.694 101.544C147.893 99.3859 149.668 97.6193 149.835 97.7669C149.997 97.907 148.471 99.9275 146.247 102.109C144.03 104.294 141.985 105.786 141.848 105.621Z" fill="#17282F"/>
<path d="M75.5264 72.4316C75.3078 72.4316 75.1309 69.9918 75.1309 66.985C75.1309 63.9763 75.3078 61.5374 75.5264 61.5374C75.7449 61.5374 75.9219 63.9763 75.9219 66.985C75.9219 69.9918 75.7449 72.4316 75.5264 72.4316Z" fill="#17282F"/>
<path d="M80.6827 72.4316C80.4642 72.4316 80.2871 69.9918 80.2871 66.985C80.2871 63.9763 80.4642 61.5374 80.6827 61.5374C80.9011 61.5374 81.0782 63.9763 81.0782 66.985C81.0782 69.9918 80.9011 72.4316 80.6827 72.4316Z" fill="#17282F"/>
<path d="M85.8393 72.4316C85.6208 72.4316 85.4434 69.9918 85.4434 66.985C85.4434 63.9763 85.6208 61.5374 85.8393 61.5374C86.0574 61.5374 86.2349 63.9763 86.2349 66.985C86.2349 69.9918 86.0574 72.4316 85.8393 72.4316Z" fill="#17282F"/>
<path d="M90.9971 72.4316C90.7786 72.4316 90.6016 69.9918 90.6016 66.985C90.6016 63.9763 90.7786 61.5374 90.9971 61.5374C91.2156 61.5374 91.3926 63.9763 91.3926 66.985C91.3926 69.9918 91.2156 72.4316 90.9971 72.4316Z" fill="#17282F"/>
<path d="M96.1519 72.4316C95.9332 72.4316 95.7559 69.9918 95.7559 66.985C95.7559 63.9763 95.9332 61.5374 96.1519 61.5374C96.3705 61.5374 96.547 63.9763 96.547 66.985C96.547 69.9918 96.3705 72.4316 96.1519 72.4316Z" fill="#17282F"/>
<path d="M90.927 149.821C90.927 153.632 87.8433 156.722 84.0397 156.722C80.236 156.722 77.1523 153.632 77.1523 149.821C77.1523 146.011 80.236 142.921 84.0397 142.921C87.8433 142.921 90.927 146.011 90.927 149.821Z" fill="#D7DFFF"/>
<path d="M326.497 142.108L338.269 140.243C343.78 144.695 350.546 147.721 358.082 148.676C379.753 151.42 399.544 136.02 402.287 114.28C405.031 92.5374 389.688 72.6877 368.018 69.9432C346.347 67.1978 326.556 82.5975 323.813 104.34C322.667 113.418 324.684 122.161 328.989 129.472L328.973 129.457L326.497 142.108Z" fill="white" fill-opacity="0.3"/>
<path d="M375.195 110.456C375.195 108.23 376.996 106.426 379.218 106.426C381.44 106.426 383.241 108.23 383.241 110.456C383.241 112.682 381.44 114.486 379.218 114.486C376.996 114.486 375.195 112.682 375.195 110.456Z" fill="white"/>
<path d="M359.098 110.456C359.098 108.23 360.899 106.426 363.12 106.426C365.342 106.426 367.143 108.23 367.143 110.456C367.143 112.682 365.342 114.486 363.12 114.486C360.899 114.486 359.098 112.682 359.098 110.456Z" fill="white"/>
<path d="M343.04 112.472C341.929 110.543 342.588 108.079 344.512 106.966C346.436 105.854 348.897 106.514 350.007 108.441C351.118 110.369 350.459 112.834 348.534 113.947C346.61 115.059 344.151 114.399 343.04 112.472Z" fill="white"/>
<path d="M61.8833 254.801C59.4074 253.624 55.2536 251.174 52.6869 250.212C50.12 249.25 47.2424 248.795 44.6437 249.666C43.1245 250.176 41.6157 251.384 41.6055 252.989L51.6967 260.401L61.8833 257.715V254.801Z" fill="#F57F62"/>
<path d="M50.8446 254.696C50.8446 254.696 32.7168 250.761 29.7335 249.202C26.7507 247.643 10.9206 239.706 8.29546 239.706C5.67038 239.706 3.40307 240.424 2.92578 243.053L6.37385 245.739L6.81192 247.11L12.7055 250.185L13.7843 252.168L28.779 260.195C28.779 260.195 44.5295 268.205 47.1545 268.683C49.7797 269.161 62.9051 270.238 68.5134 275.02L91.0358 265.758C91.0358 265.758 84.5283 256.497 79.5233 254.221C75.0573 252.19 67.5589 252.186 62.3087 254.338L50.8446 254.696Z" fill="#F9A78D"/>
<path d="M65.918 269.876C65.918 269.876 94.5876 332.513 99.201 345.058C99.201 345.058 131.25 339.782 132.348 321.956L91.0369 265.55L65.918 269.876Z" fill="#F9A78D"/>
<path d="M39.2878 256.114C39.2856 256.131 39.1811 256.128 38.9806 256.107C38.7775 256.094 38.4886 256.029 38.1184 255.933C37.383 255.727 36.354 255.321 35.1344 254.725C33.9115 254.135 32.4976 253.355 30.9389 252.481C30.1584 252.047 29.3424 251.584 28.4861 251.138C27.6393 250.69 26.7071 250.319 25.7617 249.903C23.8723 249.087 22.0504 248.372 20.337 247.927C18.6375 247.505 17.0033 247.182 15.7738 247.596C14.5369 248.021 13.983 249.08 13.6685 249.725C13.3481 250.402 13.2367 250.81 13.1897 250.795C13.1736 250.791 13.1894 250.686 13.2355 250.492C13.2759 250.294 13.3573 250.009 13.494 249.65C13.6326 249.294 13.8276 248.858 14.1605 248.413C14.4853 247.967 14.986 247.518 15.658 247.269C16.3266 247.008 17.1143 246.979 17.9191 247.046C18.727 247.117 19.5704 247.272 20.4481 247.49C22.2036 247.92 24.0578 248.634 25.9541 249.453C26.8963 249.867 27.8365 250.245 28.7075 250.713C29.5734 251.171 30.3857 251.642 31.161 252.088C32.7084 252.984 34.0977 253.791 35.2902 254.417C36.4802 255.047 37.4725 255.494 38.1763 255.751C38.8802 256.01 39.294 256.065 39.2878 256.114Z" fill="#F57F62"/>
<path d="M21.9987 247.109C21.9785 247.165 20.9876 246.888 19.4609 246.229C17.9528 245.546 15.8848 244.585 13.5043 243.846C12.3312 243.489 11.1347 243.465 10.0768 243.552C9.02098 243.639 8.13605 244.06 7.6584 244.681C7.17854 245.299 7.04035 245.963 6.9476 246.403C6.88564 246.854 6.84753 247.11 6.8116 247.11C6.78044 247.11 6.75331 246.854 6.75844 246.382C6.79803 245.92 6.87941 245.202 7.38383 244.47C7.64447 244.119 8.00995 243.783 8.47111 243.547C8.93264 243.315 9.46565 243.175 10.0247 243.104C11.1329 242.986 12.3884 243 13.6381 243.375C16.0792 244.133 18.1444 245.157 19.6068 245.915C21.0797 246.648 22.0262 247.039 21.9987 247.109Z" fill="#F57F62"/>
<path d="M67.1923 252.93C67.2025 252.962 66.9404 253.075 66.4562 253.253C65.9738 253.435 65.2608 253.656 64.3693 253.891C62.5877 254.365 60.0653 254.828 57.2469 254.954C54.4272 255.074 51.8739 254.832 50.0579 254.515C49.1491 254.359 48.4197 254.201 47.9233 254.061C47.4255 253.927 47.1549 253.837 47.1623 253.804C47.1795 253.727 48.2939 253.948 50.1078 254.173C51.9206 254.4 54.4426 254.583 57.2257 254.464C60.0073 254.34 62.5034 253.938 64.2897 253.554C66.0772 253.173 67.1681 252.855 67.1923 252.93Z" fill="#F57F62"/>
<path d="M334.262 215.59L292.509 206.94L282.245 199.183L227.152 209.828C226.273 211.441 217.344 223.898 217.344 223.898L195.652 231.281C186.373 233.779 178.099 239.012 172.111 246.342C167.534 251.943 162.432 259.677 158.065 269.942C148.304 292.89 134.217 319.405 134.217 319.405L125.385 305.157L88.1719 322.711C88.1719 322.711 109.972 366.748 117.19 373.035C125.213 380.024 143.656 380.829 156.41 367.796C164.099 359.939 186.314 328.87 190.941 321.094L197.772 353.619L204.091 390.735L193.88 416.273H342.904L336.738 392.135C336.738 392.135 342.813 329.199 344.488 317.492C348.441 289.86 334.262 215.59 334.262 215.59Z" fill="#D7DFFF"/>
<path d="M334.173 215.737C334.173 215.737 364.016 224.125 370.584 253.838C374.565 271.847 388.079 323.168 392.832 365.426C395.656 390.546 395.568 413.764 395.656 416.42H349.859L330.447 224.123L334.173 215.737Z" fill="#D7DFFF"/>
<path d="M257.634 241.255C257.645 241.26 257.602 241.367 257.508 241.564C257.394 241.797 257.254 242.082 257.084 242.429C256.713 243.187 256.177 244.297 255.537 245.723C254.219 248.554 252.657 252.733 250.147 257.403L250.018 257.641L249.811 257.464C246.717 254.822 243.352 251.644 239.881 248.209C233.74 242.1 228.352 236.41 224.367 232.376C222.401 230.395 220.795 228.778 219.637 227.611C219.104 227.08 218.675 226.653 218.344 226.323C218.051 226.024 217.903 225.861 217.915 225.849C217.926 225.837 218.097 225.975 218.41 226.251C218.758 226.564 219.209 226.97 219.768 227.474C220.931 228.553 222.597 230.135 224.612 232.131C228.663 236.106 234.092 241.76 240.224 247.861C243.691 251.291 247.036 254.474 250.097 257.128L249.761 257.189C252.286 252.579 253.909 248.418 255.298 245.612C255.975 244.198 256.55 243.103 256.96 242.364C257.155 242.029 257.314 241.755 257.446 241.53C257.559 241.343 257.623 241.249 257.634 241.255Z" fill="#040606"/>
<path d="M293.05 208.143C293.067 208.146 293.036 208.372 292.962 208.801C292.873 209.278 292.757 209.899 292.613 210.674C292.273 212.293 291.709 214.62 290.905 217.466C289.287 223.156 286.66 230.896 283.434 239.316C281.723 243.774 280.034 247.981 278.456 251.719L278.335 252.004L278.102 251.799C273.849 248.04 270.04 245.08 267.456 242.874C266.157 241.78 265.145 240.897 264.465 240.278C264.155 239.988 263.902 239.751 263.698 239.56C263.526 239.394 263.441 239.304 263.45 239.294C263.458 239.285 263.559 239.357 263.745 239.505C263.962 239.682 264.23 239.901 264.558 240.169C265.313 240.783 266.343 241.622 267.627 242.667C270.257 244.811 274.1 247.717 278.398 251.465L278.045 251.544C279.595 247.805 281.269 243.593 282.978 239.141C286.201 230.729 288.874 223.021 290.574 217.369C291.418 214.542 292.032 212.234 292.427 210.632C292.608 209.867 292.754 209.253 292.865 208.782C292.971 208.36 293.034 208.139 293.05 208.143Z" fill="#040606"/>
<path d="M196.51 349.603C196.501 349.606 196.474 349.534 196.427 349.39C196.375 349.218 196.31 349.008 196.231 348.751C196.058 348.146 195.823 347.321 195.524 346.277C195.206 345.205 194.892 343.875 194.517 342.333C194.124 340.794 193.74 339.028 193.334 337.071C191.668 329.255 189.999 318.322 188.961 306.172C187.904 294.019 187.671 282.97 187.721 274.982C187.754 270.987 187.831 267.754 187.941 265.523C187.994 264.44 188.036 263.583 188.067 262.954C188.085 262.686 188.099 262.467 188.112 262.287C188.125 262.137 188.136 262.06 188.145 262.06C188.153 262.06 188.159 262.138 188.162 262.289C188.163 262.469 188.164 262.688 188.165 262.958C188.157 263.586 188.145 264.445 188.131 265.529C188.08 267.761 188.055 270.991 188.068 274.982C188.104 282.962 188.392 293.995 189.448 306.13C190.484 318.262 192.096 329.182 193.673 337.003C194.056 338.96 194.416 340.728 194.783 342.27C195.132 343.816 195.419 345.151 195.708 346.229C195.969 347.281 196.176 348.114 196.327 348.724C196.386 348.987 196.436 349.201 196.475 349.377C196.506 349.524 196.518 349.602 196.51 349.603Z" fill="#040606"/>
<path d="M336.648 248.703C336.655 248.7 336.698 248.786 336.776 248.959C336.862 249.159 336.97 249.413 337.108 249.732C337.402 250.448 337.814 251.449 338.339 252.724C338.6 253.376 338.908 254.095 339.209 254.896C339.483 255.707 339.781 256.587 340.1 257.531C340.419 258.479 340.76 259.491 341.121 260.563C341.42 261.657 341.735 262.811 342.065 264.023C344.859 273.702 346.28 287.695 345.474 303.015C344.649 318.341 342.867 332.115 341.759 342.094C341.185 347.057 340.72 351.084 340.393 353.909C340.227 355.276 340.096 356.351 340.004 357.118C339.957 357.463 339.919 357.738 339.89 357.952C339.862 358.14 339.843 358.235 339.835 358.234C339.827 358.234 339.829 358.137 339.84 357.948C339.857 357.732 339.879 357.455 339.906 357.108C339.977 356.338 340.077 355.261 340.203 353.888C340.468 351.092 340.881 347.05 341.416 342.056C342.435 332.067 344.163 318.287 344.986 302.992C345.788 287.704 344.429 273.781 341.731 264.111C341.413 262.9 341.11 261.745 340.824 260.653C340.476 259.579 340.148 258.566 339.841 257.618C339.536 256.671 339.252 255.789 338.989 254.975C338.703 254.171 338.408 253.449 338.161 252.793C337.673 251.504 337.291 250.493 337.016 249.771C336.898 249.444 336.803 249.183 336.73 248.979C336.668 248.799 336.64 248.706 336.648 248.703Z" fill="#040606"/>
<path d="M134.34 351.579C134.205 351.58 134.048 344.411 133.989 335.568C133.93 326.722 133.992 319.552 134.127 319.551C134.262 319.551 134.419 326.718 134.478 335.565C134.536 344.407 134.475 351.578 134.34 351.579Z" fill="#040606"/>
<path d="M269.758 394.968C269.75 394.966 269.759 394.832 269.785 394.574C269.817 394.293 269.86 393.912 269.915 393.426C270.043 392.393 270.225 390.912 270.458 389.019C270.58 388.06 270.715 386.998 270.863 385.836C270.987 384.668 271.122 383.401 271.265 382.041C271.539 379.317 271.916 376.221 272.162 372.783C272.303 371.065 272.451 369.265 272.605 367.391C272.755 365.516 272.839 363.561 272.967 361.539C273.247 357.496 273.363 353.167 273.527 348.614C273.735 339.505 273.702 329.483 273.231 318.978C272.715 308.471 271.81 298.488 270.749 289.437C270.159 284.919 269.638 280.62 268.98 276.621C268.663 274.62 268.396 272.68 268.071 270.828C267.742 268.977 267.427 267.199 267.126 265.502C266.558 262.102 265.893 259.055 265.365 256.369C265.094 255.029 264.842 253.78 264.609 252.629C264.354 251.487 264.119 250.441 263.908 249.498C263.498 247.636 263.178 246.179 262.954 245.163C262.854 244.684 262.776 244.309 262.718 244.032C262.667 243.777 262.646 243.645 262.654 243.643C262.662 243.641 262.7 243.769 262.767 244.021C262.836 244.295 262.93 244.666 263.05 245.139C263.295 246.152 263.645 247.601 264.094 249.456C264.317 250.397 264.566 251.44 264.837 252.578C265.082 253.728 265.347 254.975 265.633 256.313C266.186 258.996 266.875 262.04 267.466 265.439C267.777 267.136 268.103 268.913 268.442 270.764C268.778 272.617 269.054 274.557 269.38 276.558C270.057 280.559 270.593 284.861 271.196 289.383C272.283 298.441 273.202 308.435 273.719 318.954C274.19 329.473 274.21 339.507 273.977 348.627C273.801 353.184 273.67 357.517 273.371 361.563C273.234 363.586 273.14 365.544 272.981 367.42C272.816 369.294 272.658 371.095 272.507 372.813C272.238 376.253 271.837 379.348 271.537 382.072C271.379 383.431 271.231 384.697 271.095 385.865C270.931 387.025 270.782 388.086 270.647 389.043C270.375 390.932 270.161 392.408 270.013 393.44C269.937 393.923 269.878 394.301 269.835 394.581C269.792 394.838 269.767 394.969 269.758 394.968Z" fill="#040606"/>
<path d="M289.594 293.476C289.589 293.473 289.653 293.462 289.783 293.445C289.933 293.426 290.124 293.404 290.368 293.374C290.913 293.314 291.683 293.227 292.674 293.117C294.731 292.898 297.701 292.58 301.461 292.179C309.079 291.389 319.889 290.268 332.762 288.933L332.993 288.91L333 289.144C333.242 298.637 333.517 309.369 333.808 320.756L333.811 320.855L333.742 320.928C332.543 322.22 331.259 323.601 329.966 324.993C325.242 330.072 320.658 335.002 316.298 339.69L316.177 339.819L316.02 339.74C307.628 335.568 299.847 331.699 292.96 328.273L292.86 328.223L292.849 328.113C291.846 317.628 291.017 308.955 290.436 302.878C290.159 299.886 289.942 297.534 289.791 295.905C289.724 295.125 289.671 294.52 289.632 294.086C289.6 293.678 289.594 293.476 289.594 293.476C289.594 293.476 289.632 293.703 289.681 294.124C289.73 294.566 289.8 295.183 289.889 295.976C290.064 297.614 290.318 299.978 290.639 302.985C291.268 309.026 292.164 317.648 293.248 328.072L293.138 327.912C300.035 331.318 307.826 335.166 316.229 339.315L315.951 339.367C320.308 334.675 324.888 329.742 329.609 324.659C330.902 323.267 332.185 321.887 333.386 320.595L333.321 320.768C333.049 309.38 332.793 298.648 332.566 289.155L332.805 289.366C319.981 290.605 309.21 291.647 301.621 292.38C297.835 292.734 294.845 293.015 292.774 293.208C291.764 293.299 290.978 293.369 290.421 293.419C290.166 293.439 289.967 293.455 289.81 293.468C289.671 293.477 289.599 293.48 289.594 293.476Z" fill="#040606"/>
<path d="M333.055 300.099C333.059 300.133 332.48 300.241 331.43 300.41C330.38 300.581 328.855 300.794 326.969 301.036C323.196 301.524 317.97 302.077 312.196 302.627C306.461 303.19 301.272 303.698 297.414 304.076C295.584 304.269 294.074 304.428 292.938 304.548C291.88 304.657 291.293 304.703 291.289 304.669C291.284 304.636 291.862 304.527 292.914 304.359C293.964 304.188 295.488 303.975 297.374 303.732C301.147 303.245 306.373 302.692 312.15 302.14C317.883 301.578 323.071 301.07 326.93 300.692C328.759 300.499 330.269 300.34 331.406 300.221C332.464 300.111 333.05 300.066 333.055 300.099Z" fill="#040606"/>
<path d="M343.694 356.289C343.557 354.618 343.42 352.948 343.283 351.278L343.759 355.986C343.737 356.087 343.716 356.188 343.694 356.289Z" fill="#A7A9A8"/>
<path d="M343.759 355.987L343.283 351.279C342.924 346.904 342.566 342.529 342.206 338.155C343.3 328.628 344.754 316.415 345.475 303.015C345.767 297.459 345.767 292.076 345.514 287.012C345.348 280.809 344.545 275.139 343.596 270.454C343.185 268.338 342.719 266.352 342.206 264.515C342.055 263.951 341.907 263.416 341.762 262.91C341.542 262.1 341.328 261.316 341.122 260.563C340.775 259.533 340.446 258.558 340.139 257.642C349.39 272.744 350.957 288.789 351.794 305.352C352.638 322.047 347.24 339.618 343.759 355.987ZM343.369 323.577C343.964 316.677 344.649 307.974 345.132 299.544C345.096 300.685 345.048 301.835 344.987 302.992C344.594 310.28 343.997 317.223 343.369 323.577Z" fill="#2646B9"/>
<path d="M342.206 338.155C342.177 337.796 342.148 337.437 342.118 337.078C342.118 337.078 342.684 331.522 343.369 323.577C343.997 317.223 344.595 310.28 344.987 302.992C345.048 301.835 345.096 300.685 345.132 299.545C345.259 297.337 345.372 295.15 345.465 293.017C345.555 290.972 345.566 288.965 345.514 287.012C345.767 292.076 345.768 297.459 345.475 303.015C344.754 316.415 343.3 328.628 342.206 338.155ZM343.596 270.454C343.147 268.239 342.667 266.242 342.206 264.515C342.72 266.352 343.185 268.338 343.596 270.454ZM341.762 262.91C340.747 259.359 339.926 257.297 339.926 257.297C339.997 257.412 340.068 257.527 340.139 257.642C340.447 258.558 340.775 259.533 341.122 260.563C341.328 261.316 341.542 262.1 341.762 262.91Z" fill="#040606"/>
<path d="M128.125 301.322C127.498 300.238 126.773 299.071 125.59 298.663C124.272 298.208 122.852 298.845 121.605 299.467C110.253 305.128 98.9022 310.791 87.5507 316.454C85.3156 317.568 82.886 318.894 82.0387 321.247C80.9551 324.257 82.9318 327.43 84.8108 330.016C87.9496 334.337 91.7003 339.032 97 339.643L126.28 319.523C129.861 318.995 132.086 315.004 131.948 311.381C131.809 307.758 129.943 304.458 128.125 301.322Z" fill="#D7DFFF"/>
<path d="M131.822 313.616C131.833 313.628 131.73 313.741 131.523 313.945C131.27 314.184 130.967 314.473 130.602 314.819C129.797 315.573 128.605 316.633 127.108 317.916C124.116 320.483 119.862 323.894 114.951 327.371C110.034 330.845 105.403 333.721 101.987 335.687C100.28 336.671 98.8835 337.442 97.9056 337.949C97.4571 338.178 97.0845 338.368 96.7757 338.526C96.5148 338.653 96.3731 338.713 96.3656 338.698C96.3572 338.683 96.482 338.595 96.7279 338.439C97.0244 338.26 97.3829 338.043 97.8127 337.782C98.8244 337.177 100.174 336.369 101.811 335.39C105.176 333.351 109.766 330.435 114.668 326.971C119.567 323.503 123.843 320.145 126.887 317.651C128.356 316.432 129.568 315.428 130.476 314.676C130.865 314.357 131.189 314.092 131.457 313.872C131.685 313.691 131.811 313.603 131.822 313.616Z" fill="#040606"/>
<path d="M278.934 261.072C278.161 261.072 277.496 260.381 276.992 259.747C272.23 253.745 268.078 247.259 264.621 240.42C265.296 241.029 266.253 241.861 267.456 242.874C270.04 245.08 273.849 248.04 278.102 251.799L278.335 252.004L278.456 251.719C280.034 247.981 281.723 243.774 283.434 239.316C286.66 230.896 289.287 223.156 290.905 217.466C291.709 214.62 292.273 212.293 292.613 210.674C292.625 210.605 292.638 210.539 292.651 210.473C294.879 219.921 291.559 230.525 288.131 239.608C285.668 246.134 283.203 252.661 280.74 259.188C280.441 259.982 280.013 260.888 279.181 261.049C279.098 261.065 279.015 261.072 278.934 261.072ZM280.563 245.331C284.49 234.618 288.722 222.937 292.019 212.232C291.649 213.643 291.169 215.377 290.574 217.369C288.874 223.021 286.201 230.729 282.978 239.141C282.162 241.268 281.353 243.34 280.563 245.331Z" fill="#2646B9"/>
<path d="M278.333 252.004L278.1 251.799C273.847 248.04 270.038 245.08 267.454 242.874C266.251 241.861 265.294 241.029 264.619 240.42C264.586 240.353 264.552 240.287 264.52 240.221C268.56 243.656 274.208 248.196 278.248 251.632C279 249.58 279.774 247.476 280.56 245.331C281.351 243.34 282.16 241.268 282.976 239.141C286.199 230.729 288.872 223.021 290.572 217.369C291.167 215.377 291.647 213.643 292.017 212.232C292.217 211.583 292.413 210.938 292.606 210.297C292.62 210.355 292.634 210.415 292.649 210.473C292.635 210.539 292.623 210.606 292.611 210.674C292.271 212.293 291.707 214.62 290.903 217.466C289.285 223.156 286.658 230.896 283.432 239.316C281.721 243.774 280.032 247.981 278.454 251.719L278.333 252.004Z" fill="#040606"/>
<path d="M229.258 65.2533C241.425 61.7341 252.869 65.2834 264.122 71.1014C275.375 76.9204 284.448 86.6009 290.325 97.8392C296.515 109.676 299.254 123.474 297.013 136.646C294.772 149.82 287.343 162.226 276.207 169.579C260.998 179.62 240.037 179.097 224.366 169.798C208.694 160.5 198.398 143.354 195.659 125.313C193.771 112.884 195.306 99.776 201.098 88.6232C206.89 77.4705 217.126 68.467 229.258 65.2533Z" fill="#17282F"/>
<path d="M269.311 103.515C266.959 98.9664 267.063 93.578 265.776 88.6203C262.941 77.7026 253.012 69.817 242.202 66.6607C232.146 63.7254 220.518 65.933 209.375 70.9913C201.736 74.4579 194.78 79.7823 190.223 86.8348C184.175 96.1946 183.07 108.573 187.364 118.859L243.098 104.165C248.901 107.96 254.838 111.817 261.55 113.539C263.52 114.045 265.614 114.356 267.572 113.813C269.532 113.27 271.318 111.69 271.568 109.67C271.842 107.461 270.332 105.491 269.311 103.515Z" fill="#17282F"/>
<path d="M282.608 202.526L268.22 101.147C267.585 96.3522 265.416 91.4706 260.595 91.6935L209.933 86.8025C194.06 87.5368 186.61 108.396 188.015 124.255C189.577 141.873 192.178 163.322 196.226 176.027C204.366 201.574 224.903 201.842 224.903 201.842C224.895 201.753 226.152 206.917 227.712 216.413L260.557 238.297L282.608 202.526Z" fill="#F9A78D"/>
<path d="M200.244 143.532C200.451 145.316 202.13 146.609 203.992 146.426C205.85 146.244 207.193 144.654 206.986 142.87C206.777 141.088 205.099 139.792 203.241 139.975C201.378 140.158 200.036 141.75 200.244 143.532Z" fill="#17282F"/>
<path d="M194.331 134.654C194.814 135.028 197.066 132.758 200.674 132.215C204.269 131.622 207.2 133.076 207.524 132.573C207.686 132.348 207.142 131.624 205.862 130.958C204.6 130.295 202.541 129.777 200.296 130.13C198.051 130.486 196.288 131.604 195.331 132.617C194.353 133.639 194.097 134.489 194.331 134.654Z" fill="#17282F"/>
<path d="M233.586 138.103C233.792 139.887 235.471 141.181 237.333 140.997C239.191 140.814 240.533 139.225 240.326 137.441C240.119 135.66 238.439 134.363 236.581 134.546C234.718 134.728 233.377 136.322 233.586 138.103Z" fill="#17282F"/>
<path d="M228.629 129.869C229.113 130.242 231.368 127.973 234.974 127.43C238.569 126.837 241.499 128.29 241.824 127.788C241.984 127.563 241.445 126.838 240.161 126.174C238.898 125.509 236.839 124.991 234.595 125.344C232.351 125.701 230.587 126.818 229.629 127.832C228.653 128.854 228.396 129.704 228.629 129.869Z" fill="#17282F"/>
<path d="M220.879 158.703C220.865 158.495 218.564 158.451 214.861 158.54C213.925 158.585 213.025 158.537 212.774 157.93C212.455 157.295 212.689 156.243 212.972 155.102C213.497 152.736 214.047 150.257 214.625 147.659C216.882 137.078 218.367 128.434 217.941 128.346C217.515 128.259 215.338 136.765 213.081 147.346C212.547 149.952 212.035 152.436 211.549 154.813C211.36 155.914 210.942 157.196 211.623 158.507C211.977 159.159 212.729 159.556 213.343 159.625C213.962 159.715 214.481 159.646 214.94 159.603C218.626 159.241 220.897 158.911 220.879 158.703Z" fill="#17282F"/>
<path d="M224.904 201.843C224.904 201.843 242.658 200.289 258.477 187.136C258.477 187.136 250.285 207.676 226.546 209.743L224.904 201.843Z" fill="#F57F62"/>
<path d="M223.731 167.179C224.766 165.263 226.895 163.971 229.188 163.869C230.779 163.799 232.476 164.313 233.621 165.445C234.767 166.575 235.241 168.359 234.563 169.708C233.798 171.228 231.813 171.855 230.017 171.629C228.221 171.401 226.567 170.493 224.988 169.578C224.552 169.324 224.104 169.058 223.795 168.666C223.486 168.275 223.349 167.722 223.595 167.322" fill="#F57F62"/>
<path d="M231.874 159.579C231.282 159.635 231.873 163.557 228.945 166.855C226.028 170.158 221.787 170.357 221.84 170.909C221.823 171.164 222.886 171.529 224.654 171.307C226.391 171.102 228.829 170.16 230.619 168.144C232.404 166.125 232.936 163.712 232.824 162.083C232.723 160.421 232.138 159.516 231.874 159.579Z" fill="#17282F"/>
<path d="M227.617 119.073C228.121 120.001 231.653 118.985 235.96 118.849C240.268 118.626 243.869 119.344 244.296 118.378C244.482 117.917 243.747 117.084 242.222 116.344C240.709 115.604 238.39 115.035 235.806 115.14C233.224 115.25 230.96 116.01 229.515 116.874C228.058 117.739 227.393 118.63 227.617 119.073Z" fill="#17282F"/>
<path d="M192.97 118.693C193.729 119.415 196.083 118.185 199.066 117.687C202.029 117.086 204.667 117.394 205.118 116.447C205.31 115.992 204.787 115.231 203.563 114.622C202.355 114.015 200.437 113.661 198.393 114.037C196.351 114.416 194.685 115.433 193.775 116.432C192.848 117.436 192.63 118.335 192.97 118.693Z" fill="#17282F"/>
<path d="M277.515 94.8317C270.682 80.3195 245.963 62.2928 230.275 65.5178L207.008 84.0945C209.688 92.5244 217.343 99.1519 226.056 100.588C230.709 101.354 236.145 101.009 239.316 104.506C242.555 108.077 241.731 114.018 244.798 117.738C249.049 122.892 258.588 121.347 262.025 127.078C263.528 129.582 263.35 132.837 264.897 135.314C266.957 138.614 276.426 141.882 279.941 140.225C283.458 138.568 282.635 132.305 283.398 128.863C284.702 122.982 283.47 120.188 282.377 117.146C279.791 109.942 280.776 101.755 277.515 94.8317Z" fill="#17282F"/>
<path d="M269.524 144.773C269.232 142.822 270.78 137.882 272.657 137.287C277.667 135.7 286.981 134.699 289.057 147.744C291.895 165.577 273.439 164.753 273.325 164.247C273.238 163.851 270.535 151.508 269.524 144.773Z" fill="#F9A78D"/>
<path d="M277.686 156.622C277.756 156.552 278.032 156.789 278.593 156.947C279.142 157.099 280.047 157.121 280.918 156.625C282.689 155.633 283.797 152.389 283.372 149.161C283.159 147.53 282.574 146.039 281.796 144.85C281.045 143.633 280.058 142.856 279.084 142.839C278.108 142.771 277.528 143.446 277.389 143.983C277.23 144.52 277.4 144.858 277.31 144.903C277.268 144.956 276.881 144.665 276.908 143.906C276.925 143.541 277.066 143.087 277.429 142.677C277.802 142.26 278.401 141.984 279.073 141.949C280.461 141.825 281.897 142.893 282.751 144.197C283.682 145.494 284.379 147.165 284.617 148.996C285.075 152.607 283.774 156.263 281.319 157.419C280.12 157.946 279.014 157.735 278.408 157.4C277.787 157.049 277.63 156.664 277.686 156.622Z" fill="#F57F62"/>
<path d="M211.593 78.084C210.771 85.57 200.757 96.184 196.539 102.417C188.492 114.31 187.07 118.117 189.898 142.343C184.574 134.469 180.296 126.647 179.565 117.165C178.834 107.683 181.237 97.8285 187.023 90.2889C192.807 82.7484 202.106 77.7878 211.593 78.084Z" fill="#17282F"/>
<path d="M254.108 52.5829C257.891 48.4309 263.287 45.7316 268.917 44.3241C276.945 42.3158 285.749 42.8592 293.057 46.3549C300.365 49.8516 306.004 56.3926 307.509 63.9303C309.013 71.468 306.111 79.8302 299.736 84.8378C303.792 88.8243 308.938 91.8443 314.574 93.546C313.051 95.8279 310.243 97.1668 307.412 97.6472C304.582 98.1267 301.688 97.8588 298.839 97.5889C300.673 100.418 303.639 102.586 307.038 103.582C302.462 104.76 297.566 104.39 293.061 103.13C288.558 101.87 284.4 99.7552 280.424 97.4423C266.697 89.4524 259.125 82.4619 249.85 70.1291C248.605 64.8827 250.326 56.7339 254.108 52.5829Z" fill="#17282F"/>
<path d="M283.704 90.2588C273.63 75.5153 260.804 67.6195 249.191 65.1683L283.704 90.2588Z" fill="#17282F"/>
<path d="M249.191 65.1686C249.184 65.2044 249.77 65.3811 250.836 65.6688C251.895 65.9697 253.424 66.4323 255.263 67.1327C258.944 68.513 263.846 70.981 268.636 74.615C273.426 78.2508 277.207 82.2194 279.725 85.2516C280.966 86.7851 281.972 88.0271 282.62 88.9221C283.289 89.8022 283.674 90.2798 283.704 90.2591C283.734 90.2384 283.407 89.7213 282.789 88.8009C282.19 87.8663 281.226 86.5848 280.016 85.0128C277.56 81.9044 273.791 77.8587 268.956 74.189C264.122 70.5213 259.136 68.0786 255.393 66.7792C253.521 66.1183 251.966 65.7074 250.886 65.4676C249.801 65.241 249.199 65.1329 249.191 65.1686Z" fill="#33535F"/>
<path d="M295.725 102.834C295.72 102.825 295.642 102.851 295.495 102.907C295.318 102.977 295.104 103.064 294.844 103.169C294.28 103.417 293.428 103.737 292.327 104.125C290.117 104.872 286.825 105.748 282.663 106.1C278.506 106.461 273.496 106.249 268.08 105.181C262.656 104.133 256.859 102.232 250.944 99.8353C245.034 97.417 239.462 94.9358 234.497 92.4979C229.538 90.0448 225.221 87.5345 221.798 85.1294C218.364 82.7413 215.806 80.5073 214.121 78.8855C213.262 78.0882 212.644 77.4225 212.211 76.9815C212.012 76.7822 211.849 76.6186 211.715 76.4842C211.601 76.3742 211.539 76.3206 211.532 76.3272C211.525 76.3337 211.574 76.3986 211.674 76.5208C211.798 76.6647 211.948 76.8405 212.132 77.0539C212.54 77.5193 213.137 78.2104 213.976 79.0331C215.623 80.7076 218.157 82.997 221.583 85.4388C224.995 87.8946 229.314 90.452 234.279 92.937C239.252 95.4097 244.817 97.9031 250.746 100.33C256.679 102.734 262.517 104.633 267.987 105.664C273.452 106.714 278.509 106.888 282.696 106.475C286.89 106.073 290.194 105.132 292.395 104.32C293.493 103.901 294.335 103.548 294.887 103.268C295.14 103.143 295.348 103.04 295.517 102.956C295.658 102.883 295.729 102.842 295.725 102.834Z" fill="#33535F"/>
<path d="M242.548 191.374L240.836 188.026C240.955 187.966 252.737 181.901 257.27 178.086C267.949 169.098 277.772 154.739 277.87 154.594L280.972 156.712C280.56 157.317 270.766 171.638 259.685 180.966C254.828 185.054 243.046 191.117 242.548 191.374Z" fill="#33535F"/>
<path d="M251.321 180.986C251.321 180.986 235.201 188.182 235.201 189.781C235.201 191.379 237.755 194.578 239.67 194.418C241.585 194.258 247.12 191.139 248.079 189.859C249.036 188.58 250.836 185.293 252.751 183.695L251.321 180.986Z" fill="#17282F"/>
<path d="M280.851 132.599L277.101 132.422C277.108 132.264 277.759 116.466 271.598 100.566C263.453 79.5491 247.798 68.2618 225.067 67.017C223.2 66.9079 221.127 67.0649 218.887 67.4401L220.529 65.8878C221.326 65.1356 222.251 64.533 223.261 64.108C224.642 63.5269 226.149 63.2994 227.642 63.4292C256.345 65.9188 269.308 84.1947 275.139 99.3142C281.554 115.947 280.882 131.926 280.851 132.599Z" fill="#33535F"/>
<path d="M290.872 149.637C290.872 159.096 285.546 166.764 278.978 166.764C272.409 166.764 267.084 159.096 267.084 149.637C267.084 140.177 272.409 132.509 278.978 132.509C285.546 132.509 290.872 140.177 290.872 149.637Z" fill="#33535F"/>
<path d="M290.873 149.637C290.864 149.637 290.853 149.556 290.839 149.4C290.826 149.215 290.81 148.986 290.79 148.705C290.773 148.094 290.671 147.197 290.51 146.051C290.113 143.801 289.333 140.403 286.841 137.095C286.238 136.262 285.461 135.508 284.607 134.792C283.711 134.14 282.731 133.486 281.578 133.149C280.444 132.803 279.198 132.621 277.937 132.801C276.682 132.98 275.438 133.447 274.301 134.163C272.039 135.628 270.25 137.995 269.102 140.708C267.914 143.418 267.364 146.497 267.329 149.635C267.363 152.774 267.913 155.853 269.102 158.564C270.249 161.278 272.039 163.645 274.301 165.111C275.439 165.826 276.682 166.294 277.938 166.473C279.198 166.653 280.445 166.471 281.579 166.125C282.732 165.787 283.712 165.134 284.608 164.481C285.461 163.765 286.239 163.011 286.842 162.178C289.334 158.87 290.113 155.473 290.51 153.223C290.671 152.076 290.773 151.18 290.79 150.569C290.81 150.288 290.826 150.059 290.839 149.874C290.853 149.717 290.864 149.637 290.873 149.637C290.881 149.637 290.886 149.717 290.889 149.874C290.889 150.06 290.889 150.289 290.889 150.572C290.903 151.187 290.831 152.091 290.698 153.251C290.355 155.528 289.626 158.977 287.117 162.388C286.508 163.247 285.718 164.03 284.843 164.777C283.922 165.461 282.909 166.146 281.706 166.51C280.521 166.882 279.21 167.081 277.884 166.9C276.561 166.721 275.25 166.235 274.06 165.493C271.692 163.972 269.845 161.532 268.662 158.755C267.439 155.979 266.875 152.836 266.84 149.635C266.875 146.435 267.44 143.293 268.663 140.517C269.846 137.741 271.692 135.302 274.06 133.781C275.25 133.039 276.56 132.553 277.883 132.374C279.21 132.193 280.52 132.392 281.705 132.763C282.908 133.127 283.921 133.813 284.842 134.497C285.717 135.243 286.507 136.026 287.116 136.884C289.626 140.295 290.355 143.745 290.698 146.023C290.831 147.183 290.903 148.087 290.889 148.701C290.889 148.984 290.889 149.213 290.889 149.399C290.886 149.556 290.881 149.637 290.873 149.637Z" fill="#17282F"/>
<path d="M288.379 148.674C288.379 154.696 284.989 159.577 280.808 159.577C276.626 159.577 273.236 154.696 273.236 148.674C273.236 142.653 276.626 137.772 280.808 137.772C284.989 137.772 288.379 142.653 288.379 148.674Z" fill="#33535F"/>
<path d="M288.379 148.674C288.324 148.676 288.342 147.851 288.114 146.396C287.853 144.969 287.346 142.816 285.764 140.728C284.977 139.705 283.877 138.715 282.44 138.249C281.726 138.033 280.946 137.92 280.155 138.035C279.368 138.148 278.588 138.443 277.874 138.893C276.454 139.816 275.325 141.309 274.602 143.024C273.851 144.738 273.503 146.686 273.481 148.672C273.503 150.659 273.85 152.608 274.601 154.322C275.324 156.038 276.453 157.532 277.874 158.455C278.588 158.905 279.368 159.2 280.155 159.314C280.946 159.427 281.727 159.314 282.44 159.099C283.877 158.632 284.977 157.642 285.764 156.619C287.346 154.532 287.853 152.379 288.114 150.951C288.342 149.497 288.324 148.672 288.379 148.674C288.396 148.674 288.405 148.878 288.407 149.27C288.422 149.662 288.382 150.239 288.302 150.98C288.093 152.434 287.639 154.639 286.038 156.829C285.241 157.901 284.105 158.964 282.567 159.485C281.803 159.726 280.958 159.856 280.101 159.74C279.247 159.626 278.4 159.314 277.633 158.836C276.106 157.858 274.921 156.292 274.161 154.513C273.376 152.733 273.014 150.722 272.992 148.672C273.015 146.624 273.377 144.613 274.161 142.834C274.921 141.056 276.106 139.489 277.633 138.512C278.4 138.035 279.247 137.722 280.1 137.608C280.958 137.492 281.803 137.621 282.566 137.863C284.105 138.384 285.241 139.446 286.038 140.518C287.639 142.708 288.093 144.913 288.302 146.368C288.382 147.11 288.422 147.686 288.407 148.078C288.405 148.469 288.396 148.674 288.379 148.674Z" fill="#17282F"/>
<path d="M286.777 148.674C286.777 153.006 284.339 156.517 281.331 156.517C278.323 156.517 275.885 153.006 275.885 148.674C275.885 144.343 278.323 140.831 281.331 140.831C284.339 140.831 286.777 144.343 286.777 148.674Z" fill="#33535F"/>
<path d="M286.778 148.674C286.729 148.675 286.733 148.082 286.561 147.039C286.365 146.016 285.994 144.475 284.858 142.988C284.294 142.259 283.508 141.557 282.488 141.229C281.478 140.888 280.262 141.032 279.256 141.691C277.217 143.04 276.133 145.859 276.13 148.673C276.133 151.488 277.217 154.308 279.256 155.657C280.262 156.316 281.479 156.46 282.488 156.12C283.508 155.791 284.294 155.089 284.858 154.36C285.994 152.873 286.365 151.331 286.561 150.309C286.733 149.266 286.729 148.673 286.778 148.674C286.795 148.674 286.806 148.821 286.812 149.103C286.827 149.386 286.803 149.802 286.749 150.337C286.606 151.387 286.287 152.981 285.133 154.57C284.558 155.349 283.736 156.123 282.615 156.505C282.059 156.683 281.441 156.778 280.815 156.695C280.192 156.613 279.574 156.385 279.014 156.038C277.9 155.327 277.04 154.19 276.489 152.902C275.919 151.612 275.657 150.156 275.641 148.673C275.657 147.191 275.919 145.735 276.489 144.446C277.04 143.158 277.9 142.022 279.014 141.311C279.574 140.964 280.191 140.736 280.815 140.654C281.441 140.571 282.059 140.666 282.614 140.843C283.736 141.226 284.557 142 285.132 142.777C286.286 144.367 286.606 145.961 286.749 147.011C286.803 147.546 286.827 147.963 286.812 148.245C286.806 148.527 286.795 148.674 286.778 148.674Z" fill="#17282F"/>
</g>
<defs>
<clipPath id="clip0_703_169091">
<rect width="408" height="416.664" fill="white"/>
</clipPath>
</defs>
</svg>
