<svg width="72" height="72" viewBox="0 0 72 72" fill="none" xmlns="http://www.w3.org/2000/svg">
<g clip-path="url(#clip0_703_157768)">
<path d="M21.2344 29.6719H29.6719V33.8906C27.1086 33.8906 23.744 33.8906 21.2344 33.8906V46.5469H33.8906V42.3281H25.4531V38.1094H33.8906V25.4531H21.2344V29.6719Z" fill="white"/>
<path d="M46.5469 46.5469H50.7656C50.7656 45.6131 50.7656 26.3876 50.7656 25.4531H46.5469V33.8906H42.3281V25.4531H38.1094V38.1094H46.5469V46.5469Z" fill="white"/>
<path d="M62.1501 11.466L63.425 5.09162L59.2881 4.26418L58.5222 8.09368C23.0078 -18.7799 -19.5969 27.1325 9.8501 60.5351L8.57519 66.9094L12.712 67.7367L13.4778 63.9073C48.9921 90.7808 91.5969 44.8685 62.1501 11.466ZM36 67.6411C28.763 67.6411 22.0871 65.197 16.7504 61.0934L20.0067 60.4422L19.1792 56.3053L12.8711 57.5671C-12.7405 28.5407 23.8736 -11.8036 55.2497 10.9076L51.9936 11.5588L52.8209 15.6956L59.129 14.434C77.8804 34.2439 63.5514 67.7278 36 67.6411Z" fill="white"/>
<path d="M59.2031 36C59.2031 48.7942 48.7942 59.2031 36 59.2031V63.4219C51.1204 63.4219 63.4219 51.1204 63.4219 36H59.2031Z" fill="white"/>
<path d="M36 8.57812C20.8796 8.57812 8.57812 20.8796 8.57812 36H12.7969C12.7969 23.2058 23.2058 12.7969 36 12.7969V8.57812Z" fill="white"/>
</g>
<defs>
<clipPath id="clip0_703_157768">
<rect width="72" height="72" fill="white"/>
</clipPath>
</defs>
</svg>
