<svg width="14" height="14" viewBox="0 0 14 14" fill="none" xmlns="http://www.w3.org/2000/svg">
<path d="M8.02868 6.98413L13.8317 1.19666C13.9464 1.0631 14.0063 0.89131 13.9995 0.715608C13.9927 0.539906 13.9196 0.373235 13.795 0.248903C13.6703 0.12457 13.5032 0.0517322 13.327 0.0449456C13.1508 0.038159 12.9786 0.0979233 12.8447 0.212295L7.04168 5.99977L1.23868 0.205314C1.10687 0.0738535 0.928092 0 0.74168 0C0.555269 0 0.376493 0.0738535 0.24468 0.205314C0.112868 0.336774 0.0388162 0.515072 0.0388162 0.700984C0.0388162 0.886897 0.112868 1.0652 0.24468 1.19666L6.05468 6.98413L0.24468 12.7716C0.171403 12.8342 0.111889 12.9112 0.0698727 12.9978C0.0278564 13.0844 0.00424528 13.1788 0.000521634 13.2749C-0.00320201 13.3711 0.0130418 13.4669 0.048234 13.5565C0.0834262 13.6461 0.136807 13.7275 0.205025 13.7955C0.273244 13.8636 0.354827 13.9168 0.444654 13.9519C0.534482 13.987 0.630614 14.0032 0.727018 13.9995C0.823421 13.9958 0.918014 13.9722 1.00486 13.9303C1.0917 13.8884 1.16893 13.8291 1.23168 13.756L7.04168 7.96849L12.8447 13.756C12.9786 13.8703 13.1508 13.9301 13.327 13.9233C13.5032 13.9165 13.6703 13.8437 13.795 13.7194C13.9196 13.595 13.9927 13.4284 13.9995 13.2527C14.0063 13.077 13.9464 12.9052 13.8317 12.7716L8.02868 6.98413Z" fill="#585858"/>
</svg>
