<svg width="72" height="72" viewBox="0 0 72 72" fill="none" xmlns="http://www.w3.org/2000/svg">
<path d="M27.3299 4.26839C26.4419 1.79255 23.8458 0 21.2247 0C18.4375 0 16.0287 1.79761 15.12 4.29356H4.30749V15.0733C1.82574 15.9571 8.46057e-06 18.5604 8.46057e-06 21.186C8.46057e-06 23.9788 1.80381 26.3883 4.30749 27.2926V44.6058C1.8256 45.4898 8.46057e-06 48.0925 8.46057e-06 50.7184C-0.00435091 53.4734 1.67626 55.9897 4.30749 56.9265V67.7063H15.12C16.0287 70.2024 18.4374 72 21.2247 72C23.8459 72 26.4474 70.1823 27.3355 67.7064H44.6707C45.5794 70.2024 47.9881 72 50.7753 72C53.3969 72 55.9979 70.1824 56.8862 67.7064H67.6925V53.0887L65.5879 53.084C64.2064 52.9526 63.4506 52.1959 63.3204 50.814C63.4624 49.6283 64.207 48.4518 65.5879 48.4487L67.6925 48.4439V27.3135C70.1979 26.4298 72 24.018 72 21.1888C72 18.5565 70.2054 15.9233 67.6925 15.0511V4.26839H53.0467V6.37777C53.0467 7.60894 52.0502 8.5732 50.7783 8.5732C49.4 8.47308 48.6419 7.74127 48.5041 6.37777V4.26839H27.3299ZM6.45174 23.4548C5.22043 23.4346 4.21876 22.4167 4.21876 21.186C4.34659 19.8179 5.09106 19.0616 6.45202 18.9172L8.52624 18.8826V8.51231H18.9138L18.9529 6.44288C18.9761 5.21648 19.9953 4.21875 21.2247 4.21875C22.591 4.34503 23.3481 5.08655 23.4963 6.4433L23.536 8.51231H33.8583V15.0739C31.3408 15.9708 29.5508 18.5458 29.5508 21.1895C29.5508 23.8392 31.3353 26.4073 33.8583 27.3057V33.8259H27.3354C26.4474 31.3502 23.8456 29.5324 21.2245 29.5324C18.4374 29.5324 16.0286 31.33 15.1199 33.8259H8.52624V23.4892L6.45174 23.4548ZM23.536 63.4877L23.4963 65.5567C23.3481 66.9136 22.5909 67.6551 21.2247 67.7812C19.9953 67.7812 18.9762 66.7835 18.953 65.5571L18.9139 63.4877H8.52624V53.1174L6.45202 53.0828C5.0926 53.0601 4.35938 51.8926 4.21876 50.7184C4.34659 49.3502 5.09106 48.594 6.45202 48.4497L8.52624 48.4151V38.1094H18.952V36.0262L18.953 35.9754C18.9762 34.7489 19.9953 33.7513 21.2247 33.7513C22.5724 33.7513 23.3228 34.8666 23.4973 36.026V38.1094H33.8584V44.6058C31.2532 45.533 29.7134 48.0627 29.5508 50.8139C29.5508 53.5053 31.3536 56.0334 33.8584 56.9265V63.4875H23.536V63.4877ZM63.4738 44.5819C60.807 45.4996 59.0971 48.0359 59.1016 50.8139C59.1016 53.4639 60.9579 56.0842 63.4738 56.9505V63.4875H53.0868L53.0471 65.5566C52.8991 66.9136 52.1419 67.6551 50.7755 67.7811C49.5461 67.7811 48.527 66.7834 48.5038 65.557L48.4647 63.4875H38.1417V53.0887L36.0738 53.084C34.8663 53.0331 33.7696 52.2429 33.7696 50.814C33.921 49.3858 34.7179 48.5328 36.0738 48.4485L38.1417 48.4438V38.1094V38.0841H44.6712C45.5798 40.5806 47.9881 42.379 50.7753 42.379C53.4908 42.379 55.9668 40.6482 56.8861 38.0841H63.4738V44.5819ZM65.5831 23.4546H63.4738V33.8259L53.0501 33.83L53.0481 35.848C52.9486 37.0287 52.1536 38.1603 50.7755 38.1603C49.4505 38.1603 48.6398 37.0103 48.5037 35.8563L48.5027 33.8259H38.1417V23.4609L36.0373 23.456C34.7881 23.453 33.7717 22.4367 33.7697 21.1895C33.7721 19.6443 35.2665 18.9084 36.565 18.9149L38.1416 18.9112V8.48714H44.6383C45.5122 11.0002 48.1455 12.792 50.7781 12.792C53.6081 12.792 56.0207 10.9907 56.9049 8.48714H63.4736V18.9176H65.583C66.9469 19.0537 67.6796 19.8108 67.7811 21.1888C67.7813 22.4594 66.8157 23.4546 65.5831 23.4546Z" fill="white"/>
</svg>
