<svg width="72" height="72" viewBox="0 0 72 72" fill="none" xmlns="http://www.w3.org/2000/svg">
<g clip-path="url(#clip0_703_157799)">
<path d="M57.0825 25.5432C50.978 18.8009 47.3501 12.8656 45.3815 9.07368C43.2494 4.96648 42.5507 2.41962 42.5454 2.39935L41.9107 0L39.6441 1.011C39.3792 1.12909 33.1167 3.98503 29.6077 11.0029C27.8462 14.526 27.4939 18.4486 27.5087 21.1186C27.5173 22.6725 26.4164 24.0217 24.8911 24.3267C23.8216 24.5403 22.7216 24.2079 21.9497 23.436L17.7276 19.214L16.2752 21.2167C16.1245 21.4246 12.5751 26.3197 11.9289 27.2978C8.77344 32.0744 7.12808 37.6386 7.17073 43.3889C7.22787 51.0689 10.2481 58.2641 15.6749 63.6495C21.1015 69.0344 28.3199 72 36.0003 72C51.8972 71.9999 64.8302 59.0668 64.8302 43.1699C64.8304 37.4061 62.0064 30.9814 57.0825 25.5432ZM36.0004 67.7775C29.4416 67.7775 23.2796 65.2471 18.6494 60.6522C14.019 56.0573 11.4422 49.9152 11.3933 43.3575C11.3568 38.4485 12.7603 33.6999 15.4521 29.6253C15.7808 29.1279 17.0992 27.2886 18.2436 25.7014L18.9641 26.4219C20.7364 28.1942 23.2612 28.9589 25.7195 28.4672C29.2225 27.7666 31.7509 24.6664 31.7313 21.0955C31.7191 18.8856 31.9961 15.6685 33.3846 12.8912C35.0747 9.51113 37.6013 7.30207 39.357 6.07361C40.9449 10.1126 44.9702 18.4569 53.9526 28.3774C55.9536 30.5875 60.6079 36.4531 60.6079 43.1701C60.6079 56.7386 49.5689 67.7775 36.0004 67.7775Z" fill="white"/>
<path d="M40.2779 35.8213L27.0391 55.2087H31.7197L44.9586 35.8213H40.2779Z" fill="white"/>
<path d="M43.1047 44.6836C40.1689 44.6836 37.9531 46.65 37.9531 50.0844C37.9531 53.5464 40.1688 55.4851 43.1047 55.4851C46.0406 55.4851 48.2562 53.5464 48.2562 50.0844C48.2562 46.65 46.0404 44.6836 43.1047 44.6836ZM43.1047 52.4939C42.4954 52.4939 41.8861 51.9399 41.8861 50.0843C41.8861 48.2286 42.4954 47.6747 43.1047 47.6747C43.714 47.6747 44.3233 48.2286 44.3233 50.0843C44.3233 51.9399 43.714 52.4939 43.1047 52.4939Z" fill="white"/>
<path d="M34.0473 40.9446C34.0473 37.5104 31.8316 35.5439 28.8957 35.5439C25.9598 35.5439 23.7441 37.5104 23.7441 40.9446C23.7441 44.4066 25.9598 46.3455 28.8957 46.3455C31.8316 46.3455 34.0473 44.4066 34.0473 40.9446ZM27.6771 40.9446C27.6771 39.089 28.2864 38.535 28.8957 38.535C29.505 38.535 30.1143 39.089 30.1143 40.9446C30.1143 42.8003 29.505 43.3543 28.8957 43.3543C28.2864 43.3543 27.6771 42.8003 27.6771 40.9446Z" fill="white"/>
</g>
<defs>
<clipPath id="clip0_703_157799">
<rect width="72" height="72" fill="white"/>
</clipPath>
</defs>
</svg>
