<svg width="72" height="72" viewBox="0 0 72 72" fill="none" xmlns="http://www.w3.org/2000/svg">
<g clip-path="url(#clip0_703_157787)">
<path d="M35.9992 8.73828C32.9636 8.73828 30.4372 10.9612 29.9621 13.8646H23.8066V25.2804H26.313C28.8323 25.3762 28.8303 28.9876 26.313 29.0826H23.8066V40.4984H29.9621C31.1994 47.291 40.8015 47.2862 42.0362 40.4984H48.1916V29.0826H45.6853C43.166 28.9868 43.1679 25.3754 45.6853 25.2804H48.1916V13.8646H42.0362C41.5612 10.9612 39.0348 8.73828 35.9992 8.73828ZM43.9755 21.3072C38.1338 23.0518 38.1376 31.3133 43.9755 33.0555V36.282H37.9003V39.5071C37.8044 42.0264 34.193 42.0245 34.098 39.5071V36.282H28.0228V33.0555C33.8644 31.3109 33.8606 23.0495 28.0228 21.3072V18.0807H34.098V14.8556C34.1938 12.3363 37.8053 12.3383 37.9003 14.8556V18.0807H43.9755V21.3072Z" fill="white"/>
<path d="M35.9996 0C7.13233 0.241024 -3.65892 37.7269 20.5845 53.2803V63.0993H24.801V72H47.1982V63.0993H51.4146V53.2803C75.6694 37.7186 64.8492 0.233294 35.9996 0V0ZM42.982 67.7839H29.0171V63.0993H42.982V67.7839ZM47.1985 58.8831H24.8007V54.1987H47.1985V58.8831ZM57.2335 41.4005C55.1543 44.9151 52.2224 47.8725 48.7319 49.9824H23.2674C19.7769 47.8725 16.8449 44.915 14.7658 41.4005C5.01006 25.356 17.1945 3.97752 35.9999 4.21644C54.8024 3.9771 66.9919 25.3589 57.2335 41.4005Z" fill="white"/>
</g>
<defs>
<clipPath id="clip0_703_157787">
<rect width="72" height="72" fill="white"/>
</clipPath>
</defs>
</svg>
