<svg width="72" height="72" viewBox="0 0 72 72" fill="none" xmlns="http://www.w3.org/2000/svg">
<path d="M62.8594 5.69531H9.14062C4.10048 5.69531 0 9.7958 0 14.8359V47.836C0 52.8761 4.10048 56.9766 9.14062 56.9766H18.8558L15.8558 66.3047H56.1441L53.1442 56.9766H62.8594C67.8995 56.9766 72 52.8761 72 47.836V14.8359C72 9.7958 67.8995 5.69531 62.8594 5.69531ZM50.3557 62.0859H21.6442L23.2875 56.9766H48.7125L50.3557 62.0859ZM67.7812 47.836C67.7812 50.5499 65.5733 52.7579 62.8594 52.7579H9.14062C6.4267 52.7579 4.21875 50.5499 4.21875 47.836V14.8359C4.21875 12.122 6.4267 9.91406 9.14062 9.91406H62.8594C65.5733 9.91406 67.7812 12.122 67.7812 14.8359V47.836Z" fill="white"/>
<path d="M52.4529 17.3907H34.7342V28.711H29.8593V16.2422H10.6406V40.0546H21.1407V46.4296H38.8594V35.1093H45.5623V43.1719H61.3594V26.9532H52.4531V17.3907H52.4529ZM14.8594 35.8359V20.4609H25.6407V28.711H21.1407V35.836H14.8594V35.8359ZM34.6405 42.211H25.3593V32.9297H34.6405V42.211ZM38.9529 30.8907V21.6094H48.2342V26.9532H45.5622V30.8907H38.9529ZM57.1405 38.9531H49.7809V31.1719H57.1405V38.9531Z" fill="white"/>
</svg>
