<svg width="24" height="24" fill="none" xmlns="http://www.w3.org/2000/svg"><g clip-path="url(#a)"><path d="M24 5.538H0v1.846h24V5.538Zm-1.254-3.692H1.253A5.24 5.24 0 0 0 .234 3.692h23.53a5.24 5.24 0 0 0-1.018-1.846ZM24 9.23H0v1.846h24V9.23Zm0 3.693H0v1.846h24v-1.846Zm0 3.692H0v1.846h24v-1.846Zm-.236 3.693H.234a5.239 5.239 0 0 0 1.019 1.846h21.493a5.239 5.239 0 0 0 1.018-1.846Z" fill="#F5F5F5"/><path d="M18.75 0H5.25a5.24 5.24 0 0 0-3.996 1.846h21.493A5.238 5.238 0 0 0 18.751 0ZM24 7.385H0V9.23h24V7.385Zm0-2.135c0-.542-.082-1.065-.235-1.558H.235A5.247 5.247 0 0 0 0 5.25v.289h24V5.25Zm0 5.827H0v1.846h24v-1.846Zm0 7.673v-.288H0v.288c0 .543.082 1.066.235 1.558h23.53A5.249 5.249 0 0 0 24 18.75Zm-1.253 3.404H1.254A5.238 5.238 0 0 0 5.25 24h13.5c1.6 0 3.034-.716 3.996-1.846ZM24 14.77H0v1.846h24V14.77Z" fill="#FF4B55"/><path d="M12.923 0H5.25A5.25 5.25 0 0 0 0 5.25v7.673h12.923V0Z" fill="#41479B"/><path d="M1.395 2.018a.042.042 0 0 0 .065.047l.256-.183.256.183a.042.042 0 0 0 .065-.047l-.095-.3.253-.187a.042.042 0 0 0-.025-.076l-.314-.003-.054-.161a5.271 5.271 0 0 0-.386.373l.074.054-.095.3Zm.361 1.627.1.299.314.002c.04 0 .058.053.025.077l-.253.187.095.3a.042.042 0 0 1-.065.047l-.256-.183-.257.183a.042.042 0 0 1-.065-.047l.095-.3-.253-.187a.042.042 0 0 1 .025-.077l.315-.002.1-.299a.043.043 0 0 1 .08 0Zm0 2.762.1.299.314.002c.04 0 .058.052.025.077l-.253.186.095.3a.042.042 0 0 1-.065.048l-.256-.183-.257.183a.042.042 0 0 1-.065-.047l.095-.3-.253-.187a.042.042 0 0 1 .025-.077l.315-.002.1-.3a.043.043 0 0 1 .08 0Zm0 2.538.1.299.314.002c.04 0 .058.052.025.077l-.253.187.095.3a.042.042 0 0 1-.065.047l-.256-.183-.257.183a.042.042 0 0 1-.065-.047l.095-.3-.253-.187a.042.042 0 0 1 .025-.077l.315-.002.1-.299a.043.043 0 0 1 .08 0Zm0 2.31.1.298.314.003c.04 0 .058.052.025.076l-.253.187.095.3a.042.042 0 0 1-.065.047l-.256-.183-.257.183a.042.042 0 0 1-.065-.047l.095-.3-.253-.187a.042.042 0 0 1 .025-.076l.315-.003.1-.298a.043.043 0 0 1 .08 0Zm1.213-8.921.1.298.314.003c.04 0 .058.052.025.076l-.253.187.094.3a.042.042 0 0 1-.065.048l-.256-.183-.256.183a.042.042 0 0 1-.065-.048l.095-.3-.253-.187a.042.042 0 0 1 .025-.076l.314-.003.1-.298a.042.042 0 0 1 .08 0Zm0 2.762.1.299.314.002c.04 0 .058.053.025.077l-.253.187.095.3a.042.042 0 0 1-.066.047l-.256-.183-.256.183a.042.042 0 0 1-.065-.047l.095-.3-.253-.187a.042.042 0 0 1 .025-.077l.314-.002.1-.299a.043.043 0 0 1 .08 0Zm0 2.624.1.299.314.002c.04 0 .058.053.025.077l-.253.187.095.3a.042.042 0 0 1-.066.047l-.256-.183-.256.183a.042.042 0 0 1-.065-.047l.095-.3-.253-.187a.042.042 0 0 1 .025-.077l.314-.002.1-.299a.043.043 0 0 1 .08 0Zm0 2.358.1.298.314.003c.04 0 .058.052.025.076l-.253.187.095.3a.042.042 0 0 1-.066.048l-.256-.183-.256.183a.042.042 0 0 1-.065-.047l.095-.3-.253-.188a.042.042 0 0 1 .025-.076l.314-.003.1-.298a.043.043 0 0 1 .08 0ZM4.18 1.154l.1.299.314.002c.04 0 .058.052.025.077l-.253.186.094.3a.042.042 0 0 1-.065.048l-.256-.183-.256.183a.042.042 0 0 1-.065-.047l.095-.3-.253-.188a.042.042 0 0 1 .025-.076l.314-.002.1-.299a.043.043 0 0 1 .08 0Zm0 2.491.1.299.314.002c.04 0 .058.053.025.077l-.253.187.094.3a.042.042 0 0 1-.065.047l-.256-.183-.256.183a.042.042 0 0 1-.065-.047l.095-.3-.253-.187a.042.042 0 0 1 .025-.077l.314-.002.1-.299a.043.043 0 0 1 .08 0Zm0 2.762.1.299.314.002c.04 0 .058.052.025.077l-.253.186.094.3a.042.042 0 0 1-.065.048l-.256-.183-.256.183a.042.042 0 0 1-.065-.047l.095-.3-.253-.187a.042.042 0 0 1 .025-.077l.314-.002.1-.3a.043.043 0 0 1 .08 0Zm0 2.538.1.299.314.002c.04 0 .058.052.025.077l-.253.187.094.3a.042.042 0 0 1-.065.047l-.256-.183-.256.183a.042.042 0 0 1-.065-.047l.095-.3-.253-.187a.042.042 0 0 1 .025-.077l.314-.002.1-.299a.043.043 0 0 1 .08 0Zm0 2.31.1.298.314.003c.04 0 .058.052.025.076l-.253.187.094.3a.042.042 0 0 1-.065.047l-.256-.183-.256.183a.042.042 0 0 1-.065-.047l.095-.3-.253-.187a.042.042 0 0 1 .025-.076l.314-.003.1-.298a.043.043 0 0 1 .08 0Zm1.213-8.921.1.298.314.003c.04 0 .057.052.025.076l-.253.187.094.3a.042.042 0 0 1-.065.048l-.256-.183-.256.183a.042.042 0 0 1-.065-.048l.095-.3-.253-.187a.042.042 0 0 1 .025-.076l.314-.003.1-.298a.043.043 0 0 1 .08 0Zm0 2.762.1.299.314.002c.04 0 .057.053.025.077l-.253.187.094.3a.042.042 0 0 1-.065.047l-.256-.183-.256.183a.042.042 0 0 1-.065-.047l.095-.3-.253-.187a.042.042 0 0 1 .025-.077l.314-.002.1-.299a.043.043 0 0 1 .08 0Zm0 2.624.1.299.314.002c.04 0 .057.053.025.077l-.253.187.094.3a.042.042 0 0 1-.065.047l-.256-.183-.256.183a.042.042 0 0 1-.065-.047l.095-.3-.253-.187a.042.042 0 0 1 .025-.077l.314-.002.1-.299a.043.043 0 0 1 .08 0Zm0 2.358.1.298.314.003c.04 0 .057.052.025.076l-.253.187.094.3a.042.042 0 0 1-.065.048l-.256-.183-.256.183a.042.042 0 0 1-.065-.047l.095-.3-.253-.188a.042.042 0 0 1 .025-.076l.314-.003.1-.298a.043.043 0 0 1 .08 0Zm1.212-8.924.1.299.315.002c.04 0 .057.052.025.077l-.254.186.095.3a.042.042 0 0 1-.065.048l-.256-.183-.256.183a.042.042 0 0 1-.065-.047l.095-.3-.253-.188a.042.042 0 0 1 .025-.076l.314-.002.1-.299a.043.043 0 0 1 .08 0Zm0 2.491.1.299.315.002c.04 0 .057.053.024.077l-.253.187.095.3a.042.042 0 0 1-.065.047l-.256-.183-.256.183a.042.042 0 0 1-.065-.047l.095-.3-.253-.187a.042.042 0 0 1 .025-.077l.314-.002.1-.299a.042.042 0 0 1 .08 0Zm0 2.762.1.299.315.002c.04 0 .057.052.025.077l-.254.186.095.3a.042.042 0 0 1-.065.048l-.256-.183-.256.183a.042.042 0 0 1-.065-.047l.095-.3-.253-.187a.042.042 0 0 1 .025-.077l.314-.002.1-.3a.042.042 0 0 1 .08 0Zm0 2.538.1.299.315.002c.04 0 .057.052.025.077l-.254.187.095.3a.042.042 0 0 1-.065.047l-.256-.183-.256.183a.042.042 0 0 1-.065-.047l.095-.3-.253-.187a.042.042 0 0 1 .025-.077l.314-.002.1-.299a.042.042 0 0 1 .08 0Zm0 2.31.1.298.315.003c.04 0 .057.052.025.076l-.254.187.095.3a.042.042 0 0 1-.065.047l-.256-.183-.256.183a.042.042 0 0 1-.065-.047l.095-.3-.253-.187a.042.042 0 0 1 .025-.076l.314-.003.1-.298a.042.042 0 0 1 .08 0Zm1.213-8.921.1.298.315.003c.04 0 .057.052.024.076l-.253.187.095.3a.042.042 0 0 1-.065.048l-.256-.183-.256.183a.042.042 0 0 1-.065-.048l.095-.3-.253-.187a.042.042 0 0 1 .024-.076l.315-.003.1-.298a.042.042 0 0 1 .08 0Zm0 2.762.1.299.315.002c.04 0 .057.053.024.077l-.253.187.095.3a.042.042 0 0 1-.065.047l-.256-.183-.256.183a.042.042 0 0 1-.065-.047l.095-.3-.253-.187a.042.042 0 0 1 .024-.077l.315-.002.1-.299a.043.043 0 0 1 .08 0Zm0 2.624.1.299.315.002c.04 0 .057.053.024.077l-.253.187.095.3a.042.042 0 0 1-.065.047l-.256-.183-.256.183a.042.042 0 0 1-.065-.047l.095-.3-.253-.187a.042.042 0 0 1 .024-.077l.315-.002.1-.299a.042.042 0 0 1 .08 0Zm0 2.358.1.298.315.003c.04 0 .057.052.024.076l-.253.187.095.3a.042.042 0 0 1-.065.048l-.256-.183-.256.183a.042.042 0 0 1-.065-.047l.095-.3-.253-.188a.042.042 0 0 1 .024-.076l.315-.003.1-.298a.042.042 0 0 1 .08 0ZM9.03 1.154l.099.299.315.002c.04 0 .057.052.024.077l-.253.186.095.3a.042.042 0 0 1-.065.048l-.256-.183-.256.183a.042.042 0 0 1-.065-.047l.095-.3-.254-.188a.042.042 0 0 1 .025-.076l.315-.002.1-.299a.042.042 0 0 1 .08 0Zm0 2.491.099.299.315.002c.04 0 .057.053.024.077l-.253.187.095.3a.042.042 0 0 1-.065.047l-.256-.183-.256.183a.042.042 0 0 1-.065-.047l.095-.3-.254-.187a.042.042 0 0 1 .025-.077l.315-.002.1-.299a.042.042 0 0 1 .08 0Zm0 2.762.099.299.315.002c.04 0 .057.052.024.077l-.253.186.095.3a.042.042 0 0 1-.065.048l-.256-.183-.256.183a.042.042 0 0 1-.065-.047l.095-.3-.254-.187a.042.042 0 0 1 .025-.077l.315-.002.1-.3a.042.042 0 0 1 .08 0Zm0 2.538.099.299.315.002c.04 0 .057.052.024.077l-.253.187.095.3a.042.042 0 0 1-.065.047l-.256-.183-.256.183a.042.042 0 0 1-.065-.047l.095-.3-.254-.187a.042.042 0 0 1 .025-.077l.315-.002.1-.299a.042.042 0 0 1 .08 0Zm0 2.31.099.298.315.003c.04 0 .057.052.024.076l-.253.187.095.3a.042.042 0 0 1-.065.047l-.256-.183-.256.183a.042.042 0 0 1-.065-.047l.095-.3-.254-.187a.042.042 0 0 1 .025-.076l.315-.003.1-.298a.043.043 0 0 1 .08 0Zm1.212-8.921.1.298.314.003c.041 0 .058.052.025.076l-.253.187.095.3a.042.042 0 0 1-.065.048l-.256-.183-.256.183a.042.042 0 0 1-.065-.048l.095-.3-.254-.187a.042.042 0 0 1 .025-.076l.315-.003.1-.298a.043.043 0 0 1 .08 0Zm0 2.762.1.299.314.002c.041 0 .058.053.025.077l-.253.187.095.3a.042.042 0 0 1-.065.047l-.256-.183-.256.183a.042.042 0 0 1-.065-.047l.095-.3-.254-.187a.042.042 0 0 1 .025-.077l.315-.002.1-.299a.043.043 0 0 1 .08 0Zm0 2.624.1.299.314.002c.041 0 .058.053.025.077l-.253.187.095.3a.042.042 0 0 1-.065.047l-.256-.183-.256.183a.042.042 0 0 1-.065-.047l.095-.3-.254-.187a.042.042 0 0 1 .025-.077l.315-.002.1-.299a.042.042 0 0 1 .08 0Zm0 2.358.1.298.314.003c.041 0 .058.052.025.076l-.253.187.095.3a.042.042 0 0 1-.065.048l-.256-.183-.256.183a.042.042 0 0 1-.065-.047l.095-.3-.254-.188a.042.042 0 0 1 .025-.076l.315-.003.1-.298a.042.042 0 0 1 .08 0Zm1.213-8.924.1.299.314.002c.041 0 .058.052.025.077l-.253.186.095.3a.042.042 0 0 1-.065.048l-.256-.183-.256.183a.042.042 0 0 1-.065-.047l.095-.3-.254-.188a.042.042 0 0 1 .025-.076l.315-.002.1-.299c.012-.039.067-.039.08 0Zm0 2.491.1.299.314.002c.041 0 .058.053.025.077l-.253.187.095.3a.042.042 0 0 1-.065.047l-.256-.183-.256.183a.042.042 0 0 1-.065-.047l.095-.3-.254-.187a.042.042 0 0 1 .025-.077l.315-.002.1-.299a.043.043 0 0 1 .08 0Zm0 2.762.1.299.314.002c.041 0 .058.052.025.077l-.253.186.095.3a.042.042 0 0 1-.065.048l-.256-.183-.256.183a.042.042 0 0 1-.065-.047l.095-.3-.254-.187a.042.042 0 0 1 .025-.077l.315-.002.1-.3a.043.043 0 0 1 .08 0Zm0 2.538.1.299.314.002c.041 0 .058.052.025.077l-.253.187.095.3a.042.042 0 0 1-.065.047l-.256-.183-.256.183a.042.042 0 0 1-.065-.047l.095-.3-.254-.187a.042.042 0 0 1 .025-.077l.315-.002.1-.299a.043.043 0 0 1 .08 0Zm0 2.31.1.298.314.003c.041 0 .058.052.025.076l-.253.187.095.3a.042.042 0 0 1-.065.047l-.256-.183-.256.183a.042.042 0 0 1-.065-.047l.095-.3-.254-.187a.042.042 0 0 1 .025-.076l.315-.003.1-.298a.043.043 0 0 1 .08 0Z" fill="#F5F5F5"/></g><defs><clipPath id="a"><path fill="#fff" d="M0 0h24v24H0z"/></clipPath></defs></svg>